<svg width="266" height="181" viewBox="0 0 266 181" fill="none" xmlns="http://www.w3.org/2000/svg">
<path d="M16.625 0C7.46462 0 0 7.38809 0 16.4545V32.9091H266V16.4545C266 7.38809 258.552 0 249.375 0H16.625ZM0 82.2727V164.545C0 173.628 7.46462 181 16.625 181H249.375C258.552 181 266 173.628 266 164.545V82.2727H0ZM41.5625 115.182H74.8125C79.401 115.182 83.125 118.868 83.125 123.409C83.125 127.951 79.401 131.636 74.8125 131.636H41.5625C36.974 131.636 33.25 127.951 33.25 123.409C33.25 118.868 36.974 115.182 41.5625 115.182Z" fill="black" fill-opacity="0.2"/>
</svg>
