<svg width="700" height="687" viewBox="0 0 700 687" fill="none" xmlns="http://www.w3.org/2000/svg">
<path d="M0 534.822C0 450.972 67.9713 383 151.822 383C235.673 383 303.644 450.972 303.644 534.822C303.644 618.673 235.673 686.644 151.822 686.644C67.9713 686.644 0 618.673 0 534.822Z" fill="#F46715" fill-opacity="0.1"/>
<path d="M95.636 520.756H90.956L89.948 523H89.024L92.864 514.6H93.74L97.58 523H96.644L95.636 520.756ZM95.312 520.036L93.296 515.524L91.28 520.036H95.312ZM106.662 516.64C107.454 516.64 108.074 516.868 108.522 517.324C108.978 517.78 109.206 518.452 109.206 519.34V523H108.354V519.424C108.354 518.768 108.194 518.268 107.874 517.924C107.562 517.58 107.118 517.408 106.542 517.408C105.886 517.408 105.37 517.612 104.994 518.02C104.618 518.42 104.43 518.976 104.43 519.688V523H103.578V519.424C103.578 518.768 103.418 518.268 103.098 517.924C102.786 517.58 102.338 517.408 101.754 517.408C101.106 517.408 100.59 517.612 100.206 518.02C99.8296 518.42 99.6416 518.976 99.6416 519.688V523H98.7896V516.688H99.6056V517.84C99.8296 517.456 100.142 517.16 100.542 516.952C100.942 516.744 101.402 516.64 101.922 516.64C102.45 516.64 102.906 516.752 103.29 516.976C103.682 517.2 103.974 517.532 104.166 517.972C104.398 517.556 104.73 517.232 105.162 517C105.602 516.76 106.102 516.64 106.662 516.64ZM117.036 520.108H111.756C111.804 520.764 112.056 521.296 112.512 521.704C112.968 522.104 113.544 522.304 114.24 522.304C114.632 522.304 114.992 522.236 115.32 522.1C115.648 521.956 115.932 521.748 116.172 521.476L116.652 522.028C116.372 522.364 116.02 522.62 115.596 522.796C115.18 522.972 114.72 523.06 114.216 523.06C113.568 523.06 112.992 522.924 112.488 522.652C111.992 522.372 111.604 521.988 111.324 521.5C111.044 521.012 110.904 520.46 110.904 519.844C110.904 519.228 111.036 518.676 111.3 518.188C111.572 517.7 111.94 517.32 112.404 517.048C112.876 516.776 113.404 516.64 113.988 516.64C114.572 516.64 115.096 516.776 115.56 517.048C116.024 517.32 116.388 517.7 116.652 518.188C116.916 518.668 117.048 519.22 117.048 519.844L117.036 520.108ZM113.988 517.372C113.38 517.372 112.868 517.568 112.452 517.96C112.044 518.344 111.812 518.848 111.756 519.472H116.232C116.176 518.848 115.94 518.344 115.524 517.96C115.116 517.568 114.604 517.372 113.988 517.372ZM122.106 522.616C121.946 522.76 121.746 522.872 121.506 522.952C121.274 523.024 121.03 523.06 120.774 523.06C120.182 523.06 119.726 522.9 119.406 522.58C119.086 522.26 118.926 521.808 118.926 521.224V517.408H117.798V516.688H118.926V515.308H119.778V516.688H121.698V517.408H119.778V521.176C119.778 521.552 119.87 521.84 120.054 522.04C120.246 522.232 120.518 522.328 120.87 522.328C121.046 522.328 121.214 522.3 121.374 522.244C121.542 522.188 121.686 522.108 121.806 522.004L122.106 522.616ZM134.669 516.64C135.461 516.64 136.081 516.868 136.529 517.324C136.985 517.78 137.213 518.452 137.213 519.34V523H136.361V519.424C136.361 518.768 136.201 518.268 135.881 517.924C135.569 517.58 135.125 517.408 134.549 517.408C133.893 517.408 133.377 517.612 133.001 518.02C132.625 518.42 132.437 518.976 132.437 519.688V523H131.585V519.424C131.585 518.768 131.425 518.268 131.105 517.924C130.793 517.58 130.345 517.408 129.761 517.408C129.113 517.408 128.597 517.612 128.213 518.02C127.837 518.42 127.649 518.976 127.649 519.688V523H126.797V516.688H127.613V517.84C127.837 517.456 128.149 517.16 128.549 516.952C128.949 516.744 129.409 516.64 129.929 516.64C130.457 516.64 130.913 516.752 131.297 516.976C131.689 517.2 131.981 517.532 132.173 517.972C132.405 517.556 132.737 517.232 133.169 517C133.609 516.76 134.109 516.64 134.669 516.64ZM139.524 516.688H140.376V523H139.524V516.688ZM139.956 515.308C139.78 515.308 139.632 515.248 139.512 515.128C139.392 515.008 139.332 514.864 139.332 514.696C139.332 514.536 139.392 514.396 139.512 514.276C139.632 514.156 139.78 514.096 139.956 514.096C140.132 514.096 140.28 514.156 140.4 514.276C140.52 514.388 140.58 514.524 140.58 514.684C140.58 514.86 140.52 515.008 140.4 515.128C140.28 515.248 140.132 515.308 139.956 515.308ZM145.963 516.64C146.755 516.64 147.383 516.872 147.847 517.336C148.319 517.792 148.555 518.46 148.555 519.34V523H147.703V519.424C147.703 518.768 147.539 518.268 147.211 517.924C146.883 517.58 146.415 517.408 145.807 517.408C145.127 517.408 144.587 517.612 144.187 518.02C143.795 518.42 143.599 518.976 143.599 519.688V523H142.747V516.688H143.563V517.852C143.795 517.468 144.115 517.172 144.523 516.964C144.939 516.748 145.419 516.64 145.963 516.64ZM150.868 516.688H151.72V523H150.868V516.688ZM151.3 515.308C151.124 515.308 150.976 515.248 150.856 515.128C150.736 515.008 150.676 514.864 150.676 514.696C150.676 514.536 150.736 514.396 150.856 514.276C150.976 514.156 151.124 514.096 151.3 514.096C151.476 514.096 151.624 514.156 151.744 514.276C151.864 514.388 151.924 514.524 151.924 514.684C151.924 514.86 151.864 515.008 151.744 515.128C151.624 515.248 151.476 515.308 151.3 515.308ZM161.962 516.64C162.754 516.64 163.374 516.868 163.822 517.324C164.278 517.78 164.506 518.452 164.506 519.34V523H163.654V519.424C163.654 518.768 163.494 518.268 163.174 517.924C162.862 517.58 162.418 517.408 161.842 517.408C161.186 517.408 160.67 517.612 160.294 518.02C159.918 518.42 159.73 518.976 159.73 519.688V523H158.878V519.424C158.878 518.768 158.718 518.268 158.398 517.924C158.086 517.58 157.638 517.408 157.054 517.408C156.406 517.408 155.89 517.612 155.506 518.02C155.13 518.42 154.942 518.976 154.942 519.688V523H154.09V516.688H154.906V517.84C155.13 517.456 155.442 517.16 155.842 516.952C156.242 516.744 156.702 516.64 157.222 516.64C157.75 516.64 158.206 516.752 158.59 516.976C158.982 517.2 159.274 517.532 159.466 517.972C159.698 517.556 160.03 517.232 160.462 517C160.902 516.76 161.402 516.64 161.962 516.64ZM177.83 516.64C178.622 516.64 179.242 516.868 179.69 517.324C180.146 517.78 180.374 518.452 180.374 519.34V523H179.522V519.424C179.522 518.768 179.362 518.268 179.042 517.924C178.73 517.58 178.286 517.408 177.71 517.408C177.054 517.408 176.538 517.612 176.162 518.02C175.786 518.42 175.598 518.976 175.598 519.688V523H174.746V519.424C174.746 518.768 174.586 518.268 174.266 517.924C173.954 517.58 173.506 517.408 172.922 517.408C172.274 517.408 171.758 517.612 171.374 518.02C170.998 518.42 170.81 518.976 170.81 519.688V523H169.958V516.688H170.774V517.84C170.998 517.456 171.31 517.16 171.71 516.952C172.11 516.744 172.57 516.64 173.09 516.64C173.618 516.64 174.074 516.752 174.458 516.976C174.85 517.2 175.142 517.532 175.334 517.972C175.566 517.556 175.898 517.232 176.33 517C176.77 516.76 177.27 516.64 177.83 516.64ZM185.288 523.06C184.68 523.06 184.132 522.924 183.644 522.652C183.156 522.372 182.772 521.988 182.492 521.5C182.212 521.012 182.072 520.46 182.072 519.844C182.072 519.228 182.212 518.676 182.492 518.188C182.772 517.7 183.156 517.32 183.644 517.048C184.132 516.776 184.68 516.64 185.288 516.64C185.896 516.64 186.444 516.776 186.932 517.048C187.42 517.32 187.8 517.7 188.072 518.188C188.352 518.676 188.492 519.228 188.492 519.844C188.492 520.46 188.352 521.012 188.072 521.5C187.8 521.988 187.42 522.372 186.932 522.652C186.444 522.924 185.896 523.06 185.288 523.06ZM185.288 522.304C185.736 522.304 186.136 522.204 186.488 522.004C186.848 521.796 187.128 521.504 187.328 521.128C187.528 520.752 187.628 520.324 187.628 519.844C187.628 519.364 187.528 518.936 187.328 518.56C187.128 518.184 186.848 517.896 186.488 517.696C186.136 517.488 185.736 517.384 185.288 517.384C184.84 517.384 184.436 517.488 184.076 517.696C183.724 517.896 183.444 518.184 183.236 518.56C183.036 518.936 182.936 519.364 182.936 519.844C182.936 520.324 183.036 520.752 183.236 521.128C183.444 521.504 183.724 521.796 184.076 522.004C184.436 522.204 184.84 522.304 185.288 522.304ZM190.231 514.096H191.083V523H190.231V514.096ZM193.454 514.096H194.306V523H193.454V514.096ZM196.676 516.688H197.528V523H196.676V516.688ZM197.108 515.308C196.932 515.308 196.784 515.248 196.664 515.128C196.544 515.008 196.484 514.864 196.484 514.696C196.484 514.536 196.544 514.396 196.664 514.276C196.784 514.156 196.932 514.096 197.108 514.096C197.284 514.096 197.432 514.156 197.552 514.276C197.672 514.388 197.732 514.524 197.732 514.684C197.732 514.86 197.672 515.008 197.552 515.128C197.432 515.248 197.284 515.308 197.108 515.308ZM203.223 522.616C203.063 522.76 202.863 522.872 202.623 522.952C202.391 523.024 202.147 523.06 201.891 523.06C201.299 523.06 200.843 522.9 200.523 522.58C200.203 522.26 200.043 521.808 200.043 521.224V517.408H198.915V516.688H200.043V515.308H200.895V516.688H202.815V517.408H200.895V521.176C200.895 521.552 200.987 521.84 201.171 522.04C201.363 522.232 201.635 522.328 201.987 522.328C202.163 522.328 202.331 522.3 202.491 522.244C202.659 522.188 202.803 522.108 202.923 522.004L203.223 522.616ZM93.404 533.64C94.196 533.64 94.824 533.872 95.288 534.336C95.76 534.792 95.996 535.46 95.996 536.34V540H95.144V536.424C95.144 535.768 94.98 535.268 94.652 534.924C94.324 534.58 93.856 534.408 93.248 534.408C92.568 534.408 92.028 534.612 91.628 535.02C91.236 535.42 91.04 535.976 91.04 536.688V540H90.188V533.688H91.004V534.852C91.236 534.468 91.556 534.172 91.964 533.964C92.38 533.748 92.86 533.64 93.404 533.64ZM100.913 540.06C100.305 540.06 99.7565 539.924 99.2685 539.652C98.7805 539.372 98.3965 538.988 98.1165 538.5C97.8365 538.012 97.6965 537.46 97.6965 536.844C97.6965 536.228 97.8365 535.676 98.1165 535.188C98.3965 534.7 98.7805 534.32 99.2685 534.048C99.7565 533.776 100.305 533.64 100.913 533.64C101.521 533.64 102.069 533.776 102.557 534.048C103.045 534.32 103.425 534.7 103.697 535.188C103.977 535.676 104.117 536.228 104.117 536.844C104.117 537.46 103.977 538.012 103.697 538.5C103.425 538.988 103.045 539.372 102.557 539.652C102.069 539.924 101.521 540.06 100.913 540.06ZM100.913 539.304C101.361 539.304 101.761 539.204 102.113 539.004C102.473 538.796 102.753 538.504 102.953 538.128C103.153 537.752 103.253 537.324 103.253 536.844C103.253 536.364 103.153 535.936 102.953 535.56C102.753 535.184 102.473 534.896 102.113 534.696C101.761 534.488 101.361 534.384 100.913 534.384C100.465 534.384 100.061 534.488 99.7005 534.696C99.3485 534.896 99.0685 535.184 98.8605 535.56C98.6605 535.936 98.5605 536.364 98.5605 536.844C98.5605 537.324 98.6605 537.752 98.8605 538.128C99.0685 538.504 99.3485 538.796 99.7005 539.004C100.061 539.204 100.465 539.304 100.913 539.304ZM109.072 533.64C109.864 533.64 110.492 533.872 110.956 534.336C111.428 534.792 111.664 535.46 111.664 536.34V540H110.812V536.424C110.812 535.768 110.648 535.268 110.32 534.924C109.992 534.58 109.524 534.408 108.916 534.408C108.236 534.408 107.696 534.612 107.296 535.02C106.904 535.42 106.708 535.976 106.708 536.688V540H105.856V533.688H106.672V534.852C106.904 534.468 107.224 534.172 107.632 533.964C108.048 533.748 108.528 533.64 109.072 533.64ZM122.878 531.096V540H122.062V538.752C121.806 539.176 121.466 539.5 121.042 539.724C120.626 539.948 120.154 540.06 119.626 540.06C119.034 540.06 118.498 539.924 118.018 539.652C117.538 539.38 117.162 539 116.89 538.512C116.618 538.024 116.482 537.468 116.482 536.844C116.482 536.22 116.618 535.664 116.89 535.176C117.162 534.688 117.538 534.312 118.018 534.048C118.498 533.776 119.034 533.64 119.626 533.64C120.138 533.64 120.598 533.748 121.006 533.964C121.422 534.172 121.762 534.48 122.026 534.888V531.096H122.878ZM119.698 539.304C120.138 539.304 120.534 539.204 120.886 539.004C121.246 538.796 121.526 538.504 121.726 538.128C121.934 537.752 122.038 537.324 122.038 536.844C122.038 536.364 121.934 535.936 121.726 535.56C121.526 535.184 121.246 534.896 120.886 534.696C120.534 534.488 120.138 534.384 119.698 534.384C119.25 534.384 118.846 534.488 118.486 534.696C118.134 534.896 117.854 535.184 117.646 535.56C117.446 535.936 117.346 536.364 117.346 536.844C117.346 537.324 117.446 537.752 117.646 538.128C117.854 538.504 118.134 538.796 118.486 539.004C118.846 539.204 119.25 539.304 119.698 539.304ZM130.747 537.108H125.467C125.515 537.764 125.767 538.296 126.223 538.704C126.679 539.104 127.255 539.304 127.951 539.304C128.343 539.304 128.703 539.236 129.031 539.1C129.359 538.956 129.643 538.748 129.883 538.476L130.363 539.028C130.083 539.364 129.731 539.62 129.307 539.796C128.891 539.972 128.431 540.06 127.927 540.06C127.279 540.06 126.703 539.924 126.199 539.652C125.703 539.372 125.315 538.988 125.035 538.5C124.755 538.012 124.615 537.46 124.615 536.844C124.615 536.228 124.747 535.676 125.011 535.188C125.283 534.7 125.651 534.32 126.115 534.048C126.587 533.776 127.115 533.64 127.699 533.64C128.283 533.64 128.807 533.776 129.271 534.048C129.735 534.32 130.099 534.7 130.363 535.188C130.627 535.668 130.759 536.22 130.759 536.844L130.747 537.108ZM127.699 534.372C127.091 534.372 126.579 534.568 126.163 534.96C125.755 535.344 125.523 535.848 125.467 536.472H129.943C129.887 535.848 129.651 535.344 129.235 534.96C128.827 534.568 128.315 534.372 127.699 534.372ZM134.185 540.06C133.673 540.06 133.181 539.988 132.709 539.844C132.245 539.692 131.881 539.504 131.617 539.28L132.001 538.608C132.265 538.816 132.597 538.988 132.997 539.124C133.397 539.252 133.813 539.316 134.245 539.316C134.821 539.316 135.245 539.228 135.517 539.052C135.797 538.868 135.937 538.612 135.937 538.284C135.937 538.052 135.861 537.872 135.709 537.744C135.557 537.608 135.365 537.508 135.133 537.444C134.901 537.372 134.593 537.304 134.209 537.24C133.697 537.144 133.285 537.048 132.973 536.952C132.661 536.848 132.393 536.676 132.169 536.436C131.953 536.196 131.845 535.864 131.845 535.44C131.845 534.912 132.065 534.48 132.505 534.144C132.945 533.808 133.557 533.64 134.341 533.64C134.749 533.64 135.157 533.696 135.565 533.808C135.973 533.912 136.309 534.052 136.573 534.228L136.201 534.912C135.681 534.552 135.061 534.372 134.341 534.372C133.797 534.372 133.385 534.468 133.105 534.66C132.833 534.852 132.697 535.104 132.697 535.416C132.697 535.656 132.773 535.848 132.925 535.992C133.085 536.136 133.281 536.244 133.513 536.316C133.745 536.38 134.065 536.448 134.473 536.52C134.977 536.616 135.381 536.712 135.685 536.808C135.989 536.904 136.249 537.068 136.465 537.3C136.681 537.532 136.789 537.852 136.789 538.26C136.789 538.812 136.557 539.252 136.093 539.58C135.637 539.9 135.001 540.06 134.185 540.06ZM143.86 537.108H138.58C138.628 537.764 138.88 538.296 139.336 538.704C139.792 539.104 140.368 539.304 141.064 539.304C141.456 539.304 141.816 539.236 142.144 539.1C142.472 538.956 142.756 538.748 142.996 538.476L143.476 539.028C143.196 539.364 142.844 539.62 142.42 539.796C142.004 539.972 141.544 540.06 141.04 540.06C140.392 540.06 139.816 539.924 139.312 539.652C138.816 539.372 138.428 538.988 138.148 538.5C137.868 538.012 137.728 537.46 137.728 536.844C137.728 536.228 137.86 535.676 138.124 535.188C138.396 534.7 138.764 534.32 139.228 534.048C139.7 533.776 140.228 533.64 140.812 533.64C141.396 533.64 141.92 533.776 142.384 534.048C142.848 534.32 143.212 534.7 143.476 535.188C143.74 535.668 143.872 536.22 143.872 536.844L143.86 537.108ZM140.812 534.372C140.204 534.372 139.692 534.568 139.276 534.96C138.868 535.344 138.636 535.848 138.58 536.472H143.056C143 535.848 142.764 535.344 142.348 534.96C141.94 534.568 141.428 534.372 140.812 534.372ZM146.422 534.924C146.622 534.5 146.918 534.18 147.31 533.964C147.71 533.748 148.202 533.64 148.786 533.64V534.468L148.582 534.456C147.918 534.456 147.398 534.66 147.022 535.068C146.646 535.476 146.458 536.048 146.458 536.784V540H145.606V533.688H146.422V534.924ZM156.11 533.688V540H155.294V538.848C155.07 539.232 154.762 539.532 154.37 539.748C153.978 539.956 153.53 540.06 153.026 540.06C152.202 540.06 151.55 539.832 151.07 539.376C150.598 538.912 150.362 538.236 150.362 537.348V533.688H151.214V537.264C151.214 537.928 151.378 538.432 151.706 538.776C152.034 539.12 152.502 539.292 153.11 539.292C153.774 539.292 154.298 539.092 154.682 538.692C155.066 538.284 155.258 537.72 155.258 537V533.688H156.11ZM161.713 533.64C162.505 533.64 163.133 533.872 163.597 534.336C164.069 534.792 164.305 535.46 164.305 536.34V540H163.453V536.424C163.453 535.768 163.289 535.268 162.961 534.924C162.633 534.58 162.165 534.408 161.557 534.408C160.877 534.408 160.337 534.612 159.937 535.02C159.545 535.42 159.349 535.976 159.349 536.688V540H158.497V533.688H159.313V534.852C159.545 534.468 159.865 534.172 160.273 533.964C160.689 533.748 161.169 533.64 161.713 533.64ZM169.942 539.616C169.782 539.76 169.582 539.872 169.342 539.952C169.11 540.024 168.866 540.06 168.61 540.06C168.018 540.06 167.562 539.9 167.242 539.58C166.922 539.26 166.762 538.808 166.762 538.224V534.408H165.634V533.688H166.762V532.308H167.614V533.688H169.534V534.408H167.614V538.176C167.614 538.552 167.706 538.84 167.89 539.04C168.082 539.232 168.354 539.328 168.706 539.328C168.882 539.328 169.05 539.3 169.21 539.244C169.378 539.188 169.522 539.108 169.642 539.004L169.942 539.616ZM180.321 533.688V540H179.505V538.848C179.281 539.232 178.973 539.532 178.581 539.748C178.189 539.956 177.741 540.06 177.237 540.06C176.413 540.06 175.761 539.832 175.281 539.376C174.809 538.912 174.573 538.236 174.573 537.348V533.688H175.425V537.264C175.425 537.928 175.589 538.432 175.917 538.776C176.245 539.12 176.713 539.292 177.321 539.292C177.985 539.292 178.509 539.092 178.893 538.692C179.277 538.284 179.469 537.72 179.469 537V533.688H180.321ZM182.708 531.096H183.56V540H182.708V531.096ZM185.93 531.096H186.782V540H185.93V531.096ZM191.361 533.64C192.185 533.64 192.817 533.848 193.257 534.264C193.697 534.672 193.917 535.28 193.917 536.088V540H193.101V539.016C192.909 539.344 192.625 539.6 192.249 539.784C191.881 539.968 191.441 540.06 190.929 540.06C190.225 540.06 189.665 539.892 189.249 539.556C188.833 539.22 188.625 538.776 188.625 538.224C188.625 537.688 188.817 537.256 189.201 536.928C189.593 536.6 190.213 536.436 191.061 536.436H193.065V536.052C193.065 535.508 192.913 535.096 192.609 534.816C192.305 534.528 191.861 534.384 191.277 534.384C190.877 534.384 190.493 534.452 190.125 534.588C189.757 534.716 189.441 534.896 189.177 535.128L188.793 534.492C189.113 534.22 189.497 534.012 189.945 533.868C190.393 533.716 190.865 533.64 191.361 533.64ZM191.061 539.388C191.541 539.388 191.953 539.28 192.297 539.064C192.641 538.84 192.897 538.52 193.065 538.104V537.072H191.085C190.005 537.072 189.465 537.448 189.465 538.2C189.465 538.568 189.605 538.86 189.885 539.076C190.165 539.284 190.557 539.388 191.061 539.388ZM204.103 533.64C204.895 533.64 205.515 533.868 205.963 534.324C206.419 534.78 206.647 535.452 206.647 536.34V540H205.795V536.424C205.795 535.768 205.635 535.268 205.315 534.924C205.003 534.58 204.559 534.408 203.983 534.408C203.327 534.408 202.811 534.612 202.435 535.02C202.059 535.42 201.871 535.976 201.871 536.688V540H201.019V536.424C201.019 535.768 200.859 535.268 200.539 534.924C200.227 534.58 199.779 534.408 199.195 534.408C198.547 534.408 198.031 534.612 197.647 535.02C197.271 535.42 197.083 535.976 197.083 536.688V540H196.231V533.688H197.047V534.84C197.271 534.456 197.583 534.16 197.983 533.952C198.383 533.744 198.843 533.64 199.363 533.64C199.891 533.64 200.347 533.752 200.731 533.976C201.123 534.2 201.415 534.532 201.607 534.972C201.839 534.556 202.171 534.232 202.603 534C203.043 533.76 203.543 533.64 204.103 533.64ZM211.597 540.06C210.973 540.06 210.413 539.924 209.917 539.652C209.429 539.38 209.045 539 208.765 538.512C208.485 538.016 208.345 537.46 208.345 536.844C208.345 536.228 208.485 535.676 208.765 535.188C209.045 534.7 209.429 534.32 209.917 534.048C210.413 533.776 210.973 533.64 211.597 533.64C212.141 533.64 212.625 533.748 213.049 533.964C213.481 534.172 213.821 534.48 214.069 534.888L213.433 535.32C213.225 535.008 212.961 534.776 212.641 534.624C212.321 534.464 211.973 534.384 211.597 534.384C211.141 534.384 210.729 534.488 210.361 534.696C210.001 534.896 209.717 535.184 209.509 535.56C209.309 535.936 209.209 536.364 209.209 536.844C209.209 537.332 209.309 537.764 209.509 538.14C209.717 538.508 210.001 538.796 210.361 539.004C210.729 539.204 211.141 539.304 211.597 539.304C211.973 539.304 212.321 539.228 212.641 539.076C212.961 538.924 213.225 538.692 213.433 538.38L214.069 538.812C213.821 539.22 213.481 539.532 213.049 539.748C212.617 539.956 212.133 540.06 211.597 540.06ZM218.217 540.06C217.609 540.06 217.061 539.924 216.573 539.652C216.085 539.372 215.701 538.988 215.421 538.5C215.141 538.012 215.001 537.46 215.001 536.844C215.001 536.228 215.141 535.676 215.421 535.188C215.701 534.7 216.085 534.32 216.573 534.048C217.061 533.776 217.609 533.64 218.217 533.64C218.825 533.64 219.373 533.776 219.861 534.048C220.349 534.32 220.729 534.7 221.001 535.188C221.281 535.676 221.421 536.228 221.421 536.844C221.421 537.46 221.281 538.012 221.001 538.5C220.729 538.988 220.349 539.372 219.861 539.652C219.373 539.924 218.825 540.06 218.217 540.06ZM218.217 539.304C218.665 539.304 219.065 539.204 219.417 539.004C219.777 538.796 220.057 538.504 220.257 538.128C220.457 537.752 220.557 537.324 220.557 536.844C220.557 536.364 220.457 535.936 220.257 535.56C220.057 535.184 219.777 534.896 219.417 534.696C219.065 534.488 218.665 534.384 218.217 534.384C217.769 534.384 217.365 534.488 217.005 534.696C216.653 534.896 216.373 535.184 216.165 535.56C215.965 535.936 215.865 536.364 215.865 536.844C215.865 537.324 215.965 537.752 216.165 538.128C216.373 538.504 216.653 538.796 217.005 539.004C217.365 539.204 217.769 539.304 218.217 539.304ZM95.684 553.108H90.404C90.452 553.764 90.704 554.296 91.16 554.704C91.616 555.104 92.192 555.304 92.888 555.304C93.28 555.304 93.64 555.236 93.968 555.1C94.296 554.956 94.58 554.748 94.82 554.476L95.3 555.028C95.02 555.364 94.668 555.62 94.244 555.796C93.828 555.972 93.368 556.06 92.864 556.06C92.216 556.06 91.64 555.924 91.136 555.652C90.64 555.372 90.252 554.988 89.972 554.5C89.692 554.012 89.552 553.46 89.552 552.844C89.552 552.228 89.684 551.676 89.948 551.188C90.22 550.7 90.588 550.32 91.052 550.048C91.524 549.776 92.052 549.64 92.636 549.64C93.22 549.64 93.744 549.776 94.208 550.048C94.672 550.32 95.036 550.7 95.3 551.188C95.564 551.668 95.696 552.22 95.696 552.844L95.684 553.108ZM92.636 550.372C92.028 550.372 91.516 550.568 91.1 550.96C90.692 551.344 90.46 551.848 90.404 552.472H94.88C94.824 551.848 94.588 551.344 94.172 550.96C93.764 550.568 93.252 550.372 92.636 550.372ZM99.1222 556.06C98.6102 556.06 98.1182 555.988 97.6462 555.844C97.1822 555.692 96.8182 555.504 96.5542 555.28L96.9382 554.608C97.2022 554.816 97.5342 554.988 97.9342 555.124C98.3342 555.252 98.7502 555.316 99.1822 555.316C99.7582 555.316 100.182 555.228 100.454 555.052C100.734 554.868 100.874 554.612 100.874 554.284C100.874 554.052 100.798 553.872 100.646 553.744C100.494 553.608 100.302 553.508 100.07 553.444C99.8382 553.372 99.5302 553.304 99.1462 553.24C98.6342 553.144 98.2222 553.048 97.9102 552.952C97.5982 552.848 97.3302 552.676 97.1062 552.436C96.8902 552.196 96.7822 551.864 96.7822 551.44C96.7822 550.912 97.0022 550.48 97.4422 550.144C97.8822 549.808 98.4942 549.64 99.2782 549.64C99.6862 549.64 100.094 549.696 100.502 549.808C100.91 549.912 101.246 550.052 101.51 550.228L101.138 550.912C100.618 550.552 99.9982 550.372 99.2782 550.372C98.7342 550.372 98.3222 550.468 98.0422 550.66C97.7702 550.852 97.6342 551.104 97.6342 551.416C97.6342 551.656 97.7102 551.848 97.8622 551.992C98.0222 552.136 98.2182 552.244 98.4502 552.316C98.6822 552.38 99.0022 552.448 99.4102 552.52C99.9142 552.616 100.318 552.712 100.622 552.808C100.926 552.904 101.186 553.068 101.402 553.3C101.618 553.532 101.726 553.852 101.726 554.26C101.726 554.812 101.494 555.252 101.03 555.58C100.574 555.9 99.9382 556.06 99.1222 556.06ZM106.625 555.616C106.465 555.76 106.265 555.872 106.025 555.952C105.793 556.024 105.549 556.06 105.293 556.06C104.701 556.06 104.245 555.9 103.925 555.58C103.605 555.26 103.445 554.808 103.445 554.224V550.408H102.317V549.688H103.445V548.308H104.297V549.688H106.217V550.408H104.297V554.176C104.297 554.552 104.389 554.84 104.573 555.04C104.765 555.232 105.037 555.328 105.389 555.328C105.565 555.328 105.733 555.3 105.893 555.244C106.061 555.188 106.205 555.108 106.325 555.004L106.625 555.616ZM113.009 556.06C112.497 556.06 112.005 555.988 111.533 555.844C111.069 555.692 110.705 555.504 110.441 555.28L110.825 554.608C111.089 554.816 111.421 554.988 111.821 555.124C112.221 555.252 112.637 555.316 113.069 555.316C113.645 555.316 114.069 555.228 114.341 555.052C114.621 554.868 114.761 554.612 114.761 554.284C114.761 554.052 114.685 553.872 114.533 553.744C114.381 553.608 114.189 553.508 113.957 553.444C113.725 553.372 113.417 553.304 113.033 553.24C112.521 553.144 112.109 553.048 111.797 552.952C111.485 552.848 111.217 552.676 110.993 552.436C110.777 552.196 110.669 551.864 110.669 551.44C110.669 550.912 110.889 550.48 111.329 550.144C111.769 549.808 112.381 549.64 113.165 549.64C113.573 549.64 113.981 549.696 114.389 549.808C114.797 549.912 115.133 550.052 115.397 550.228L115.025 550.912C114.505 550.552 113.885 550.372 113.165 550.372C112.621 550.372 112.209 550.468 111.929 550.66C111.657 550.852 111.521 551.104 111.521 551.416C111.521 551.656 111.597 551.848 111.749 551.992C111.909 552.136 112.105 552.244 112.337 552.316C112.569 552.38 112.889 552.448 113.297 552.52C113.801 552.616 114.205 552.712 114.509 552.808C114.813 552.904 115.073 553.068 115.289 553.3C115.505 553.532 115.613 553.852 115.613 554.26C115.613 554.812 115.381 555.252 114.917 555.58C114.461 555.9 113.825 556.06 113.009 556.06ZM117.188 549.688H118.04V556H117.188V549.688ZM117.62 548.308C117.444 548.308 117.296 548.248 117.176 548.128C117.056 548.008 116.996 547.864 116.996 547.696C116.996 547.536 117.056 547.396 117.176 547.276C117.296 547.156 117.444 547.096 117.62 547.096C117.796 547.096 117.944 547.156 118.064 547.276C118.184 547.388 118.244 547.524 118.244 547.684C118.244 547.86 118.184 548.008 118.064 548.128C117.944 548.248 117.796 548.308 117.62 548.308ZM123.735 555.616C123.575 555.76 123.375 555.872 123.135 555.952C122.903 556.024 122.659 556.06 122.403 556.06C121.811 556.06 121.355 555.9 121.035 555.58C120.715 555.26 120.555 554.808 120.555 554.224V550.408H119.427V549.688H120.555V548.308H121.407V549.688H123.327V550.408H121.407V554.176C121.407 554.552 121.499 554.84 121.683 555.04C121.875 555.232 122.147 555.328 122.499 555.328C122.675 555.328 122.843 555.3 123.003 555.244C123.171 555.188 123.315 555.108 123.435 555.004L123.735 555.616ZM130.634 549.64C131.458 549.64 132.09 549.848 132.53 550.264C132.97 550.672 133.19 551.28 133.19 552.088V556H132.374V555.016C132.182 555.344 131.898 555.6 131.522 555.784C131.154 555.968 130.714 556.06 130.202 556.06C129.498 556.06 128.938 555.892 128.522 555.556C128.106 555.22 127.898 554.776 127.898 554.224C127.898 553.688 128.09 553.256 128.474 552.928C128.866 552.6 129.486 552.436 130.334 552.436H132.338V552.052C132.338 551.508 132.186 551.096 131.882 550.816C131.578 550.528 131.134 550.384 130.55 550.384C130.15 550.384 129.766 550.452 129.398 550.588C129.03 550.716 128.714 550.896 128.45 551.128L128.066 550.492C128.386 550.22 128.77 550.012 129.218 549.868C129.666 549.716 130.138 549.64 130.634 549.64ZM130.334 555.388C130.814 555.388 131.226 555.28 131.57 555.064C131.914 554.84 132.17 554.52 132.338 554.104V553.072H130.358C129.278 553.072 128.738 553.448 128.738 554.2C128.738 554.568 128.878 554.86 129.158 555.076C129.438 555.284 129.83 555.388 130.334 555.388ZM135.504 547.096H136.356V556H135.504V547.096ZM138.727 549.688H139.579V556H138.727V549.688ZM139.159 548.308C138.983 548.308 138.835 548.248 138.715 548.128C138.595 548.008 138.535 547.864 138.535 547.696C138.535 547.536 138.595 547.396 138.715 547.276C138.835 547.156 138.983 547.096 139.159 547.096C139.335 547.096 139.483 547.156 139.603 547.276C139.723 547.388 139.783 547.524 139.783 547.684C139.783 547.86 139.723 548.008 139.603 548.128C139.483 548.248 139.335 548.308 139.159 548.308ZM147.71 549.688V558.328H146.858V554.812C146.594 555.22 146.254 555.532 145.838 555.748C145.43 555.956 144.97 556.06 144.458 556.06C143.858 556.06 143.318 555.928 142.838 555.664C142.366 555.392 141.994 555.012 141.722 554.524C141.45 554.036 141.314 553.476 141.314 552.844C141.314 552.22 141.45 551.664 141.722 551.176C141.994 550.688 142.37 550.312 142.85 550.048C143.33 549.776 143.866 549.64 144.458 549.64C144.986 549.64 145.458 549.752 145.874 549.976C146.298 550.2 146.638 550.52 146.894 550.936V549.688H147.71ZM144.53 555.304C144.97 555.304 145.366 555.204 145.718 555.004C146.078 554.796 146.358 554.504 146.558 554.128C146.766 553.752 146.87 553.324 146.87 552.844C146.87 552.364 146.766 551.94 146.558 551.572C146.358 551.196 146.078 550.904 145.718 550.696C145.366 550.488 144.97 550.384 144.53 550.384C144.082 550.384 143.678 550.488 143.318 550.696C142.966 550.904 142.686 551.196 142.478 551.572C142.278 551.94 142.178 552.364 142.178 552.844C142.178 553.324 142.278 553.752 142.478 554.128C142.686 554.504 142.966 554.796 143.318 555.004C143.678 555.204 144.082 555.304 144.53 555.304ZM155.771 549.688V556H154.955V554.848C154.731 555.232 154.423 555.532 154.031 555.748C153.639 555.956 153.191 556.06 152.687 556.06C151.863 556.06 151.211 555.832 150.731 555.376C150.259 554.912 150.023 554.236 150.023 553.348V549.688H150.875V553.264C150.875 553.928 151.039 554.432 151.367 554.776C151.695 555.12 152.163 555.292 152.771 555.292C153.435 555.292 153.959 555.092 154.343 554.692C154.727 554.284 154.919 553.72 154.919 553V549.688H155.771ZM160.365 549.64C161.189 549.64 161.821 549.848 162.261 550.264C162.701 550.672 162.921 551.28 162.921 552.088V556H162.105V555.016C161.913 555.344 161.629 555.6 161.253 555.784C160.885 555.968 160.445 556.06 159.933 556.06C159.229 556.06 158.669 555.892 158.253 555.556C157.837 555.22 157.629 554.776 157.629 554.224C157.629 553.688 157.821 553.256 158.205 552.928C158.597 552.6 159.217 552.436 160.065 552.436H162.069V552.052C162.069 551.508 161.917 551.096 161.613 550.816C161.309 550.528 160.865 550.384 160.281 550.384C159.881 550.384 159.497 550.452 159.129 550.588C158.761 550.716 158.445 550.896 158.181 551.128L157.797 550.492C158.117 550.22 158.501 550.012 158.949 549.868C159.397 549.716 159.869 549.64 160.365 549.64ZM160.065 555.388C160.545 555.388 160.957 555.28 161.301 555.064C161.645 554.84 161.901 554.52 162.069 554.104V553.072H160.089C159.009 553.072 158.469 553.448 158.469 554.2C158.469 554.568 158.609 554.86 158.889 555.076C159.169 555.284 159.561 555.388 160.065 555.388ZM174.136 547.096V556H173.32V554.752C173.064 555.176 172.724 555.5 172.3 555.724C171.884 555.948 171.412 556.06 170.884 556.06C170.292 556.06 169.756 555.924 169.276 555.652C168.796 555.38 168.42 555 168.148 554.512C167.876 554.024 167.74 553.468 167.74 552.844C167.74 552.22 167.876 551.664 168.148 551.176C168.42 550.688 168.796 550.312 169.276 550.048C169.756 549.776 170.292 549.64 170.884 549.64C171.396 549.64 171.856 549.748 172.264 549.964C172.68 550.172 173.02 550.48 173.284 550.888V547.096H174.136ZM170.956 555.304C171.396 555.304 171.792 555.204 172.144 555.004C172.504 554.796 172.784 554.504 172.984 554.128C173.192 553.752 173.296 553.324 173.296 552.844C173.296 552.364 173.192 551.936 172.984 551.56C172.784 551.184 172.504 550.896 172.144 550.696C171.792 550.488 171.396 550.384 170.956 550.384C170.508 550.384 170.104 550.488 169.744 550.696C169.392 550.896 169.112 551.184 168.904 551.56C168.704 551.936 168.604 552.364 168.604 552.844C168.604 553.324 168.704 553.752 168.904 554.128C169.112 554.504 169.392 554.796 169.744 555.004C170.104 555.204 170.508 555.304 170.956 555.304ZM179.088 556.06C178.48 556.06 177.932 555.924 177.444 555.652C176.956 555.372 176.572 554.988 176.292 554.5C176.012 554.012 175.872 553.46 175.872 552.844C175.872 552.228 176.012 551.676 176.292 551.188C176.572 550.7 176.956 550.32 177.444 550.048C177.932 549.776 178.48 549.64 179.088 549.64C179.696 549.64 180.244 549.776 180.732 550.048C181.22 550.32 181.6 550.7 181.872 551.188C182.152 551.676 182.292 552.228 182.292 552.844C182.292 553.46 182.152 554.012 181.872 554.5C181.6 554.988 181.22 555.372 180.732 555.652C180.244 555.924 179.696 556.06 179.088 556.06ZM179.088 555.304C179.536 555.304 179.936 555.204 180.288 555.004C180.648 554.796 180.928 554.504 181.128 554.128C181.328 553.752 181.428 553.324 181.428 552.844C181.428 552.364 181.328 551.936 181.128 551.56C180.928 551.184 180.648 550.896 180.288 550.696C179.936 550.488 179.536 550.384 179.088 550.384C178.64 550.384 178.236 550.488 177.876 550.696C177.524 550.896 177.244 551.184 177.036 551.56C176.836 551.936 176.736 552.364 176.736 552.844C176.736 553.324 176.836 553.752 177.036 554.128C177.244 554.504 177.524 554.796 177.876 555.004C178.236 555.204 178.64 555.304 179.088 555.304ZM184.032 547.096H184.884V556H184.032V547.096ZM189.834 556.06C189.226 556.06 188.678 555.924 188.19 555.652C187.702 555.372 187.318 554.988 187.038 554.5C186.758 554.012 186.618 553.46 186.618 552.844C186.618 552.228 186.758 551.676 187.038 551.188C187.318 550.7 187.702 550.32 188.19 550.048C188.678 549.776 189.226 549.64 189.834 549.64C190.442 549.64 190.99 549.776 191.478 550.048C191.966 550.32 192.346 550.7 192.618 551.188C192.898 551.676 193.038 552.228 193.038 552.844C193.038 553.46 192.898 554.012 192.618 554.5C192.346 554.988 191.966 555.372 191.478 555.652C190.99 555.924 190.442 556.06 189.834 556.06ZM189.834 555.304C190.282 555.304 190.682 555.204 191.034 555.004C191.394 554.796 191.674 554.504 191.874 554.128C192.074 553.752 192.174 553.324 192.174 552.844C192.174 552.364 192.074 551.936 191.874 551.56C191.674 551.184 191.394 550.896 191.034 550.696C190.682 550.488 190.282 550.384 189.834 550.384C189.386 550.384 188.982 550.488 188.622 550.696C188.27 550.896 187.99 551.184 187.782 551.56C187.582 551.936 187.482 552.364 187.482 552.844C187.482 553.324 187.582 553.752 187.782 554.128C187.99 554.504 188.27 554.796 188.622 555.004C188.982 555.204 189.386 555.304 189.834 555.304ZM195.594 550.924C195.794 550.5 196.09 550.18 196.482 549.964C196.882 549.748 197.374 549.64 197.958 549.64V550.468L197.754 550.456C197.09 550.456 196.57 550.66 196.194 551.068C195.818 551.476 195.63 552.048 195.63 552.784V556H194.778V549.688H195.594V550.924ZM208.495 547.096V556H207.679V554.752C207.423 555.176 207.083 555.5 206.659 555.724C206.243 555.948 205.771 556.06 205.243 556.06C204.651 556.06 204.115 555.924 203.635 555.652C203.155 555.38 202.779 555 202.507 554.512C202.235 554.024 202.099 553.468 202.099 552.844C202.099 552.22 202.235 551.664 202.507 551.176C202.779 550.688 203.155 550.312 203.635 550.048C204.115 549.776 204.651 549.64 205.243 549.64C205.755 549.64 206.215 549.748 206.623 549.964C207.039 550.172 207.379 550.48 207.643 550.888V547.096H208.495ZM205.315 555.304C205.755 555.304 206.151 555.204 206.503 555.004C206.863 554.796 207.143 554.504 207.343 554.128C207.551 553.752 207.655 553.324 207.655 552.844C207.655 552.364 207.551 551.936 207.343 551.56C207.143 551.184 206.863 550.896 206.503 550.696C206.151 550.488 205.755 550.384 205.315 550.384C204.867 550.384 204.463 550.488 204.103 550.696C203.751 550.896 203.471 551.184 203.263 551.56C203.063 551.936 202.963 552.364 202.963 552.844C202.963 553.324 203.063 553.752 203.263 554.128C203.471 554.504 203.751 554.796 204.103 555.004C204.463 555.204 204.867 555.304 205.315 555.304ZM213.448 556.06C212.84 556.06 212.292 555.924 211.804 555.652C211.316 555.372 210.932 554.988 210.652 554.5C210.372 554.012 210.232 553.46 210.232 552.844C210.232 552.228 210.372 551.676 210.652 551.188C210.932 550.7 211.316 550.32 211.804 550.048C212.292 549.776 212.84 549.64 213.448 549.64C214.056 549.64 214.604 549.776 215.092 550.048C215.58 550.32 215.96 550.7 216.232 551.188C216.512 551.676 216.652 552.228 216.652 552.844C216.652 553.46 216.512 554.012 216.232 554.5C215.96 554.988 215.58 555.372 215.092 555.652C214.604 555.924 214.056 556.06 213.448 556.06ZM213.448 555.304C213.896 555.304 214.296 555.204 214.648 555.004C215.008 554.796 215.288 554.504 215.488 554.128C215.688 553.752 215.788 553.324 215.788 552.844C215.788 552.364 215.688 551.936 215.488 551.56C215.288 551.184 215.008 550.896 214.648 550.696C214.296 550.488 213.896 550.384 213.448 550.384C213 550.384 212.596 550.488 212.236 550.696C211.884 550.896 211.604 551.184 211.396 551.56C211.196 551.936 211.096 552.364 211.096 552.844C211.096 553.324 211.196 553.752 211.396 554.128C211.604 554.504 211.884 554.796 212.236 555.004C212.596 555.204 213 555.304 213.448 555.304ZM92.396 566.64C93.22 566.64 93.852 566.848 94.292 567.264C94.732 567.672 94.952 568.28 94.952 569.088V573H94.136V572.016C93.944 572.344 93.66 572.6 93.284 572.784C92.916 572.968 92.476 573.06 91.964 573.06C91.26 573.06 90.7 572.892 90.284 572.556C89.868 572.22 89.66 571.776 89.66 571.224C89.66 570.688 89.852 570.256 90.236 569.928C90.628 569.6 91.248 569.436 92.096 569.436H94.1V569.052C94.1 568.508 93.948 568.096 93.644 567.816C93.34 567.528 92.896 567.384 92.312 567.384C91.912 567.384 91.528 567.452 91.16 567.588C90.792 567.716 90.476 567.896 90.212 568.128L89.828 567.492C90.148 567.22 90.532 567.012 90.98 566.868C91.428 566.716 91.9 566.64 92.396 566.64ZM92.096 572.388C92.576 572.388 92.988 572.28 93.332 572.064C93.676 571.84 93.932 571.52 94.1 571.104V570.072H92.12C91.04 570.072 90.5 570.448 90.5 571.2C90.5 571.568 90.64 571.86 90.92 572.076C91.2 572.284 91.592 572.388 92.096 572.388ZM105.138 566.64C105.93 566.64 106.55 566.868 106.998 567.324C107.454 567.78 107.682 568.452 107.682 569.34V573H106.83V569.424C106.83 568.768 106.67 568.268 106.35 567.924C106.038 567.58 105.594 567.408 105.018 567.408C104.362 567.408 103.846 567.612 103.47 568.02C103.094 568.42 102.906 568.976 102.906 569.688V573H102.054V569.424C102.054 568.768 101.894 568.268 101.574 567.924C101.262 567.58 100.814 567.408 100.23 567.408C99.5821 567.408 99.0661 567.612 98.6821 568.02C98.3061 568.42 98.1181 568.976 98.1181 569.688V573H97.2661V566.688H98.0821V567.84C98.3061 567.456 98.6181 567.16 99.0181 566.952C99.4181 566.744 99.8781 566.64 100.398 566.64C100.926 566.64 101.382 566.752 101.766 566.976C102.158 567.2 102.45 567.532 102.642 567.972C102.874 567.556 103.206 567.232 103.638 567C104.078 566.76 104.578 566.64 105.138 566.64ZM115.512 570.108H110.232C110.28 570.764 110.532 571.296 110.988 571.704C111.444 572.104 112.02 572.304 112.716 572.304C113.108 572.304 113.468 572.236 113.796 572.1C114.124 571.956 114.408 571.748 114.648 571.476L115.128 572.028C114.848 572.364 114.496 572.62 114.072 572.796C113.656 572.972 113.196 573.06 112.692 573.06C112.044 573.06 111.468 572.924 110.964 572.652C110.468 572.372 110.08 571.988 109.8 571.5C109.52 571.012 109.38 570.46 109.38 569.844C109.38 569.228 109.512 568.676 109.776 568.188C110.048 567.7 110.416 567.32 110.88 567.048C111.352 566.776 111.88 566.64 112.464 566.64C113.048 566.64 113.572 566.776 114.036 567.048C114.5 567.32 114.864 567.7 115.128 568.188C115.392 568.668 115.524 569.22 115.524 569.844L115.512 570.108ZM112.464 567.372C111.856 567.372 111.344 567.568 110.928 567.96C110.52 568.344 110.288 568.848 110.232 569.472H114.708C114.652 568.848 114.416 568.344 114 567.96C113.592 567.568 113.08 567.372 112.464 567.372ZM120.582 572.616C120.422 572.76 120.222 572.872 119.982 572.952C119.75 573.024 119.506 573.06 119.25 573.06C118.658 573.06 118.202 572.9 117.882 572.58C117.562 572.26 117.402 571.808 117.402 571.224V567.408H116.274V566.688H117.402V565.308H118.254V566.688H120.174V567.408H118.254V571.176C118.254 571.552 118.346 571.84 118.53 572.04C118.722 572.232 118.994 572.328 119.346 572.328C119.522 572.328 119.69 572.3 119.85 572.244C120.018 572.188 120.162 572.108 120.282 572.004L120.582 572.616Z" fill="#191D21"/>
<path d="M242.915 155.38C135.628 -16.6851 135.628 -57.1709 0 -89.5596C0 -89.5596 374.494 -105.754 329.96 -89.5596C285.425 -73.3652 269.231 -59.1952 285.425 -24.7822C301.62 9.63075 558.705 440.805 558.705 440.805C585.659 493.307 617.004 462.852 678.138 402.344L540.486 685.745C456.815 530.549 260.729 186.149 242.915 155.38Z" fill="#F46715" fill-opacity="0.1"/>
</svg>
