<svg width="42" height="8" viewBox="0 0 42 8" fill="#11101D" xmlns="http://www.w3.org/2000/svg">
<path fill-rule="evenodd" clip-rule="evenodd" d="M30.5681 4C30.5681 6.20914 28.7647 8 26.5401 8C24.3155 8 22.5121 6.20914 22.5121 4C22.5121 1.79086 24.3155 0 26.5401 0C28.7647 0 30.5681 1.79086 30.5681 4ZM41.8241 4C41.8241 6.20914 40.0207 8 37.7961 8C35.5715 8 33.7681 6.20914 33.7681 4C33.7681 1.79086 35.5715 0 37.7961 0C40.0207 0 41.8241 1.79086 41.8241 4ZM8.05603 4C8.05603 6.20914 6.25263 8 4.02802 8C1.8034 8 0 6.20914 0 4C0 1.79086 1.8034 0 4.02802 0C6.25263 0 8.05603 1.79086 8.05603 4ZM19.3121 4C19.3121 6.20914 17.5087 8 15.2841 8C13.0594 8 11.256 6.20914 11.256 4C11.256 1.79086 13.0594 0 15.2841 0C17.5087 0 19.3121 1.79086 19.3121 4Z" fill="#11101D"/>
</svg>
