<svg width="20" height="167" viewBox="0 0 20 167" fill="none" xmlns="http://www.w3.org/2000/svg">
<path fill-rule="evenodd" clip-rule="evenodd" d="M10 117.963C4.47715 117.963 0 113.455 0 107.893C0 102.332 4.47715 97.8233 10 97.8233C15.5228 97.8233 20 102.332 20 107.893C20 113.455 15.5228 117.963 10 117.963ZM10 166.875C4.47715 166.875 0 162.367 0 156.805C0 151.243 4.47715 146.735 10 146.735C15.5228 146.735 20 151.243 20 156.805C20 162.367 15.5228 166.875 10 166.875ZM10 20.1401C4.47715 20.1401 0 15.6316 0 10.07C0 4.50851 4.47715 0 10 0C15.5228 0 20 4.50851 20 10.07C20 15.6316 15.5228 20.1401 10 20.1401ZM10 69.0517C4.47715 69.0517 0 64.5432 0 58.9816C0 53.4201 4.47715 48.9116 10 48.9116C15.5228 48.9116 20 53.4201 20 58.9816C20 64.5432 15.5228 69.0517 10 69.0517Z" fill="#75CBB3"/>
</svg>
