<svg width="141" height="305" viewBox="0 0 141 305" fill="none" xmlns="http://www.w3.org/2000/svg">
<path fill-rule="evenodd" clip-rule="evenodd" d="M137.943 151.078C137.903 153.561 135.869 155.542 133.399 155.502C130.928 155.462 128.958 153.418 128.998 150.935C129.038 148.452 131.072 146.472 133.543 146.511C136.013 146.551 137.983 148.596 137.943 151.078ZM106.635 150.577C106.595 153.06 104.561 155.04 102.091 155.001C99.6204 154.961 97.6502 152.916 97.69 150.434C97.7297 147.951 99.7644 145.97 102.235 146.01C104.705 146.049 106.675 148.094 106.635 150.577ZM75.3271 150.076C75.2874 152.558 73.2527 154.539 70.7826 154.499C68.3124 154.46 66.3422 152.415 66.382 149.932C66.4217 147.45 68.4564 145.469 70.9265 145.509C73.3967 145.548 75.3669 147.593 75.3271 150.076ZM44.0191 149.574C43.9793 152.057 41.9447 154.037 39.4745 153.998C37.0044 153.958 35.0342 151.914 35.0739 149.431C35.1137 146.948 37.1484 144.968 39.6185 145.007C42.0886 145.047 44.0588 147.091 44.0191 149.574ZM12.7111 149.073C12.6713 151.556 10.6366 153.536 8.1665 153.497C5.69637 153.457 3.72616 151.412 3.76592 148.93C3.80567 146.447 5.84034 144.466 8.31048 144.506C10.7806 144.545 12.7508 146.59 12.7111 149.073ZM-18.597 148.571C-18.6367 151.054 -20.6714 153.035 -23.1415 152.995C-25.6117 152.956 -27.5819 150.911 -27.5421 148.428C-27.5023 145.945 -25.4677 143.965 -22.9975 144.004C-20.5274 144.044 -18.5572 146.089 -18.597 148.571ZM137.47 180.619C137.43 183.102 135.396 185.083 132.926 185.043C130.455 185.003 128.485 182.959 128.525 180.476C128.565 177.993 130.599 176.013 133.07 176.052C135.54 176.092 137.51 178.136 137.47 180.619ZM106.162 180.118C106.122 182.601 104.088 184.581 101.618 184.542C99.1474 184.502 97.1772 182.457 97.2169 179.975C97.2567 177.492 99.2913 175.511 101.761 175.551C104.232 175.59 106.202 177.635 106.162 180.118ZM74.8541 179.616C74.8143 182.099 72.7796 184.08 70.3095 184.04C67.8393 184.001 65.8691 181.956 65.9089 179.473C65.9487 176.991 67.9833 175.01 70.4535 175.049C72.9236 175.089 74.8938 177.134 74.8541 179.616ZM43.546 179.115C43.5063 181.598 41.4716 183.578 39.0015 183.539C36.5313 183.499 34.5611 181.455 34.6009 178.972C34.6406 176.489 36.6753 174.509 39.1454 174.548C41.6156 174.588 43.5858 176.632 43.546 179.115ZM12.238 178.614C12.1982 181.096 10.1636 183.077 7.69344 183.037C5.2233 182.998 3.25309 180.953 3.29285 178.471C3.33261 175.988 5.36728 174.007 7.83741 174.047C10.3075 174.086 12.2778 176.131 12.238 178.614ZM-19.07 178.112C-19.1098 180.595 -21.1445 182.576 -23.6146 182.536C-26.0847 182.497 -28.0549 180.452 -28.0152 177.969C-27.9754 175.486 -25.9407 173.506 -23.4706 173.545C-21.0005 173.585 -19.0303 175.63 -19.07 178.112ZM136.997 210.16C136.957 212.643 134.923 214.623 132.452 214.584C129.982 214.544 128.012 212.5 128.052 210.017C128.092 207.534 130.126 205.554 132.596 205.593C135.067 205.633 137.037 207.677 136.997 210.16ZM105.689 209.659C105.649 212.141 103.615 214.122 101.144 214.083C98.6743 214.043 96.7041 211.998 96.7439 209.516C96.7836 207.033 98.8183 205.052 101.288 205.092C103.759 205.131 105.729 207.176 105.689 209.659ZM74.381 209.157C74.3412 211.64 72.3066 213.621 69.8364 213.581C67.3663 213.542 65.3961 211.497 65.4358 209.014C65.4756 206.531 67.5103 204.551 69.9804 204.59C72.4505 204.63 74.4207 206.675 74.381 209.157ZM43.073 208.656C43.0332 211.139 40.9985 213.119 38.5284 213.08C36.0583 213.04 34.088 210.996 34.1278 208.513C34.1676 206.03 36.2022 204.05 38.6724 204.089C41.1425 204.129 43.1127 206.173 43.073 208.656ZM11.7649 208.155C11.7252 210.637 9.6905 212.618 7.22037 212.578C4.75023 212.539 2.78002 210.494 2.81978 208.011C2.85954 205.529 4.89421 203.548 7.36435 203.588C9.83448 203.627 11.8047 205.672 11.7649 208.155ZM-19.5431 207.653C-19.5829 210.136 -21.6175 212.117 -24.0877 212.077C-26.5578 212.037 -28.528 209.993 -28.4882 207.51C-28.4485 205.027 -26.4138 203.047 -23.9437 203.086C-21.4735 203.126 -19.5033 205.171 -19.5431 207.653ZM136.503 240.985C136.464 243.468 134.429 245.449 131.959 245.409C129.489 245.37 127.518 243.325 127.558 240.842C127.598 238.359 129.633 236.379 132.103 236.418C134.573 236.458 136.543 238.503 136.503 240.985ZM105.195 240.484C105.156 242.967 103.121 244.947 100.651 244.908C98.1807 244.868 96.2105 242.824 96.2502 240.341C96.29 237.858 98.3246 235.878 100.795 235.917C103.265 235.957 105.235 238.001 105.195 240.484ZM73.8873 239.983C73.8476 242.465 71.8129 244.446 69.3428 244.406C66.8726 244.367 64.9024 242.322 64.9422 239.839C64.982 237.357 67.0166 235.376 69.4868 235.416C71.9569 235.455 73.9271 237.5 73.8873 239.983ZM42.5793 239.481C42.5396 241.964 40.5049 243.945 38.0348 243.905C35.5646 243.866 33.5944 241.821 33.6342 239.338C33.6739 236.855 35.7086 234.875 38.1787 234.914C40.6489 234.954 42.6191 236.999 42.5793 239.481ZM11.2713 238.98C11.2315 241.463 9.19687 243.443 6.72673 243.404C4.2566 243.364 2.28639 241.319 2.32615 238.837C2.3659 236.354 4.40058 234.373 6.87071 234.413C9.34084 234.453 11.3111 236.497 11.2713 238.98ZM-20.0367 238.479C-20.0765 240.961 -22.1112 242.942 -24.5813 242.902C-27.0514 242.863 -29.0216 240.818 -28.9819 238.335C-28.9421 235.853 -26.9074 233.872 -24.4373 233.912C-21.9672 233.951 -19.997 235.996 -20.0367 238.479ZM136.03 270.526C135.991 273.009 133.956 274.99 131.486 274.95C129.016 274.911 127.045 272.866 127.085 270.383C127.125 267.9 129.16 265.92 131.63 265.959C134.1 265.999 136.07 268.044 136.03 270.526ZM104.722 270.025C104.683 272.508 102.648 274.488 100.178 274.449C97.7076 274.409 95.7374 272.364 95.7772 269.882C95.8169 267.399 97.8516 265.418 100.322 265.458C102.792 265.498 104.762 267.542 104.722 270.025ZM73.4143 269.524C73.3745 272.006 71.3399 273.987 68.8697 273.947C66.3996 273.908 64.4294 271.863 64.4691 269.38C64.5089 266.898 66.5436 264.917 69.0137 264.957C71.4838 264.996 73.454 267.041 73.4143 269.524ZM42.1063 269.022C42.0665 271.505 40.0318 273.486 37.5617 273.446C35.0916 273.406 33.1213 271.362 33.1611 268.879C33.2009 266.396 35.2355 264.416 37.7057 264.455C40.1758 264.495 42.146 266.54 42.1063 269.022ZM10.7982 268.521C10.7585 271.004 8.7238 272.984 6.25367 272.945C3.78353 272.905 1.81332 270.86 1.85308 268.378C1.89284 265.895 3.92751 263.914 6.39764 263.954C8.86778 263.993 10.838 266.038 10.7982 268.521ZM-20.5098 268.02C-20.5496 270.502 -22.5842 272.483 -25.0544 272.443C-27.5245 272.404 -29.4947 270.359 -29.4549 267.876C-29.4152 265.394 -27.3805 263.413 -24.9104 263.453C-22.4402 263.492 -20.47 265.537 -20.5098 268.02ZM135.557 300.067C135.518 302.55 133.483 304.531 131.013 304.491C128.543 304.451 126.572 302.407 126.612 299.924C126.652 297.441 128.687 295.461 131.157 295.5C133.627 295.54 135.597 297.585 135.557 300.067ZM104.249 299.566C104.209 302.049 102.175 304.029 99.7047 303.99C97.2345 303.95 95.2643 301.905 95.3041 299.423C95.3438 296.94 97.3785 294.959 99.8486 294.999C102.319 295.039 104.289 297.083 104.249 299.566ZM72.9412 299.065C72.9015 301.547 70.8668 303.528 68.3967 303.488C65.9265 303.449 63.9563 301.404 63.9961 298.921C64.0358 296.439 66.0705 294.458 68.5406 294.498C71.0108 294.537 72.981 296.582 72.9412 299.065ZM41.6332 298.563C41.5934 301.046 39.5588 303.027 37.0886 302.987C34.6185 302.947 32.6483 300.903 32.688 298.42C32.7278 295.937 34.7625 293.957 37.2326 293.996C39.7027 294.036 41.6729 296.08 41.6332 298.563ZM10.3252 298.062C10.2854 300.545 8.25073 302.525 5.7806 302.486C3.31046 302.446 1.34025 300.401 1.38001 297.919C1.41977 295.436 3.45444 293.455 5.92458 293.495C8.39471 293.534 10.3649 295.579 10.3252 298.062ZM-20.9829 297.56C-21.0226 300.043 -23.0573 302.024 -25.5274 301.984C-27.9976 301.945 -29.9678 299.9 -29.928 297.417C-29.8883 294.935 -27.8536 292.954 -25.3834 292.994C-22.9133 293.033 -20.9431 295.078 -20.9829 297.56Z" fill="#FF0000"/>
<path fill-rule="evenodd" clip-rule="evenodd" d="M140.248 7.14546C140.208 9.62817 138.174 11.6088 135.703 11.5692C133.233 11.5296 131.263 9.48493 131.303 7.00221C131.343 4.51949 133.377 2.53892 135.847 2.57848C138.318 2.61804 140.288 4.66274 140.248 7.14546ZM108.94 6.6441C108.9 9.12681 106.866 11.1074 104.395 11.0678C101.925 11.0283 99.9552 8.98356 99.9949 6.50085C100.035 4.01813 102.069 2.03756 104.539 2.07712C107.01 2.11667 108.98 4.16137 108.94 6.6441ZM77.632 6.14273C77.5922 8.62544 75.5576 10.606 73.0874 10.5665C70.6173 10.5269 68.6471 8.4822 68.6869 5.99948C68.7266 3.51676 70.7613 1.53619 73.2314 1.57575C75.7016 1.61531 77.6718 3.66001 77.632 6.14273ZM46.324 5.64137C46.2843 8.12408 44.2496 10.1047 41.7795 10.0651C39.3093 10.0255 37.3391 7.98083 37.3789 5.49812C37.4186 3.0154 39.4533 1.03483 41.9234 1.07438C44.3936 1.11394 46.3638 3.15864 46.324 5.64137ZM15.016 5.14C14.9762 7.62271 12.9415 9.60329 10.4714 9.56373C8.00125 9.52418 6.03104 7.47947 6.0708 4.99675C6.11056 2.51403 8.14523 0.533462 10.6154 0.573019C13.0855 0.612575 15.0557 2.65728 15.016 5.14ZM-16.292 4.63863C-16.3318 7.12135 -18.3665 9.10192 -20.8366 9.06237C-23.3067 9.02281 -25.277 6.9781 -25.2372 4.49539C-25.1974 2.01267 -23.1628 0.0320972 -20.6926 0.0716538C-18.2225 0.11121 -16.2523 2.15591 -16.292 4.63863ZM139.88 30.1344C139.84 32.6171 137.805 34.5977 135.335 34.5581C132.865 34.5186 130.895 32.4739 130.935 29.9911C130.975 27.5084 133.009 25.5279 135.479 25.5674C137.949 25.607 139.92 27.6517 139.88 30.1344ZM108.572 29.633C108.532 32.1157 106.497 34.0963 104.027 34.0568C101.557 34.0172 99.587 31.9725 99.6268 29.4898C99.6665 27.0071 101.701 25.0265 104.171 25.066C106.641 25.1056 108.612 27.1503 108.572 29.633ZM77.2639 29.1317C77.2241 31.6144 75.1894 33.595 72.7193 33.5554C70.2492 33.5158 68.279 31.4711 68.3187 28.9884C68.3585 26.5057 70.3931 24.5251 72.8633 24.5647C75.3334 24.6042 77.3036 26.6489 77.2639 29.1317ZM45.9559 28.6303C45.9161 31.113 43.8814 33.0936 41.4113 33.054C38.9412 33.0145 36.971 30.9698 37.0107 28.4871C37.0505 26.0043 39.0851 24.0238 41.5553 24.0633C44.0254 24.1029 45.9956 26.1476 45.9559 28.6303ZM14.6478 28.1289C14.608 30.6116 12.5734 32.5922 10.1032 32.5527C7.63311 32.5131 5.6629 30.4684 5.70266 27.9857C5.74242 25.503 7.77709 23.5224 10.2472 23.562C12.7174 23.6015 14.6876 25.6462 14.6478 28.1289ZM-16.6602 27.6276C-16.6999 30.1103 -18.7346 32.0909 -21.2048 32.0513C-23.6749 32.0117 -25.6451 29.967 -25.6053 27.4843C-25.5656 25.0016 -23.5309 23.021 -21.0608 23.0606C-18.5906 23.1001 -16.6204 25.1448 -16.6602 27.6276ZM139.512 53.1233C139.472 55.606 137.437 57.5866 134.967 57.5471C132.497 57.5075 130.527 55.4628 130.567 52.9801C130.606 50.4974 132.641 48.5168 135.111 48.5563C137.581 48.5959 139.552 50.6406 139.512 53.1233ZM108.204 52.622C108.164 55.1047 106.129 57.0853 103.659 57.0457C101.189 57.0061 99.2189 54.9614 99.2586 52.4787C99.2984 49.996 101.333 48.0154 103.803 48.055C106.273 48.0945 108.244 50.1392 108.204 52.622ZM76.8957 52.1206C76.856 54.6033 74.8213 56.5839 72.3512 56.5443C69.881 56.5048 67.9108 54.4601 67.9506 51.9774C67.9903 49.4946 70.025 47.5141 72.4951 47.5536C74.9653 47.5932 76.9355 49.6379 76.8957 52.1206ZM45.5877 51.6192C45.548 54.1019 43.5133 56.0825 41.0432 56.043C38.573 56.0034 36.6028 53.9587 36.6426 51.476C36.6823 48.9933 38.717 47.0127 41.1871 47.0523C43.6573 47.0918 45.6275 49.1365 45.5877 51.6192ZM14.2797 51.1179C14.2399 53.6006 12.2052 55.5812 9.7351 55.5416C7.26497 55.502 5.29476 53.4573 5.33451 50.9746C5.37427 48.4919 7.40894 46.5113 9.87908 46.5509C12.3492 46.5904 14.3194 48.6351 14.2797 51.1179ZM-17.0283 50.6165C-17.0681 53.0992 -19.1028 55.0798 -21.5729 55.0402C-24.043 55.0007 -26.0132 52.956 -25.9735 50.4733C-25.9337 47.9905 -23.8991 46.01 -21.4289 46.0495C-18.9588 46.0891 -16.9886 48.1338 -17.0283 50.6165ZM139.144 76.1123C139.104 78.595 137.069 80.5756 134.599 80.536C132.129 80.4964 130.159 78.4517 130.198 75.969C130.238 73.4863 132.273 71.5057 134.743 71.5453C137.213 71.5848 139.183 73.6295 139.144 76.1123ZM107.836 75.6109C107.796 78.0936 105.761 80.0742 103.291 80.0346C100.821 79.9951 98.8507 77.9504 98.8905 75.4677C98.9302 72.9849 100.965 71.0044 103.435 71.0439C105.905 71.0835 107.875 73.1282 107.836 75.6109ZM76.5276 75.1095C76.4878 77.5923 74.4532 79.5728 71.983 79.5333C69.5129 79.4937 67.5427 77.449 67.5824 74.9663C67.6222 72.4836 69.6569 70.503 72.127 70.5425C74.5971 70.5821 76.5673 72.6268 76.5276 75.1095ZM45.2196 74.6082C45.1798 77.0909 43.1452 79.0715 40.675 79.0319C38.2049 78.9923 36.2347 76.9476 36.2744 74.4649C36.3142 71.9822 38.3489 70.0016 40.819 70.0412C43.2891 70.0807 45.2593 72.1255 45.2196 74.6082ZM13.9115 74.1068C13.8718 76.5895 11.8371 78.5701 9.36696 78.5305C6.89682 78.491 4.92661 76.4463 4.96637 73.9636C5.00613 71.4808 7.0408 69.5003 9.51093 69.5398C11.9811 69.5794 13.9513 71.6241 13.9115 74.1068ZM-17.3965 73.6054C-17.4362 76.0882 -19.4709 78.0687 -21.941 78.0292C-24.4112 77.9896 -26.3814 75.9449 -26.3416 73.4622C-26.3019 70.9795 -24.2672 68.9989 -21.7971 69.0385C-19.3269 69.078 -17.3567 71.1227 -17.3965 73.6054ZM138.775 99.1012C138.736 101.584 136.701 103.564 134.231 103.525C131.761 103.485 129.791 101.441 129.83 98.9579C129.87 96.4752 131.905 94.4947 134.375 94.5342C136.845 94.5738 138.815 96.6185 138.775 99.1012ZM107.467 98.5998C107.428 101.083 105.393 103.063 102.923 103.024C100.453 102.984 98.4826 100.939 98.5223 98.4566C98.5621 95.9739 100.597 93.9933 103.067 94.0328C105.537 94.0724 107.507 96.1171 107.467 98.5998ZM76.1594 98.0985C76.1197 100.581 74.085 102.562 71.6149 102.522C69.1447 102.483 67.1745 100.438 67.2143 97.9552C67.254 95.4725 69.2887 93.4919 71.7588 93.5315C74.229 93.571 76.1992 95.6157 76.1594 98.0985ZM44.8514 97.5971C44.8117 100.08 42.777 102.06 40.3069 102.021C37.8367 101.981 35.8665 99.9366 35.9063 97.4539C35.946 94.9711 37.9807 92.9906 40.4508 93.0301C42.921 93.0697 44.8912 95.1144 44.8514 97.5971ZM13.5434 97.0957C13.5036 99.5785 11.4689 101.559 8.99881 101.519C6.52868 101.48 4.55847 99.4352 4.59823 96.9525C4.63799 94.4698 6.67266 92.4892 9.14279 92.5288C11.6129 92.5683 13.5831 94.613 13.5434 97.0957ZM-17.7646 96.5944C-17.8044 99.0771 -19.839 101.058 -22.3092 101.018C-24.7793 100.979 -26.7495 98.9338 -26.7098 96.4511C-26.67 93.9684 -24.6353 91.9878 -22.1652 92.0274C-19.6951 92.0669 -17.7249 94.1117 -17.7646 96.5944ZM138.407 122.09C138.368 124.573 136.333 126.553 133.863 126.514C131.393 126.474 129.422 124.43 129.462 121.947C129.502 119.464 131.537 117.484 134.007 117.523C136.477 117.563 138.447 119.607 138.407 122.09ZM107.099 121.589C107.06 124.071 105.025 126.052 102.555 126.013C100.085 125.973 98.1144 123.928 98.1542 121.446C98.1939 118.963 100.229 116.982 102.699 117.022C105.169 117.061 107.139 119.106 107.099 121.589ZM75.7913 121.087C75.7516 123.57 73.7169 125.551 71.2468 125.511C68.7766 125.472 66.8064 123.427 66.8462 120.944C66.8859 118.461 68.9206 116.481 71.3907 116.52C73.8609 116.56 75.8311 118.605 75.7913 121.087ZM44.4833 120.586C44.4435 123.069 42.4089 125.049 39.9387 125.01C37.4686 124.97 35.4984 122.926 35.5381 120.443C35.5779 117.96 37.6126 115.979 40.0827 116.019C42.5528 116.059 44.523 118.103 44.4833 120.586ZM13.1753 120.085C13.1355 122.567 11.1008 124.548 8.6307 124.508C6.16056 124.469 4.19035 122.424 4.23011 119.941C4.26987 117.459 6.30454 115.478 8.77467 115.518C11.2448 115.557 13.215 117.602 13.1753 120.085ZM-18.1328 119.583C-18.1725 122.066 -20.2072 124.047 -22.6773 124.007C-25.1475 123.967 -27.1177 121.923 -27.0779 119.44C-27.0382 116.957 -25.0035 114.977 -22.5334 115.016C-20.0632 115.056 -18.093 117.101 -18.1328 119.583Z" fill="#FF0000"/>
</svg>
