<svg width="33" height="27" viewBox="0 0 33 27" fill="none" xmlns="http://www.w3.org/2000/svg">
<path d="M1 20.5547C1 18.0391 3.03914 16 5.55467 16C8.07019 16 10.1093 18.0391 10.1093 20.5547C10.1093 23.0702 8.07019 25.1093 5.55467 25.1093C3.03914 25.1093 1 23.0702 1 20.5547Z" fill="black" stroke="black"/>
<path d="M31 1H24.1973C25.3851 1 25.5735 3.22595 25.3851 3.55061V22.9231C25.211 24.3011 24.9302 24.6913 24.1973 25.1094H31C30.556 24.5265 30.2375 24.2296 30.1362 22.9231V3.55061C30.1258 2.33485 30.3267 1.78387 31 1Z" fill="black" stroke="black"/>
<path d="M8.28747 9.17142C5.06884 4.00946 5.06884 2.79489 1 1.82322C1 1.82322 12.2348 1.33739 10.8988 1.82322C9.56277 2.30906 9.07694 2.73416 9.56277 3.76655C10.0486 4.79894 17.7612 17.7342 17.7612 17.7342C18.5698 19.3093 19.5102 18.3956 21.3442 16.5803L17.2146 25.0824C14.7045 20.4265 8.82188 10.0945 8.28747 9.17142Z" fill="black" stroke="black"/>
</svg>
