<svg width="693" height="172" viewBox="0 0 693 172" fill="none" xmlns="http://www.w3.org/2000/svg">
<path d="M179.279 0.0185272L150.949 3.25145C135.303 5.03693 123.926 20.526 125.539 37.8472V37.8472L153.869 34.6143C169.516 32.8288 180.892 17.3397 179.279 0.0185272V0.0185272Z" fill="#6ED47C"/>
<path d="M35.1767 87.9161C20.082 63.7076 20.082 58.0114 1 53.4545C1 53.4545 53.689 51.1761 47.4233 53.4545C41.1576 55.733 38.8791 57.7266 41.1576 62.5683C43.436 67.41 79.6063 128.074 79.6063 128.074C83.3986 135.46 87.8087 131.176 96.4098 122.662L77.0431 162.535C65.2711 140.7 37.6829 92.2451 35.1767 87.9161Z" fill="black" stroke="black"/>
<path d="M22.3605 162.662C34.1573 162.662 43.7207 153.098 43.7207 141.301C43.7207 129.504 34.1573 119.94 22.3605 119.94C10.563 119.94 0.999558 129.504 0.999558 141.301V162.662H22.3605Z" fill="#FF743C"/>
<path d="M141.689 49.583H109.786C115.356 49.583 116.24 60.0223 115.356 61.5449V152.398C114.54 158.861 113.223 160.691 109.786 162.651H141.689C139.607 159.918 138.113 158.525 137.638 152.398V61.5449C137.589 55.8432 138.531 53.2592 141.689 49.583Z" fill="black" stroke="black"/>
<path d="M200.83 141V74.5H206.625L237.025 126.37H233.985L264.1 74.5H269.895V141H263.15V85.045H264.765L237.025 132.545H233.7L205.77 85.045H207.575V141H200.83ZM318.352 141.57C309.866 141.57 303.184 139.132 298.307 134.255C293.431 129.378 290.992 122.158 290.992 112.595V74.5H298.022V112.31C298.022 120.163 299.796 125.958 303.342 129.695C306.889 133.432 311.892 135.3 318.352 135.3C324.876 135.3 329.911 133.432 333.457 129.695C337.004 125.958 338.777 120.163 338.777 112.31V74.5H345.617V112.595C345.617 122.158 343.179 129.378 338.302 134.255C333.489 139.132 326.839 141.57 318.352 141.57ZM372.882 124.47L372.597 115.92L412.877 74.5H420.952L391.597 105.28L387.607 109.555L372.882 124.47ZM366.802 141V74.5H373.832V141H366.802ZM414.587 141L385.897 107.94L390.647 102.81L422.947 141H414.587ZM421.103 141L451.503 74.5H458.438L488.838 141H481.428L453.498 78.585H456.348L428.418 141H421.103ZM433.073 123.235L435.163 117.535H473.828L475.918 123.235H433.073ZM499.839 141V74.5H526.914C534.007 74.5 540.214 75.925 545.534 78.775C550.917 81.5617 555.097 85.4567 558.074 90.46C561.05 95.4633 562.539 101.227 562.539 107.75C562.539 114.273 561.05 120.037 558.074 125.04C555.097 130.043 550.917 133.97 545.534 136.82C540.214 139.607 534.007 141 526.914 141H499.839ZM506.869 134.92H526.534C532.424 134.92 537.522 133.78 541.829 131.5C546.199 129.157 549.587 125.958 551.994 121.905C554.4 117.788 555.604 113.07 555.604 107.75C555.604 102.367 554.4 97.6483 551.994 93.595C549.587 89.5417 546.199 86.375 541.829 84.095C537.522 81.7517 532.424 80.58 526.534 80.58H506.869V134.92ZM578.325 141V74.5H585.355V141H578.325Z" fill="black"/>
</svg>
