<svg width="638" height="572" viewBox="0 0 638 572" fill="none" xmlns="http://www.w3.org/2000/svg">
<path d="M626.946 -9.35717e-05L527.473 11.3513C472.536 17.6204 432.591 72.0048 438.254 132.822L537.727 121.471C592.664 115.202 632.609 60.8171 626.946 -9.35717e-05Z" fill="#6ED47C"/>
<path d="M121 308.556C68 223.556 68 203.556 1 187.556C1 187.556 186 179.556 164 187.556C142 195.556 134 202.556 142 219.556C150 236.556 277 449.556 277 449.556C290.315 475.492 305.8 460.447 336 430.556L268 570.556C226.667 493.889 129.8 323.756 121 308.556Z" fill="black" stroke="black"/>
<path d="M76.0015 571C117.421 571 151 537.421 151 495.999C151 454.579 117.421 421 76.0015 421C34.5786 421 1 454.579 1 495.999V571H76.0015Z" fill="#FF743C"/>
<path d="M495 174H382.983C402.541 174 405.644 210.654 402.541 216V535C399.675 557.691 395.051 564.116 382.983 571H495C487.69 561.402 482.444 556.514 480.776 535V216C480.605 195.98 483.913 186.908 495 174Z" fill="black" stroke="black"/>
</svg>
