<svg width="100" height="318" viewBox="0 0 100 318" fill="none" xmlns="http://www.w3.org/2000/svg">
<path fill-rule="evenodd" clip-rule="evenodd" d="M50 117.963C44.4772 117.963 40 113.455 40 107.893C40 102.332 44.4772 97.8233 50 97.8233C55.5228 97.8233 60 102.332 60 107.893C60 113.455 55.5228 117.963 50 117.963ZM50 166.875C44.4772 166.875 40 162.367 40 156.805C40 151.243 44.4772 146.735 50 146.735C55.5228 146.735 60 151.243 60 156.805C60 162.367 55.5228 166.875 50 166.875ZM50 20.1401C44.4772 20.1401 40 15.6316 40 10.07C40 4.50851 44.4772 0 50 0C55.5228 0 60 4.50851 60 10.07C60 15.6316 55.5228 20.1401 50 20.1401ZM50 69.0517C44.4772 69.0517 40 64.5432 40 58.9816C40 53.4201 44.4772 48.9116 50 48.9116C55.5228 48.9116 60 53.4201 60 58.9816C60 64.5432 55.5228 69.0517 50 69.0517Z" fill="#75CBB3"/>
<path d="M0 302.182C0 293.797 6.79712 287 15.1822 287C23.5673 287 30.3644 293.797 30.3644 302.182C30.3644 310.567 23.5673 317.364 15.1822 317.364C6.79712 317.364 0 310.567 0 302.182Z" fill="black" fill-opacity="0.5"/>
<path d="M100 237H77.3245C81.2837 237 81.9117 244.42 81.2837 245.502V310.077C80.7035 314.67 79.7674 315.971 77.3245 317.364H100C98.5202 315.421 97.4583 314.432 97.1206 310.077V245.502C97.086 241.449 97.7557 239.613 100 237Z" fill="black" fill-opacity="0.5"/>
<path d="M24.2915 264.238C13.5628 247.031 13.5628 242.983 0 239.744C0 239.744 37.4494 238.124 32.996 239.744C28.5425 241.363 26.9231 242.78 28.5425 246.222C30.1619 249.663 55.8704 292.78 55.8704 292.78C58.5659 298.031 61.7004 294.985 67.8138 288.934L54.0486 317.274C45.6815 301.755 26.0729 267.315 24.2915 264.238Z" fill="black" fill-opacity="0.5"/>
</svg>
