<svg width="692" height="172" viewBox="0 0 692 172" fill="none" xmlns="http://www.w3.org/2000/svg">
<path d="M178.28 -2.74487e-05L149.949 3.2329C134.303 5.01838 122.926 20.5075 124.539 37.8287V37.8287L152.87 34.5958C168.516 32.8103 179.893 17.3212 178.28 -2.74487e-05V-2.74487e-05Z" fill="#11101D"/>
<path d="M34.1769 87.8975C19.0822 63.689 19.0822 57.9929 0.000244141 53.436C0.000244141 53.436 52.6893 51.1575 46.4235 53.436C40.1578 55.7144 37.8794 57.7081 40.1578 62.5498C42.4363 67.3915 78.6065 128.055 78.6065 128.055C82.3988 135.442 86.8089 131.157 95.4101 122.644L76.0433 162.517C64.2713 140.682 36.6832 92.2266 34.1769 87.8975Z" fill="white"/>
<path d="M21.3608 162.643C33.1575 162.643 42.7209 153.08 42.7209 141.282C42.7209 129.485 33.1575 119.922 21.3608 119.922C9.56323 119.922 -0.00019757 129.485 -0.00019757 141.282V162.643H21.3608Z" fill="#11101D"/>
<path d="M140.689 49.5645H108.786C114.356 49.5645 115.24 60.0037 114.356 61.5263V152.38C113.54 158.842 112.223 160.672 108.786 162.633H140.689C138.607 159.899 137.113 158.507 136.638 152.38V61.5263C136.589 55.8246 137.531 53.2407 140.689 49.5645Z" fill="white"/>
<path d="M199.83 140.981V74.4814H205.625L236.025 126.351H232.985L263.1 74.4814H268.895V140.981H262.15V85.0264H263.765L236.025 132.526H232.7L204.77 85.0264H206.575V140.981H199.83ZM317.353 141.551C308.866 141.551 302.184 139.113 297.308 134.236C292.431 129.36 289.993 122.14 289.993 112.576V74.4814H297.023V112.291C297.023 120.145 298.796 125.94 302.343 129.676C305.889 133.413 310.893 135.281 317.353 135.281C323.876 135.281 328.911 133.413 332.458 129.676C336.004 125.94 337.778 120.145 337.778 112.291V74.4814H344.618V112.576C344.618 122.14 342.179 129.36 337.303 134.236C332.489 139.113 325.839 141.551 317.353 141.551ZM371.882 124.451L371.597 115.901L411.877 74.4814H419.952L390.597 105.261L386.607 109.536L371.882 124.451ZM365.802 140.981V74.4814H372.832V140.981H365.802ZM413.587 140.981L384.897 107.921L389.647 102.791L421.947 140.981H413.587ZM420.103 140.981L450.503 74.4814H457.438L487.838 140.981H480.428L452.498 78.5664H455.348L427.418 140.981H420.103ZM432.073 123.216L434.163 117.516H472.828L474.918 123.216H432.073ZM498.839 140.981V74.4814H525.914C533.007 74.4814 539.214 75.9064 544.534 78.7564C549.917 81.5431 554.097 85.4381 557.074 90.4414C560.051 95.4448 561.539 101.208 561.539 107.731C561.539 114.255 560.051 120.018 557.074 125.021C554.097 130.025 549.917 133.951 544.534 136.801C539.214 139.588 533.007 140.981 525.914 140.981H498.839ZM505.869 134.901H525.534C531.424 134.901 536.522 133.761 540.829 131.481C545.199 129.138 548.587 125.94 550.994 121.886C553.401 117.77 554.604 113.051 554.604 107.731C554.604 102.348 553.401 97.6298 550.994 93.5764C548.587 89.5231 545.199 86.3564 540.829 84.0764C536.522 81.7331 531.424 80.5614 525.534 80.5614H505.869V134.901ZM577.325 140.981V74.4814H584.355V140.981H577.325Z" fill="white"/>
</svg>
