<svg width="107" height="91" viewBox="0 0 107 91" fill="none" xmlns="http://www.w3.org/2000/svg">
<path d="M20.184 65.2V82H18.48V68.56L11.88 79.864H11.04L4.44 68.632V82H2.736V65.2H4.2L11.496 77.656L18.72 65.2H20.184ZM31.9259 82.144C29.7499 82.144 28.0539 81.52 26.8379 80.272C25.6219 79.024 25.0139 77.208 25.0139 74.824V65.2H26.7899V74.752C26.7899 76.704 27.2299 78.16 28.1099 79.12C28.9899 80.08 30.2619 80.56 31.9259 80.56C33.6059 80.56 34.8859 80.08 35.7659 79.12C36.6459 78.16 37.0859 76.704 37.0859 74.752V65.2H38.8139V74.824C38.8139 77.208 38.2059 79.024 36.9899 80.272C35.7899 81.52 34.1019 82.144 31.9259 82.144ZM48.8737 74.104L45.4417 77.584V82H43.6657V65.2H45.4417V75.352L55.3057 65.2H57.3457L50.0737 72.808L57.8497 82H55.7377L48.8737 74.104ZM70.1079 77.512H60.7479L58.7319 82H56.8839L64.5639 65.2H66.3159L73.9959 82H72.1239L70.1079 77.512ZM69.4599 76.072L65.4279 67.048L61.3959 76.072H69.4599ZM76.2751 65.2H83.1151C84.8911 65.2 86.4591 65.56 87.8191 66.28C89.1791 66.984 90.2351 67.976 90.9871 69.256C91.7391 70.52 92.1151 71.968 92.1151 73.6C92.1151 75.232 91.7391 76.688 90.9871 77.968C90.2351 79.232 89.1791 80.224 87.8191 80.944C86.4591 81.648 84.8911 82 83.1151 82H76.2751V65.2ZM83.0191 80.464C84.4911 80.464 85.7791 80.176 86.8831 79.6C87.9871 79.008 88.8431 78.2 89.4511 77.176C90.0591 76.136 90.3631 74.944 90.3631 73.6C90.3631 72.256 90.0591 71.072 89.4511 70.048C88.8431 69.008 87.9871 68.2 86.8831 67.624C85.7791 67.032 84.4911 66.736 83.0191 66.736H78.0511V80.464H83.0191ZM95.6032 65.2H97.3792V82H95.6032V65.2Z" fill="#191D21"/>
<path d="M24 39.1093C24 34.0783 28.0783 30 33.1093 30C38.1404 30 42.2186 34.0783 42.2186 39.1093C42.2186 44.1404 38.1404 48.2186 33.1093 48.2186C28.0783 48.2186 24 44.1404 24 39.1093Z" fill="#191D21"/>
<path d="M83.9998 0H70.3945C72.77 0 73.1468 4.45189 72.7701 5.10122V43.8462C72.4219 46.6022 71.8603 47.3826 70.3945 48.2186H83.9998C83.1119 47.0529 82.4748 46.4592 82.2722 43.8462V5.10122C82.2514 2.66969 82.6532 1.56774 83.9998 0Z" fill="#191D21"/>
<path d="M38.5749 16.3428C32.1377 6.01892 32.1377 3.58977 24 1.64645C24 1.64645 46.4696 0.674788 43.7976 1.64645C41.1255 2.61811 40.1538 3.46831 41.1255 5.53309C42.0972 7.59787 57.5223 33.4683 57.5223 33.4683C59.1395 36.6184 61.0202 34.7911 64.6883 31.1606L56.4291 48.1647C51.4089 38.8529 39.6437 18.189 38.5749 16.3428Z" fill="#191D21"/>
</svg>
