<svg width="904" height="765" viewBox="0 0 904 765" fill="none" xmlns="http://www.w3.org/2000/svg">
<path d="M0 612.822C0 528.972 67.9713 461 151.822 461C235.673 461 303.644 528.972 303.644 612.822C303.644 696.673 235.673 764.644 151.822 764.644C67.9713 764.644 0 696.673 0 612.822Z" fill="#F46715" fill-opacity="0.1"/>
<path d="M1000 -39H773.245C812.837 -39 819.117 35.1982 812.837 46.0203V691.77C807.035 737.704 797.674 750.71 773.245 764.644H1000C985.202 745.216 974.583 735.32 971.206 691.77V46.0203C970.86 5.49479 977.557 -12.871 1000 -39Z" fill="#F46715" fill-opacity="0"/>
<path d="M242.915 233.38C135.628 61.3149 135.628 20.8291 0 -11.5596C0 -11.5596 374.494 -27.7539 329.96 -11.5596C285.425 4.63475 269.231 18.8048 285.425 53.2178C301.62 87.6308 558.705 518.805 558.705 518.805C585.659 571.307 617.004 540.852 678.138 480.344L540.486 763.745C456.815 608.549 260.729 264.149 242.915 233.38Z" fill="#F46715" fill-opacity="0.1"/>
</svg>
