<svg width="96" height="18" viewBox="0 0 96 18" fill="none" xmlns="http://www.w3.org/2000/svg">
<path d="M18.184 0.199999V17H16.48V3.56L9.88 14.864H9.04L2.44 3.632V17H0.736V0.199999H2.2L9.496 12.656L16.72 0.199999H18.184ZM29.9259 17.144C27.7499 17.144 26.0539 16.52 24.8379 15.272C23.6219 14.024 23.0139 12.208 23.0139 9.824V0.199999H24.7899V9.752C24.7899 11.704 25.2299 13.16 26.1099 14.12C26.9899 15.08 28.2619 15.56 29.9259 15.56C31.6059 15.56 32.8859 15.08 33.7659 14.12C34.6459 13.16 35.0859 11.704 35.0859 9.752V0.199999H36.8139V9.824C36.8139 12.208 36.2059 14.024 34.9899 15.272C33.7899 16.52 32.1019 17.144 29.9259 17.144ZM46.8737 9.104L43.4417 12.584V17H41.6657V0.199999H43.4417V10.352L53.3057 0.199999H55.3457L48.0737 7.808L55.8497 17H53.7377L46.8737 9.104ZM68.1079 12.512H58.7479L56.7319 17H54.8839L62.5639 0.199999H64.3159L71.9959 17H70.1239L68.1079 12.512ZM67.4599 11.072L63.4279 2.048L59.3959 11.072H67.4599ZM74.2751 0.199999H81.1151C82.8911 0.199999 84.4591 0.559999 85.8191 1.28C87.1791 1.984 88.2351 2.976 88.9871 4.256C89.7391 5.52 90.1151 6.968 90.1151 8.6C90.1151 10.232 89.7391 11.688 88.9871 12.968C88.2351 14.232 87.1791 15.224 85.8191 15.944C84.4591 16.648 82.8911 17 81.1151 17H74.2751V0.199999ZM81.0191 15.464C82.4911 15.464 83.7791 15.176 84.8831 14.6C85.9871 14.008 86.8431 13.2 87.4511 12.176C88.0591 11.136 88.3631 9.944 88.3631 8.6C88.3631 7.256 88.0591 6.072 87.4511 5.048C86.8431 4.008 85.9871 3.2 84.8831 2.624C83.7791 2.032 82.4911 1.736 81.0191 1.736H76.0511V15.464H81.0191ZM93.6032 0.199999H95.3792V17H93.6032V0.199999Z" fill="#191D21"/>
</svg>
