<svg width="497" height="399" viewBox="0 0 497 399" fill="none" xmlns="http://www.w3.org/2000/svg">
<path d="M121 135.556C68 50.5556 68 30.5556 1 14.5556C1 14.5556 186 6.55555 164 14.5556C142 22.5556 134 29.5556 142 46.5556C150 63.5556 277 276.556 277 276.556C290.315 302.492 305.8 287.447 336 257.556L268 397.556C226.667 320.889 129.8 150.756 121 135.556Z" fill="black" stroke="black"/>
<path d="M1 323C1 281.578 34.5778 248 76 248C117.422 248 151 281.578 151 323C151 364.422 117.422 398 76 398C34.5778 398 1 364.422 1 323Z" fill="black"/>
<path d="M495 1H382.983C402.541 1.00001 405.644 37.6539 402.541 43V362C399.675 384.691 395.051 391.116 382.983 398H495C487.69 388.402 482.444 383.514 480.776 362V43C480.605 22.9804 483.913 13.9077 495 1Z" fill="black" stroke="black"/>
</svg>
