<svg width="184" height="171" viewBox="0 0 184 171" fill="none" xmlns="http://www.w3.org/2000/svg">
<path d="M91.3058 91.5973C85.9223 91.5973 79.5458 92.9497 77.7948 97.5557C77.1415 99.2021 77.2787 101.012 77.4094 102.782C78.6691 119.53 81.5129 136.12 85.9027 152.331C87.5687 158.492 90.2931 165.483 96.8395 167.698C99.2699 168.521 101.909 168.54 104.484 168.488C108.626 168.397 112.763 168.153 116.897 167.756C119.327 167.521 121.928 167.149 123.639 165.587C126.03 163.405 125.75 159.831 125.305 156.728C122.945 140.177 120.584 123.626 118.223 107.075C117.256 100.3 115.446 92.4075 108.665 89.3891C102.785 86.7757 95.9248 89.1473 90.0383 91.5189" fill="#3E8AE5"/>
<path d="M80.2578 112.668L80.1729 113.242C80.2578 113.249 80.2578 113.105 80.2578 112.668Z" fill="#202020"/>
<path d="M116.949 112.243C116.949 112.197 116.949 112.151 116.897 112.112C116.923 112.204 116.936 112.236 116.949 112.243Z" fill="#202020"/>
<path d="M78.5527 135.038L78.4874 134.9L78.5527 135.038Z" fill="#202020"/>
<path d="M74.8875 106.389C75.1357 110.172 75.1815 112.576 75.3056 115.019C75.4492 117.96 75.8095 120.886 76.3836 123.774C76.8997 127.492 77.7556 131.412 78.5461 134.992C79.4281 136.586 79.5196 139.709 80.4277 141.617L80.2971 142.459C80.6609 143.146 80.8705 143.904 80.9112 144.681H80.8132C81.2967 145.661 81.4273 146.856 81.6756 147.333H81.5711L81.9239 148.575L81.7475 148.392C82.4086 150.085 82.9181 151.834 83.2697 153.618L83.5964 153.377C83.8316 154.821 84.2716 156.225 84.9031 157.545C85.4192 158.688 85.9092 159.773 86.5037 161.465H86.3992C87.8757 163.216 88.7577 164.732 89.9403 166.267C90.2539 166.626 90.5609 166.999 90.9072 167.358C91.2772 167.711 91.6654 168.045 92.0701 168.358C93.0111 169.045 94.09 169.519 95.2323 169.749C94.5789 169.625 95.4021 170.03 95.3237 170.102C96.3448 170.481 97.4178 170.701 98.5055 170.755C99.394 170.755 99.982 170.631 100.034 170.259C101.543 170.396 101.243 170.572 101.432 170.912C101.432 170.585 102.739 170.5 103.856 170.455L103.34 170.585C104.425 170.54 105.463 170.474 106.522 170.402L105.869 169.808C107.548 169.932 106.319 170.546 107.92 170.337L107.881 169.828C110.194 169.828 111.598 170.52 113.878 170.723C115.054 170.657 116.224 170.559 117.426 170.429C118.754 170.304 120.066 170.052 121.346 169.677C122.884 169.238 124.288 168.42 125.429 167.299C126.572 166.106 127.33 164.597 127.605 162.968C127.831 161.598 127.864 160.204 127.703 158.825C127.579 157.519 127.37 156.369 127.219 155.252C126.906 152.991 126.677 150.77 126.566 148.607L126.893 148.176C127.429 147.934 125.736 145.948 126.207 145.563L125.808 144.609C125.867 144.315 125.893 143.714 126.089 144.191C126.046 143.644 125.888 143.112 125.625 142.629L125.828 141.597C125.58 137.945 124.475 134.966 124.07 131.144C124.123 126.472 122.248 117.972 121.163 113.072C120.714 111.307 120.406 109.509 120.242 107.696C120.059 105.834 119.928 103.847 119.641 101.816C119.384 99.7482 118.873 97.7206 118.119 95.7787C117.32 93.7668 116.052 91.9748 114.421 90.5521C114.214 90.2814 113.932 90.0771 113.611 89.9641C111.68 88.176 109.319 86.9199 106.757 86.3185L106.345 86.2335C106.084 86.1943 105.692 86.0898 105.222 86.0506C103.974 85.9076 102.716 85.8901 101.465 85.9983C98.4896 86.3178 95.5895 87.1373 92.8868 88.4222C90.5675 89.5329 89.1497 90.5847 89.7704 91.0355C90.084 91.2511 90.9137 91.3099 92.3837 91.2054C93.8537 91.1009 96.0816 90.8265 98.9693 90.8003L98.8452 90.9506C100.214 90.7981 101.59 90.7153 102.968 90.7023C104.118 90.7023 105.111 90.7023 106.234 90.6435C106.306 91.0551 106.888 91.225 107.502 91.4471C107.813 91.5427 108.116 91.6606 108.41 91.7999C108.541 91.8505 108.668 91.9116 108.789 91.9829C108.878 92.0468 108.959 92.1214 109.031 92.205H108.939C109.396 92.3139 109.817 92.5389 110.161 92.8583C110.514 93.1702 110.826 93.5259 111.089 93.9167C111.567 94.7248 112.121 95.486 112.742 96.1903C112.527 96.1879 112.331 96.0674 112.232 95.8767C113.036 96.909 113.905 98.6403 113.539 98.8886C114.23 100.637 114.757 102.446 115.113 104.292C115.402 105.939 115.84 107.557 116.42 109.126L116.276 108.983C116.929 110.25 116.59 110.701 117.041 112.158C116.995 112.249 116.982 112.36 116.956 112.347C117.609 113.732 117.609 116.574 118.001 117.724L117.72 117.842L118.203 120.723L118.112 119.632C118.955 119.893 117.923 121.892 118.765 123.918C118.942 125.878 120.98 127.668 120.882 129.759C121.392 130.68 120.157 128.988 120.647 130.412C120.242 130.516 120.294 129.759 119.994 130.19C120.392 131.588 119.902 132.588 120.431 134.312L120.124 134.43C121.039 136.638 120.32 138.82 121.098 140.271C121.699 142.603 120.366 141.996 121.353 144.374L121.052 145.393C121.13 146.458 121.705 146.046 121.647 147.274C121.366 147.274 121.647 148.784 121.281 148.137C121.235 150.848 122.659 153.429 122.431 157.016C123.084 157.708 122.94 159.328 123.345 159.786C123.234 159.838 123.241 160.596 123.149 161.092C123.058 161.589 122.947 161.805 122.77 161.092C122.77 160.962 122.77 160.733 122.849 160.753L122.542 160.557C122.299 161.131 122.179 161.75 122.189 162.373C122.237 162.857 122.064 163.337 121.718 163.68C121.999 163.562 122.221 163.209 122.228 163.562C122.005 163.822 121.74 164.043 121.444 164.215C121.45 164.102 121.45 163.989 121.444 163.876C120.929 164.149 120.373 164.339 119.798 164.438L120.163 164.679C119.727 164.71 119.289 164.691 118.857 164.62C118.341 164.586 117.827 164.699 117.374 164.947C116.773 165.28 118.602 165.254 117.302 165.509C115.557 165.47 112.853 165.352 110.605 165.385C110.84 165.744 110.233 165.77 109.612 165.875L109.521 165.555C107.149 166.123 108.613 164.901 106.254 165.339L106.457 165.104L105.855 165.803C103.732 166.496 104.653 165.182 102.373 166.064C103.275 166.012 102.791 166.796 101.681 166.62L101.968 166.313C101.574 166.403 101.168 166.427 100.766 166.384C101.132 166.234 100.975 165.953 100.113 165.921L100.707 165.587C100.171 165.731 99.6357 165.862 99.1 165.96C98.5447 165.679 97.8456 165.542 97.2576 165.306C96.6696 165.071 96.1796 164.81 96.0881 164.522C95.9791 164.463 95.8762 164.393 95.7811 164.313C95.6047 164.17 95.3433 164.006 95.082 163.81C94.8207 163.614 94.5332 163.418 94.2849 163.242C94.0952 163.087 93.8712 162.979 93.6316 162.928C93.9191 162.994 93.8276 162.778 93.7557 162.536C93.6839 162.295 93.6185 162.033 93.8733 162.059C93.6555 161.969 93.4493 161.853 93.2592 161.713C93.0189 161.508 92.7899 161.29 92.5732 161.06C92.3668 160.805 92.1811 160.534 92.0179 160.25C91.8826 160.017 91.7959 159.759 91.7631 159.492L91.8676 159.603C91.3057 158.237 90.6785 157.094 90.1101 155.912C89.48 154.703 89.0623 153.394 88.8753 152.044C88.5487 152.292 88.3331 150.691 87.9737 151.194C86.6671 148.274 87.4968 145.406 85.7851 144.661C85.38 143.283 85.7328 142.93 85.6413 142.192L85.7981 142.505C85.2835 140.76 84.8583 138.989 84.5241 137.2C84.1713 136.259 83.4723 136.24 83.2763 134.456C83.6617 134.972 83.4657 134.267 83.3351 133.613C83.4657 134.018 83.5833 134.129 83.6029 133.234C83.4857 133.101 83.3928 132.949 83.3285 132.784C83.3285 132.784 83.3285 132.738 83.3939 132.784C83.0933 131.706 83.0411 131.915 83.0999 132.431C83.0541 132.431 83.0084 132.463 82.9627 132.633C83.0933 131.431 82.3485 129.465 82.7993 129.242C82.1003 125.976 81.2509 123.676 80.6629 120.939C80.8655 120.592 81.1595 121.213 81.3816 121.997L81.0092 120.037C81.362 120.004 81.362 121.135 81.5253 121.729C81.7475 119.318 80.2775 116.999 80.4735 114.19L80.1337 113.647V113.484C79.99 113.484 79.7156 112.916 79.6241 112.511C79.8789 112.086 80.3232 112.458 80.1599 111.106C80.3363 110.002 79.696 108.068 79.4085 106.67C79.4085 107.434 79.2387 107.206 79.1015 106.885C79.0296 106.232 79.2975 105.788 79.1015 105.272L79.5131 105.174C79.1472 105.474 78.9512 103.423 78.7617 103.214C79.0361 102.802 79.108 104.252 79.3497 104.403C79.2256 103.044 79.1929 102.704 79.1603 102.364C79.1276 102.025 79.0819 101.678 79.0819 100.483C78.8532 99.2153 78.6768 100.692 78.3567 100.065C78.3366 99.4863 78.3826 98.9076 78.4939 98.3398C78.5656 98.054 78.6708 97.7777 78.8075 97.5166C78.9613 97.2431 79.1526 96.9924 79.3759 96.7718C79.206 96.811 79.0296 96.8633 78.8532 96.9155C79.2678 96.0399 79.9139 95.2944 80.7217 94.7595C81.3986 94.3336 82.1578 94.0553 82.9496 93.9429C83.8012 93.4149 84.6949 92.9582 85.6217 92.5774C86.458 92.2181 87.2093 91.9241 87.8692 91.7215C89.1759 91.2642 90.1428 90.9441 90.7635 90.6762C92.0113 90.1405 91.9003 89.7354 91.2469 89.4087C90.1963 89.0457 89.0919 88.8624 87.9803 88.8665C87.241 88.8482 86.5012 88.8765 85.7655 88.9514C83.7974 89.0763 81.8718 89.5799 80.0945 90.4345C78.228 91.3214 76.6529 92.722 75.5539 94.4721C75.26 94.9412 75.0128 95.4379 74.8156 95.9551C74.5951 96.4774 74.4266 97.0201 74.3125 97.5754C74.1062 98.6204 74.0359 99.6876 74.1035 100.751C74.1623 101.763 74.2995 102.711 74.4236 103.632C74.5477 104.553 74.7633 105.317 74.8875 106.389V106.389Z" fill="#202020"/>
<path d="M94.2258 98.5489C90.4038 98.5489 85.8697 99.5224 84.6283 102.815C84.2665 104.022 84.1707 105.292 84.3474 106.539C85.233 118.509 87.241 130.369 90.345 141.963C91.521 146.366 93.4549 151.364 98.1001 152.945C99.8631 153.448 101.701 153.636 103.529 153.501C106.476 153.442 109.409 153.259 112.336 152.972C114.054 152.802 115.903 152.54 117.119 151.423C118.824 149.862 118.621 147.301 118.314 145.086C116.642 133.261 114.973 121.435 113.31 109.61C112.624 104.762 111.722 103.077 107.632 98.9671C104.398 95.7331 97.4859 96.798 93.3046 98.4967" fill="white"/>
<path d="M126.585 71.8274L126.945 72.2259C126.971 72.1606 126.899 72.0364 126.585 71.8274Z" fill="#5699E8"/>
<path d="M60.8539 74.4668L60.9323 74.3623C60.8669 74.4276 60.8539 74.4538 60.8539 74.4668Z" fill="#5699E8"/>
<path d="M132.838 85.26C132.838 85.26 132.838 85.2208 132.838 85.2012C132.838 85.1816 132.844 85.2274 132.838 85.26Z" fill="#5699E8"/>
<path d="M119.105 73.1539C120.299 73.7569 121.455 74.4311 122.568 75.1727C123.495 75.7933 124.299 76.4074 125.096 77.015L127.572 78.975C128.461 79.6806 129.48 80.4647 130.584 81.4447C131.468 82.2757 132.223 83.2335 132.825 84.2866C132.917 84.4738 132.988 84.6711 133.034 84.8747C133.034 84.9269 133.067 84.9988 132.851 85.2667C132.828 85.3777 132.791 85.4853 132.74 85.5868C132.648 85.6972 132.548 85.7999 132.44 85.8939L132.355 85.9722C132.355 85.9722 132.315 86.0115 132.289 86.018C132.244 86.0387 132.195 86.0519 132.146 86.0572C131.961 86.0801 131.775 86.0801 131.59 86.0572C131.322 86.0572 131.009 85.9984 130.656 85.9722C130.538 85.822 130.421 85.6456 130.303 85.4823C129.737 85.4298 129.208 85.18 128.807 84.7766L128.879 84.7178C128.459 84.5842 128.059 84.3952 127.69 84.156C127.38 83.9498 127.052 83.7727 126.71 83.6268L126.795 83.5745C126.435 83.3785 126.083 83.1629 125.717 82.993H125.965C124.312 82.3397 122.698 81.6211 121.274 80.922V81.3205C120.134 80.6906 118.905 80.2389 117.628 79.9812C116.444 79.7496 115.286 79.3994 114.172 78.9359L114.238 78.8575C112.623 78.8653 111.018 78.5957 109.494 78.0604C107.959 77.5109 106.32 77.3166 104.699 77.492C105.176 77.4332 104.523 77.2764 104.568 77.1915C102.844 77.0869 100.995 76.9759 100.903 77.7141C99.6553 77.5835 99.9035 77.394 99.7598 77.0935C99.7598 77.4201 98.6426 77.4593 97.6626 77.4201L98.1199 77.3221C97.1791 77.3221 96.2383 77.2764 95.291 77.2895L95.8202 77.9428C94.3371 77.7141 95.4674 77.1784 94.0301 77.2895V77.7991C91.9721 77.6619 90.7634 76.8975 88.6727 76.6361C84.2445 76.7951 79.8854 77.7835 75.8217 79.55C73.787 80.4272 71.8364 81.4878 69.9939 82.7187C68.1319 83.8947 66.5313 85.2797 64.9894 86.2728L64.4994 86.1813C64.0421 85.8481 63.4998 88.0433 62.9771 87.7558C62.8138 87.9714 62.6505 88.1871 62.4806 88.4092C62.2389 88.4092 61.8273 88.5595 62.069 88.272C61.713 88.45 61.4024 88.707 61.1609 89.0233C60.8995 89.0233 60.6382 88.9907 60.3899 88.9645C59.3931 89.258 58.3584 89.4033 57.3193 89.3957C57.0865 89.3813 56.8563 89.3396 56.6333 89.2716C56.3661 89.1989 56.106 89.1027 55.8558 88.9841C55.6415 88.8961 55.4412 88.7772 55.2613 88.6313C55.209 88.5725 55.1371 88.5268 55.0914 88.4745C55.0504 88.4196 55.0154 88.3605 54.9869 88.2981C54.9769 88.2091 54.9769 88.1193 54.9869 88.0303C54.9888 87.9435 55.0042 87.8575 55.0326 87.7754C55.0415 87.7329 55.0546 87.6913 55.0718 87.6513C55.0922 87.5957 55.1096 87.539 55.1241 87.4815C55.1799 87.3081 55.2453 87.1379 55.3201 86.9718C55.7973 85.9408 56.4009 84.973 57.1167 84.0907C58.7198 82.0827 60.4807 80.2061 62.3826 78.4785C64.5059 76.3486 67.4851 74.8525 70.5101 73.6896C73.535 72.5267 76.6383 71.6055 79.3889 70.2465C79.6045 70.2465 80.0422 69.9395 80.0422 69.8807C81.8323 69.358 83.6551 68.966 85.4779 68.6197L86.5821 68.4303L87.8038 68.2081L89.3261 67.986C91.5213 67.6659 94.2457 67.3327 96.3625 67.1497C98.4793 66.9668 99.9819 66.6205 99.6618 65.9541C99.505 65.634 98.8778 65.2289 97.6038 64.7324C95.6525 64.0614 93.6354 63.5993 91.5866 63.3539L91.7238 63.2167C88.4114 63.1579 86.3011 63.478 84.1974 64.5233C83.6878 63.87 81.5318 65.0133 80.7347 65.0003L80.7935 64.9219C79.0034 65.9672 76.6579 65.634 74.9854 66.7839C75.0335 66.5625 75.2032 66.3876 75.4231 66.3331C74.1165 66.8884 72.3982 67.8031 72.1173 67.4307L69.6411 68.6132C68.7918 69.0575 67.9033 69.4756 67.0931 69.9656C65.6938 70.707 64.4213 71.6663 63.3234 72.8076L63.3822 72.6247C62.6178 73.7092 62.0755 73.572 61.0955 74.5847C61.0041 74.5847 60.9061 74.6173 60.9061 74.5847C60.0894 75.7345 57.855 77.0412 57.1755 77.9363L56.9338 77.7664C56.2718 78.3805 55.6315 79.0208 55.013 79.6872L55.7774 79.0339C55.9277 79.4455 55.4834 79.6872 54.8693 80.1119C54.0813 80.5707 53.447 81.2527 53.0465 82.0718C52.4493 82.9186 52.1173 83.9237 52.0926 84.9596C52.0011 86.0507 52.0338 87.0306 51.8705 88.076C52.1057 88.5464 51.9423 88.3504 51.7529 88.2132C51.5634 88.076 51.3674 87.9715 51.6353 88.7555C51.2367 88.9123 51.2629 88.0041 50.9819 88.5007C51.1365 89.299 51.4096 90.0697 51.7921 90.7873C51.9978 91.1588 52.2601 91.496 52.5695 91.7869C52.7299 91.9417 52.9074 92.0776 53.0987 92.192C53.3001 92.3309 53.5201 92.4409 53.7521 92.5187L53.6541 92.8388C54.3074 93.0478 54.8301 93.1981 55.3854 93.4268C55.9414 93.631 56.5085 93.8033 57.0841 93.9429C58.0387 94.239 59.0677 94.1834 59.9849 93.7861C60.659 93.5203 61.3886 93.426 62.1082 93.5117C62.5721 93.5117 63.0947 93.5117 64.0682 92.6232C64.421 92.6232 64.7999 92.5448 65.1462 92.4925C66.087 91.9568 65.4925 91.6301 66.5313 91.1205C66.6554 91.3884 67.7857 90.4149 67.4329 91.0291C69.713 89.7616 70.6669 87.3051 73.4566 86.4557C73.6638 86.0485 73.9895 85.7137 74.3909 85.4953C74.7959 85.2144 75.2271 85.0119 75.3447 84.7244C75.4362 84.8224 76.0699 84.4826 76.5665 84.3454C77.063 84.2082 77.357 84.1625 76.7167 84.6917C76.6057 84.7832 76.377 84.8616 76.3574 84.7766L76.3117 85.149C77.0722 85.0894 77.802 84.8228 78.4219 84.3781C79.0529 83.943 79.7532 83.6183 80.493 83.4177C79.9965 83.4177 79.3954 83.6464 79.7417 83.3067L81.2182 82.9604L80.983 83.3001C81.7082 83.1433 82.4661 83.0649 83.2043 82.9669L82.8385 82.6991C83.9622 82.6272 84.4326 83.176 85.6021 82.5096C86.1378 82.1764 84.4914 82.2091 85.6543 81.9477C87.1831 81.9869 89.4567 82.1568 91.3971 82.2352C91.2077 81.8628 91.7303 81.8628 92.2726 81.7975L92.3379 82.1176C94.409 81.6733 93.0827 82.8297 95.1407 82.5292L94.9513 82.7513L95.5197 82.098C97.4274 81.5623 96.4801 82.8101 98.6165 82.098C97.7933 82.098 98.2833 81.3532 99.2698 81.5688L98.9823 81.8628C99.3572 81.7935 99.7404 81.7803 100.119 81.8236C99.7729 81.9608 99.9035 82.2613 100.733 82.2875L100.145 82.6272L101.766 82.2025C102.942 82.6664 104.908 82.4639 105.339 82.98C105.339 82.98 105.993 83.1106 106.692 83.2152C107.298 83.3486 107.927 83.3374 108.528 83.1825C107.972 83.3916 109.351 83.7379 108.887 84.0188C109.599 83.7836 111.579 83.9012 112.258 84.4239H112.108C113.316 84.83 114.555 85.1381 115.812 85.3451C116.996 85.5214 118.135 85.9205 119.17 86.521C119.21 86.1225 120.346 86.8412 120.235 86.2663C121.359 86.597 122.401 87.1601 123.293 87.9192C123.625 88.1925 123.997 88.4129 124.397 88.5725C124.777 88.7221 125.2 88.7221 125.58 88.5725C126.742 89.2259 126.769 89.6962 127.383 90.1209L127.043 90.0294C128.005 90.5123 129.018 90.8891 130.061 91.1532C131.109 91.4266 132.204 91.4667 133.269 91.2708C133.558 91.1766 133.827 91.028 134.06 90.833C134.264 90.6687 134.453 90.485 134.622 90.2843C134.707 90.1863 134.818 90.0883 134.909 89.9837C134.997 89.8764 135.091 89.7739 135.19 89.6767C135.301 89.5721 135.432 89.4676 135.582 89.35C135.732 89.2324 135.902 89.0821 136.105 88.9319C135.954 89.252 136.02 89.2651 136.203 89.1344C136.32 89.0408 136.431 88.9405 136.536 88.8339L136.928 88.3765C136.621 88.7881 136.582 89.0299 137.438 88.2524C137.485 88.0296 137.55 87.811 137.634 87.5991C137.634 87.5991 137.699 87.5991 137.712 87.5991C137.887 87.2643 137.994 86.8977 138.026 86.521C138.026 86.4818 137.888 86.6975 137.745 87.0111C137.745 86.9588 137.647 87.011 137.496 87.1548C138.016 86.3882 138.247 85.4624 138.15 84.5415C138.15 84.3259 138.11 84.1233 138.097 83.9339C138.084 83.7444 138.039 83.5941 138.019 83.4504C138.019 83.1629 138.019 82.9604 138.091 82.8885C137.493 81.3989 136.534 80.0812 135.301 79.0535C134.295 78.1649 133.295 77.4593 132.25 76.7015C132.178 76.3291 132.786 76.5512 133.42 76.9889C132.936 76.5969 132.446 76.218 131.95 75.8521C132.178 75.5908 132.903 76.3748 133.38 76.708C132.666 75.7935 131.749 75.0576 130.702 74.5585C129.602 74.019 128.58 73.3334 127.664 72.5201L127.076 72.4744L126.971 72.3568C126.899 72.4809 126.318 72.3568 125.972 72.2C125.815 71.7623 126.364 71.6055 125.246 70.9848C124.521 70.24 122.692 69.7565 121.45 69.358C122.058 69.7043 121.777 69.7631 121.45 69.7304C120.882 69.4756 120.693 69.0313 120.19 68.9595L120.307 68.5609C120.372 69.0117 118.648 68.2735 118.347 68.3584C118.138 67.9403 119.347 68.4825 119.575 68.3584C117.243 67.4176 118.419 67.8684 116.054 67.006C114.688 66.8492 116.152 67.4503 115.401 67.5809C114.199 67.3681 113.024 67.0309 111.892 66.5748L112.199 67.0387C110.545 66.8647 108.93 66.4234 107.417 65.732C103.281 65.6536 101.034 66.1567 99.9493 66.5879C98.8647 67.0191 98.9039 67.4503 99.4658 67.8096C100.223 68.2186 101.028 68.5303 101.864 68.7373L102.987 69.0379L103.458 69.162C106.339 69.9917 108.508 70.4687 110.873 70.926C113.688 71.3741 116.448 72.1209 119.105 73.1539V73.1539Z" fill="#5699E8"/>
<path d="M145.741 48.3074L146.218 48.9085C146.244 48.8497 146.153 48.6798 145.741 48.3074Z" fill="#5699E8"/>
<path d="M47.8982 43.0416L48.0354 42.9174C47.9826 42.9502 47.9361 42.9923 47.8982 43.0416V43.0416Z" fill="#5699E8"/>
<path d="M135.83 46.9421L136.568 47.3929C136.81 47.5432 137.052 47.6934 137.222 47.8176C137.62 48.092 138.032 48.399 138.424 48.6996C139.201 49.3006 139.907 49.8886 140.567 50.457C141.874 51.5938 142.984 52.6457 144.069 53.7237C145.153 54.8017 146.225 55.8797 147.401 57.1406C148.74 58.5219 149.97 60.005 151.079 61.5768C151.528 62.2649 151.868 63.0187 152.085 63.8112C152.144 63.968 152.085 64.0072 152.137 64.0986C152.14 64.116 152.14 64.1336 152.137 64.1509V64.1509C152.137 64.1509 152.137 64.1509 152.137 64.2097C151.827 64.4954 151.422 64.656 151.001 64.6605C150.285 64.6878 149.574 64.5468 148.923 64.2489C148.146 64.1966 147.081 63.4714 146.003 62.4653C145.46 61.9688 144.885 61.4004 144.278 60.8581C143.697 60.324 143.065 59.8491 142.39 59.4404L141.736 58.48C140.821 57.9589 139.963 57.3436 139.175 56.6441L139.28 56.6114C138.626 56.2848 137.973 55.8144 137.372 55.4681C136.904 55.1726 136.42 54.9042 135.922 54.6645L136.026 54.6188C135.504 54.3248 134.994 54.0177 134.465 53.7368C134.577 53.7427 134.688 53.7558 134.798 53.776C133.609 53.2794 132.42 52.7568 131.283 52.208C130.146 51.6592 129.003 51.2084 127.964 50.7053V51.13C127.008 50.6764 126.029 50.2729 125.031 49.9213C124.162 49.6012 123.358 49.4509 122.581 49.268C120.849 48.8765 119.141 48.3857 117.465 47.798L117.543 47.7196C116.281 47.6863 115.023 47.5398 113.787 47.2818C112.65 47.0858 111.592 46.818 110.52 46.5501C109.449 46.2822 108.384 46.0732 107.221 45.8968C105.95 45.7288 104.665 45.6829 103.386 45.7596C104.091 45.7204 103.105 45.5374 103.17 45.4525C101.863 45.3872 100.557 45.3088 99.531 45.3414C98.5053 45.3741 97.8062 45.5374 97.7605 45.9033C95.905 45.7596 96.2643 45.5636 96.0357 45.25C96.0357 45.5701 94.4023 45.6158 92.9519 45.5505L93.6053 45.4656L89.4435 45.348L90.2275 46.0013C88.0389 45.7138 89.7049 45.2173 87.6142 45.263V45.7792C84.5762 45.5374 82.8187 44.6816 79.7742 44.3092C76.5231 44.2514 73.2751 44.5405 70.0853 45.1716C66.8205 45.8464 63.6577 46.9446 60.6773 48.4382C54.7973 51.3848 49.8842 55.2982 45.0691 58.382H44.4158C43.8997 58.0749 42.4558 60.943 41.8025 60.7862L40.9074 61.7793C40.5546 61.9165 39.8686 62.2889 40.3194 61.7793C39.731 62.174 39.2066 62.6565 38.7645 63.2101C38.3529 63.3604 37.9282 63.5302 37.5297 63.6674C36.7193 64.1937 35.8746 64.6651 35.0013 65.0786C34.6812 65.2235 34.3489 65.3394 34.0082 65.4249C33.8573 65.4696 33.7015 65.4959 33.5443 65.5033C33.1895 65.5784 32.827 65.4144 32.6493 65.0982C32.5934 64.9173 32.5934 64.7238 32.6493 64.5429C32.6708 64.4445 32.7014 64.3482 32.7407 64.2554C32.7407 64.2032 32.8649 63.9941 32.9629 63.8112C33.2961 63.3473 33.7338 62.7005 34.2303 62.0602C34.7269 61.42 35.2822 60.6882 35.8898 59.95C37.105 58.4669 38.5031 56.8597 39.9601 55.2656C40.6853 54.4685 41.4301 53.6714 42.1683 52.9136C42.9066 52.1557 43.5861 51.4958 44.3635 50.8033C45.8662 49.4574 47.3427 48.2749 48.6233 47.3145C52.1382 44.4725 56.7246 42.5125 61.4025 41.1209C63.7414 40.4153 66.1261 39.8469 68.4715 39.3046C70.817 38.7624 73.1298 38.2332 75.3642 37.6125C75.7332 37.5973 76.0917 37.4846 76.403 37.2858C79.1993 36.8938 82.0151 36.6325 84.8441 36.4822C84.8441 36.4822 87.4182 36.3385 90.7959 36.2732C94.1737 36.2078 98.3746 36.3189 101.609 36.3581C102.916 36.3942 104.225 36.3615 105.529 36.2601C106.443 36.1556 106.901 35.9465 106.672 35.6068C106.443 35.267 105.516 34.764 103.647 34.1237C100.795 33.1927 97.8771 32.4742 94.9185 31.9742L95.1406 31.8632C90.3059 31.3993 87.1961 31.432 83.8902 32.2486C83.3087 31.5104 79.8983 32.4773 78.7485 32.3924L78.8465 32.3205C75.9783 33.2156 72.6855 32.7256 69.9611 33.8624C70.0591 33.7774 70.0722 33.5618 70.719 33.405C68.6741 33.9277 65.9497 34.8489 65.6753 34.4634C63.0003 35.2499 60.37 36.1812 57.7961 37.2532C55.6189 38.1193 53.5685 39.2752 51.7005 40.6897L51.8377 40.4806C50.4461 41.7873 49.7797 41.6697 48.1463 42.9437C48.0222 42.9437 47.8785 43.0025 47.885 42.9437C46.9148 43.7995 45.8818 44.5813 44.7947 45.2826C43.7945 45.933 42.8464 46.6604 41.9593 47.4582L41.6979 47.3014C41.1883 47.7392 40.6918 48.1312 40.1626 48.6081C39.6334 49.085 39.1826 49.5358 38.7187 49.9997L39.8425 49.0262C40.0058 49.9605 37.2945 50.7118 35.7003 53.1814C34.7792 54.2236 34.0573 55.4261 33.5705 56.729C33.0701 58.0361 32.3764 59.2606 31.5125 60.3616C31.0943 61.6682 31.6366 59.0549 30.8003 60.8842C30.4018 60.7144 31.0813 59.9369 30.5194 60.2309C30.0621 61.1586 29.5786 61.7728 29.0559 62.7201C28.9318 62.988 28.8077 63.2754 28.677 63.5694C28.561 63.8804 28.4671 64.1991 28.3961 64.5233C28.3219 64.869 28.2847 65.2216 28.285 65.5752C28.3026 65.9566 28.3775 66.3332 28.5071 66.6924L28.2393 66.9472C28.6773 67.9243 29.4484 68.7139 30.4149 69.175C31.3227 69.6056 32.2969 69.8795 33.2961 69.9852C33.7826 70.0343 34.2729 70.0343 34.7595 69.9852C35.1512 69.9449 35.5384 69.8684 35.9159 69.7565C36.5664 69.5809 37.1721 69.2691 37.693 68.8418C38.4856 68.2447 39.3831 67.8015 40.339 67.5352C40.9139 67.3653 41.4693 67.1562 42.6322 65.9084L43.9389 65.4902C45.1214 64.6866 44.4289 64.4449 45.8139 63.6609C45.9054 63.9418 47.5191 62.6352 46.9507 63.3996C48.4827 62.4117 49.9274 61.2948 51.2693 60.061C52.8106 58.6802 54.5449 57.5314 56.4175 56.6506C56.9402 55.6576 59.0309 54.7494 59.4621 54.07C59.5797 54.1549 60.5531 53.58 61.2849 53.286C62.0166 52.992 62.4478 52.8417 61.4547 53.6257C61.2783 53.7564 60.9451 53.9197 60.919 53.8282L60.8079 54.2464C61.9312 53.9314 62.9997 53.4467 63.9766 52.809C64.4535 52.502 64.9435 52.2472 65.4466 51.9728C65.9611 51.6913 66.5072 51.472 67.0734 51.3194C66.7141 51.3782 66.309 51.4828 66.0607 51.5285C65.8125 51.5742 65.7275 51.5677 65.9889 51.3456C66.7206 51.143 67.4327 50.8948 68.171 50.7249C68.0403 50.849 67.9097 50.9732 67.7855 51.1038C68.8766 50.8621 69.9677 50.64 71.0849 50.5028L70.5622 50.261C72.2347 50.1238 72.8685 50.6073 74.6978 49.9474C75.5341 49.6077 73.0579 49.6469 74.8285 49.379C77.1086 49.379 80.5386 49.6796 83.5113 49.8821C83.2434 49.5032 84.047 49.5358 84.8767 49.4966L84.9617 49.8233C88.1695 49.5097 86.0985 50.5812 89.2933 50.3786L88.9993 50.5942L89.8747 49.9409C92.7821 49.4444 91.3839 50.6922 94.6114 49.9997C93.357 49.9997 94.0626 49.2484 95.6045 49.4836L95.1929 49.7776C95.7641 49.7189 96.3399 49.7189 96.9111 49.7776C96.3885 49.9082 96.6106 50.2088 97.8715 50.248L97.0026 50.5812L99.4134 50.1826C100.438 50.4115 101.481 50.5514 102.53 50.6008C103.318 50.6063 104.097 50.7661 104.823 51.0712L106.868 51.3717C107.775 51.5457 108.705 51.5656 109.618 51.4305C108.802 51.6004 110.925 52.0838 110.239 52.319C111.085 52.2364 111.937 52.2473 112.781 52.3517C113.661 52.4337 114.523 52.6542 115.335 53.005H115.106C116.165 53.299 117.125 53.5734 118.066 53.7825C118.536 53.887 118.994 53.985 119.445 54.07L120.751 54.377C121.62 54.5992 122.502 54.756 123.365 55.0304C124.242 55.3317 125.097 55.6919 125.926 56.1084C125.926 55.6837 127.696 56.6833 127.422 56.0365C128.337 56.3015 129.215 56.6812 130.035 57.1668C130.806 57.6241 131.518 58.0618 132.139 58.4734C133.348 59.3685 134.367 59.9238 135.373 59.7278C136.902 60.734 136.934 61.2632 137.633 61.8838C137.507 61.8094 137.376 61.7439 137.241 61.6878C138.594 62.7005 139.437 63.393 140.194 64.0268C140.952 64.6605 141.58 65.3334 142.618 66.3069C143.109 66.6354 143.647 66.8887 144.212 67.0582C145.036 67.4019 145.826 67.8218 146.571 68.3126C145.637 68.1232 146.656 68.672 147.675 69.0378C147.022 68.8222 146.754 68.868 148.067 69.5148C148.346 69.5074 148.626 69.5183 148.903 69.5474C148.903 69.5474 148.969 69.5997 148.903 69.6193C149.353 69.7246 149.818 69.7445 150.275 69.6781C150.321 69.6389 150.021 69.6062 149.622 69.5213C149.668 69.4821 149.622 69.4233 149.361 69.3057C149.882 69.4881 150.429 69.5852 150.981 69.5932C151.602 69.6 152.221 69.5276 152.823 69.3776C154.012 69.077 154.881 68.489 155.123 68.6066C155.447 68.3513 155.754 68.0764 156.044 67.7834C156.323 67.4741 156.567 67.1345 156.77 66.7708C156.971 66.4248 157.124 66.0534 157.227 65.6666L157.364 65.0982C157.364 64.9088 157.403 64.7128 157.416 64.5233C157.453 63.2705 157.162 62.0299 156.574 60.9234C155.624 59.2073 154.454 57.6236 153.091 56.2129C152.993 55.7294 153.745 56.2652 154.516 57.1472C153.934 56.4024 153.326 55.7033 152.699 55.0369C152.98 54.8148 153.895 56.1018 154.463 56.7682C153.594 55.2795 152.45 53.9693 151.092 52.907C149.677 51.7756 148.345 50.5442 147.107 49.2222L146.336 48.9217L146.192 48.7388C146.107 48.8629 145.343 48.4644 144.885 48.1573C144.67 47.5889 145.369 47.6281 143.899 46.4782C142.919 45.348 140.482 44.0086 138.633 43.1658C139.508 43.7408 139.13 43.7146 138.685 43.5774C137.875 43.1201 137.568 42.5648 136.869 42.3426L136.987 41.9441C137.058 42.1989 136.464 41.9964 135.817 41.735C135.308 41.5061 134.782 41.3183 134.243 41.1732C133.896 40.6701 135.66 41.5782 135.967 41.4998C134.282 40.6636 133.857 40.4545 133.432 40.265C133.008 40.0756 132.583 39.8534 130.852 39.1478C128.892 38.6644 131.035 39.6509 130.016 39.6182C128.369 39.0237 126.684 38.7036 124.867 37.8412L125.351 38.3834C122.933 37.8814 120.567 37.1575 118.282 36.2209C112.212 35.5676 108.841 35.7962 107.175 36.0837C105.509 36.3712 105.587 36.822 106.411 37.2532C107.593 37.7757 108.819 38.1912 110.076 38.4945C111.382 38.8669 112.513 39.1478 112.513 39.1478C116.936 40.4022 120.248 41.232 123.783 42.1728C127.975 43.2753 132.019 44.8765 135.83 46.9421V46.9421Z" fill="#5699E8"/>
<path d="M148.982 17.6204L149.844 18.3717C149.864 18.3064 149.674 18.0973 148.982 17.6204Z" fill="#5699E8"/>
<path d="M10.4948 35.306C10.5471 35.2342 10.6124 35.1558 10.6516 35.0904C10.5909 35.1558 10.5383 35.2281 10.4948 35.306Z" fill="#5699E8"/>
<path d="M176.951 49.3463V49.3071L176.781 49.1176L176.951 49.3463Z" fill="#5699E8"/>
<path d="M135.014 15.2488C136.64 16.0263 138.052 16.8625 139.384 17.5812C140.717 18.2999 141.887 19.0577 142.997 19.7503C144.108 20.4428 145.16 21.1419 146.088 21.7691C147.015 22.3963 147.936 23.1149 148.858 23.814C152.536 26.6429 156.299 29.5437 162.153 34.2673C164.864 36.5932 167.634 39.0301 170.222 41.5585C172.724 43.8844 174.963 46.4785 176.899 49.294C177.436 49.8928 177.877 50.5717 178.205 51.3063C178.35 51.6489 178.457 52.0058 178.526 52.3712C178.567 52.6177 178.567 52.8695 178.526 53.116C178.499 53.2418 178.44 53.3587 178.356 53.4557C178.205 53.6346 178.024 53.7851 177.82 53.9C177.258 54.2387 176.644 54.4837 176.004 54.6252C175.666 54.5343 175.338 54.4118 175.024 54.2593C173.949 54.2848 172.901 53.923 172.071 53.2401L172.175 53.2009C170.738 52.6325 169.451 51.0188 168.797 50.3785H168.915C168.432 49.8167 167.955 49.2091 167.484 48.5753L167.83 48.8301C166.726 47.5235 165.674 46.0273 164.518 44.5377C163.362 43.0481 162.251 41.6108 161.147 40.2976L161.055 40.7549C159.3 38.5172 157.28 36.501 155.038 34.7508C153.189 33.2351 151.353 31.8696 148.818 29.8051H148.943C145.264 27.8843 142.553 26.1464 139.711 24.4869C136.629 22.5971 133.282 21.179 129.78 20.2795C130.806 20.5408 129.428 19.9332 129.539 19.8809C125.854 18.6331 121.855 17.5747 121.601 18.2737C118.909 17.5224 119.464 17.4505 119.183 17.0781C119.111 17.3983 116.727 16.9213 114.61 16.464L115.616 16.5685C113.578 16.1308 111.526 15.7584 109.475 15.3991L110.559 16.2419C107.358 15.4513 109.873 15.3403 106.737 14.9352L106.692 15.4448C102.216 14.602 99.6682 13.4848 95.317 12.5963C90.6532 11.9547 85.9518 11.6251 81.2442 11.6097C76.3525 11.6415 71.492 12.3921 66.8186 13.8376C64.5309 14.5289 62.2842 15.3491 60.0892 16.2941C57.9136 17.2023 55.8099 18.1953 53.7584 19.2211C49.6555 21.2595 45.7747 23.4285 41.9984 25.382L41.1556 25.4277C40.5872 25.1076 37.5492 28.5245 36.726 28.4265L35.1776 29.694C34.6484 29.9031 33.59 30.4388 34.3675 29.8051C33.421 30.3514 32.5436 31.0094 31.7542 31.7651C31.14 32.0395 30.5128 32.2943 29.8987 32.5817C26.8797 34.4734 24.0756 36.6882 21.536 39.1869C20.262 40.4087 19.0599 41.7284 17.8512 43.1069C17.2698 43.8191 16.6556 44.5312 16.0807 45.2956C15.5058 46.06 14.9047 46.844 14.3494 47.6084C13.6176 48.4969 12.8728 49.4573 12.0692 50.3589C11.312 51.2496 10.4321 52.0283 9.45591 52.6717C8.56905 53.2573 7.54399 53.5997 6.48324 53.6648C6.05348 53.6804 5.62546 53.6024 5.22884 53.4361L5.09164 53.3839L5.01324 53.3447C4.96954 53.3224 4.92799 53.2962 4.88911 53.2663C4.80638 53.2031 4.73558 53.1256 4.68004 53.0376C4.62403 52.9479 4.58629 52.848 4.56898 52.7436C4.56898 52.6848 4.56898 52.6195 4.56898 52.5476C4.56898 52.4757 4.56898 52.332 4.56898 52.2079C4.64073 51.6081 4.7878 51.0199 5.00671 50.4569C5.53782 49.1156 6.19405 47.8272 6.96671 46.6088C8.43586 44.3007 10.0438 42.084 11.7818 39.9709C15.9696 34.6071 21.621 29.6875 27.4618 25.0553C28.9187 23.8989 30.3952 22.7621 31.8652 21.6449C33.3352 20.5277 34.8248 19.4236 36.2491 18.4567L36.7587 18.1169L37.2618 17.8164L38.4312 17.1631C39.2087 16.7188 39.96 16.2419 40.744 15.8237C41.528 15.4056 42.2859 14.9483 43.0372 14.5171C43.7886 14.0859 44.566 13.6743 45.3174 13.2431C45.819 13.0365 46.2861 12.7545 46.7024 12.4068C50.5458 10.6598 54.5006 9.16917 58.5408 7.94453L59.1942 7.742L60.9908 7.22587C61.7487 7.00373 62.6634 6.72933 63.7022 6.48107C64.741 6.2328 65.8712 5.90613 67.106 5.65133C72.3043 4.47146 77.5688 3.60532 82.871 3.0576C84.06 2.94 85.1576 2.85507 86.1376 2.73747C87.1176 2.61987 87.9474 2.5676 88.6138 2.45653C89.9204 2.254 90.5738 2.00573 90.1948 1.67907C89.7513 1.42289 89.2675 1.24395 88.764 1.14987C87.6897 0.877421 86.5984 0.676623 85.4974 0.5488C84.7787 0.457333 83.9686 0.365867 83.067 0.267867L80.0616 0.0914667C78.9575 0.0261333 77.7619 0.0522667 76.4487 0.0326667C75.1355 0.0130667 73.7243 0.1176 72.1955 0.169867L72.5026 0C69.4204 0.318208 66.3641 0.850877 63.3559 1.59413C62.7026 1.75747 62.0492 1.92733 61.4612 2.10373C60.8732 2.28013 60.2526 2.49573 59.6646 2.69827C59.0766 2.9008 58.5016 3.12293 57.9202 3.3516C57.3387 3.58027 56.7834 3.84813 56.215 4.10947C55.2154 3.6064 50.5571 5.9584 48.9303 6.4288L49.0544 6.3112C48.571 6.5856 48.0679 6.83387 47.5648 7.06907C47.0618 7.30427 46.5522 7.55907 46.036 7.7812L42.9 9.08787C40.8246 9.87318 38.8505 10.9041 37.02 12.1585C37.1376 12.0344 37.105 11.7796 37.9674 11.3092C37.2814 11.6881 36.5758 12.1651 35.8571 12.6159L34.7922 13.2692C34.6223 13.3803 34.4459 13.4848 34.276 13.5828C34.1062 13.6808 33.8906 13.8311 33.7272 13.9421C32.4206 14.8372 31.519 15.4709 31.2838 15.3664C28.3568 17.6923 24.9922 20.5147 21.9868 23.2717C19.4357 25.5177 17.0755 27.9718 14.9308 30.6087L15.0746 30.2951C13.5131 32.5295 12.6638 32.8039 10.7822 35.1624C10.6254 35.2473 10.462 35.3845 10.462 35.3388C9.63884 36.5801 8.22764 38.1808 6.89484 39.788C5.72147 41.1247 4.65746 42.5536 3.71311 44.0608L3.37991 44.0281C2.20044 45.7566 1.24339 47.6268 0.531378 49.5945C0.818465 48.8427 1.15232 48.1095 1.53098 47.3993C1.72698 47.9612 1.04098 48.8824 0.426844 50.5811C0.252997 51.0589 0.130354 51.5539 0.0609778 52.0576C0.0609778 52.2013 0.0283111 52.3451 0.00871111 52.4953C-0.0108889 52.6456 0.00871111 52.822 0.00871111 52.9853C0.0133971 53.3368 0.0527883 53.6869 0.126311 54.0307C0.287289 54.7637 0.61853 55.4486 1.09324 56.0299C1.60702 56.6237 2.25093 57.091 2.97484 57.3953C4.1282 57.9994 5.44725 58.2105 6.73151 57.9964C7.9028 57.8048 9.01785 57.3588 9.99818 56.6897C10.9151 56.0657 11.757 55.3378 12.507 54.5207C13.2322 53.7432 13.9051 52.9592 14.6303 52.2144C15.558 50.4243 14.0358 53.9719 15.6299 51.45C16.0284 51.6199 14.9766 52.7175 15.7214 52.3059C16.4483 51.2318 17.2357 50.2001 18.0799 49.2156L19.3147 47.7652C19.7328 47.2295 20.2032 46.6611 20.6998 45.9816L21.033 46.0927C22.2283 44.4076 23.6864 42.9252 25.3515 41.7023C26.7416 40.7176 28.0523 39.6254 29.2715 38.4356C30.23 37.5449 31.3653 36.866 32.6035 36.4429C33.381 36.162 34.1258 35.8223 36.0008 34.2608L37.8302 33.6401C39.6399 32.6275 38.8167 32.4053 40.9139 31.4057C40.9139 31.7128 43.5272 30.0991 42.5146 31.0137C44.93 29.7602 47.2786 28.382 49.551 26.8847C52.1406 25.1945 54.9131 23.8028 57.8156 22.736C58.6218 22.0657 59.5249 21.5216 60.4943 21.1223C61.3762 20.7759 62.2192 20.3379 63.0096 19.8156C63.1403 19.9005 64.7148 19.2864 65.8647 18.9859C67.0146 18.6853 67.681 18.5155 65.9823 19.3387C65.6883 19.4824 65.146 19.6523 65.1526 19.5543L64.839 20.0051C66.5594 19.6524 68.25 19.1675 69.8958 18.5547L71.0979 18.1431L72.3327 17.7903C73.1881 17.5507 74.0624 17.3845 74.946 17.2937C73.855 17.3395 72.4176 17.5812 73.3454 17.2219C74.4822 17.0716 75.6124 16.9083 76.7558 16.8429L76.0698 17.1761C77.7619 17.0585 79.4736 17.052 81.1984 17.1043L80.4798 16.7776C83.0343 16.9475 83.8836 17.5551 86.8171 17.2741C88.1564 17.1108 84.3998 16.6535 87.1372 16.7449C90.5803 17.2415 95.807 18.1496 100.204 18.8617C99.838 18.4371 101.027 18.6004 102.262 18.7115L102.353 19.0577C104.732 19.1753 105.124 19.4497 105.522 19.7111C105.921 19.9724 106.293 20.2403 108.625 20.4755L108.175 20.6257L109.481 20.188C111.618 20.2664 112.14 20.5735 112.748 20.8413C113.356 21.1092 113.97 21.3575 116.354 21.4947C114.538 21.1223 115.701 20.58 117.857 21.2856L117.204 21.4424C118.042 21.5471 118.87 21.7219 119.68 21.9651C118.909 21.9324 119.183 22.2917 120.986 22.7425C120.555 22.7425 120.118 22.7425 119.68 22.7883C120.856 22.8993 122.019 23.0627 123.195 23.2129C123.879 23.5224 124.579 23.795 125.292 24.0296C126.037 24.304 126.814 24.5719 127.546 24.8201C128.99 25.3559 130.244 25.8328 130.662 26.2575L133.439 27.4923C134.177 27.8059 134.942 28.1456 135.615 28.4265C136.13 28.6517 136.666 28.8246 137.215 28.9427C136.052 28.6813 138.809 30.2493 137.869 30.1317C138.378 30.2736 138.875 30.4526 139.358 30.6675C139.946 30.9288 140.665 31.2228 141.318 31.5887C142.497 32.1686 143.595 32.9 144.585 33.7643L144.284 33.6205C146.898 35.5413 149.126 37.1093 151.223 38.7492C153.397 40.3687 155.338 42.279 156.992 44.4267C157.129 43.9563 158.912 46.4324 158.801 45.5504C159.318 46.0725 159.798 46.6291 160.239 47.2164C160.676 47.7783 161.082 48.3336 161.447 48.9085C162.192 50.0519 162.859 51.2017 163.545 52.234C164.89 54.3051 166.445 55.8861 167.902 56.154C169.209 57.1601 169.993 57.6959 170.64 58.1467C171.253 58.6076 171.931 58.9752 172.652 59.2377C172.378 59.192 172.11 59.1267 171.842 59.0548C174.234 59.9795 176.885 59.9795 179.277 59.0548C180.256 58.6707 181.156 58.108 181.929 57.3953C182.942 56.4448 183.593 55.1725 183.772 53.7955C183.824 53.199 183.762 52.5981 183.589 52.0249C183.452 51.5755 183.277 51.1384 183.066 50.7183C182.642 49.8755 182.165 48.8889 181.276 47.2099C182.132 48.1507 181.335 46.7787 180.538 45.6223C180.812 45.9751 180.995 46.2168 181.015 46.1449C180.89 45.695 180.691 45.2689 180.427 44.884C180.119 44.6344 179.83 44.3614 179.564 44.0673C179.564 44.0673 179.564 43.9759 179.564 43.9889C178.062 42.2184 178.258 42.6104 178.878 43.4597C178.806 43.4597 178.826 43.5447 178.963 43.8517C178.209 42.6521 177.333 41.5334 176.35 40.5132C175.422 39.4809 174.664 38.6708 174.73 38.4029C172.579 36.2929 170.304 34.314 167.915 32.4772C165.753 30.7916 163.656 29.2628 161.428 27.5968C161.088 27.0153 162.244 27.6556 163.558 28.6095C162.519 27.7928 161.474 26.9957 160.422 26.1987C160.663 25.9439 162.329 27.4531 163.316 28.1587C159.997 24.7287 155.358 22.5857 151.131 19.012L150.021 18.5873L149.772 18.3587C149.707 18.4959 148.551 17.9405 147.812 17.5616C147.303 16.9083 148.23 16.9932 145.852 15.6016C144.692 14.7732 143.451 14.064 142.148 13.4848C140.658 12.7988 139.077 12.1324 137.764 11.5705C139.116 12.3023 138.594 12.2239 137.96 12.0344C136.725 11.4464 136.144 10.8257 135.131 10.4795L135.19 10.0548C135.523 10.6036 131.734 8.96373 131.211 8.91147C130.617 8.3104 133.256 9.5648 133.668 9.4668C131.218 8.34307 130.564 8.134 129.911 7.85307C129.258 7.57213 128.65 7.29773 126.05 6.37C123.188 5.63173 126.416 6.9188 124.972 6.76853C122.515 5.95187 120.046 5.46187 117.276 4.3708L118.066 4.99147C113.349 3.90693 110.559 3.22093 107.43 2.24093C105.189 1.96653 103.177 1.87507 101.413 1.77053C99.6486 1.666 98.1002 1.666 96.7674 1.73787C94.8613 1.7601 92.9594 1.92169 91.0768 2.22133C88.6987 2.63947 88.849 3.08373 90.136 3.43653C91.4231 3.78933 93.7294 4.12253 95.7351 4.48187C96.7412 4.63867 97.6624 4.76933 98.3484 4.9L99.446 5.08293C106.169 6.32427 111.206 7.44147 116.55 8.78733C117.857 9.1336 119.242 9.47333 120.634 9.898C121.326 10.1005 122.045 10.2965 122.764 10.5513L124.978 11.27C125.736 11.5117 126.507 11.7861 127.291 12.0801C128.075 12.3741 128.898 12.6681 129.735 12.9948C131.394 13.6481 133.178 14.3603 135.014 15.2488V15.2488Z" fill="#5699E8"/>
</svg>
