<svg width="98" height="18" viewBox="0 0 98 18" fill="none" xmlns="http://www.w3.org/2000/svg">
<path d="M15.688 17L15.664 5.864L10.144 15.08H8.752L3.232 6.008V17H0.256V0.199999H2.824L9.496 11.336L16.048 0.199999H18.616L18.64 17H15.688ZM29.9019 17.24C27.5819 17.24 25.7739 16.592 24.4779 15.296C23.1819 13.984 22.5339 12.112 22.5339 9.68V0.199999H25.6539V9.56C25.6539 12.856 27.0779 14.504 29.9259 14.504C32.7579 14.504 34.1739 12.856 34.1739 9.56V0.199999H37.2459V9.68C37.2459 12.112 36.5979 13.984 35.3019 15.296C34.0219 16.592 32.2219 17.24 29.9019 17.24ZM46.8994 9.968L44.2354 12.704V17H41.1154V0.199999H44.2354V8.816L52.5394 0.199999H56.0434L48.9874 7.712L56.4754 17H52.8274L46.8994 9.968ZM68.2692 13.112H59.8692L58.2132 17H54.9972L62.5572 0.199999H65.6292L73.2132 17H69.9492L68.2692 13.112ZM67.2372 10.664L64.0692 3.32L60.9252 10.664H67.2372ZM74.8498 0.199999H82.1938C83.9858 0.199999 85.5778 0.551999 86.9698 1.256C88.3618 1.944 89.4418 2.928 90.2098 4.208C90.9778 5.472 91.3618 6.936 91.3618 8.6C91.3618 10.264 90.9778 11.736 90.2098 13.016C89.4418 14.28 88.3618 15.264 86.9698 15.968C85.5778 16.656 83.9858 17 82.1938 17H74.8498V0.199999ZM82.0498 14.36C83.2818 14.36 84.3618 14.128 85.2898 13.664C86.2338 13.184 86.9538 12.512 87.4498 11.648C87.9618 10.768 88.2178 9.752 88.2178 8.6C88.2178 7.448 87.9618 6.44 87.4498 5.576C86.9538 4.696 86.2338 4.024 85.2898 3.56C84.3618 3.08 83.2818 2.84 82.0498 2.84H77.9698V14.36H82.0498ZM94.1779 0.199999H97.2979V17H94.1779V0.199999Z" fill="#191D21"/>
</svg>
