<svg width="100" height="137" viewBox="0 0 100 137" fill="none" xmlns="http://www.w3.org/2000/svg">
<path d="M67.8447 64.4197L67.8447 32.2099C67.8447 14.421 82.2407 0 99.9992 0V32.2099C99.9992 49.9987 85.6031 64.4197 67.8447 64.4197Z" fill="#0AB7E0"/>
<path d="M67.8447 64.5196V48.5788C67.8447 39.6856 75.0428 32.476 83.9219 32.476V48.4168C83.9219 57.3104 76.7239 64.5196 67.8447 64.5196Z" fill="#6ED47C"/>
<path d="M67.2246 64.3088L53.3067 93.295C45.6201 109.303 52.3664 128.513 68.3749 136.199L82.2928 107.213C89.9794 91.2045 83.2331 71.9954 67.2246 64.3088Z" fill="#FF743C"/>
<path d="M2.29871 27.6528L35.6538 30.0435C54.0751 31.3638 67.9796 46.7935 66.71 64.5064L33.355 62.1157C14.9337 60.7953 1.02916 45.3656 2.29871 27.6528Z" fill="#FFC700"/>
<path d="M40.2773 46.4933L53.9986 47.4768C61.6536 48.0255 67.3448 55.6499 66.71 64.5063L52.9887 63.5229C45.3334 62.9742 39.6425 55.3497 40.2773 46.4933Z" fill="white"/>
</svg>
