<svg width="179" height="51" viewBox="0 0 179 51" fill="none" xmlns="http://www.w3.org/2000/svg">
<path d="M93.688 37L93.664 25.864L88.144 35.08H86.752L81.232 26.008V37H78.256V20.2H80.824L87.496 31.336L94.048 20.2H96.616L96.64 37H93.688ZM107.902 37.24C105.582 37.24 103.774 36.592 102.478 35.296C101.182 33.984 100.534 32.112 100.534 29.68V20.2H103.654V29.56C103.654 32.856 105.078 34.504 107.926 34.504C110.758 34.504 112.174 32.856 112.174 29.56V20.2H115.246V29.68C115.246 32.112 114.598 33.984 113.302 35.296C112.022 36.592 110.222 37.24 107.902 37.24ZM124.899 29.968L122.235 32.704V37H119.115V20.2H122.235V28.816L130.539 20.2H134.043L126.987 27.712L134.475 37H130.827L124.899 29.968ZM146.269 33.112H137.869L136.213 37H132.997L140.557 20.2H143.629L151.213 37H147.949L146.269 33.112ZM145.237 30.664L142.069 23.32L138.925 30.664H145.237ZM152.85 20.2H160.194C161.986 20.2 163.578 20.552 164.97 21.256C166.362 21.944 167.442 22.928 168.21 24.208C168.978 25.472 169.362 26.936 169.362 28.6C169.362 30.264 168.978 31.736 168.21 33.016C167.442 34.28 166.362 35.264 164.97 35.968C163.578 36.656 161.986 37 160.194 37H152.85V20.2ZM160.05 34.36C161.282 34.36 162.362 34.128 163.29 33.664C164.234 33.184 164.954 32.512 165.45 31.648C165.962 30.768 166.218 29.752 166.218 28.6C166.218 27.448 165.962 26.44 165.45 25.576C164.954 24.696 164.234 24.024 163.29 23.56C162.362 23.08 161.282 22.84 160.05 22.84H155.97V34.36H160.05ZM172.178 20.2H175.298V37H172.178V20.2Z" fill="#191D21"/>
<path d="M1 40.1093C1 35.0783 5.07827 31 10.1093 31C15.1404 31 19.2186 35.0783 19.2186 40.1093C19.2186 45.1404 15.1404 49.2186 10.1093 49.2186C5.07827 49.2186 1 45.1404 1 40.1093Z" fill="black"/>
<path d="M61 1H47.3946C49.7702 1 50.147 5.45189 49.7702 6.10122V44.8462C49.422 47.6022 48.8604 48.3826 47.3946 49.2186H61C60.1121 48.0529 59.4749 47.4592 59.2723 44.8462V6.10122C59.2515 3.66969 59.6533 2.56774 61 1Z" fill="black" stroke="black"/>
<path d="M15.5749 17.3428C9.13765 7.01892 9.13765 4.58977 1 2.64645C1 2.64645 23.4696 1.67479 20.7976 2.64645C18.1255 3.61811 17.1538 4.46831 18.1255 6.53309C19.0972 8.59787 34.5223 34.4683 34.5223 34.4683C36.1395 37.6184 38.0202 35.7911 41.6883 32.1606L33.4291 49.1647C28.4089 39.8529 16.6437 19.189 15.5749 17.3428Z" fill="black" stroke="black"/>
</svg>
