<svg width="902" height="124" viewBox="0 0 902 124" fill="none" xmlns="http://www.w3.org/2000/svg">
<path d="M73.7195 10.296V27.32H46.9675V99H26.9995V27.32H0.2475V10.296H73.7195ZM133.37 96.696C130.127 97.6347 125.946 98.488 120.826 99.256C115.706 100.109 110.33 100.536 104.698 100.536C98.9802 100.536 94.2015 99.768 90.3615 98.232C86.6068 96.696 83.6202 94.5627 81.4015 91.832C79.1828 89.016 77.6042 85.688 76.6655 81.848C75.7268 78.008 75.2575 73.784 75.2575 69.176V31.672H94.3295V66.872C94.3295 73.016 95.1402 77.4533 96.7615 80.184C98.3828 82.9147 101.412 84.28 105.85 84.28C107.215 84.28 108.666 84.2373 110.202 84.152C111.738 83.9813 113.103 83.8107 114.298 83.64V31.672H133.37V96.696ZM191.349 48.568C189.642 48.1413 187.637 47.7147 185.333 47.288C183.029 46.776 180.554 46.52 177.909 46.52C176.714 46.52 175.263 46.648 173.557 46.904C171.935 47.0747 170.698 47.288 169.845 47.544V99H150.773V35.256C154.186 34.0613 158.197 32.952 162.805 31.928C167.498 30.8187 172.703 30.264 178.421 30.264C179.445 30.264 180.682 30.3493 182.133 30.52C183.583 30.6053 185.034 30.776 186.485 31.032C187.935 31.2027 189.386 31.4587 190.837 31.8C192.287 32.056 193.525 32.3973 194.549 32.824L191.349 48.568ZM204.273 33.976C207.515 33.0373 211.697 32.184 216.817 31.416C221.937 30.5627 227.313 30.136 232.944 30.136C238.662 30.136 243.398 30.904 247.153 32.44C250.993 33.8907 254.022 35.9813 256.241 38.712C258.459 41.4427 260.038 44.6853 260.977 48.44C261.915 52.1947 262.385 56.376 262.385 60.984V99H243.313V63.288C243.313 57.144 242.502 52.792 240.881 50.232C239.259 47.672 236.23 46.392 231.793 46.392C230.427 46.392 228.977 46.4773 227.441 46.648C225.905 46.7333 224.539 46.8613 223.345 47.032V99H204.273V33.976ZM298.22 99H279.148V31.672H298.22V99ZM300.012 12.216C300.012 15.7147 298.86 18.488 296.556 20.536C294.337 22.4987 291.692 23.48 288.62 23.48C285.548 23.48 282.86 22.4987 280.556 20.536C278.337 18.488 277.228 15.7147 277.228 12.216C277.228 8.71733 278.337 5.98666 280.556 4.02399C282.86 1.976 285.548 0.951996 288.62 0.951996C291.692 0.951996 294.337 1.976 296.556 4.02399C298.86 5.98666 300.012 8.71733 300.012 12.216ZM315.648 33.976C318.89 33.0373 323.072 32.184 328.192 31.416C333.312 30.5627 338.688 30.136 344.319 30.136C350.037 30.136 354.773 30.904 358.528 32.44C362.368 33.8907 365.397 35.9813 367.616 38.712C369.834 41.4427 371.413 44.6853 372.352 48.44C373.29 52.1947 373.76 56.376 373.76 60.984V99H354.688V63.288C354.688 57.144 353.877 52.792 352.256 50.232C350.634 47.672 347.605 46.392 343.168 46.392C341.802 46.392 340.352 46.4773 338.816 46.648C337.28 46.7333 335.914 46.8613 334.72 47.032V99H315.648V33.976ZM406.779 63.16C406.779 73.8267 411.088 79.16 419.707 79.16C421.669 79.16 423.504 78.904 425.211 78.392C426.917 77.88 428.368 77.2827 429.563 76.6V46.136C428.624 45.9653 427.515 45.8373 426.235 45.752C424.955 45.5813 423.461 45.496 421.755 45.496C416.72 45.496 412.965 47.16 410.491 50.488C408.016 53.816 406.779 58.04 406.779 63.16ZM448.635 90.552C448.635 101.56 445.819 109.709 440.187 115C434.64 120.376 426.021 123.064 414.331 123.064C410.235 123.064 406.139 122.68 402.043 121.912C397.947 121.229 394.149 120.291 390.651 119.096L393.979 103.096C396.965 104.291 400.08 105.229 403.323 105.912C406.651 106.595 410.405 106.936 414.587 106.936C420.048 106.936 423.888 105.741 426.107 103.352C428.411 100.963 429.563 97.8907 429.563 94.136V91.704C427.515 92.6427 425.381 93.368 423.163 93.88C421.029 94.3067 418.683 94.52 416.123 94.52C406.821 94.52 399.696 91.7893 394.747 86.328C389.797 80.7813 387.323 73.0587 387.323 63.16C387.323 58.2107 388.091 53.7307 389.627 49.72C391.163 45.624 393.381 42.1253 396.283 39.224C399.269 36.3227 402.896 34.104 407.163 32.568C411.429 30.9467 416.251 30.136 421.627 30.136C423.931 30.136 426.277 30.264 428.667 30.52C431.141 30.6907 433.573 30.9467 435.963 31.288C438.352 31.6293 440.613 32.056 442.747 32.568C444.965 32.9947 446.928 33.464 448.635 33.976V90.552ZM556.817 81.848V99H497.553V10.296H517.521V81.848H556.817ZM564.698 65.848C564.698 59.8747 565.594 54.6693 567.385 50.232C569.263 45.7093 571.695 41.9547 574.682 38.968C577.668 35.9813 581.082 33.72 584.922 32.184C588.847 30.648 592.858 29.88 596.954 29.88C606.511 29.88 614.063 32.824 619.61 38.712C625.156 44.5147 627.93 53.0907 627.93 64.44C627.93 65.5493 627.887 66.7867 627.802 68.152C627.716 69.432 627.631 70.584 627.546 71.608H584.282C584.708 75.5333 586.543 78.648 589.786 80.952C593.028 83.256 597.38 84.408 602.842 84.408C606.34 84.408 609.754 84.1093 613.082 83.512C616.495 82.8293 619.268 82.0187 621.402 81.08L623.962 96.568C622.938 97.08 621.572 97.592 619.866 98.104C618.159 98.616 616.239 99.0427 614.106 99.384C612.058 99.8107 609.839 100.152 607.45 100.408C605.06 100.664 602.671 100.792 600.282 100.792C594.223 100.792 588.932 99.896 584.41 98.104C579.972 96.312 576.26 93.88 573.274 90.808C570.372 87.6507 568.196 83.9387 566.746 79.672C565.38 75.4053 564.698 70.7973 564.698 65.848ZM609.498 58.552C609.412 56.9307 609.114 55.352 608.602 53.816C608.175 52.28 607.45 50.9147 606.426 49.72C605.487 48.5253 604.25 47.544 602.714 46.776C601.263 46.008 599.428 45.624 597.21 45.624C595.076 45.624 593.242 46.008 591.706 46.776C590.17 47.4587 588.89 48.3973 587.866 49.592C586.842 50.7867 586.031 52.1947 585.434 53.816C584.922 55.352 584.538 56.9307 584.282 58.552H609.498ZM667.876 85.688C669.753 85.688 671.545 85.6453 673.252 85.56C674.958 85.4747 676.324 85.3467 677.348 85.176V70.712C676.58 70.5413 675.428 70.3707 673.892 70.2C672.356 70.0293 670.948 69.944 669.668 69.944C667.876 69.944 666.169 70.072 664.548 70.328C663.012 70.4987 661.646 70.8827 660.452 71.48C659.257 72.0773 658.318 72.888 657.636 73.912C656.953 74.936 656.612 76.216 656.612 77.752C656.612 80.7387 657.593 82.8293 659.556 84.024C661.604 85.1333 664.377 85.688 667.876 85.688ZM666.34 29.88C671.972 29.88 676.665 30.52 680.42 31.8C684.174 33.08 687.161 34.9147 689.38 37.304C691.684 39.6933 693.305 42.5947 694.244 46.008C695.182 49.4213 695.652 53.2187 695.652 57.4V97.08C692.921 97.6773 689.124 98.36 684.26 99.128C679.396 99.9813 673.508 100.408 666.596 100.408C662.244 100.408 658.276 100.024 654.692 99.256C651.193 98.488 648.164 97.2507 645.604 95.544C643.044 93.752 641.081 91.448 639.716 88.632C638.35 85.816 637.668 82.36 637.668 78.264C637.668 74.3387 638.436 71.0107 639.972 68.28C641.593 65.5493 643.726 63.3733 646.372 61.752C649.017 60.1307 652.046 58.9787 655.46 58.296C658.873 57.528 662.414 57.144 666.083 57.144C668.558 57.144 670.734 57.272 672.612 57.528C674.574 57.6987 676.153 57.9547 677.348 58.296V56.504C677.348 53.2613 676.366 50.6587 674.404 48.696C672.441 46.7333 669.028 45.752 664.164 45.752C660.921 45.752 657.721 46.008 654.564 46.52C651.406 46.9467 648.676 47.5867 646.372 48.44L643.94 33.08C645.049 32.7387 646.414 32.3973 648.036 32.056C649.742 31.6293 651.577 31.288 653.54 31.032C655.502 30.6907 657.55 30.4347 659.684 30.264C661.902 30.008 664.121 29.88 666.34 29.88ZM729.077 99C724.725 90.4667 720.287 80.4827 715.765 69.048C711.327 57.6133 707.103 45.1547 703.093 31.672H723.317C724.17 35 725.151 38.6267 726.261 42.552C727.455 46.392 728.65 50.3173 729.845 54.328C731.125 58.2533 732.362 62.0933 733.557 65.848C734.837 69.6027 736.074 73.016 737.269 76.088C738.378 73.016 739.573 69.6027 740.853 65.848C742.133 62.0933 743.37 58.2533 744.565 54.328C745.845 50.3173 747.039 46.392 748.149 42.552C749.343 38.6267 750.367 35 751.221 31.672H770.933C766.922 45.1547 762.655 57.6133 758.133 69.048C753.695 80.4827 749.301 90.4667 744.949 99H729.077ZM775.698 65.848C775.698 59.8747 776.594 54.6693 778.385 50.232C780.263 45.7093 782.695 41.9547 785.682 38.968C788.668 35.9813 792.082 33.72 795.922 32.184C799.847 30.648 803.858 29.88 807.954 29.88C817.511 29.88 825.063 32.824 830.61 38.712C836.156 44.5147 838.93 53.0907 838.93 64.44C838.93 65.5493 838.887 66.7867 838.802 68.152C838.716 69.432 838.631 70.584 838.546 71.608H795.282C795.708 75.5333 797.543 78.648 800.786 80.952C804.028 83.256 808.38 84.408 813.842 84.408C817.34 84.408 820.754 84.1093 824.082 83.512C827.495 82.8293 830.268 82.0187 832.402 81.08L834.962 96.568C833.938 97.08 832.572 97.592 830.866 98.104C829.159 98.616 827.239 99.0427 825.106 99.384C823.058 99.8107 820.839 100.152 818.45 100.408C816.06 100.664 813.671 100.792 811.282 100.792C805.223 100.792 799.932 99.896 795.41 98.104C790.972 96.312 787.26 93.88 784.274 90.808C781.372 87.6507 779.196 83.9387 777.746 79.672C776.38 75.4053 775.698 70.7973 775.698 65.848ZM820.498 58.552C820.412 56.9307 820.114 55.352 819.602 53.816C819.175 52.28 818.45 50.9147 817.426 49.72C816.487 48.5253 815.25 47.544 813.714 46.776C812.263 46.008 810.428 45.624 808.21 45.624C806.076 45.624 804.242 46.008 802.706 46.776C801.17 47.4587 799.89 48.3973 798.866 49.592C797.842 50.7867 797.031 52.1947 796.434 53.816C795.922 55.352 795.538 56.9307 795.282 58.552H820.498ZM872.476 85.304C875.974 85.304 878.449 84.9627 879.9 84.28C881.35 83.5973 882.076 82.2747 882.076 80.312C882.076 78.776 881.137 77.4533 879.26 76.344C877.382 75.1493 874.524 73.8267 870.684 72.376C867.697 71.2667 864.966 70.1147 862.492 68.92C860.102 67.7253 858.054 66.3173 856.348 64.696C854.641 62.9893 853.318 60.984 852.38 58.68C851.441 56.376 850.972 53.6027 850.972 50.36C850.972 44.0453 853.318 39.0533 858.012 35.384C862.705 31.7147 869.148 29.88 877.34 29.88C881.436 29.88 885.361 30.264 889.116 31.032C892.87 31.7147 895.857 32.4827 898.076 33.336L894.748 48.184C892.529 47.416 890.097 46.7333 887.452 46.136C884.892 45.5387 881.99 45.24 878.748 45.24C872.774 45.24 869.788 46.904 869.788 50.232C869.788 51 869.916 51.6827 870.172 52.28C870.428 52.8773 870.94 53.4747 871.708 54.072C872.476 54.584 873.5 55.1813 874.78 55.864C876.145 56.4613 877.852 57.144 879.9 57.912C884.081 59.448 887.537 60.984 890.268 62.52C892.998 63.9707 895.132 65.592 896.668 67.384C898.289 69.0907 899.398 71.0107 899.996 73.144C900.678 75.2773 901.02 77.752 901.02 80.568C901.02 87.224 898.502 92.2587 893.468 95.672C888.518 99.0853 881.478 100.792 872.348 100.792C866.374 100.792 861.382 100.28 857.372 99.256C853.446 98.232 850.716 97.3787 849.18 96.696L852.38 81.208C855.622 82.488 858.95 83.512 862.364 84.28C865.777 84.9627 869.148 85.304 872.476 85.304Z" fill="#053F41"/>
</svg>
