<svg width="176" height="136" viewBox="0 0 176 136" fill="none" xmlns="http://www.w3.org/2000/svg">
<circle cx="50" cy="50" r="50" fill="#FBE6DA"/>
<path d="M63.44 82.128C63.44 92.176 64.464 99.344 66.512 103.632C68.56 107.856 72.016 109.968 76.88 109.968C81.808 109.968 85.296 107.856 87.344 103.632C89.456 99.344 90.512 92.208 90.512 82.224C90.512 72.176 89.456 65.04 87.344 60.816C85.296 56.528 81.84 54.384 76.976 54.384C72.112 54.384 68.624 56.496 66.512 60.72C64.464 64.944 63.44 72.08 63.44 82.128ZM93.488 106.32C89.712 111.888 84.208 114.672 76.976 114.672C69.744 114.672 64.208 111.856 60.368 106.224C56.528 100.592 54.608 92.56 54.608 82.128C54.608 71.632 56.528 63.6 60.368 58.032C64.208 52.4 69.744 49.584 76.976 49.584C84.208 49.584 89.712 52.368 93.488 57.936C97.328 63.504 99.248 71.568 99.248 82.128C99.248 92.624 97.328 100.688 93.488 106.32ZM149.812 106.896V114H109.972V108.432C120.724 98.256 128.148 90.096 132.244 83.952C136.34 77.808 138.388 71.952 138.388 66.384C138.388 58.384 135.092 54.384 128.5 54.384C125.492 54.384 123.124 55.12 121.396 56.592C119.668 58.064 118.804 59.952 118.804 62.256C118.804 64.496 119.476 66.48 120.82 68.208C119.412 69.616 117.812 70.32 116.02 70.32C114.292 70.32 112.82 69.712 111.604 68.496C110.452 67.28 109.876 65.456 109.876 63.024C109.876 58.608 111.636 55.28 115.156 53.04C118.74 50.736 123.38 49.584 129.076 49.584C134.772 49.584 139.22 51.12 142.42 54.192C145.684 57.264 147.316 61.616 147.316 67.248C147.316 72.88 145.236 78.8 141.076 85.008C136.916 91.152 129.908 98.448 120.052 106.896H149.812ZM161.017 109.104C161.017 105.392 162.713 103.536 166.105 103.536C169.497 103.536 171.193 105.392 171.193 109.104C171.193 112.816 169.497 114.672 166.105 114.672C162.713 114.672 161.017 112.816 161.017 109.104Z" fill="#191D21"/>
</svg>
