<svg width="176" height="136" viewBox="0 0 176 136" fill="none" xmlns="http://www.w3.org/2000/svg">
<circle cx="50" cy="50" r="50" fill="#FF896D"/>
<path d="M63.44 82.128C63.44 92.176 64.464 99.344 66.512 103.632C68.56 107.856 72.016 109.968 76.88 109.968C81.808 109.968 85.296 107.856 87.344 103.632C89.456 99.344 90.512 92.208 90.512 82.224C90.512 72.176 89.456 65.04 87.344 60.816C85.296 56.528 81.84 54.384 76.976 54.384C72.112 54.384 68.624 56.496 66.512 60.72C64.464 64.944 63.44 72.08 63.44 82.128ZM93.488 106.32C89.712 111.888 84.208 114.672 76.976 114.672C69.744 114.672 64.208 111.856 60.368 106.224C56.528 100.592 54.608 92.56 54.608 82.128C54.608 71.632 56.528 63.6 60.368 58.032C64.208 52.4 69.744 49.584 76.976 49.584C84.208 49.584 89.712 52.368 93.488 57.936C97.328 63.504 99.248 71.568 99.248 82.128C99.248 92.624 97.328 100.688 93.488 106.32ZM123.7 82.512V78.288C133.876 77.968 138.964 73.616 138.964 65.232C138.964 61.712 138.164 59.024 136.564 57.168C135.028 55.312 132.82 54.384 129.94 54.384C127.124 54.384 124.852 55.12 123.124 56.592C121.46 58.064 120.628 59.792 120.628 61.776C120.628 63.76 120.98 65.2 121.684 66.096C120.148 67.248 118.58 67.824 116.98 67.824C115.444 67.824 114.26 67.28 113.428 66.192C112.66 65.04 112.276 63.504 112.276 61.584C112.276 58.192 113.972 55.344 117.364 53.04C120.82 50.736 125.108 49.584 130.228 49.584C135.412 49.584 139.636 51.024 142.9 53.904C146.164 56.784 147.796 60.56 147.796 65.232C147.796 72.592 143.604 77.616 135.22 80.304C144.116 82.672 148.564 88.112 148.564 96.624C148.564 101.936 146.74 106.288 143.092 109.68C139.508 113.008 134.772 114.672 128.884 114.672C123.06 114.672 118.42 113.52 114.964 111.216C111.572 108.848 109.876 105.616 109.876 101.52C109.876 99.92 110.388 98.64 111.412 97.68C112.436 96.656 113.748 96.144 115.348 96.144C116.948 96.144 118.484 96.688 119.956 97.776C119.444 99.184 119.188 100.528 119.188 101.808C119.188 104.304 120.116 106.288 121.972 107.76C123.892 109.232 126.452 109.968 129.652 109.968C132.916 109.968 135.476 108.784 137.332 106.416C139.188 103.984 140.116 100.624 140.116 96.336C140.116 92.048 138.676 88.688 135.796 86.256C132.916 83.76 128.884 82.512 123.7 82.512ZM161.017 109.104C161.017 105.392 162.713 103.536 166.105 103.536C169.497 103.536 171.193 105.392 171.193 109.104C171.193 112.816 169.497 114.672 166.105 114.672C162.713 114.672 161.017 112.816 161.017 109.104Z" fill="#191D21"/>
</svg>
