<svg width="264" height="365" viewBox="0 0 264 365" fill="none" xmlns="http://www.w3.org/2000/svg">
<rect width="264" height="365" rx="29" fill="#6ED47C"/>
<rect x="25" y="30" width="23" height="36" rx="9" fill="#FF743C"/>
<path d="M75.504 52.608C75.504 53.568 75.256 54.376 74.76 55.032C74.264 55.672 73.592 56.16 72.744 56.496C71.912 56.832 71 57 70.008 57H61.776V39.96H70.896C71.696 39.96 72.384 40.176 72.96 40.608C73.552 41.024 74 41.568 74.304 42.24C74.624 42.896 74.784 43.584 74.784 44.304C74.784 45.12 74.576 45.896 74.16 46.632C73.744 47.368 73.136 47.912 72.336 48.264C73.312 48.552 74.08 49.072 74.64 49.824C75.216 50.576 75.504 51.504 75.504 52.608ZM72.168 51.984C72.168 51.552 72.08 51.168 71.904 50.832C71.728 50.48 71.488 50.208 71.184 50.016C70.896 49.808 70.56 49.704 70.176 49.704H65.088V54.192H70.008C70.408 54.192 70.768 54.096 71.088 53.904C71.424 53.696 71.688 53.424 71.88 53.088C72.072 52.752 72.168 52.384 72.168 51.984ZM65.088 42.792V47.088H69.504C69.872 47.088 70.208 47 70.512 46.824C70.816 46.648 71.056 46.4 71.232 46.08C71.424 45.76 71.52 45.376 71.52 44.928C71.52 44.496 71.432 44.12 71.256 43.8C71.096 43.48 70.872 43.232 70.584 43.056C70.312 42.88 70 42.792 69.648 42.792H65.088ZM78.1063 52.296V44.424H81.3223V51.6C81.3223 52.56 81.4983 53.288 81.8503 53.784C82.2023 54.264 82.7223 54.504 83.4103 54.504C83.8263 54.504 84.2343 54.424 84.6343 54.264C85.0503 54.088 85.4263 53.832 85.7623 53.496C86.1143 53.16 86.4103 52.736 86.6503 52.224V44.424H89.8663V53.4C89.8663 53.736 89.9223 53.976 90.0343 54.12C90.1623 54.264 90.3623 54.352 90.6343 54.384V57C90.3143 57.048 90.0423 57.08 89.8183 57.096C89.6103 57.128 89.4183 57.144 89.2423 57.144C88.6663 57.144 88.1943 57.016 87.8263 56.76C87.4743 56.488 87.2663 56.12 87.2023 55.656L87.1303 54.648C86.5703 55.496 85.8503 56.144 84.9703 56.592C84.0903 57.024 83.1223 57.24 82.0663 57.24C80.7703 57.24 79.7863 56.824 79.1143 55.992C78.4423 55.144 78.1063 53.912 78.1063 52.296ZM92.7909 50.712C92.7909 49.496 93.0309 48.4 93.5109 47.424C93.9909 46.432 94.6549 45.648 95.5029 45.072C96.3509 44.496 97.3189 44.208 98.4069 44.208C99.3349 44.208 100.167 44.44 100.903 44.904C101.655 45.352 102.239 45.928 102.655 46.632V39.48H105.871V53.4C105.871 53.736 105.927 53.976 106.039 54.12C106.151 54.264 106.343 54.352 106.615 54.384V57C106.055 57.112 105.599 57.168 105.247 57.168C104.671 57.168 104.191 57.024 103.807 56.736C103.439 56.448 103.231 56.072 103.183 55.608L103.135 54.816C102.671 55.6 102.039 56.2 101.239 56.616C100.455 57.032 99.6309 57.24 98.7669 57.24C97.9029 57.24 97.1029 57.072 96.3669 56.736C95.6469 56.4 95.0149 55.936 94.4709 55.344C93.9429 54.752 93.5269 54.064 93.2229 53.28C92.9349 52.48 92.7909 51.624 92.7909 50.712ZM102.655 52.392V49.392C102.495 48.928 102.239 48.512 101.887 48.144C101.535 47.776 101.143 47.488 100.711 47.28C100.279 47.056 99.8469 46.944 99.4149 46.944C98.9189 46.944 98.4709 47.048 98.0709 47.256C97.6709 47.464 97.3189 47.744 97.0149 48.096C96.7269 48.448 96.5029 48.856 96.3429 49.32C96.1989 49.784 96.1269 50.272 96.1269 50.784C96.1269 51.296 96.2069 51.784 96.3669 52.248C96.5429 52.696 96.7909 53.088 97.1109 53.424C97.4309 53.76 97.7989 54.024 98.2149 54.216C98.6469 54.408 99.1109 54.504 99.6069 54.504C99.9109 54.504 100.215 54.456 100.519 54.36C100.839 54.248 101.135 54.104 101.407 53.928C101.695 53.736 101.943 53.512 102.151 53.256C102.375 52.984 102.543 52.696 102.655 52.392ZM114.444 57.072C113.612 57.072 112.844 56.912 112.14 56.592C111.452 56.256 110.852 55.792 110.34 55.2C109.844 54.608 109.46 53.928 109.188 53.16C108.916 52.392 108.78 51.576 108.78 50.712C108.78 49.8 108.924 48.952 109.212 48.168C109.5 47.384 109.9 46.696 110.412 46.104C110.94 45.496 111.556 45.032 112.26 44.712C112.98 44.376 113.772 44.208 114.636 44.208C115.612 44.208 116.468 44.432 117.204 44.88C117.94 45.312 118.548 45.896 119.028 46.632V44.424H121.836V56.4C121.836 57.648 121.532 58.712 120.924 59.592C120.332 60.488 119.508 61.168 118.452 61.632C117.396 62.112 116.196 62.352 114.852 62.352C113.492 62.352 112.34 62.12 111.396 61.656C110.452 61.208 109.644 60.568 108.972 59.736L110.724 58.032C111.204 58.624 111.804 59.088 112.524 59.424C113.26 59.76 114.036 59.928 114.852 59.928C115.54 59.928 116.164 59.8 116.724 59.544C117.3 59.304 117.756 58.92 118.092 58.392C118.444 57.88 118.62 57.216 118.62 56.4V54.816C118.204 55.536 117.612 56.096 116.844 56.496C116.092 56.88 115.292 57.072 114.444 57.072ZM115.524 54.504C115.876 54.504 116.212 54.448 116.532 54.336C116.852 54.224 117.148 54.072 117.42 53.88C117.692 53.688 117.932 53.464 118.14 53.208C118.348 52.936 118.508 52.664 118.62 52.392V49.392C118.428 48.896 118.156 48.464 117.804 48.096C117.468 47.728 117.084 47.448 116.652 47.256C116.236 47.048 115.796 46.944 115.332 46.944C114.836 46.944 114.388 47.048 113.988 47.256C113.588 47.464 113.244 47.76 112.956 48.144C112.668 48.512 112.444 48.928 112.284 49.392C112.14 49.84 112.068 50.312 112.068 50.808C112.068 51.32 112.156 51.8 112.332 52.248C112.508 52.696 112.748 53.088 113.052 53.424C113.372 53.76 113.74 54.024 114.156 54.216C114.588 54.408 115.044 54.504 115.524 54.504ZM131.064 57.24C130.056 57.24 129.144 57.072 128.328 56.736C127.512 56.384 126.816 55.912 126.24 55.32C125.664 54.712 125.216 54.024 124.896 53.256C124.592 52.472 124.44 51.648 124.44 50.784C124.44 49.584 124.704 48.488 125.232 47.496C125.776 46.504 126.544 45.712 127.536 45.12C128.544 44.512 129.728 44.208 131.088 44.208C132.464 44.208 133.64 44.512 134.616 45.12C135.592 45.712 136.336 46.504 136.848 47.496C137.376 48.472 137.64 49.528 137.64 50.664C137.64 50.856 137.632 51.056 137.616 51.264C137.6 51.456 137.584 51.616 137.568 51.744H127.848C127.912 52.384 128.096 52.944 128.4 53.424C128.72 53.904 129.12 54.272 129.6 54.528C130.096 54.768 130.624 54.888 131.184 54.888C131.824 54.888 132.424 54.736 132.984 54.432C133.56 54.112 133.952 53.696 134.16 53.184L136.92 53.952C136.616 54.592 136.176 55.16 135.6 55.656C135.04 56.152 134.376 56.544 133.608 56.832C132.84 57.104 131.992 57.24 131.064 57.24ZM127.776 49.704H134.352C134.288 49.064 134.104 48.512 133.8 48.048C133.512 47.568 133.128 47.2 132.648 46.944C132.168 46.672 131.632 46.536 131.04 46.536C130.464 46.536 129.936 46.672 129.456 46.944C128.992 47.2 128.608 47.568 128.304 48.048C128.016 48.512 127.84 49.064 127.776 49.704ZM147.515 56.352C147.243 56.464 146.915 56.592 146.531 56.736C146.147 56.88 145.731 56.992 145.283 57.072C144.851 57.168 144.411 57.216 143.963 57.216C143.371 57.216 142.827 57.112 142.331 56.904C141.835 56.696 141.435 56.368 141.131 55.92C140.843 55.456 140.699 54.856 140.699 54.12V46.896H139.043V44.424H140.699V40.344H143.915V44.424H146.555V46.896H143.915V53.04C143.931 53.472 144.051 53.784 144.275 53.976C144.499 54.168 144.779 54.264 145.115 54.264C145.451 54.264 145.779 54.208 146.099 54.096C146.419 53.984 146.675 53.888 146.867 53.808L147.515 56.352Z" fill="white"/>
<path d="M97.0594 121.571C97.0594 122.415 96.8371 123.197 96.3924 123.917C95.9631 124.623 95.3191 125.205 94.4604 125.665C93.6171 126.11 92.6127 126.355 91.4474 126.401V128.264H89.9754V126.378C88.3501 126.24 87.0391 125.757 86.0424 124.929C85.0457 124.086 84.5167 122.944 84.4554 121.502H88.6414C88.7334 122.422 89.1781 123.013 89.9754 123.273V119.639C88.7794 119.333 87.8211 119.034 87.1004 118.742C86.3951 118.451 85.7741 117.983 85.2374 117.339C84.7007 116.695 84.4324 115.814 84.4324 114.694C84.4324 113.299 84.9461 112.18 85.9734 111.336C87.0161 110.493 88.3501 110.018 89.9754 109.91V108.047H91.4474V109.91C93.0574 110.033 94.3301 110.501 95.2654 111.313C96.2007 112.126 96.7221 113.253 96.8294 114.694H92.6204C92.5284 113.866 92.1374 113.33 91.4474 113.084V116.649C92.7201 117.002 93.7014 117.316 94.3914 117.592C95.0814 117.868 95.6947 118.328 96.2314 118.972C96.7834 119.601 97.0594 120.467 97.0594 121.571ZM88.5954 114.51C88.5954 114.894 88.7104 115.216 88.9404 115.476C89.1857 115.737 89.5307 115.967 89.9754 116.166V112.969C89.5461 113.046 89.2087 113.215 88.9634 113.475C88.7181 113.721 88.5954 114.066 88.5954 114.51ZM91.4474 123.342C91.9074 123.266 92.2677 123.082 92.5284 122.79C92.8044 122.499 92.9424 122.139 92.9424 121.709C92.9424 121.311 92.8121 120.989 92.5514 120.743C92.3061 120.483 91.9381 120.26 91.4474 120.076V123.342ZM98.6801 113.13V109.473H105.051V126.263H100.957V113.13H98.6801ZM107.104 123.112C107.625 122.698 107.863 122.507 107.817 122.537C109.319 121.295 110.5 120.276 111.359 119.478C112.233 118.681 112.969 117.845 113.567 116.971C114.165 116.097 114.464 115.246 114.464 114.418C114.464 113.79 114.318 113.299 114.027 112.946C113.735 112.594 113.298 112.417 112.716 112.417C112.133 112.417 111.673 112.64 111.336 113.084C111.014 113.514 110.853 114.127 110.853 114.924H107.058C107.088 113.621 107.364 112.532 107.886 111.658C108.422 110.784 109.12 110.14 109.979 109.726C110.853 109.312 111.819 109.105 112.877 109.105C114.701 109.105 116.074 109.573 116.994 110.508C117.929 111.444 118.397 112.663 118.397 114.165C118.397 115.806 117.837 117.332 116.718 118.742C115.598 120.138 114.172 121.502 112.44 122.836H118.65V126.033H107.104V123.112ZM119.743 123.112C120.265 122.698 120.502 122.507 120.456 122.537C121.959 121.295 123.14 120.276 123.998 119.478C124.872 118.681 125.608 117.845 126.206 116.971C126.804 116.097 127.103 115.246 127.103 114.418C127.103 113.79 126.958 113.299 126.666 112.946C126.375 112.594 125.938 112.417 125.355 112.417C124.773 112.417 124.313 112.64 123.975 113.084C123.653 113.514 123.492 114.127 123.492 114.924H119.697C119.728 113.621 120.004 112.532 120.525 111.658C121.062 110.784 121.76 110.14 122.618 109.726C123.492 109.312 124.458 109.105 125.516 109.105C127.341 109.105 128.713 109.573 129.633 110.508C130.569 111.444 131.036 112.663 131.036 114.165C131.036 115.806 130.477 117.332 129.357 118.742C128.238 120.138 126.812 121.502 125.079 122.836H131.289V126.033H119.743V123.112ZM144.343 112.9H137.167V116.074C137.474 115.737 137.903 115.461 138.455 115.246C139.007 115.032 139.605 114.924 140.249 114.924C141.399 114.924 142.35 115.185 143.101 115.706C143.868 116.228 144.427 116.902 144.78 117.73C145.133 118.558 145.309 119.455 145.309 120.421C145.309 122.215 144.803 123.641 143.791 124.699C142.779 125.742 141.353 126.263 139.513 126.263C138.286 126.263 137.221 126.056 136.316 125.642C135.411 125.213 134.714 124.623 134.223 123.871C133.732 123.12 133.464 122.254 133.418 121.272H137.259C137.351 121.748 137.573 122.146 137.926 122.468C138.279 122.775 138.762 122.928 139.375 122.928C140.096 122.928 140.632 122.698 140.985 122.238C141.338 121.778 141.514 121.165 141.514 120.398C141.514 119.647 141.33 119.072 140.962 118.673C140.594 118.275 140.057 118.075 139.352 118.075C138.831 118.075 138.401 118.206 138.064 118.466C137.727 118.712 137.504 119.041 137.397 119.455H133.602V109.45H144.343V112.9ZM149.211 126.447C148.521 126.447 147.953 126.248 147.509 125.849C147.079 125.435 146.865 124.929 146.865 124.331C146.865 123.718 147.079 123.204 147.509 122.79C147.953 122.376 148.521 122.169 149.211 122.169C149.885 122.169 150.437 122.376 150.867 122.79C151.311 123.204 151.534 123.718 151.534 124.331C151.534 124.929 151.311 125.435 150.867 125.849C150.437 126.248 149.885 126.447 149.211 126.447ZM152.971 117.638C152.971 115.001 153.477 112.923 154.489 111.405C155.516 109.887 157.165 109.128 159.434 109.128C161.703 109.128 163.344 109.887 164.356 111.405C165.383 112.923 165.897 115.001 165.897 117.638C165.897 120.306 165.383 122.399 164.356 123.917C163.344 125.435 161.703 126.194 159.434 126.194C157.165 126.194 155.516 125.435 154.489 123.917C153.477 122.399 152.971 120.306 152.971 117.638ZM162.033 117.638C162.033 116.09 161.864 114.901 161.527 114.073C161.19 113.23 160.492 112.808 159.434 112.808C158.376 112.808 157.678 113.23 157.341 114.073C157.004 114.901 156.835 116.09 156.835 117.638C156.835 118.681 156.896 119.547 157.019 120.237C157.142 120.912 157.387 121.464 157.755 121.893C158.138 122.307 158.698 122.514 159.434 122.514C160.17 122.514 160.722 122.307 161.09 121.893C161.473 121.464 161.726 120.912 161.849 120.237C161.972 119.547 162.033 118.681 162.033 117.638ZM167.337 123.112C167.858 122.698 168.096 122.507 168.05 122.537C169.553 121.295 170.733 120.276 171.592 119.478C172.466 118.681 173.202 117.845 173.8 116.971C174.398 116.097 174.697 115.246 174.697 114.418C174.697 113.79 174.551 113.299 174.26 112.946C173.969 112.594 173.532 112.417 172.949 112.417C172.366 112.417 171.906 112.64 171.569 113.084C171.247 113.514 171.086 114.127 171.086 114.924H167.291C167.322 113.621 167.598 112.532 168.119 111.658C168.656 110.784 169.353 110.14 170.212 109.726C171.086 109.312 172.052 109.105 173.11 109.105C174.935 109.105 176.307 109.573 177.227 110.508C178.162 111.444 178.63 112.663 178.63 114.165C178.63 115.806 178.07 117.332 176.951 118.742C175.832 120.138 174.406 121.502 172.673 122.836H178.883V126.033H167.337V123.112Z" fill="white"/>
<path d="M90.1269 88.172V98H87.7329V92.106L85.5349 98H83.6029L81.3909 92.092V98H78.9969V88.172H81.8249L84.5829 94.976L87.3129 88.172H90.1269ZM94.9045 98.112C94.1391 98.112 93.4485 97.9487 92.8325 97.622C92.2258 97.2953 91.7451 96.8287 91.3905 96.222C91.0451 95.6153 90.8725 94.906 90.8725 94.094C90.8725 93.2913 91.0498 92.5867 91.4045 91.98C91.7591 91.364 92.2445 90.8927 92.8605 90.566C93.4765 90.2393 94.1671 90.076 94.9325 90.076C95.6978 90.076 96.3885 90.2393 97.0045 90.566C97.6205 90.8927 98.1058 91.364 98.4605 91.98C98.8151 92.5867 98.9925 93.2913 98.9925 94.094C98.9925 94.8967 98.8105 95.606 98.4465 96.222C98.0918 96.8287 97.6018 97.2953 96.9765 97.622C96.3605 97.9487 95.6698 98.112 94.9045 98.112ZM94.9045 96.04C95.3618 96.04 95.7491 95.872 96.0665 95.536C96.3931 95.2 96.5565 94.7193 96.5565 94.094C96.5565 93.4687 96.3978 92.988 96.0805 92.652C95.7725 92.316 95.3898 92.148 94.9325 92.148C94.4658 92.148 94.0785 92.316 93.7705 92.652C93.4625 92.9787 93.3085 93.4593 93.3085 94.094C93.3085 94.7193 93.4578 95.2 93.7565 95.536C94.0645 95.872 94.4471 96.04 94.9045 96.04ZM104.523 90.104C105.437 90.104 106.165 90.4027 106.707 91C107.257 91.588 107.533 92.4 107.533 93.436V98H105.153V93.758C105.153 93.2353 105.017 92.8293 104.747 92.54C104.476 92.2507 104.112 92.106 103.655 92.106C103.197 92.106 102.833 92.2507 102.563 92.54C102.292 92.8293 102.157 93.2353 102.157 93.758V98H99.7625V90.188H102.157V91.224C102.399 90.8787 102.726 90.608 103.137 90.412C103.547 90.2067 104.009 90.104 104.523 90.104ZM113.05 95.97V98H111.832C110.964 98 110.287 97.79 109.802 97.37C109.317 96.9407 109.074 96.2453 109.074 95.284V92.176H108.122V90.188H109.074V88.284H111.468V90.188H113.036V92.176H111.468V95.312C111.468 95.5453 111.524 95.7133 111.636 95.816C111.748 95.9187 111.935 95.97 112.196 95.97H113.05ZM118.686 90.104C119.582 90.104 120.3 90.4027 120.842 91C121.383 91.588 121.654 92.4 121.654 93.436V98H119.274V93.758C119.274 93.2353 119.138 92.8293 118.868 92.54C118.597 92.2507 118.233 92.106 117.776 92.106C117.318 92.106 116.954 92.2507 116.684 92.54C116.413 92.8293 116.278 93.2353 116.278 93.758V98H113.884V87.64H116.278V91.238C116.52 90.8927 116.852 90.6173 117.272 90.412C117.692 90.2067 118.163 90.104 118.686 90.104ZM125.211 87.64V98H122.817V87.64H125.211ZM134.426 90.188L129.526 101.71H126.95L128.742 97.734L125.564 90.188H128.238L130.044 95.074L131.836 90.188H134.426ZM143.209 92.96C143.778 93.0813 144.235 93.366 144.581 93.814C144.926 94.2527 145.099 94.7567 145.099 95.326C145.099 96.1473 144.809 96.8007 144.231 97.286C143.661 97.762 142.863 98 141.837 98H137.259V88.172H141.683C142.681 88.172 143.461 88.4007 144.021 88.858C144.59 89.3153 144.875 89.936 144.875 90.72C144.875 91.2987 144.721 91.7793 144.413 92.162C144.114 92.5447 143.713 92.8107 143.209 92.96ZM139.653 92.148H141.221C141.613 92.148 141.911 92.064 142.117 91.896C142.331 91.7187 142.439 91.462 142.439 91.126C142.439 90.79 142.331 90.5333 142.117 90.356C141.911 90.1787 141.613 90.09 141.221 90.09H139.653V92.148ZM141.417 96.068C141.818 96.068 142.126 95.9793 142.341 95.802C142.565 95.6153 142.677 95.3493 142.677 95.004C142.677 94.6587 142.56 94.388 142.327 94.192C142.103 93.996 141.79 93.898 141.389 93.898H139.653V96.068H141.417ZM153.701 90.188V98H151.307V96.936C151.064 97.2813 150.733 97.5613 150.313 97.776C149.902 97.9813 149.445 98.084 148.941 98.084C148.344 98.084 147.816 97.9533 147.359 97.692C146.902 97.4213 146.547 97.034 146.295 96.53C146.043 96.026 145.917 95.4333 145.917 94.752V90.188H148.297V94.43C148.297 94.9527 148.432 95.3587 148.703 95.648C148.974 95.9373 149.338 96.082 149.795 96.082C150.262 96.082 150.63 95.9373 150.901 95.648C151.172 95.3587 151.307 94.9527 151.307 94.43V90.188H153.701ZM154.445 94.08C154.445 93.2773 154.594 92.5727 154.893 91.966C155.201 91.3593 155.616 90.8927 156.139 90.566C156.661 90.2393 157.245 90.076 157.889 90.076C158.402 90.076 158.869 90.1833 159.289 90.398C159.718 90.6127 160.054 90.902 160.297 91.266V87.64H162.691V98H160.297V96.88C160.073 97.2533 159.751 97.552 159.331 97.776C158.92 98 158.439 98.112 157.889 98.112C157.245 98.112 156.661 97.9487 156.139 97.622C155.616 97.286 155.201 96.8147 154.893 96.208C154.594 95.592 154.445 94.8827 154.445 94.08ZM160.297 94.094C160.297 93.4967 160.129 93.0253 159.793 92.68C159.466 92.3347 159.065 92.162 158.589 92.162C158.113 92.162 157.707 92.3347 157.371 92.68C157.044 93.016 156.881 93.4827 156.881 94.08C156.881 94.6773 157.044 95.1533 157.371 95.508C157.707 95.8533 158.113 96.026 158.589 96.026C159.065 96.026 159.466 95.8533 159.793 95.508C160.129 95.1627 160.297 94.6913 160.297 94.094ZM166.891 90.076C167.441 90.076 167.922 90.188 168.333 90.412C168.753 90.636 169.075 90.93 169.299 91.294V90.188H171.693V97.986C171.693 98.7047 171.548 99.3533 171.259 99.932C170.979 100.52 170.545 100.987 169.957 101.332C169.378 101.677 168.655 101.85 167.787 101.85C166.629 101.85 165.691 101.575 164.973 101.024C164.254 100.483 163.843 99.7453 163.741 98.812H166.107C166.181 99.1107 166.359 99.344 166.639 99.512C166.919 99.6893 167.264 99.778 167.675 99.778C168.169 99.778 168.561 99.6333 168.851 99.344C169.149 99.064 169.299 98.6113 169.299 97.986V96.88C169.065 97.244 168.743 97.5427 168.333 97.776C167.922 98 167.441 98.112 166.891 98.112C166.247 98.112 165.663 97.9487 165.141 97.622C164.618 97.286 164.203 96.8147 163.895 96.208C163.596 95.592 163.447 94.8827 163.447 94.08C163.447 93.2773 163.596 92.5727 163.895 91.966C164.203 91.3593 164.618 90.8927 165.141 90.566C165.663 90.2393 166.247 90.076 166.891 90.076ZM169.299 94.094C169.299 93.4967 169.131 93.0253 168.795 92.68C168.468 92.3347 168.067 92.162 167.591 92.162C167.115 92.162 166.709 92.3347 166.373 92.68C166.046 93.016 165.883 93.4827 165.883 94.08C165.883 94.6773 166.046 95.1533 166.373 95.508C166.709 95.8533 167.115 96.026 167.591 96.026C168.067 96.026 168.468 95.8533 168.795 95.508C169.131 95.1627 169.299 94.6913 169.299 94.094ZM180.289 93.968C180.289 94.192 180.275 94.4253 180.247 94.668H174.829C174.866 95.1533 175.02 95.5267 175.291 95.788C175.571 96.04 175.911 96.166 176.313 96.166C176.91 96.166 177.325 95.914 177.559 95.41H180.107C179.976 95.9233 179.738 96.3853 179.393 96.796C179.057 97.2067 178.632 97.5287 178.119 97.762C177.605 97.9953 177.031 98.112 176.397 98.112C175.631 98.112 174.95 97.9487 174.353 97.622C173.755 97.2953 173.289 96.8287 172.953 96.222C172.617 95.6153 172.449 94.906 172.449 94.094C172.449 93.282 172.612 92.5727 172.939 91.966C173.275 91.3593 173.741 90.8927 174.339 90.566C174.936 90.2393 175.622 90.076 176.397 90.076C177.153 90.076 177.825 90.2347 178.413 90.552C179.001 90.8693 179.458 91.322 179.785 91.91C180.121 92.498 180.289 93.184 180.289 93.968ZM177.839 93.338C177.839 92.9273 177.699 92.6007 177.419 92.358C177.139 92.1153 176.789 91.994 176.369 91.994C175.967 91.994 175.627 92.1107 175.347 92.344C175.076 92.5773 174.908 92.9087 174.843 93.338H177.839ZM185.406 95.97V98H184.188C183.32 98 182.643 97.79 182.158 97.37C181.672 96.9407 181.43 96.2453 181.43 95.284V92.176H180.478V90.188H181.43V88.284H183.824V90.188H185.392V92.176H183.824V95.312C183.824 95.5453 183.88 95.7133 183.992 95.816C184.104 95.9187 184.29 95.97 184.552 95.97H185.406Z" fill="white"/>
<g opacity="0.16">
<rect x="17" y="320.578" width="152.383" height="24.8328" rx="12.4164" transform="rotate(-90 17 320.578)" fill="#263238"/>
</g>
<path d="M35.1324 306.956C35.1324 308.157 34.726 309.092 33.9133 309.76C33.0916 310.428 31.8861 310.763 30.2968 310.763C28.7075 310.763 27.4884 310.428 26.6396 309.76C25.7817 309.092 25.3528 308.157 25.3528 306.956C25.3528 306.162 25.5334 305.498 25.8946 304.965C26.2558 304.423 26.766 304.004 27.4252 303.706L27.9805 304.627C27.4929 304.816 27.1046 305.105 26.8156 305.494C26.5177 305.882 26.3687 306.369 26.3687 306.956C26.3687 307.363 26.4454 307.728 26.5989 308.054C26.7524 308.37 26.9737 308.641 27.2626 308.866C27.5426 309.083 27.8812 309.25 28.2785 309.367C28.6668 309.485 29.1048 309.544 29.5924 309.544H31.0011C31.9764 309.544 32.7394 309.318 33.2902 308.866C33.8411 308.415 34.1165 307.778 34.1165 306.956C34.1165 306.351 33.963 305.846 33.656 305.439C33.3399 305.033 32.9245 304.735 32.4098 304.545L32.9787 303.638C33.6469 303.936 34.1752 304.365 34.5635 304.925C34.9428 305.484 35.1324 306.162 35.1324 306.956ZM34.9698 300.381C34.9698 300.76 34.866 301.049 34.6583 301.248C34.4416 301.438 34.1707 301.533 33.8456 301.533H24.9464V300.449H34.0217V299.419H34.9698V300.381ZM35.1324 294.749C35.1324 295.219 35.0466 295.648 34.875 296.036C34.7035 296.424 34.4596 296.758 34.1436 297.038C33.8185 297.309 33.4347 297.521 32.9923 297.675C32.5407 297.828 32.0351 297.905 31.4752 297.905C30.9244 297.905 30.4232 297.828 29.9717 297.675C29.5202 297.521 29.1364 297.309 28.8203 297.038C28.4953 296.758 28.2469 296.424 28.0754 296.036C27.9038 295.648 27.818 295.219 27.818 294.749C27.818 294.28 27.9038 293.855 28.0754 293.476C28.2469 293.088 28.4953 292.754 28.8203 292.474C29.1364 292.194 29.5202 291.977 29.9717 291.823C30.4232 291.67 30.9244 291.593 31.4752 291.593C32.0351 291.593 32.5407 291.67 32.9923 291.823C33.4347 291.977 33.8185 292.194 34.1436 292.474C34.4596 292.754 34.7035 293.088 34.875 293.476C35.0466 293.855 35.1324 294.28 35.1324 294.749ZM34.1707 294.749C34.1707 294.162 33.9901 293.684 33.6289 293.313C33.2677 292.943 32.7168 292.758 31.9764 292.758H30.974C30.2336 292.758 29.6827 292.943 29.3215 293.313C28.9603 293.684 28.7797 294.162 28.7797 294.749C28.7797 295.336 28.9603 295.815 29.3215 296.185C29.6827 296.555 30.2336 296.74 30.974 296.74H31.9764C32.7168 296.74 33.2677 296.555 33.6289 296.185C33.9901 295.815 34.1707 295.336 34.1707 294.749ZM34.9698 287.815C34.9698 288.195 34.866 288.484 34.6583 288.682C34.4416 288.872 34.1617 288.967 33.8185 288.967H28.9287V290.118H27.9805V289.468C27.9805 289.233 27.9354 289.075 27.8451 288.994C27.7458 288.903 27.5787 288.858 27.3439 288.858H26.0436V287.883H27.9805V286.352H28.9287V287.883H34.0217V286.461H34.9698V287.815ZM24.9464 284.159V283.076H29.1183V283.021C28.721 282.85 28.405 282.611 28.1702 282.304C27.9354 281.988 27.818 281.568 27.818 281.044C27.818 280.321 28.0528 279.753 28.5223 279.337C28.9829 278.913 29.6376 278.701 30.4864 278.701H34.9698V279.784H30.676C29.4208 279.784 28.7932 280.312 28.7932 281.369C28.7932 281.586 28.8203 281.798 28.8745 282.006C28.9287 282.204 29.01 282.385 29.1183 282.547C29.2267 282.71 29.3667 282.841 29.5382 282.94C29.7008 283.031 29.8949 283.076 30.1207 283.076H34.9698V284.159H24.9464ZM35.1324 273.381C35.1324 273.86 35.0466 274.294 34.875 274.682C34.7035 275.061 34.4596 275.391 34.1436 275.671C33.8185 275.942 33.4347 276.154 32.9923 276.307C32.5407 276.452 32.0351 276.524 31.4752 276.524C30.9244 276.524 30.4232 276.452 29.9717 276.307C29.5202 276.154 29.1364 275.942 28.8203 275.671C28.4953 275.391 28.2469 275.061 28.0754 274.682C27.9038 274.294 27.818 273.86 27.818 273.381C27.818 272.912 27.9038 272.492 28.0754 272.122C28.2469 271.752 28.4862 271.435 28.7932 271.174C29.0912 270.912 29.4479 270.713 29.8633 270.578C30.2787 270.433 30.7347 270.361 31.2314 270.361H31.7461V275.386H32.0712C32.3692 275.386 32.6491 275.341 32.911 275.251C33.1638 275.151 33.3851 275.016 33.5747 274.844C33.7643 274.664 33.9133 274.447 34.0217 274.194C34.13 273.932 34.1842 273.639 34.1842 273.314C34.1842 272.871 34.0804 272.487 33.8727 272.162C33.665 271.828 33.367 271.571 32.9787 271.39L33.5341 270.618C34.0127 270.844 34.401 271.196 34.6989 271.675C34.9879 272.153 35.1324 272.722 35.1324 273.381ZM28.7255 273.381C28.7255 273.679 28.7797 273.95 28.8881 274.194C28.9874 274.438 29.1319 274.65 29.3215 274.831C29.5111 275.002 29.7369 275.138 29.9988 275.237C30.2516 275.336 30.5315 275.386 30.8386 275.386H30.9334V271.526H30.7844C30.1613 271.526 29.6647 271.697 29.2944 272.04C28.9152 272.375 28.7255 272.822 28.7255 273.381ZM35.1324 266.024C35.1324 266.674 35.0105 267.221 34.7667 267.663C34.5138 268.097 34.1797 268.471 33.7643 268.787L33.1412 268.015C33.4844 267.744 33.7508 267.442 33.9404 267.108C34.121 266.774 34.2113 266.385 34.2113 265.943C34.2113 265.482 34.112 265.126 33.9133 264.873C33.7147 264.611 33.4347 264.48 33.0735 264.48C32.8026 264.48 32.5724 264.57 32.3827 264.751C32.1841 264.923 32.0486 265.239 31.9764 265.699L31.8951 266.255C31.8499 266.58 31.7822 266.878 31.6919 267.148C31.5926 267.419 31.4662 267.659 31.3127 267.866C31.1501 268.065 30.9514 268.223 30.7167 268.34C30.4819 268.449 30.2019 268.503 29.8769 268.503C29.5337 268.503 29.2357 268.44 28.9829 268.313C28.721 268.187 28.5043 268.015 28.3327 267.799C28.1611 267.573 28.0347 267.307 27.9534 266.999C27.8631 266.692 27.818 266.363 27.818 266.011C27.818 265.442 27.9173 264.968 28.116 264.588C28.3147 264.2 28.5901 263.862 28.9422 263.573L29.5924 264.29C29.3757 264.444 29.1815 264.67 29.01 264.968C28.8294 265.266 28.7391 265.64 28.7391 266.092C28.7391 266.543 28.8384 266.887 29.0371 267.121C29.2267 267.347 29.4886 267.46 29.8227 267.46C30.1658 267.46 30.4142 267.347 30.5677 267.121C30.7212 266.887 30.8341 266.553 30.9063 266.119L30.9876 265.577C31.105 264.801 31.3307 264.25 31.6648 263.925C31.9899 263.6 32.4188 263.437 32.9516 263.437C33.6289 263.437 34.1617 263.667 34.5499 264.128C34.9382 264.588 35.1324 265.221 35.1324 266.024Z" fill="#263238"/>
<g opacity="0.16">
<rect x="75.6394" y="320.578" width="139.967" height="24.8328" rx="12.4164" transform="rotate(-90 75.6394 320.578)" fill="#263238"/>
</g>
<path d="M92.2276 304.166V304.207C92.6701 304.324 93.0404 304.613 93.3383 305.074C93.6273 305.525 93.7718 306.112 93.7718 306.834C93.7718 307.412 93.6679 307.945 93.4603 308.433C93.2435 308.911 92.932 309.322 92.5256 309.665C92.1103 310.009 91.6001 310.279 90.995 310.478C90.381 310.668 89.6766 310.763 88.882 310.763C88.0964 310.763 87.401 310.668 86.796 310.478C86.182 310.289 85.6718 310.018 85.2654 309.665C84.85 309.313 84.534 308.889 84.3173 308.392C84.1005 307.896 83.9922 307.345 83.9922 306.74C83.9922 305.891 84.1818 305.182 84.5611 304.613C84.9403 304.044 85.4415 303.606 86.0646 303.299L86.6335 304.234C86.1278 304.451 85.7305 304.776 85.4415 305.209C85.1525 305.633 85.0081 306.144 85.0081 306.74C85.0081 307.155 85.0848 307.534 85.2383 307.877C85.3828 308.221 85.5905 308.519 85.8614 308.771C86.1323 309.015 86.4574 309.205 86.8367 309.34C87.2159 309.476 87.6403 309.544 88.1099 309.544H89.6405C90.1101 309.544 90.539 309.476 90.9273 309.34C91.3066 309.205 91.6317 309.015 91.9026 308.771C92.1735 308.519 92.3857 308.212 92.5392 307.85C92.6837 307.489 92.7559 307.083 92.7559 306.631C92.7559 306.306 92.7153 305.999 92.634 305.71C92.5437 305.412 92.4128 305.155 92.2412 304.938C92.0696 304.712 91.8574 304.536 91.6046 304.41C91.3427 304.283 91.0357 304.22 90.6835 304.22H89.7489V306.306H88.7465V303.11H93.6093V304.166H92.2276ZM93.6093 300.527H86.6199V299.444H87.9067V299.376C87.5726 299.249 87.2746 299.024 87.0128 298.699C86.7509 298.374 86.6199 297.927 86.6199 297.358V296.938H87.7036V297.574C87.7036 298.161 87.8164 298.622 88.0422 298.956C88.2589 299.281 88.5343 299.444 88.8684 299.444H93.6093V300.527ZM93.7718 292.527C93.7718 292.997 93.686 293.425 93.5144 293.814C93.3429 294.202 93.0991 294.536 92.783 294.816C92.4579 295.087 92.0741 295.299 91.6317 295.453C91.1802 295.606 90.6745 295.683 90.1146 295.683C89.5638 295.683 89.0626 295.606 88.6111 295.453C88.1596 295.299 87.7758 295.087 87.4597 294.816C87.1347 294.536 86.8863 294.202 86.7148 293.814C86.5432 293.425 86.4574 292.997 86.4574 292.527C86.4574 292.057 86.5432 291.633 86.7148 291.254C86.8863 290.865 87.1347 290.531 87.4597 290.251C87.7758 289.971 88.1596 289.755 88.6111 289.601C89.0626 289.448 89.5638 289.371 90.1146 289.371C90.6745 289.371 91.1802 289.448 91.6317 289.601C92.0741 289.755 92.4579 289.971 92.783 290.251C93.0991 290.531 93.3429 290.865 93.5144 291.254C93.686 291.633 93.7718 292.057 93.7718 292.527ZM92.8101 292.527C92.8101 291.94 92.6295 291.461 92.2683 291.091C91.9071 290.721 91.3562 290.536 90.6158 290.536H89.6134C88.873 290.536 88.3221 290.721 87.9609 291.091C87.5997 291.461 87.4191 291.94 87.4191 292.527C87.4191 293.114 87.5997 293.592 87.9609 293.963C88.3221 294.333 88.873 294.518 89.6134 294.518H90.6158C91.3562 294.518 91.9071 294.333 92.2683 293.963C92.6295 293.592 92.8101 293.114 92.8101 292.527ZM93.7718 284.537C93.7718 285.024 93.686 285.462 93.5144 285.85C93.3429 286.239 93.0991 286.568 92.783 286.839C92.4669 287.101 92.0832 287.304 91.6317 287.449C91.1802 287.584 90.6745 287.652 90.1146 287.652C89.5547 287.652 89.049 287.584 88.5975 287.449C88.146 287.304 87.7623 287.101 87.4462 286.839C87.1301 286.568 86.8863 286.239 86.7148 285.85C86.5432 285.462 86.4574 285.024 86.4574 284.537C86.4574 283.841 86.6109 283.286 86.9179 282.871C87.2159 282.446 87.6087 282.13 88.0964 281.922L88.5569 282.83C88.1957 282.956 87.9158 283.164 87.7171 283.453C87.5184 283.742 87.4191 284.103 87.4191 284.537C87.4191 284.862 87.4733 285.146 87.5816 285.39C87.681 285.634 87.8255 285.837 88.0151 285.999C88.1957 286.162 88.4169 286.284 88.6788 286.365C88.9317 286.446 89.2116 286.487 89.5186 286.487H90.7106C91.3246 286.487 91.8303 286.325 92.2276 285.999C92.6159 285.665 92.8101 285.178 92.8101 284.537C92.8101 283.661 92.4037 283.029 91.591 282.64L92.1193 281.855C92.625 282.08 93.0268 282.419 93.3248 282.871C93.6228 283.313 93.7718 283.868 93.7718 284.537ZM93.7718 277.325C93.7718 277.804 93.686 278.237 93.5144 278.625C93.3429 279.005 93.0991 279.334 92.783 279.614C92.4579 279.885 92.0741 280.097 91.6317 280.251C91.1802 280.395 90.6745 280.468 90.1146 280.468C89.5638 280.468 89.0626 280.395 88.6111 280.251C88.1596 280.097 87.7758 279.885 87.4597 279.614C87.1347 279.334 86.8863 279.005 86.7148 278.625C86.5432 278.237 86.4574 277.804 86.4574 277.325C86.4574 276.856 86.5432 276.436 86.7148 276.065C86.8863 275.695 87.1256 275.379 87.4327 275.117C87.7306 274.855 88.0873 274.657 88.5027 274.521C88.9181 274.377 89.3741 274.305 89.8708 274.305H90.3855V279.33H90.7106C91.0086 279.33 91.2885 279.285 91.5504 279.194C91.8032 279.095 92.0245 278.96 92.2141 278.788C92.4037 278.607 92.5527 278.391 92.6611 278.138C92.7695 277.876 92.8236 277.582 92.8236 277.257C92.8236 276.815 92.7198 276.431 92.5121 276.106C92.3044 275.772 92.0064 275.515 91.6181 275.334L92.1735 274.562C92.6521 274.788 93.0404 275.14 93.3383 275.618C93.6273 276.097 93.7718 276.666 93.7718 277.325ZM87.3649 277.325C87.3649 277.623 87.4191 277.894 87.5275 278.138C87.6268 278.382 87.7713 278.594 87.9609 278.774C88.1505 278.946 88.3763 279.081 88.6382 279.181C88.891 279.28 89.1709 279.33 89.478 279.33H89.5728V275.469H89.4238C88.8007 275.469 88.3041 275.641 87.9338 275.984C87.5546 276.318 87.3649 276.765 87.3649 277.325ZM93.6093 272.067H86.6199V270.984H87.9067V270.916C87.5726 270.79 87.2746 270.564 87.0128 270.239C86.7509 269.914 86.6199 269.467 86.6199 268.898V268.478H87.7036V269.115C87.7036 269.701 87.8164 270.162 88.0422 270.496C88.2589 270.821 88.5343 270.984 88.8684 270.984H93.6093V272.067ZM84.981 266.1C84.981 266.335 84.9268 266.507 84.8184 266.615C84.701 266.714 84.552 266.764 84.3714 266.764H84.1954C84.0148 266.764 83.8703 266.714 83.7619 266.615C83.6445 266.507 83.5858 266.335 83.5858 266.1C83.5858 265.866 83.6445 265.699 83.7619 265.599C83.8703 265.491 84.0148 265.437 84.1954 265.437H84.3714C84.552 265.437 84.701 265.491 84.8184 265.599C84.9268 265.699 84.981 265.866 84.981 266.1ZM86.6199 266.642V265.559H93.6093V266.642H86.6199ZM93.7718 260.177C93.7718 260.655 93.686 261.089 93.5144 261.477C93.3429 261.856 93.0991 262.186 92.783 262.466C92.4579 262.737 92.0741 262.949 91.6317 263.102C91.1802 263.247 90.6745 263.319 90.1146 263.319C89.5638 263.319 89.0626 263.247 88.6111 263.102C88.1596 262.949 87.7758 262.737 87.4597 262.466C87.1347 262.186 86.8863 261.856 86.7148 261.477C86.5432 261.089 86.4574 260.655 86.4574 260.177C86.4574 259.707 86.5432 259.287 86.7148 258.917C86.8863 258.547 87.1256 258.231 87.4327 257.969C87.7306 257.707 88.0873 257.508 88.5027 257.373C88.9181 257.228 89.3741 257.156 89.8708 257.156H90.3855V262.181H90.7106C91.0086 262.181 91.2885 262.136 91.5504 262.046C91.8032 261.947 92.0245 261.811 92.2141 261.64C92.4037 261.459 92.5527 261.242 92.6611 260.989C92.7695 260.728 92.8236 260.434 92.8236 260.109C92.8236 259.666 92.7198 259.283 92.5121 258.958C92.3044 258.623 92.0064 258.366 91.6181 258.186L92.1735 257.413C92.6521 257.639 93.0404 257.991 93.3383 258.47C93.6273 258.949 93.7718 259.517 93.7718 260.177ZM87.3649 260.177C87.3649 260.475 87.4191 260.746 87.5275 260.989C87.6268 261.233 87.7713 261.445 87.9609 261.626C88.1505 261.798 88.3763 261.933 88.6382 262.032C88.891 262.132 89.1709 262.181 89.478 262.181H89.5728V258.321H89.4238C88.8007 258.321 88.3041 258.493 87.9338 258.836C87.5546 259.17 87.3649 259.617 87.3649 260.177ZM93.7718 252.819C93.7718 253.47 93.6499 254.016 93.4061 254.458C93.1532 254.892 92.8191 255.267 92.4037 255.583L91.7807 254.811C92.1238 254.54 92.3902 254.237 92.5798 253.903C92.7604 253.569 92.8507 253.181 92.8507 252.738C92.8507 252.278 92.7514 251.921 92.5527 251.668C92.3541 251.406 92.0741 251.275 91.7129 251.275C91.442 251.275 91.2118 251.366 91.0221 251.546C90.8235 251.718 90.688 252.034 90.6158 252.494L90.5345 253.05C90.4893 253.375 90.4216 253.673 90.3313 253.944C90.232 254.215 90.1056 254.454 89.9521 254.662C89.7895 254.86 89.5908 255.018 89.3561 255.136C89.1213 255.244 88.8413 255.298 88.5163 255.298C88.1731 255.298 87.8751 255.235 87.6223 255.109C87.3604 254.982 87.1437 254.811 86.9721 254.594C86.8005 254.368 86.6741 254.102 86.5928 253.795C86.5025 253.488 86.4574 253.158 86.4574 252.806C86.4574 252.237 86.5567 251.763 86.7554 251.384C86.9541 250.995 87.2295 250.657 87.5816 250.368L88.2318 251.086C88.0151 251.239 87.8209 251.465 87.6494 251.763C87.4688 252.061 87.3785 252.436 87.3785 252.887C87.3785 253.339 87.4778 253.682 87.6765 253.917C87.8661 254.142 88.128 254.255 88.4621 254.255C88.8052 254.255 89.0536 254.142 89.2071 253.917C89.3606 253.682 89.4735 253.348 89.5457 252.914L89.627 252.372C89.7444 251.596 89.9701 251.045 90.3042 250.72C90.6293 250.395 91.0582 250.232 91.591 250.232C92.2683 250.232 92.8011 250.463 93.1894 250.923C93.5776 251.384 93.7718 252.016 93.7718 252.819Z" fill="#263238"/>
<rect x="46.3197" y="320.578" width="75.6273" height="24.8328" rx="12.4164" transform="rotate(-90 46.3197 320.578)" fill="#FF743C"/>
<path d="M64.2896 309.151V310.289H54.835V306.523C54.835 305.692 55.0653 305.047 55.5258 304.586C55.9864 304.116 56.6501 303.882 57.517 303.882C58.2123 303.882 58.7857 304.044 59.2372 304.369C59.6797 304.685 59.9732 305.155 60.1176 305.778L64.2896 303.611V304.898L60.226 306.943V309.151H64.2896ZM59.2507 306.523C59.2507 306.071 59.1334 305.724 58.8986 305.48C58.6638 305.227 58.3297 305.101 57.8962 305.101H57.1919C56.7584 305.101 56.4243 305.227 56.1895 305.48C55.9548 305.724 55.8374 306.071 55.8374 306.523V309.151H59.2507V306.523ZM64.4521 298.852C64.4521 299.33 64.3663 299.764 64.1947 300.152C64.0232 300.531 63.7793 300.861 63.4633 301.141C63.1382 301.412 62.7544 301.624 62.312 301.778C61.8604 301.922 61.3548 301.994 60.7949 301.994C60.2441 301.994 59.7429 301.922 59.2914 301.778C58.8399 301.624 58.4561 301.412 58.14 301.141C57.815 300.861 57.5666 300.531 57.3951 300.152C57.2235 299.764 57.1377 299.33 57.1377 298.852C57.1377 298.382 57.2235 297.962 57.3951 297.592C57.5666 297.222 57.8059 296.906 58.1129 296.644C58.4109 296.382 58.7676 296.183 59.183 296.048C59.5984 295.904 60.0544 295.831 60.5511 295.831H61.0658V300.857H61.3909C61.6889 300.857 61.9688 300.811 62.2307 300.721C62.4835 300.622 62.7048 300.486 62.8944 300.315C63.084 300.134 63.233 299.917 63.3414 299.665C63.4497 299.403 63.5039 299.109 63.5039 298.784C63.5039 298.342 63.4001 297.958 63.1924 297.633C62.9847 297.299 62.6867 297.041 62.2984 296.861L62.8538 296.089C63.3324 296.314 63.7207 296.667 64.0186 297.145C64.3076 297.624 64.4521 298.193 64.4521 298.852ZM58.0452 298.852C58.0452 299.15 58.0994 299.421 58.2078 299.665C58.3071 299.908 58.4516 300.121 58.6412 300.301C58.8308 300.473 59.0566 300.608 59.3185 300.708C59.5713 300.807 59.8512 300.857 60.1583 300.857H60.2531V296.996H60.1041C59.481 296.996 58.9844 297.168 58.6141 297.511C58.2349 297.845 58.0452 298.292 58.0452 298.852ZM64.2896 293.594H57.3002V292.511H58.438V292.456C58.0407 292.285 57.7247 292.045 57.4899 291.738C57.2551 291.422 57.1377 291.003 57.1377 290.479C57.1377 289.756 57.3725 289.187 57.842 288.772C58.3026 288.348 58.9573 288.135 59.8061 288.135H64.2896V289.219H59.9957C58.7405 289.219 58.1129 289.747 58.1129 290.804C58.1129 291.021 58.14 291.233 58.1942 291.44C58.2484 291.639 58.3297 291.82 58.438 291.982C58.5464 292.145 58.6864 292.276 58.8579 292.375C59.0205 292.465 59.2146 292.511 59.4404 292.511H64.2896V293.594ZM64.2896 283.9C64.2896 284.279 64.1857 284.568 63.978 284.767C63.7613 284.956 63.4814 285.051 63.1382 285.051H58.2484V286.203H57.3002V285.552C57.3002 285.318 57.2551 285.16 57.1648 285.078C57.0655 284.988 56.8984 284.943 56.6636 284.943H55.3633V283.968H57.3002V282.437H58.2484V283.968H63.3414V282.545H64.2896V283.9Z" fill="white"/>
<g opacity="0.16">
<rect x="104.959" y="320.578" width="101.589" height="24.8328" rx="12.4164" transform="rotate(-90 104.959 320.578)" fill="#263238"/>
</g>
<path d="M123.091 307.634C123.091 308.401 122.947 309.056 122.658 309.598C122.36 310.14 121.954 310.6 121.439 310.979L120.735 310.14C121.177 309.805 121.516 309.435 121.751 309.029C121.976 308.622 122.089 308.144 122.089 307.593C122.089 306.916 121.927 306.401 121.602 306.049C121.276 305.688 120.843 305.507 120.301 305.507C119.85 305.507 119.502 305.643 119.258 305.913C119.014 306.184 118.82 306.631 118.676 307.254L118.5 308.026C118.301 308.893 118.003 309.557 117.606 310.018C117.199 310.469 116.63 310.695 115.899 310.695C115.484 310.695 115.113 310.618 114.788 310.465C114.463 310.311 114.192 310.099 113.976 309.828C113.759 309.548 113.596 309.218 113.488 308.839C113.371 308.451 113.312 308.026 113.312 307.566C113.312 306.853 113.443 306.243 113.705 305.737C113.967 305.223 114.35 304.789 114.856 304.437L115.479 305.29C115.118 305.552 114.833 305.868 114.626 306.239C114.418 306.609 114.314 307.069 114.314 307.62C114.314 308.225 114.445 308.704 114.707 309.056C114.96 309.399 115.344 309.571 115.858 309.571C116.31 309.571 116.653 309.426 116.888 309.137C117.114 308.839 117.294 308.392 117.43 307.796L117.606 307.024C117.813 306.094 118.129 305.421 118.554 305.006C118.978 304.591 119.543 304.383 120.247 304.383C120.68 304.383 121.073 304.46 121.425 304.613C121.778 304.758 122.076 304.97 122.319 305.25C122.563 305.53 122.753 305.873 122.888 306.279C123.024 306.676 123.091 307.128 123.091 307.634ZM122.929 296.995C122.929 297.402 122.821 297.695 122.604 297.876C122.387 298.047 122.116 298.156 121.791 298.201V298.269C122.225 298.422 122.55 298.675 122.766 299.027C122.983 299.379 123.091 299.799 123.091 300.287C123.091 301.027 122.902 301.605 122.523 302.021C122.143 302.427 121.629 302.63 120.978 302.63C120.319 302.63 119.814 302.391 119.461 301.912C119.109 301.425 118.933 300.671 118.933 299.65V298.269H118.242C117.746 298.269 117.366 298.404 117.105 298.675C116.843 298.946 116.712 299.361 116.712 299.921C116.712 300.346 116.807 300.702 116.996 300.991C117.186 301.271 117.439 301.506 117.755 301.696L117.145 302.346C116.766 302.156 116.445 301.854 116.183 301.438C115.913 301.023 115.777 300.499 115.777 299.867C115.777 299.018 115.985 298.359 116.4 297.889C116.816 297.42 117.393 297.185 118.134 297.185H121.981V296.386H122.929V296.995ZM122.17 300.111C122.17 299.84 122.139 299.592 122.076 299.366C122.012 299.14 121.922 298.946 121.805 298.783C121.687 298.621 121.552 298.494 121.398 298.404C121.245 298.314 121.078 298.269 120.897 298.269H119.746V299.704C119.746 300.328 119.836 300.784 120.017 301.073C120.197 301.352 120.459 301.492 120.802 301.492H121.087C121.43 301.492 121.696 301.371 121.886 301.127C122.076 300.874 122.17 300.535 122.17 300.111ZM122.929 292.949L115.94 295.401V294.318L119.407 293.098L121.791 292.34V292.272L119.407 291.514L115.94 290.268V289.225L122.929 291.69V292.949ZM114.301 286.834C114.301 287.068 114.246 287.24 114.138 287.348C114.021 287.448 113.872 287.497 113.691 287.497H113.515C113.334 287.497 113.19 287.448 113.082 287.348C112.964 287.24 112.906 287.068 112.906 286.834C112.906 286.599 112.964 286.432 113.082 286.332C113.19 286.224 113.334 286.17 113.515 286.17H113.691C113.872 286.17 114.021 286.224 114.138 286.332C114.246 286.432 114.301 286.599 114.301 286.834ZM115.94 287.375V286.292H122.929V287.375H115.94ZM122.929 283.538H115.94V282.454H117.077V282.4C116.68 282.228 116.364 281.989 116.129 281.682C115.894 281.366 115.777 280.946 115.777 280.422C115.777 279.7 116.012 279.131 116.481 278.715C116.942 278.291 117.597 278.079 118.446 278.079H122.929V279.162H118.635C117.38 279.162 116.752 279.691 116.752 280.747C116.752 280.964 116.779 281.176 116.834 281.384C116.888 281.583 116.969 281.763 117.077 281.926C117.186 282.088 117.326 282.219 117.497 282.318C117.66 282.409 117.854 282.454 118.08 282.454H122.929V283.538ZM123.701 269.495C124.423 269.495 124.952 269.78 125.286 270.349C125.629 270.909 125.801 271.753 125.801 272.882C125.801 273.974 125.652 274.76 125.354 275.239C125.056 275.717 124.631 275.956 124.08 275.956C123.701 275.956 123.403 275.857 123.186 275.658C122.979 275.46 122.825 275.189 122.726 274.846H122.577C122.378 275.261 122.053 275.469 121.602 275.469C121.249 275.469 120.983 275.356 120.802 275.13C120.613 274.904 120.473 274.615 120.382 274.263H120.328C120.13 274.679 119.845 275.004 119.475 275.239C119.105 275.464 118.676 275.577 118.188 275.577C117.836 275.577 117.511 275.514 117.213 275.388C116.915 275.261 116.662 275.085 116.454 274.859C116.238 274.624 116.071 274.349 115.953 274.033C115.836 273.708 115.777 273.347 115.777 272.949C115.777 272.453 115.867 272.01 116.048 271.622H115.926C115.655 271.622 115.434 271.559 115.262 271.432C115.082 271.306 114.991 271.098 114.991 270.809V269.766H115.94V271.094H116.387C116.603 270.841 116.865 270.647 117.172 270.511C117.47 270.367 117.809 270.295 118.188 270.295C118.54 270.295 118.865 270.358 119.163 270.484C119.461 270.611 119.719 270.791 119.935 271.026C120.143 271.252 120.306 271.527 120.423 271.852C120.54 272.177 120.599 272.539 120.599 272.936C120.599 273.162 120.577 273.387 120.531 273.613C120.595 273.848 120.689 274.06 120.816 274.25C120.933 274.439 121.1 274.534 121.317 274.534C121.525 274.534 121.665 274.435 121.737 274.236C121.809 274.038 121.845 273.78 121.845 273.464V271.974C121.845 271.107 122.012 270.48 122.347 270.091C122.672 269.694 123.123 269.495 123.701 269.495ZM123.782 270.511C123.502 270.511 123.277 270.62 123.105 270.836C122.943 271.044 122.861 271.419 122.861 271.961V274.29C123.06 274.724 123.376 274.941 123.809 274.941C124.116 274.941 124.378 274.828 124.595 274.602C124.812 274.367 124.92 273.974 124.92 273.423V272.421C124.92 271.816 124.825 271.347 124.636 271.012C124.446 270.678 124.162 270.511 123.782 270.511ZM119.732 272.936C119.732 272.475 119.624 272.11 119.407 271.839C119.181 271.568 118.838 271.432 118.378 271.432H117.999C117.538 271.432 117.199 271.568 116.983 271.839C116.757 272.11 116.644 272.475 116.644 272.936C116.644 273.396 116.757 273.762 116.983 274.033C117.199 274.304 117.538 274.439 117.999 274.439H118.378C118.838 274.439 119.181 274.304 119.407 274.033C119.624 273.762 119.732 273.396 119.732 272.936ZM123.091 265.68C123.091 266.33 122.97 266.877 122.726 267.319C122.473 267.753 122.139 268.127 121.723 268.444L121.1 267.671C121.444 267.401 121.71 267.098 121.9 266.764C122.08 266.43 122.17 266.042 122.17 265.599C122.17 265.139 122.071 264.782 121.872 264.529C121.674 264.267 121.394 264.136 121.033 264.136C120.762 264.136 120.531 264.226 120.342 264.407C120.143 264.579 120.008 264.895 119.935 265.355L119.854 265.911C119.809 266.236 119.741 266.534 119.651 266.805C119.552 267.075 119.425 267.315 119.272 267.522C119.109 267.721 118.911 267.879 118.676 267.997C118.441 268.105 118.161 268.159 117.836 268.159C117.493 268.159 117.195 268.096 116.942 267.969C116.68 267.843 116.463 267.671 116.292 267.455C116.12 267.229 115.994 266.963 115.913 266.656C115.822 266.349 115.777 266.019 115.777 265.667C115.777 265.098 115.876 264.624 116.075 264.245C116.274 263.856 116.549 263.518 116.901 263.229L117.552 263.947C117.335 264.1 117.141 264.326 116.969 264.624C116.788 264.922 116.698 265.297 116.698 265.748C116.698 266.2 116.798 266.543 116.996 266.777C117.186 267.003 117.448 267.116 117.782 267.116C118.125 267.116 118.373 267.003 118.527 266.777C118.68 266.543 118.793 266.209 118.865 265.775L118.947 265.233C119.064 264.457 119.29 263.906 119.624 263.581C119.949 263.256 120.378 263.093 120.911 263.093C121.588 263.093 122.121 263.323 122.509 263.784C122.897 264.245 123.091 264.877 123.091 265.68Z" fill="#263238"/>
<g opacity="0.16">
<rect x="134.279" y="320.578" width="124.164" height="24.8328" rx="12.4164" transform="rotate(-90 134.279 320.578)" fill="#263238"/>
</g>
<path d="M152.411 307.634C152.411 308.401 152.267 309.056 151.978 309.598C151.68 310.14 151.273 310.6 150.759 310.979L150.054 310.14C150.497 309.805 150.835 309.435 151.07 309.029C151.296 308.622 151.409 308.144 151.409 307.593C151.409 306.916 151.246 306.401 150.921 306.049C150.596 305.688 150.163 305.507 149.621 305.507C149.169 305.507 148.822 305.643 148.578 305.913C148.334 306.184 148.14 306.631 147.995 307.254L147.819 308.026C147.621 308.893 147.323 309.557 146.925 310.018C146.519 310.469 145.95 310.695 145.219 310.695C144.803 310.695 144.433 310.618 144.108 310.465C143.783 310.311 143.512 310.099 143.295 309.828C143.079 309.548 142.916 309.218 142.808 308.839C142.69 308.451 142.632 308.026 142.632 307.566C142.632 306.853 142.763 306.243 143.024 305.737C143.286 305.223 143.67 304.789 144.176 304.437L144.799 305.29C144.438 305.552 144.153 305.868 143.945 306.239C143.738 306.609 143.634 307.069 143.634 307.62C143.634 308.225 143.765 308.704 144.027 309.056C144.28 309.399 144.663 309.571 145.178 309.571C145.63 309.571 145.973 309.426 146.208 309.137C146.433 308.839 146.614 308.392 146.749 307.796L146.925 307.024C147.133 306.094 147.449 305.421 147.874 305.006C148.298 304.591 148.862 304.383 149.567 304.383C150 304.383 150.393 304.46 150.745 304.613C151.097 304.758 151.395 304.97 151.639 305.25C151.883 305.53 152.073 305.873 152.208 306.279C152.343 306.676 152.411 307.128 152.411 307.634ZM151.111 297.768V297.822C151.273 297.894 151.436 297.984 151.598 298.093C151.752 298.192 151.892 298.318 152.018 298.472C152.136 298.625 152.231 298.81 152.303 299.027C152.375 299.244 152.411 299.497 152.411 299.786C152.411 300.508 152.181 301.082 151.72 301.506C151.251 301.93 150.592 302.143 149.743 302.143H145.259V301.059H149.553C150.808 301.059 151.436 300.526 151.436 299.461C151.436 299.244 151.409 299.036 151.355 298.838C151.3 298.63 151.219 298.449 151.111 298.296C151.003 298.133 150.867 298.007 150.705 297.917C150.533 297.817 150.33 297.768 150.095 297.768H145.259V296.684H152.249V297.768H151.111ZM142.225 293.925V292.841H146.397V292.787C145.955 292.606 145.63 292.345 145.422 292.001C145.205 291.649 145.097 291.229 145.097 290.742C145.097 290.308 145.183 289.915 145.354 289.563C145.526 289.211 145.77 288.913 146.086 288.669C146.402 288.416 146.785 288.227 147.237 288.1C147.688 287.965 148.194 287.897 148.754 287.897C149.314 287.897 149.82 287.965 150.271 288.1C150.723 288.227 151.106 288.416 151.422 288.669C151.738 288.913 151.982 289.211 152.154 289.563C152.325 289.915 152.411 290.308 152.411 290.742C152.411 291.69 151.978 292.372 151.111 292.787V292.841H152.249V293.925H142.225ZM151.436 291.04C151.436 290.426 151.246 289.943 150.867 289.59C150.479 289.238 149.973 289.062 149.35 289.062H148.158C147.535 289.062 147.034 289.238 146.654 289.59C146.266 289.943 146.072 290.426 146.072 291.04C146.072 291.284 146.108 291.518 146.18 291.744C146.244 291.961 146.334 292.15 146.451 292.313C146.569 292.476 146.713 292.606 146.885 292.706C147.047 292.796 147.223 292.841 147.413 292.841H150.014C150.239 292.841 150.443 292.796 150.623 292.706C150.795 292.606 150.944 292.476 151.07 292.313C151.188 292.15 151.278 291.961 151.341 291.744C151.404 291.518 151.436 291.284 151.436 291.04ZM152.411 283.517C152.411 284.167 152.289 284.713 152.045 285.156C151.793 285.589 151.459 285.964 151.043 286.28L150.42 285.508C150.763 285.237 151.03 284.934 151.219 284.6C151.4 284.266 151.49 283.878 151.49 283.435C151.49 282.975 151.391 282.618 151.192 282.365C150.993 282.103 150.714 281.972 150.352 281.972C150.081 281.972 149.851 282.063 149.662 282.243C149.463 282.415 149.327 282.731 149.255 283.191L149.174 283.747C149.129 284.072 149.061 284.37 148.971 284.641C148.871 284.912 148.745 285.151 148.591 285.359C148.429 285.557 148.23 285.715 147.995 285.833C147.761 285.941 147.481 285.995 147.156 285.995C146.813 285.995 146.515 285.932 146.262 285.806C146 285.679 145.783 285.508 145.612 285.291C145.44 285.065 145.314 284.799 145.232 284.492C145.142 284.185 145.097 283.855 145.097 283.503C145.097 282.934 145.196 282.46 145.395 282.081C145.593 281.692 145.869 281.354 146.221 281.065L146.871 281.783C146.654 281.936 146.46 282.162 146.289 282.46C146.108 282.758 146.018 283.133 146.018 283.584C146.018 284.036 146.117 284.379 146.316 284.614C146.506 284.839 146.767 284.952 147.101 284.952C147.445 284.952 147.693 284.839 147.846 284.614C148 284.379 148.113 284.045 148.185 283.611L148.266 283.07C148.384 282.293 148.61 281.742 148.944 281.417C149.269 281.092 149.698 280.929 150.23 280.929C150.908 280.929 151.44 281.16 151.829 281.62C152.217 282.081 152.411 282.713 152.411 283.517ZM152.411 275.963C152.411 276.451 152.325 276.889 152.154 277.277C151.982 277.665 151.738 277.995 151.422 278.266C151.106 278.528 150.723 278.731 150.271 278.875C149.82 279.011 149.314 279.079 148.754 279.079C148.194 279.079 147.688 279.011 147.237 278.875C146.785 278.731 146.402 278.528 146.086 278.266C145.77 277.995 145.526 277.665 145.354 277.277C145.183 276.889 145.097 276.451 145.097 275.963C145.097 275.268 145.25 274.713 145.557 274.297C145.855 273.873 146.248 273.557 146.736 273.349L147.196 274.257C146.835 274.383 146.555 274.591 146.357 274.88C146.158 275.169 146.059 275.53 146.059 275.963C146.059 276.288 146.113 276.573 146.221 276.817C146.32 277.06 146.465 277.264 146.654 277.426C146.835 277.589 147.056 277.711 147.318 277.792C147.571 277.873 147.851 277.914 148.158 277.914H149.35C149.964 277.914 150.47 277.751 150.867 277.426C151.255 277.092 151.449 276.604 151.449 275.963C151.449 275.087 151.043 274.455 150.23 274.067L150.759 273.281C151.264 273.507 151.666 273.846 151.964 274.297C152.262 274.74 152.411 275.295 152.411 275.963ZM152.249 271.3H145.259V270.217H146.546V270.149C146.212 270.022 145.914 269.797 145.652 269.472C145.39 269.146 145.259 268.699 145.259 268.131V267.711H146.343V268.347C146.343 268.934 146.456 269.395 146.682 269.729C146.898 270.054 147.174 270.217 147.508 270.217H152.249V271.3ZM143.62 265.333C143.62 265.568 143.566 265.74 143.458 265.848C143.34 265.947 143.191 265.997 143.011 265.997H142.835C142.654 265.997 142.51 265.947 142.401 265.848C142.284 265.74 142.225 265.568 142.225 265.333C142.225 265.098 142.284 264.931 142.401 264.832C142.51 264.724 142.654 264.67 142.835 264.67H143.011C143.191 264.67 143.34 264.724 143.458 264.832C143.566 264.931 143.62 265.098 143.62 265.333ZM145.259 265.875V264.791H152.249V265.875H145.259ZM145.259 262.037V260.954H146.397V260.899C145.955 260.719 145.63 260.457 145.422 260.114C145.205 259.762 145.097 259.342 145.097 258.854C145.097 258.421 145.183 258.028 145.354 257.676C145.526 257.324 145.77 257.026 146.086 256.782C146.402 256.529 146.785 256.339 147.237 256.213C147.688 256.077 148.194 256.01 148.754 256.01C149.314 256.01 149.82 256.077 150.271 256.213C150.723 256.339 151.106 256.529 151.422 256.782C151.738 257.026 151.982 257.324 152.154 257.676C152.325 258.028 152.411 258.421 152.411 258.854C152.411 259.802 151.978 260.484 151.111 260.899V260.954H154.958V262.037H145.259ZM151.436 259.152C151.436 258.538 151.246 258.055 150.867 257.703C150.479 257.351 149.973 257.175 149.35 257.175H148.158C147.535 257.175 147.034 257.351 146.654 257.703C146.266 258.055 146.072 258.538 146.072 259.152C146.072 259.396 146.108 259.631 146.18 259.856C146.244 260.073 146.334 260.263 146.451 260.425C146.569 260.588 146.713 260.719 146.885 260.818C147.047 260.908 147.223 260.954 147.413 260.954H150.014C150.239 260.954 150.443 260.908 150.623 260.818C150.795 260.719 150.944 260.588 151.07 260.425C151.188 260.263 151.278 260.073 151.341 259.856C151.404 259.631 151.436 259.396 151.436 259.152ZM152.249 252.264C152.249 252.643 152.145 252.932 151.937 253.131C151.72 253.32 151.44 253.415 151.097 253.415H146.208V254.566H145.259V253.916C145.259 253.681 145.214 253.523 145.124 253.442C145.025 253.352 144.858 253.307 144.623 253.307H143.322V252.331H145.259V250.801H146.208V252.331H151.3V250.909H152.249V252.264ZM143.62 248.066C143.62 248.301 143.566 248.472 143.458 248.58C143.34 248.68 143.191 248.729 143.011 248.729H142.835C142.654 248.729 142.51 248.68 142.401 248.58C142.284 248.472 142.225 248.301 142.225 248.066C142.225 247.831 142.284 247.664 142.401 247.565C142.51 247.456 142.654 247.402 142.835 247.402H143.011C143.191 247.402 143.34 247.456 143.458 247.565C143.566 247.664 143.62 247.831 143.62 248.066ZM145.259 248.608V247.524H152.249V248.608H145.259ZM152.411 242.128C152.411 242.598 152.325 243.027 152.154 243.415C151.982 243.804 151.738 244.138 151.422 244.418C151.097 244.689 150.714 244.901 150.271 245.054C149.82 245.208 149.314 245.284 148.754 245.284C148.203 245.284 147.702 245.208 147.25 245.054C146.799 244.901 146.415 244.689 146.099 244.418C145.774 244.138 145.526 243.804 145.354 243.415C145.183 243.027 145.097 242.598 145.097 242.128C145.097 241.659 145.183 241.234 145.354 240.855C145.526 240.467 145.774 240.133 146.099 239.853C146.415 239.573 146.799 239.356 147.25 239.203C147.702 239.049 148.203 238.972 148.754 238.972C149.314 238.972 149.82 239.049 150.271 239.203C150.714 239.356 151.097 239.573 151.422 239.853C151.738 240.133 151.982 240.467 152.154 240.855C152.325 241.234 152.411 241.659 152.411 242.128ZM151.449 242.128C151.449 241.542 151.269 241.063 150.908 240.693C150.546 240.322 149.996 240.137 149.255 240.137H148.253C147.512 240.137 146.962 240.322 146.6 240.693C146.239 241.063 146.059 241.542 146.059 242.128C146.059 242.715 146.239 243.194 146.6 243.564C146.962 243.934 147.512 244.12 148.253 244.12H149.255C149.996 244.12 150.546 243.934 150.908 243.564C151.269 243.194 151.449 242.715 151.449 242.128ZM152.249 236.739H145.259V235.655H146.397V235.601C146 235.429 145.684 235.19 145.449 234.883C145.214 234.567 145.097 234.147 145.097 233.623C145.097 232.901 145.332 232.332 145.801 231.917C146.262 231.492 146.916 231.28 147.765 231.28H152.249V232.364H147.955C146.7 232.364 146.072 232.892 146.072 233.948C146.072 234.165 146.099 234.377 146.153 234.585C146.208 234.784 146.289 234.964 146.397 235.127C146.506 235.289 146.645 235.42 146.817 235.52C146.98 235.61 147.174 235.655 147.399 235.655H152.249V236.739ZM152.411 226.489C152.411 227.139 152.289 227.686 152.045 228.128C151.793 228.562 151.459 228.936 151.043 229.252L150.42 228.48C150.763 228.209 151.03 227.907 151.219 227.573C151.4 227.239 151.49 226.85 151.49 226.408C151.49 225.947 151.391 225.591 151.192 225.338C150.993 225.076 150.714 224.945 150.352 224.945C150.081 224.945 149.851 225.035 149.662 225.216C149.463 225.388 149.327 225.704 149.255 226.164L149.174 226.72C149.129 227.045 149.061 227.343 148.971 227.614C148.871 227.884 148.745 228.124 148.591 228.331C148.429 228.53 148.23 228.688 147.995 228.805C147.761 228.914 147.481 228.968 147.156 228.968C146.813 228.968 146.515 228.905 146.262 228.778C146 228.652 145.783 228.48 145.612 228.264C145.44 228.038 145.314 227.772 145.232 227.465C145.142 227.157 145.097 226.828 145.097 226.476C145.097 225.907 145.196 225.433 145.395 225.053C145.593 224.665 145.869 224.327 146.221 224.038L146.871 224.755C146.654 224.909 146.46 225.135 146.289 225.433C146.108 225.731 146.018 226.105 146.018 226.557C146.018 227.008 146.117 227.352 146.316 227.586C146.506 227.812 146.767 227.925 147.101 227.925C147.445 227.925 147.693 227.812 147.846 227.586C148 227.352 148.113 227.018 148.185 226.584L148.266 226.042C148.384 225.266 148.61 224.715 148.944 224.39C149.269 224.065 149.698 223.902 150.23 223.902C150.908 223.902 151.44 224.132 151.829 224.593C152.217 225.053 152.411 225.686 152.411 226.489Z" fill="#263238"/>
<g opacity="0.16">
<rect x="192.918" y="320.578" width="152.383" height="24.8328" rx="12.4164" transform="rotate(-90 192.918 320.578)" fill="#263238"/>
</g>
<path d="M202.923 302.92V302.988L204.508 303.787L208.626 306.049L204.508 308.311L202.923 309.11V309.178H210.888V310.289H201.434V308.771L206.527 306.062V305.995L201.434 303.272V301.809H210.888V302.92H202.923ZM203.899 294.646V293.576L212.513 296.705C212.721 296.786 212.893 296.867 213.028 296.948C213.173 297.03 213.286 297.129 213.367 297.246C213.448 297.364 213.507 297.513 213.543 297.693C213.579 297.865 213.597 298.077 213.597 298.33V298.885H212.649V297.788L211.159 297.26L203.899 299.874V298.791L208.653 297.111L209.791 296.786V296.718L208.653 296.339L203.899 294.646ZM210.888 287.981H201.434V286.844H209.886V282.821H210.888V287.981ZM211.051 278.357C211.051 278.835 210.965 279.269 210.793 279.657C210.622 280.036 210.378 280.366 210.062 280.646C209.737 280.917 209.353 281.129 208.91 281.283C208.459 281.427 207.953 281.499 207.393 281.499C206.843 281.499 206.341 281.427 205.89 281.283C205.438 281.129 205.055 280.917 204.739 280.646C204.413 280.366 204.165 280.036 203.994 279.657C203.822 279.269 203.736 278.835 203.736 278.357C203.736 277.887 203.822 277.467 203.994 277.097C204.165 276.727 204.404 276.411 204.711 276.149C205.009 275.887 205.366 275.688 205.782 275.553C206.197 275.409 206.653 275.336 207.15 275.336H207.664V280.362H207.989C208.287 280.362 208.567 280.316 208.829 280.226C209.082 280.127 209.303 279.991 209.493 279.82C209.683 279.639 209.832 279.422 209.94 279.17C210.048 278.908 210.102 278.614 210.102 278.289C210.102 277.847 209.999 277.463 209.791 277.138C209.583 276.804 209.285 276.546 208.897 276.366L209.452 275.594C209.931 275.819 210.319 276.172 210.617 276.65C210.906 277.129 211.051 277.698 211.051 278.357ZM204.644 278.357C204.644 278.655 204.698 278.926 204.806 279.17C204.906 279.413 205.05 279.626 205.24 279.806C205.429 279.978 205.655 280.113 205.917 280.213C206.17 280.312 206.45 280.362 206.757 280.362H206.852V276.501H206.703C206.08 276.501 205.583 276.673 205.213 277.016C204.833 277.35 204.644 277.797 204.644 278.357ZM204.847 272.72V273.858H203.899V272.72H202.49C202.002 272.72 201.61 272.593 201.312 272.341C201.014 272.088 200.865 271.704 200.865 271.189V270.133H201.813V271.636H203.899V270.133H204.847V271.636H210.888V272.72H204.847ZM210.888 266.712C210.888 267.091 210.784 267.38 210.577 267.579C210.36 267.768 210.08 267.863 209.737 267.863H204.847V269.015H203.899V268.364C203.899 268.13 203.854 267.972 203.763 267.89C203.664 267.8 203.497 267.755 203.262 267.755H201.962V266.78H203.899V265.249H204.847V266.78H209.94V265.357H210.888V266.712ZM211.051 260.467C211.051 260.937 210.965 261.366 210.793 261.754C210.622 262.142 210.378 262.477 210.062 262.757C209.737 263.027 209.353 263.24 208.91 263.393C208.459 263.547 207.953 263.623 207.393 263.623C206.843 263.623 206.341 263.547 205.89 263.393C205.438 263.24 205.055 263.027 204.739 262.757C204.413 262.477 204.165 262.142 203.994 261.754C203.822 261.366 203.736 260.937 203.736 260.467C203.736 259.998 203.822 259.573 203.994 259.194C204.165 258.806 204.413 258.472 204.739 258.192C205.055 257.912 205.438 257.695 205.89 257.542C206.341 257.388 206.843 257.311 207.393 257.311C207.953 257.311 208.459 257.388 208.91 257.542C209.353 257.695 209.737 257.912 210.062 258.192C210.378 258.472 210.622 258.806 210.793 259.194C210.965 259.573 211.051 259.998 211.051 260.467ZM210.089 260.467C210.089 259.88 209.908 259.402 209.547 259.032C209.186 258.661 208.635 258.476 207.895 258.476H206.892C206.152 258.476 205.601 258.661 205.24 259.032C204.879 259.402 204.698 259.88 204.698 260.467C204.698 261.054 204.879 261.533 205.24 261.903C205.601 262.273 206.152 262.459 206.892 262.459H207.895C208.635 262.459 209.186 262.273 209.547 261.903C209.908 261.533 210.089 261.054 210.089 260.467ZM210.888 253.639L203.899 256.091V255.007L207.366 253.788L209.75 253.03V252.962L207.366 252.204L203.899 250.957V249.914L210.888 252.38V253.639ZM211.051 245.543C211.051 246.022 210.965 246.455 210.793 246.844C210.622 247.223 210.378 247.553 210.062 247.832C209.737 248.103 209.353 248.316 208.91 248.469C208.459 248.614 207.953 248.686 207.393 248.686C206.843 248.686 206.341 248.614 205.89 248.469C205.438 248.316 205.055 248.103 204.739 247.832C204.413 247.553 204.165 247.223 203.994 246.844C203.822 246.455 203.736 246.022 203.736 245.543C203.736 245.074 203.822 244.654 203.994 244.284C204.165 243.913 204.404 243.597 204.711 243.335C205.009 243.074 205.366 242.875 205.782 242.739C206.197 242.595 206.653 242.523 207.15 242.523H207.664V247.548H207.989C208.287 247.548 208.567 247.503 208.829 247.413C209.082 247.313 209.303 247.178 209.493 247.006C209.683 246.826 209.832 246.609 209.94 246.356C210.048 246.094 210.102 245.801 210.102 245.476C210.102 245.033 209.999 244.649 209.791 244.324C209.583 243.99 209.285 243.733 208.897 243.552L209.452 242.78C209.931 243.006 210.319 243.358 210.617 243.837C210.906 244.315 211.051 244.884 211.051 245.543ZM204.644 245.543C204.644 245.841 204.698 246.112 204.806 246.356C204.906 246.6 205.05 246.812 205.24 246.993C205.429 247.164 205.655 247.3 205.917 247.399C206.17 247.498 206.45 247.548 206.757 247.548H206.852V243.688H206.703C206.08 243.688 205.583 243.859 205.213 244.202C204.833 244.536 204.644 244.983 204.644 245.543ZM210.888 240.286H203.899V239.202H205.186V239.134C204.851 239.008 204.553 238.782 204.292 238.457C204.03 238.132 203.899 237.685 203.899 237.116V236.696H204.982V237.333C204.982 237.92 205.095 238.38 205.321 238.714C205.538 239.039 205.813 239.202 206.147 239.202H210.888V240.286ZM211.051 232.761C211.051 233.411 210.929 233.957 210.685 234.4C210.432 234.833 210.098 235.208 209.683 235.524L209.059 234.752C209.403 234.481 209.669 234.179 209.859 233.845C210.039 233.51 210.13 233.122 210.13 232.68C210.13 232.219 210.03 231.862 209.832 231.61C209.633 231.348 209.353 231.217 208.992 231.217C208.721 231.217 208.491 231.307 208.301 231.488C208.102 231.659 207.967 231.975 207.895 232.436L207.813 232.991C207.768 233.316 207.7 233.614 207.61 233.885C207.511 234.156 207.384 234.395 207.231 234.603C207.068 234.802 206.87 234.96 206.635 235.077C206.4 235.186 206.12 235.24 205.795 235.24C205.452 235.24 205.154 235.177 204.901 235.05C204.639 234.924 204.422 234.752 204.251 234.535C204.079 234.31 203.953 234.043 203.872 233.736C203.781 233.429 203.736 233.1 203.736 232.747C203.736 232.179 203.836 231.704 204.034 231.325C204.233 230.937 204.508 230.598 204.86 230.309L205.511 231.027C205.294 231.181 205.1 231.406 204.928 231.704C204.748 232.002 204.657 232.377 204.657 232.829C204.657 233.28 204.757 233.623 204.955 233.858C205.145 234.084 205.407 234.197 205.741 234.197C206.084 234.197 206.332 234.084 206.486 233.858C206.639 233.623 206.752 233.289 206.825 232.856L206.906 232.314C207.023 231.537 207.249 230.987 207.583 230.661C207.908 230.336 208.337 230.174 208.87 230.174C209.547 230.174 210.08 230.404 210.468 230.865C210.856 231.325 211.051 231.957 211.051 232.761Z" fill="#263238"/>
<g opacity="0.16">
<rect x="222.238" y="320.578" width="86.9149" height="24.8328" rx="12.4164" transform="rotate(-90 222.238 320.578)" fill="#263238"/>
</g>
<path d="M238.826 304.166V304.207C239.269 304.324 239.639 304.613 239.937 305.074C240.226 305.525 240.37 306.112 240.37 306.834C240.37 307.412 240.266 307.945 240.059 308.433C239.842 308.911 239.531 309.322 239.124 309.665C238.709 310.009 238.199 310.279 237.594 310.478C236.979 310.668 236.275 310.763 235.48 310.763C234.695 310.763 234 310.668 233.395 310.478C232.78 310.289 232.27 310.018 231.864 309.665C231.449 309.313 231.132 308.889 230.916 308.392C230.699 307.896 230.591 307.345 230.591 306.74C230.591 305.891 230.78 305.182 231.16 304.613C231.539 304.044 232.04 303.606 232.663 303.299L233.232 304.234C232.726 304.451 232.329 304.776 232.04 305.209C231.751 305.633 231.607 306.144 231.607 306.74C231.607 307.155 231.683 307.534 231.837 307.877C231.981 308.221 232.189 308.519 232.46 308.771C232.731 309.015 233.056 309.205 233.435 309.34C233.814 309.476 234.239 309.544 234.708 309.544H236.239C236.709 309.544 237.138 309.476 237.526 309.34C237.905 309.205 238.23 309.015 238.501 308.771C238.772 308.519 238.984 308.212 239.138 307.85C239.282 307.489 239.354 307.083 239.354 306.631C239.354 306.306 239.314 305.999 239.233 305.71C239.142 305.412 239.011 305.155 238.84 304.938C238.668 304.712 238.456 304.536 238.203 304.41C237.941 304.283 237.634 304.22 237.282 304.22H236.347V306.306H235.345V303.11H240.208V304.166H238.826ZM231.579 299.985C231.579 300.22 231.525 300.392 231.417 300.5C231.3 300.599 231.151 300.649 230.97 300.649H230.794C230.613 300.649 230.469 300.599 230.36 300.5C230.243 300.392 230.184 300.22 230.184 299.985C230.184 299.751 230.243 299.584 230.36 299.484C230.469 299.376 230.613 299.322 230.794 299.322H230.97C231.151 299.322 231.3 299.376 231.417 299.484C231.525 299.584 231.579 299.751 231.579 299.985ZM233.218 300.527V299.444H240.208V300.527H233.218ZM234.167 296.31V297.448H233.218V296.31H231.81C231.322 296.31 230.929 296.184 230.631 295.931C230.333 295.678 230.184 295.294 230.184 294.78V293.723H231.132V295.227H233.218V293.723H234.167V295.227H240.208V296.31H234.167ZM240.208 290.302C240.208 290.681 240.104 290.97 239.896 291.169C239.68 291.359 239.4 291.454 239.056 291.454H234.167V292.605H233.218V291.955C233.218 291.72 233.173 291.562 233.083 291.481C232.984 291.39 232.817 291.345 232.582 291.345H231.281V290.37H233.218V288.839H234.167V290.37H239.26V288.948H240.208V290.302ZM240.37 284.547C240.37 285.197 240.248 285.743 240.005 286.186C239.752 286.619 239.418 286.994 239.002 287.31L238.379 286.538C238.722 286.267 238.989 285.964 239.178 285.63C239.359 285.296 239.449 284.908 239.449 284.465C239.449 284.005 239.35 283.648 239.151 283.395C238.953 283.133 238.673 283.002 238.311 283.002C238.041 283.002 237.81 283.093 237.621 283.273C237.422 283.445 237.287 283.761 237.214 284.221L237.133 284.777C237.088 285.102 237.02 285.4 236.93 285.671C236.83 285.942 236.704 286.181 236.551 286.389C236.388 286.587 236.189 286.745 235.955 286.863C235.72 286.971 235.44 287.025 235.115 287.025C234.772 287.025 234.474 286.962 234.221 286.836C233.959 286.709 233.742 286.538 233.571 286.321C233.399 286.095 233.273 285.829 233.191 285.522C233.101 285.215 233.056 284.885 233.056 284.533C233.056 283.964 233.155 283.49 233.354 283.111C233.553 282.722 233.828 282.384 234.18 282.095L234.83 282.813C234.614 282.966 234.419 283.192 234.248 283.49C234.067 283.788 233.977 284.163 233.977 284.614C233.977 285.066 234.076 285.409 234.275 285.644C234.465 285.869 234.726 285.982 235.061 285.982C235.404 285.982 235.652 285.869 235.806 285.644C235.959 285.409 236.072 285.075 236.144 284.641L236.225 284.1C236.343 283.323 236.569 282.772 236.903 282.447C237.228 282.122 237.657 281.959 238.19 281.959C238.867 281.959 239.4 282.19 239.788 282.65C240.176 283.111 240.37 283.743 240.37 284.547Z" fill="#263238"/>
<g opacity="0.16">
<rect x="163.599" y="320.578" width="177.216" height="24.8328" rx="12.4164" transform="rotate(-90 163.599 320.578)" fill="#263238"/>
</g>
<path d="M181.731 307.634C181.731 308.401 181.586 309.056 181.297 309.598C180.999 310.14 180.593 310.6 180.078 310.979L179.374 310.14C179.817 309.805 180.155 309.435 180.39 309.029C180.616 308.622 180.729 308.144 180.729 307.593C180.729 306.916 180.566 306.401 180.241 306.049C179.916 305.688 179.482 305.507 178.941 305.507C178.489 305.507 178.141 305.643 177.898 305.913C177.654 306.184 177.46 306.631 177.315 307.254L177.139 308.026C176.94 308.893 176.642 309.557 176.245 310.018C175.839 310.469 175.27 310.695 174.538 310.695C174.123 310.695 173.753 310.618 173.428 310.465C173.103 310.311 172.832 310.099 172.615 309.828C172.398 309.548 172.236 309.218 172.127 308.839C172.01 308.451 171.951 308.026 171.951 307.566C171.951 306.853 172.082 306.243 172.344 305.737C172.606 305.223 172.99 304.789 173.495 304.437L174.119 305.29C173.757 305.552 173.473 305.868 173.265 306.239C173.057 306.609 172.954 307.069 172.954 307.62C172.954 308.225 173.085 308.704 173.346 309.056C173.599 309.399 173.983 309.571 174.498 309.571C174.949 309.571 175.292 309.426 175.527 309.137C175.753 308.839 175.934 308.392 176.069 307.796L176.245 307.024C176.453 306.094 176.769 305.421 177.193 305.006C177.618 304.591 178.182 304.383 178.886 304.383C179.32 304.383 179.713 304.46 180.065 304.613C180.417 304.758 180.715 304.97 180.959 305.25C181.203 305.53 181.392 305.873 181.528 306.279C181.663 306.676 181.731 307.128 181.731 307.634ZM171.545 302.075V300.991H177.898V300.937L176.706 299.867L174.579 297.889V296.576L177.342 299.163L181.568 296.318V297.632L178.006 299.948L179.076 300.991H181.568V302.075H171.545ZM172.94 293.939C172.94 294.173 172.886 294.345 172.778 294.453C172.66 294.553 172.511 294.602 172.331 294.602H172.154C171.974 294.602 171.829 294.553 171.721 294.453C171.604 294.345 171.545 294.173 171.545 293.939C171.545 293.704 171.604 293.537 171.721 293.437C171.829 293.329 171.974 293.275 172.154 293.275H172.331C172.511 293.275 172.66 293.329 172.778 293.437C172.886 293.537 172.94 293.704 172.94 293.939ZM174.579 294.48V293.397H181.568V294.48H174.579ZM181.568 290.643H174.579V289.559H175.717V289.505C175.32 289.333 175.003 289.094 174.769 288.787C174.534 288.471 174.417 288.051 174.417 287.527C174.417 286.805 174.651 286.236 175.121 285.821C175.581 285.396 176.236 285.184 177.085 285.184H181.568V286.268H177.275C176.019 286.268 175.392 286.796 175.392 287.852C175.392 288.069 175.419 288.281 175.473 288.489C175.527 288.688 175.608 288.868 175.717 289.031C175.825 289.193 175.965 289.324 176.137 289.424C176.299 289.514 176.493 289.559 176.719 289.559H181.568V290.643ZM181.731 279.892C181.731 280.38 181.645 280.817 181.474 281.206C181.302 281.594 181.058 281.924 180.742 282.195C180.426 282.456 180.042 282.66 179.591 282.804C179.139 282.94 178.634 283.007 178.074 283.007C177.514 283.007 177.008 282.94 176.557 282.804C176.105 282.66 175.721 282.456 175.405 282.195C175.089 281.924 174.845 281.594 174.674 281.206C174.502 280.817 174.417 280.38 174.417 279.892C174.417 279.197 174.57 278.641 174.877 278.226C175.175 277.801 175.568 277.485 176.055 277.278L176.516 278.185C176.155 278.312 175.875 278.519 175.676 278.808C175.478 279.097 175.378 279.458 175.378 279.892C175.378 280.217 175.432 280.501 175.541 280.745C175.64 280.989 175.785 281.192 175.974 281.355C176.155 281.517 176.376 281.639 176.638 281.72C176.891 281.802 177.171 281.842 177.478 281.842H178.67C179.284 281.842 179.789 281.68 180.187 281.355C180.575 281.021 180.769 280.533 180.769 279.892C180.769 279.016 180.363 278.384 179.55 277.996L180.078 277.21C180.584 277.436 180.986 277.774 181.284 278.226C181.582 278.668 181.731 279.224 181.731 279.892ZM181.568 270.149C181.568 270.556 181.46 270.849 181.243 271.03C181.027 271.201 180.756 271.31 180.431 271.355V271.423C180.864 271.576 181.189 271.829 181.406 272.181C181.623 272.533 181.731 272.953 181.731 273.441C181.731 274.181 181.541 274.759 181.162 275.175C180.783 275.581 180.268 275.784 179.618 275.784C178.959 275.784 178.453 275.545 178.101 275.066C177.749 274.579 177.573 273.825 177.573 272.804V271.423H176.882C176.385 271.423 176.006 271.558 175.744 271.829C175.482 272.1 175.351 272.515 175.351 273.075C175.351 273.5 175.446 273.856 175.636 274.145C175.825 274.425 176.078 274.66 176.394 274.85L175.785 275.5C175.405 275.31 175.085 275.008 174.823 274.592C174.552 274.177 174.417 273.653 174.417 273.021C174.417 272.172 174.624 271.513 175.04 271.043C175.455 270.574 176.033 270.339 176.773 270.339H180.62V269.54H181.568V270.149ZM180.81 273.265C180.81 272.994 180.778 272.746 180.715 272.52C180.652 272.294 180.562 272.1 180.444 271.937C180.327 271.775 180.191 271.648 180.038 271.558C179.884 271.468 179.717 271.423 179.537 271.423H178.385V272.858C178.385 273.481 178.476 273.937 178.656 274.226C178.837 274.506 179.099 274.646 179.442 274.646H179.726C180.069 274.646 180.336 274.524 180.525 274.281C180.715 274.028 180.81 273.689 180.81 273.265ZM181.568 267.542H174.579V266.458H175.866V266.39C175.532 266.264 175.234 266.038 174.972 265.713C174.71 265.388 174.579 264.941 174.579 264.372V263.952H175.663V264.589C175.663 265.176 175.776 265.636 176.001 265.97C176.218 266.296 176.493 266.458 176.828 266.458H181.568V267.542ZM181.731 259.555C181.731 260.034 181.645 260.467 181.474 260.855C181.302 261.235 181.058 261.564 180.742 261.844C180.417 262.115 180.033 262.327 179.591 262.481C179.139 262.625 178.634 262.697 178.074 262.697C177.523 262.697 177.022 262.625 176.57 262.481C176.119 262.327 175.735 262.115 175.419 261.844C175.094 261.564 174.845 261.235 174.674 260.855C174.502 260.467 174.417 260.034 174.417 259.555C174.417 259.085 174.502 258.666 174.674 258.295C174.845 257.925 175.085 257.609 175.392 257.347C175.69 257.085 176.046 256.887 176.462 256.751C176.877 256.607 177.333 256.534 177.83 256.534H178.345V261.56H178.67C178.968 261.56 179.248 261.515 179.509 261.424C179.762 261.325 179.984 261.189 180.173 261.018C180.363 260.837 180.512 260.621 180.62 260.368C180.729 260.106 180.783 259.812 180.783 259.487C180.783 259.045 180.679 258.661 180.471 258.336C180.264 258.002 179.966 257.744 179.577 257.564L180.133 256.792C180.611 257.018 180.999 257.37 181.297 257.848C181.586 258.327 181.731 258.896 181.731 259.555ZM175.324 259.555C175.324 259.853 175.378 260.124 175.487 260.368C175.586 260.611 175.73 260.824 175.92 261.004C176.11 261.176 176.335 261.311 176.597 261.411C176.85 261.51 177.13 261.56 177.437 261.56H177.532V257.699H177.383C176.76 257.699 176.263 257.871 175.893 258.214C175.514 258.548 175.324 258.995 175.324 259.555Z" fill="#263238"/>
</svg>
