<svg width="307" height="358" viewBox="0 0 307 358" fill="none" xmlns="http://www.w3.org/2000/svg">
<rect width="307" height="358" rx="29" fill="#D9F0DC" fill-opacity="1"/>
<rect x="25" y="30" width="23" height="36" rx="9" fill="#6ED47C"/>
<path d="M75.504 52.608C75.504 53.568 75.256 54.376 74.76 55.032C74.264 55.672 73.592 56.16 72.744 56.496C71.912 56.832 71 57 70.008 57H61.776V39.96H70.896C71.696 39.96 72.384 40.176 72.96 40.608C73.552 41.024 74 41.568 74.304 42.24C74.624 42.896 74.784 43.584 74.784 44.304C74.784 45.12 74.576 45.896 74.16 46.632C73.744 47.368 73.136 47.912 72.336 48.264C73.312 48.552 74.08 49.072 74.64 49.824C75.216 50.576 75.504 51.504 75.504 52.608ZM72.168 51.984C72.168 51.552 72.08 51.168 71.904 50.832C71.728 50.48 71.488 50.208 71.184 50.016C70.896 49.808 70.56 49.704 70.176 49.704H65.088V54.192H70.008C70.408 54.192 70.768 54.096 71.088 53.904C71.424 53.696 71.688 53.424 71.88 53.088C72.072 52.752 72.168 52.384 72.168 51.984ZM65.088 42.792V47.088H69.504C69.872 47.088 70.208 47 70.512 46.824C70.816 46.648 71.056 46.4 71.232 46.08C71.424 45.76 71.52 45.376 71.52 44.928C71.52 44.496 71.432 44.12 71.256 43.8C71.096 43.48 70.872 43.232 70.584 43.056C70.312 42.88 70 42.792 69.648 42.792H65.088ZM78.1063 52.296V44.424H81.3223V51.6C81.3223 52.56 81.4983 53.288 81.8503 53.784C82.2023 54.264 82.7223 54.504 83.4103 54.504C83.8263 54.504 84.2343 54.424 84.6343 54.264C85.0503 54.088 85.4263 53.832 85.7623 53.496C86.1143 53.16 86.4103 52.736 86.6503 52.224V44.424H89.8663V53.4C89.8663 53.736 89.9223 53.976 90.0343 54.12C90.1623 54.264 90.3623 54.352 90.6343 54.384V57C90.3143 57.048 90.0423 57.08 89.8183 57.096C89.6103 57.128 89.4183 57.144 89.2423 57.144C88.6663 57.144 88.1943 57.016 87.8263 56.76C87.4743 56.488 87.2663 56.12 87.2023 55.656L87.1303 54.648C86.5703 55.496 85.8503 56.144 84.9703 56.592C84.0903 57.024 83.1223 57.24 82.0663 57.24C80.7703 57.24 79.7863 56.824 79.1143 55.992C78.4423 55.144 78.1063 53.912 78.1063 52.296ZM92.7909 50.712C92.7909 49.496 93.0309 48.4 93.5109 47.424C93.9909 46.432 94.6549 45.648 95.5029 45.072C96.3509 44.496 97.3189 44.208 98.4069 44.208C99.3349 44.208 100.167 44.44 100.903 44.904C101.655 45.352 102.239 45.928 102.655 46.632V39.48H105.871V53.4C105.871 53.736 105.927 53.976 106.039 54.12C106.151 54.264 106.343 54.352 106.615 54.384V57C106.055 57.112 105.599 57.168 105.247 57.168C104.671 57.168 104.191 57.024 103.807 56.736C103.439 56.448 103.231 56.072 103.183 55.608L103.135 54.816C102.671 55.6 102.039 56.2 101.239 56.616C100.455 57.032 99.6309 57.24 98.7669 57.24C97.9029 57.24 97.1029 57.072 96.3669 56.736C95.6469 56.4 95.0149 55.936 94.4709 55.344C93.9429 54.752 93.5269 54.064 93.2229 53.28C92.9349 52.48 92.7909 51.624 92.7909 50.712ZM102.655 52.392V49.392C102.495 48.928 102.239 48.512 101.887 48.144C101.535 47.776 101.143 47.488 100.711 47.28C100.279 47.056 99.8469 46.944 99.4149 46.944C98.9189 46.944 98.4709 47.048 98.0709 47.256C97.6709 47.464 97.3189 47.744 97.0149 48.096C96.7269 48.448 96.5029 48.856 96.3429 49.32C96.1989 49.784 96.1269 50.272 96.1269 50.784C96.1269 51.296 96.2069 51.784 96.3669 52.248C96.5429 52.696 96.7909 53.088 97.1109 53.424C97.4309 53.76 97.7989 54.024 98.2149 54.216C98.6469 54.408 99.1109 54.504 99.6069 54.504C99.9109 54.504 100.215 54.456 100.519 54.36C100.839 54.248 101.135 54.104 101.407 53.928C101.695 53.736 101.943 53.512 102.151 53.256C102.375 52.984 102.543 52.696 102.655 52.392ZM114.444 57.072C113.612 57.072 112.844 56.912 112.14 56.592C111.452 56.256 110.852 55.792 110.34 55.2C109.844 54.608 109.46 53.928 109.188 53.16C108.916 52.392 108.78 51.576 108.78 50.712C108.78 49.8 108.924 48.952 109.212 48.168C109.5 47.384 109.9 46.696 110.412 46.104C110.94 45.496 111.556 45.032 112.26 44.712C112.98 44.376 113.772 44.208 114.636 44.208C115.612 44.208 116.468 44.432 117.204 44.88C117.94 45.312 118.548 45.896 119.028 46.632V44.424H121.836V56.4C121.836 57.648 121.532 58.712 120.924 59.592C120.332 60.488 119.508 61.168 118.452 61.632C117.396 62.112 116.196 62.352 114.852 62.352C113.492 62.352 112.34 62.12 111.396 61.656C110.452 61.208 109.644 60.568 108.972 59.736L110.724 58.032C111.204 58.624 111.804 59.088 112.524 59.424C113.26 59.76 114.036 59.928 114.852 59.928C115.54 59.928 116.164 59.8 116.724 59.544C117.3 59.304 117.756 58.92 118.092 58.392C118.444 57.88 118.62 57.216 118.62 56.4V54.816C118.204 55.536 117.612 56.096 116.844 56.496C116.092 56.88 115.292 57.072 114.444 57.072ZM115.524 54.504C115.876 54.504 116.212 54.448 116.532 54.336C116.852 54.224 117.148 54.072 117.42 53.88C117.692 53.688 117.932 53.464 118.14 53.208C118.348 52.936 118.508 52.664 118.62 52.392V49.392C118.428 48.896 118.156 48.464 117.804 48.096C117.468 47.728 117.084 47.448 116.652 47.256C116.236 47.048 115.796 46.944 115.332 46.944C114.836 46.944 114.388 47.048 113.988 47.256C113.588 47.464 113.244 47.76 112.956 48.144C112.668 48.512 112.444 48.928 112.284 49.392C112.14 49.84 112.068 50.312 112.068 50.808C112.068 51.32 112.156 51.8 112.332 52.248C112.508 52.696 112.748 53.088 113.052 53.424C113.372 53.76 113.74 54.024 114.156 54.216C114.588 54.408 115.044 54.504 115.524 54.504ZM131.064 57.24C130.056 57.24 129.144 57.072 128.328 56.736C127.512 56.384 126.816 55.912 126.24 55.32C125.664 54.712 125.216 54.024 124.896 53.256C124.592 52.472 124.44 51.648 124.44 50.784C124.44 49.584 124.704 48.488 125.232 47.496C125.776 46.504 126.544 45.712 127.536 45.12C128.544 44.512 129.728 44.208 131.088 44.208C132.464 44.208 133.64 44.512 134.616 45.12C135.592 45.712 136.336 46.504 136.848 47.496C137.376 48.472 137.64 49.528 137.64 50.664C137.64 50.856 137.632 51.056 137.616 51.264C137.6 51.456 137.584 51.616 137.568 51.744H127.848C127.912 52.384 128.096 52.944 128.4 53.424C128.72 53.904 129.12 54.272 129.6 54.528C130.096 54.768 130.624 54.888 131.184 54.888C131.824 54.888 132.424 54.736 132.984 54.432C133.56 54.112 133.952 53.696 134.16 53.184L136.92 53.952C136.616 54.592 136.176 55.16 135.6 55.656C135.04 56.152 134.376 56.544 133.608 56.832C132.84 57.104 131.992 57.24 131.064 57.24ZM127.776 49.704H134.352C134.288 49.064 134.104 48.512 133.8 48.048C133.512 47.568 133.128 47.2 132.648 46.944C132.168 46.672 131.632 46.536 131.04 46.536C130.464 46.536 129.936 46.672 129.456 46.944C128.992 47.2 128.608 47.568 128.304 48.048C128.016 48.512 127.84 49.064 127.776 49.704ZM147.515 56.352C147.243 56.464 146.915 56.592 146.531 56.736C146.147 56.88 145.731 56.992 145.283 57.072C144.851 57.168 144.411 57.216 143.963 57.216C143.371 57.216 142.827 57.112 142.331 56.904C141.835 56.696 141.435 56.368 141.131 55.92C140.843 55.456 140.699 54.856 140.699 54.12V46.896H139.043V44.424H140.699V40.344H143.915V44.424H146.555V46.896H143.915V53.04C143.931 53.472 144.051 53.784 144.275 53.976C144.499 54.168 144.779 54.264 145.115 54.264C145.451 54.264 145.779 54.208 146.099 54.096C146.419 53.984 146.675 53.888 146.867 53.808L147.515 56.352Z" fill="#11101D"/>
<path d="M109.692 121.551C109.692 122.578 109.421 123.53 108.88 124.407C108.357 125.266 107.573 125.975 106.528 126.535C105.501 127.077 104.279 127.375 102.86 127.431V129.699H101.068V127.403C99.0892 127.235 97.4932 126.647 96.2799 125.639C95.0666 124.613 94.4226 123.222 94.3479 121.467H99.4439C99.5559 122.587 100.097 123.306 101.068 123.623V119.199C99.6119 118.826 98.4452 118.462 97.5679 118.107C96.7092 117.753 95.9532 117.183 95.2999 116.399C94.6466 115.615 94.3199 114.542 94.3199 113.179C94.3199 111.481 94.9452 110.118 96.1959 109.091C97.4652 108.065 99.0892 107.486 101.068 107.355V105.087H102.86V107.355C104.82 107.505 106.369 108.074 107.508 109.063C108.647 110.053 109.281 111.425 109.412 113.179H104.288C104.176 112.171 103.7 111.518 102.86 111.219V115.559C104.409 115.989 105.604 116.371 106.444 116.707C107.284 117.043 108.031 117.603 108.684 118.387C109.356 119.153 109.692 120.207 109.692 121.551ZM99.3879 112.955C99.3879 113.422 99.5279 113.814 99.8079 114.131C100.107 114.449 100.527 114.729 101.068 114.971V111.079C100.545 111.173 100.135 111.378 99.8359 111.695C99.5372 111.994 99.3879 112.414 99.3879 112.955ZM102.86 123.707C103.42 123.614 103.859 123.39 104.176 123.035C104.512 122.681 104.68 122.242 104.68 121.719C104.68 121.234 104.521 120.842 104.204 120.543C103.905 120.226 103.457 119.955 102.86 119.731V123.707ZM111.774 111.275V106.823H119.53V127.263H114.546V111.275H111.774ZM122.137 123.427C122.772 122.923 123.061 122.69 123.005 122.727C124.834 121.215 126.272 119.974 127.317 119.003C128.381 118.033 129.277 117.015 130.005 115.951C130.733 114.887 131.097 113.851 131.097 112.843C131.097 112.078 130.92 111.481 130.565 111.051C130.21 110.622 129.678 110.407 128.969 110.407C128.26 110.407 127.7 110.678 127.289 111.219C126.897 111.742 126.701 112.489 126.701 113.459H122.081C122.118 111.873 122.454 110.547 123.089 109.483C123.742 108.419 124.592 107.635 125.637 107.131C126.701 106.627 127.877 106.375 129.165 106.375C131.386 106.375 133.057 106.945 134.177 108.083C135.316 109.222 135.885 110.706 135.885 112.535C135.885 114.533 135.204 116.39 133.841 118.107C132.478 119.806 130.742 121.467 128.633 123.091H136.193V126.983H122.137V123.427ZM137.633 123.427C138.268 122.923 138.557 122.69 138.501 122.727C140.33 121.215 141.768 119.974 142.813 119.003C143.877 118.033 144.773 117.015 145.501 115.951C146.229 114.887 146.593 113.851 146.593 112.843C146.593 112.078 146.416 111.481 146.061 111.051C145.706 110.622 145.174 110.407 144.465 110.407C143.756 110.407 143.196 110.678 142.785 111.219C142.393 111.742 142.197 112.489 142.197 113.459H137.577C137.614 111.873 137.95 110.547 138.585 109.483C139.238 108.419 140.088 107.635 141.133 107.131C142.197 106.627 143.373 106.375 144.661 106.375C146.882 106.375 148.553 106.945 149.673 108.083C150.812 109.222 151.381 110.706 151.381 112.535C151.381 114.533 150.7 116.39 149.337 118.107C147.974 119.806 146.238 121.467 144.129 123.091H151.689V126.983H137.633V123.427ZM167.689 110.995H158.953V114.859C159.326 114.449 159.849 114.113 160.521 113.851C161.193 113.59 161.921 113.459 162.705 113.459C164.105 113.459 165.262 113.777 166.177 114.411C167.11 115.046 167.792 115.867 168.221 116.875C168.65 117.883 168.865 118.975 168.865 120.151C168.865 122.335 168.249 124.071 167.017 125.359C165.785 126.629 164.049 127.263 161.809 127.263C160.316 127.263 159.018 127.011 157.917 126.507C156.816 125.985 155.966 125.266 155.369 124.351C154.772 123.437 154.445 122.382 154.389 121.187H159.065C159.177 121.766 159.448 122.251 159.877 122.643C160.306 123.017 160.894 123.203 161.641 123.203C162.518 123.203 163.172 122.923 163.601 122.363C164.03 121.803 164.245 121.057 164.245 120.123C164.245 119.209 164.021 118.509 163.573 118.023C163.125 117.538 162.472 117.295 161.613 117.295C160.978 117.295 160.456 117.454 160.045 117.771C159.634 118.07 159.364 118.471 159.233 118.975H154.613V106.795H167.689V110.995ZM173.724 127.487C172.884 127.487 172.193 127.245 171.652 126.759C171.129 126.255 170.868 125.639 170.868 124.911C170.868 124.165 171.129 123.539 171.652 123.035C172.193 122.531 172.884 122.279 173.724 122.279C174.545 122.279 175.217 122.531 175.74 123.035C176.281 123.539 176.552 124.165 176.552 124.911C176.552 125.639 176.281 126.255 175.74 126.759C175.217 127.245 174.545 127.487 173.724 127.487ZM178.41 116.763C178.41 113.553 179.026 111.023 180.258 109.175C181.509 107.327 183.516 106.403 186.278 106.403C189.041 106.403 191.038 107.327 192.27 109.175C193.521 111.023 194.146 113.553 194.146 116.763C194.146 120.011 193.521 122.559 192.27 124.407C191.038 126.255 189.041 127.179 186.278 127.179C183.516 127.179 181.509 126.255 180.258 124.407C179.026 122.559 178.41 120.011 178.41 116.763ZM189.442 116.763C189.442 114.878 189.237 113.431 188.826 112.423C188.416 111.397 187.566 110.883 186.278 110.883C184.99 110.883 184.141 111.397 183.73 112.423C183.32 113.431 183.114 114.878 183.114 116.763C183.114 118.033 183.189 119.087 183.338 119.927C183.488 120.749 183.786 121.421 184.234 121.943C184.701 122.447 185.382 122.699 186.278 122.699C187.174 122.699 187.846 122.447 188.294 121.943C188.761 121.421 189.069 120.749 189.218 119.927C189.368 119.087 189.442 118.033 189.442 116.763ZM196.008 123.427C196.643 122.923 196.932 122.69 196.876 122.727C198.705 121.215 200.143 119.974 201.188 119.003C202.252 118.033 203.148 117.015 203.876 115.951C204.604 114.887 204.968 113.851 204.968 112.843C204.968 112.078 204.791 111.481 204.436 111.051C204.081 110.622 203.549 110.407 202.84 110.407C202.131 110.407 201.571 110.678 201.16 111.219C200.768 111.742 200.572 112.489 200.572 113.459H195.952C195.989 111.873 196.325 110.547 196.96 109.483C197.613 108.419 198.463 107.635 199.508 107.131C200.572 106.627 201.748 106.375 203.036 106.375C205.257 106.375 206.928 106.945 208.048 108.083C209.187 109.222 209.756 110.706 209.756 112.535C209.756 114.533 209.075 116.39 207.712 118.107C206.349 119.806 204.613 121.467 202.504 123.091H210.064V126.983H196.008V123.427Z" fill="#11101D"/>
<path d="M105.181 85.768V97H102.445V90.264L99.9328 97H97.7248L95.1968 90.248V97H92.4608V85.768H95.6927L98.8448 93.544L101.965 85.768H105.181ZM110.712 97.128C109.838 97.128 109.048 96.9413 108.344 96.568C107.651 96.1947 107.102 95.6613 106.696 94.968C106.302 94.2747 106.104 93.464 106.104 92.536C106.104 91.6187 106.307 90.8133 106.712 90.12C107.118 89.416 107.672 88.8773 108.376 88.504C109.08 88.1307 109.87 87.944 110.744 87.944C111.619 87.944 112.408 88.1307 113.112 88.504C113.816 88.8773 114.371 89.416 114.776 90.12C115.182 90.8133 115.384 91.6187 115.384 92.536C115.384 93.4533 115.176 94.264 114.76 94.968C114.355 95.6613 113.795 96.1947 113.08 96.568C112.376 96.9413 111.587 97.128 110.712 97.128ZM110.712 94.76C111.235 94.76 111.678 94.568 112.04 94.184C112.414 93.8 112.6 93.2507 112.6 92.536C112.6 91.8213 112.419 91.272 112.056 90.888C111.704 90.504 111.267 90.312 110.744 90.312C110.211 90.312 109.768 90.504 109.416 90.888C109.064 91.2613 108.888 91.8107 108.888 92.536C108.888 93.2507 109.059 93.8 109.4 94.184C109.752 94.568 110.19 94.76 110.712 94.76ZM121.776 87.976C122.821 87.976 123.653 88.3173 124.272 89C124.901 89.672 125.216 90.6 125.216 91.784V97H122.496V92.152C122.496 91.5547 122.341 91.0907 122.032 90.76C121.722 90.4293 121.306 90.264 120.784 90.264C120.261 90.264 119.845 90.4293 119.536 90.76C119.226 91.0907 119.072 91.5547 119.072 92.152V97H116.336V88.072H119.072V89.256C119.349 88.8613 119.722 88.552 120.192 88.328C120.661 88.0933 121.189 87.976 121.776 87.976ZM131.593 94.68V97H130.201C129.209 97 128.436 96.76 127.881 96.28C127.326 95.7893 127.049 94.9947 127.049 93.896V90.344H125.961V88.072H127.049V85.896H129.785V88.072H131.577V90.344H129.785V93.928C129.785 94.1947 129.849 94.3867 129.977 94.504C130.105 94.6213 130.318 94.68 130.617 94.68H131.593ZM138.105 87.976C139.129 87.976 139.95 88.3173 140.569 89C141.188 89.672 141.497 90.6 141.497 91.784V97H138.777V92.152C138.777 91.5547 138.622 91.0907 138.313 90.76C138.004 90.4293 137.588 90.264 137.065 90.264C136.542 90.264 136.126 90.4293 135.817 90.76C135.508 91.0907 135.353 91.5547 135.353 92.152V97H132.617V85.16H135.353V89.272C135.63 88.8773 136.009 88.5627 136.489 88.328C136.969 88.0933 137.508 87.976 138.105 87.976ZM145.634 85.16V97H142.898V85.16H145.634ZM156.237 88.072L150.637 101.24H147.693L149.741 96.696L146.109 88.072H149.165L151.229 93.656L153.277 88.072H156.237ZM166.417 91.24C167.068 91.3787 167.59 91.704 167.985 92.216C168.38 92.7173 168.577 93.2933 168.577 93.944C168.577 94.8827 168.246 95.6293 167.585 96.184C166.934 96.728 166.022 97 164.849 97H159.617V85.768H164.673C165.814 85.768 166.705 86.0293 167.345 86.552C167.996 87.0747 168.321 87.784 168.321 88.68C168.321 89.3413 168.145 89.8907 167.793 90.328C167.452 90.7653 166.993 91.0693 166.417 91.24ZM162.353 90.312H164.145C164.593 90.312 164.934 90.216 165.169 90.024C165.414 89.8213 165.537 89.528 165.537 89.144C165.537 88.76 165.414 88.4667 165.169 88.264C164.934 88.0613 164.593 87.96 164.145 87.96H162.353V90.312ZM164.369 94.792C164.828 94.792 165.18 94.6907 165.425 94.488C165.681 94.2747 165.809 93.9707 165.809 93.576C165.809 93.1813 165.676 92.872 165.409 92.648C165.153 92.424 164.796 92.312 164.337 92.312H162.353V94.792H164.369ZM178.48 88.072V97H175.744V95.784C175.467 96.1787 175.088 96.4987 174.608 96.744C174.139 96.9787 173.616 97.096 173.04 97.096C172.357 97.096 171.755 96.9467 171.232 96.648C170.709 96.3387 170.304 95.896 170.016 95.32C169.728 94.744 169.584 94.0667 169.584 93.288V88.072H172.304V92.92C172.304 93.5173 172.459 93.9813 172.768 94.312C173.077 94.6427 173.493 94.808 174.016 94.808C174.549 94.808 174.971 94.6427 175.28 94.312C175.589 93.9813 175.744 93.5173 175.744 92.92V88.072H178.48ZM179.401 92.52C179.401 91.6027 179.572 90.7973 179.913 90.104C180.265 89.4107 180.74 88.8773 181.337 88.504C181.934 88.1307 182.601 87.944 183.337 87.944C183.924 87.944 184.457 88.0667 184.937 88.312C185.428 88.5573 185.812 88.888 186.089 89.304V85.16H188.825V97H186.089V95.72C185.833 96.1467 185.465 96.488 184.985 96.744C184.516 97 183.966 97.128 183.337 97.128C182.601 97.128 181.934 96.9413 181.337 96.568C180.74 96.184 180.265 95.6453 179.913 94.952C179.572 94.248 179.401 93.4373 179.401 92.52ZM186.089 92.536C186.089 91.8533 185.897 91.3147 185.513 90.92C185.14 90.5253 184.681 90.328 184.137 90.328C183.593 90.328 183.129 90.5253 182.745 90.92C182.372 91.304 182.185 91.8373 182.185 92.52C182.185 93.2027 182.372 93.7467 182.745 94.152C183.129 94.5467 183.593 94.744 184.137 94.744C184.681 94.744 185.14 94.5467 185.513 94.152C185.897 93.7573 186.089 93.2187 186.089 92.536ZM193.697 87.944C194.326 87.944 194.875 88.072 195.345 88.328C195.825 88.584 196.193 88.92 196.449 89.336V88.072H199.185V96.984C199.185 97.8053 199.019 98.5467 198.689 99.208C198.369 99.88 197.873 100.413 197.201 100.808C196.539 101.203 195.713 101.4 194.721 101.4C193.398 101.4 192.326 101.085 191.505 100.456C190.683 99.8373 190.214 98.9947 190.097 97.928H192.801C192.886 98.2693 193.089 98.536 193.409 98.728C193.729 98.9307 194.123 99.032 194.593 99.032C195.158 99.032 195.606 98.8667 195.937 98.536C196.278 98.216 196.449 97.6987 196.449 96.984V95.72C196.182 96.136 195.814 96.4773 195.345 96.744C194.875 97 194.326 97.128 193.697 97.128C192.961 97.128 192.294 96.9413 191.697 96.568C191.099 96.184 190.625 95.6453 190.273 94.952C189.931 94.248 189.761 93.4373 189.761 92.52C189.761 91.6027 189.931 90.7973 190.273 90.104C190.625 89.4107 191.099 88.8773 191.697 88.504C192.294 88.1307 192.961 87.944 193.697 87.944ZM196.449 92.536C196.449 91.8533 196.257 91.3147 195.873 90.92C195.499 90.5253 195.041 90.328 194.497 90.328C193.953 90.328 193.489 90.5253 193.105 90.92C192.731 91.304 192.545 91.8373 192.545 92.52C192.545 93.2027 192.731 93.7467 193.105 94.152C193.489 94.5467 193.953 94.744 194.497 94.744C195.041 94.744 195.499 94.5467 195.873 94.152C196.257 93.7573 196.449 93.2187 196.449 92.536ZM209.08 92.392C209.08 92.648 209.064 92.9147 209.032 93.192H202.84C202.883 93.7467 203.059 94.1733 203.368 94.472C203.688 94.76 204.077 94.904 204.536 94.904C205.219 94.904 205.693 94.616 205.96 94.04H208.872C208.723 94.6267 208.451 95.1547 208.056 95.624C207.672 96.0933 207.187 96.4613 206.6 96.728C206.013 96.9947 205.357 97.128 204.632 97.128C203.757 97.128 202.979 96.9413 202.296 96.568C201.613 96.1947 201.08 95.6613 200.696 94.968C200.312 94.2747 200.12 93.464 200.12 92.536C200.12 91.608 200.307 90.7973 200.68 90.104C201.064 89.4107 201.597 88.8773 202.28 88.504C202.963 88.1307 203.747 87.944 204.632 87.944C205.496 87.944 206.264 88.1253 206.936 88.488C207.608 88.8507 208.131 89.368 208.504 90.04C208.888 90.712 209.08 91.496 209.08 92.392ZM206.28 91.672C206.28 91.2027 206.12 90.8293 205.8 90.552C205.48 90.2747 205.08 90.136 204.6 90.136C204.141 90.136 203.752 90.2693 203.432 90.536C203.123 90.8027 202.931 91.1813 202.856 91.672H206.28ZM214.999 94.68V97H213.607C212.615 97 211.842 96.76 211.287 96.28C210.733 95.7893 210.455 94.9947 210.455 93.896V90.344H209.367V88.072H210.455V85.896H213.191V88.072H214.983V90.344H213.191V93.928C213.191 94.1947 213.255 94.3867 213.383 94.504C213.511 94.6213 213.725 94.68 214.023 94.68H214.999Z" fill="#11101D"/>
<g opacity="0.16">
<rect x="38" y="320.578" width="152.383" height="24.8328" rx="12.4164" transform="rotate(-90 38 320.578)" fill="#263238"/>
</g>
<path d="M56.1324 306.956C56.1324 308.157 55.726 309.092 54.9133 309.76C54.0916 310.428 52.8861 310.763 51.2968 310.763C49.7075 310.763 48.4884 310.428 47.6396 309.76C46.7817 309.092 46.3528 308.157 46.3528 306.956C46.3528 306.162 46.5334 305.498 46.8946 304.965C47.2558 304.423 47.766 304.004 48.4252 303.706L48.9805 304.627C48.4929 304.816 48.1046 305.105 47.8156 305.494C47.5177 305.882 47.3687 306.369 47.3687 306.956C47.3687 307.363 47.4454 307.728 47.5989 308.054C47.7524 308.37 47.9737 308.641 48.2626 308.866C48.5426 309.083 48.8812 309.25 49.2785 309.367C49.6668 309.485 50.1048 309.544 50.5924 309.544H52.0011C52.9764 309.544 53.7394 309.318 54.2902 308.866C54.8411 308.415 55.1165 307.778 55.1165 306.956C55.1165 306.351 54.963 305.846 54.656 305.439C54.3399 305.033 53.9245 304.735 53.4098 304.545L53.9787 303.638C54.6469 303.936 55.1752 304.365 55.5635 304.925C55.9428 305.484 56.1324 306.162 56.1324 306.956ZM55.9698 300.381C55.9698 300.76 55.866 301.049 55.6583 301.248C55.4416 301.438 55.1707 301.533 54.8456 301.533H45.9464V300.449H55.0217V299.419H55.9698V300.381ZM56.1324 294.749C56.1324 295.219 56.0466 295.648 55.875 296.036C55.7035 296.424 55.4596 296.758 55.1436 297.038C54.8185 297.309 54.4347 297.521 53.9923 297.675C53.5407 297.828 53.0351 297.905 52.4752 297.905C51.9244 297.905 51.4232 297.828 50.9717 297.675C50.5202 297.521 50.1364 297.309 49.8203 297.038C49.4953 296.758 49.2469 296.424 49.0754 296.036C48.9038 295.648 48.818 295.219 48.818 294.749C48.818 294.28 48.9038 293.855 49.0754 293.476C49.2469 293.088 49.4953 292.754 49.8203 292.474C50.1364 292.194 50.5202 291.977 50.9717 291.823C51.4232 291.67 51.9244 291.593 52.4752 291.593C53.0351 291.593 53.5407 291.67 53.9923 291.823C54.4347 291.977 54.8185 292.194 55.1436 292.474C55.4596 292.754 55.7035 293.088 55.875 293.476C56.0466 293.855 56.1324 294.28 56.1324 294.749ZM55.1707 294.749C55.1707 294.162 54.9901 293.684 54.6289 293.313C54.2677 292.943 53.7168 292.758 52.9764 292.758H51.974C51.2336 292.758 50.6827 292.943 50.3215 293.313C49.9603 293.684 49.7797 294.162 49.7797 294.749C49.7797 295.336 49.9603 295.815 50.3215 296.185C50.6827 296.555 51.2336 296.74 51.974 296.74H52.9764C53.7168 296.74 54.2677 296.555 54.6289 296.185C54.9901 295.815 55.1707 295.336 55.1707 294.749ZM55.9698 287.815C55.9698 288.195 55.866 288.484 55.6583 288.682C55.4416 288.872 55.1617 288.967 54.8185 288.967H49.9287V290.118H48.9805V289.468C48.9805 289.233 48.9354 289.075 48.8451 288.994C48.7458 288.903 48.5787 288.858 48.3439 288.858H47.0436V287.883H48.9805V286.352H49.9287V287.883H55.0217V286.461H55.9698V287.815ZM45.9464 284.159V283.076H50.1183V283.021C49.721 282.85 49.405 282.611 49.1702 282.304C48.9354 281.988 48.818 281.568 48.818 281.044C48.818 280.321 49.0528 279.753 49.5223 279.337C49.9829 278.913 50.6376 278.701 51.4864 278.701H55.9698V279.784H51.676C50.4208 279.784 49.7932 280.312 49.7932 281.369C49.7932 281.586 49.8203 281.798 49.8745 282.006C49.9287 282.204 50.01 282.385 50.1183 282.547C50.2267 282.71 50.3667 282.841 50.5382 282.94C50.7008 283.031 50.8949 283.076 51.1207 283.076H55.9698V284.159H45.9464ZM56.1324 273.381C56.1324 273.86 56.0466 274.294 55.875 274.682C55.7035 275.061 55.4596 275.391 55.1436 275.671C54.8185 275.942 54.4347 276.154 53.9923 276.307C53.5407 276.452 53.0351 276.524 52.4752 276.524C51.9244 276.524 51.4232 276.452 50.9717 276.307C50.5202 276.154 50.1364 275.942 49.8203 275.671C49.4953 275.391 49.2469 275.061 49.0754 274.682C48.9038 274.294 48.818 273.86 48.818 273.381C48.818 272.912 48.9038 272.492 49.0754 272.122C49.2469 271.752 49.4862 271.435 49.7932 271.174C50.0912 270.912 50.4479 270.713 50.8633 270.578C51.2787 270.433 51.7347 270.361 52.2314 270.361H52.7461V275.386H53.0712C53.3692 275.386 53.6491 275.341 53.911 275.251C54.1638 275.151 54.3851 275.016 54.5747 274.844C54.7643 274.664 54.9133 274.447 55.0217 274.194C55.13 273.932 55.1842 273.639 55.1842 273.314C55.1842 272.871 55.0804 272.487 54.8727 272.162C54.665 271.828 54.367 271.571 53.9787 271.39L54.5341 270.618C55.0127 270.844 55.401 271.196 55.6989 271.675C55.9879 272.153 56.1324 272.722 56.1324 273.381ZM49.7255 273.381C49.7255 273.679 49.7797 273.95 49.8881 274.194C49.9874 274.438 50.1319 274.65 50.3215 274.831C50.5111 275.002 50.7369 275.138 50.9988 275.237C51.2516 275.336 51.5315 275.386 51.8386 275.386H51.9334V271.526H51.7844C51.1613 271.526 50.6647 271.697 50.2944 272.04C49.9152 272.375 49.7255 272.822 49.7255 273.381ZM56.1324 266.024C56.1324 266.674 56.0105 267.221 55.7667 267.663C55.5138 268.097 55.1797 268.471 54.7643 268.787L54.1412 268.015C54.4844 267.744 54.7508 267.442 54.9404 267.108C55.121 266.774 55.2113 266.385 55.2113 265.943C55.2113 265.482 55.112 265.126 54.9133 264.873C54.7147 264.611 54.4347 264.48 54.0735 264.48C53.8026 264.48 53.5724 264.57 53.3827 264.751C53.1841 264.923 53.0486 265.239 52.9764 265.699L52.8951 266.255C52.8499 266.58 52.7822 266.878 52.6919 267.148C52.5926 267.419 52.4662 267.659 52.3127 267.866C52.1501 268.065 51.9514 268.223 51.7167 268.34C51.4819 268.449 51.2019 268.503 50.8769 268.503C50.5337 268.503 50.2357 268.44 49.9829 268.313C49.721 268.187 49.5043 268.015 49.3327 267.799C49.1611 267.573 49.0347 267.307 48.9534 266.999C48.8631 266.692 48.818 266.363 48.818 266.011C48.818 265.442 48.9173 264.968 49.116 264.588C49.3147 264.2 49.5901 263.862 49.9422 263.573L50.5924 264.29C50.3757 264.444 50.1815 264.67 50.01 264.968C49.8294 265.266 49.7391 265.64 49.7391 266.092C49.7391 266.543 49.8384 266.887 50.0371 267.121C50.2267 267.347 50.4886 267.46 50.8227 267.46C51.1658 267.46 51.4142 267.347 51.5677 267.121C51.7212 266.887 51.8341 266.553 51.9063 266.119L51.9876 265.577C52.105 264.801 52.3307 264.25 52.6648 263.925C52.9899 263.6 53.4188 263.437 53.9516 263.437C54.6289 263.437 55.1617 263.667 55.5499 264.128C55.9382 264.588 56.1324 265.221 56.1324 266.024Z" fill="#263238"/>
<g opacity="0.16">
<rect x="96.6394" y="320.578" width="139.967" height="24.8328" rx="12.4164" transform="rotate(-90 96.6394 320.578)" fill="#263238"/>
</g>
<path d="M113.228 304.166V304.207C113.67 304.324 114.04 304.613 114.338 305.074C114.627 305.525 114.772 306.112 114.772 306.834C114.772 307.412 114.668 307.945 114.46 308.433C114.244 308.911 113.932 309.322 113.526 309.665C113.11 310.009 112.6 310.279 111.995 310.478C111.381 310.668 110.677 310.763 109.882 310.763C109.096 310.763 108.401 310.668 107.796 310.478C107.182 310.289 106.672 310.018 106.265 309.665C105.85 309.313 105.534 308.889 105.317 308.392C105.101 307.896 104.992 307.345 104.992 306.74C104.992 305.891 105.182 305.182 105.561 304.613C105.94 304.044 106.442 303.606 107.065 303.299L107.633 304.234C107.128 304.451 106.73 304.776 106.442 305.209C106.153 305.633 106.008 306.144 106.008 306.74C106.008 307.155 106.085 307.534 106.238 307.877C106.383 308.221 106.591 308.519 106.861 308.771C107.132 309.015 107.457 309.205 107.837 309.34C108.216 309.476 108.64 309.544 109.11 309.544H110.641C111.11 309.544 111.539 309.476 111.927 309.34C112.307 309.205 112.632 309.015 112.903 308.771C113.173 308.519 113.386 308.212 113.539 307.85C113.684 307.489 113.756 307.083 113.756 306.631C113.756 306.306 113.715 305.999 113.634 305.71C113.544 305.412 113.413 305.155 113.241 304.938C113.07 304.712 112.857 304.536 112.605 304.41C112.343 304.283 112.036 304.22 111.683 304.22H110.749V306.306H109.747V303.11H114.609V304.166H113.228ZM114.609 300.527H107.62V299.444H108.907V299.376C108.573 299.249 108.275 299.024 108.013 298.699C107.751 298.374 107.62 297.927 107.62 297.358V296.938H108.704V297.574C108.704 298.161 108.816 298.622 109.042 298.956C109.259 299.281 109.534 299.444 109.868 299.444H114.609V300.527ZM114.772 292.527C114.772 292.997 114.686 293.425 114.514 293.814C114.343 294.202 114.099 294.536 113.783 294.816C113.458 295.087 113.074 295.299 112.632 295.453C112.18 295.606 111.674 295.683 111.115 295.683C110.564 295.683 110.063 295.606 109.611 295.453C109.16 295.299 108.776 295.087 108.46 294.816C108.135 294.536 107.886 294.202 107.715 293.814C107.543 293.425 107.457 292.997 107.457 292.527C107.457 292.057 107.543 291.633 107.715 291.254C107.886 290.865 108.135 290.531 108.46 290.251C108.776 289.971 109.16 289.755 109.611 289.601C110.063 289.448 110.564 289.371 111.115 289.371C111.674 289.371 112.18 289.448 112.632 289.601C113.074 289.755 113.458 289.971 113.783 290.251C114.099 290.531 114.343 290.865 114.514 291.254C114.686 291.633 114.772 292.057 114.772 292.527ZM113.81 292.527C113.81 291.94 113.629 291.461 113.268 291.091C112.907 290.721 112.356 290.536 111.616 290.536H110.613C109.873 290.536 109.322 290.721 108.961 291.091C108.6 291.461 108.419 291.94 108.419 292.527C108.419 293.114 108.6 293.592 108.961 293.963C109.322 294.333 109.873 294.518 110.613 294.518H111.616C112.356 294.518 112.907 294.333 113.268 293.963C113.629 293.592 113.81 293.114 113.81 292.527ZM114.772 284.537C114.772 285.024 114.686 285.462 114.514 285.85C114.343 286.239 114.099 286.568 113.783 286.839C113.467 287.101 113.083 287.304 112.632 287.449C112.18 287.584 111.674 287.652 111.115 287.652C110.555 287.652 110.049 287.584 109.598 287.449C109.146 287.304 108.762 287.101 108.446 286.839C108.13 286.568 107.886 286.239 107.715 285.85C107.543 285.462 107.457 285.024 107.457 284.537C107.457 283.841 107.611 283.286 107.918 282.871C108.216 282.446 108.609 282.13 109.096 281.922L109.557 282.83C109.196 282.956 108.916 283.164 108.717 283.453C108.518 283.742 108.419 284.103 108.419 284.537C108.419 284.862 108.473 285.146 108.582 285.39C108.681 285.634 108.825 285.837 109.015 285.999C109.196 286.162 109.417 286.284 109.679 286.365C109.932 286.446 110.212 286.487 110.519 286.487H111.711C112.325 286.487 112.83 286.325 113.228 285.999C113.616 285.665 113.81 285.178 113.81 284.537C113.81 283.661 113.404 283.029 112.591 282.64L113.119 281.855C113.625 282.08 114.027 282.419 114.325 282.871C114.623 283.313 114.772 283.868 114.772 284.537ZM114.772 277.325C114.772 277.804 114.686 278.237 114.514 278.625C114.343 279.005 114.099 279.334 113.783 279.614C113.458 279.885 113.074 280.097 112.632 280.251C112.18 280.395 111.674 280.468 111.115 280.468C110.564 280.468 110.063 280.395 109.611 280.251C109.16 280.097 108.776 279.885 108.46 279.614C108.135 279.334 107.886 279.005 107.715 278.625C107.543 278.237 107.457 277.804 107.457 277.325C107.457 276.856 107.543 276.436 107.715 276.065C107.886 275.695 108.126 275.379 108.433 275.117C108.731 274.855 109.087 274.657 109.503 274.521C109.918 274.377 110.374 274.305 110.871 274.305H111.386V279.33H111.711C112.009 279.33 112.289 279.285 112.55 279.194C112.803 279.095 113.024 278.96 113.214 278.788C113.404 278.607 113.553 278.391 113.661 278.138C113.769 277.876 113.824 277.582 113.824 277.257C113.824 276.815 113.72 276.431 113.512 276.106C113.304 275.772 113.006 275.515 112.618 275.334L113.173 274.562C113.652 274.788 114.04 275.14 114.338 275.618C114.627 276.097 114.772 276.666 114.772 277.325ZM108.365 277.325C108.365 277.623 108.419 277.894 108.527 278.138C108.627 278.382 108.771 278.594 108.961 278.774C109.151 278.946 109.376 279.081 109.638 279.181C109.891 279.28 110.171 279.33 110.478 279.33H110.573V275.469H110.424C109.801 275.469 109.304 275.641 108.934 275.984C108.555 276.318 108.365 276.765 108.365 277.325ZM114.609 272.067H107.62V270.984H108.907V270.916C108.573 270.79 108.275 270.564 108.013 270.239C107.751 269.914 107.62 269.467 107.62 268.898V268.478H108.704V269.115C108.704 269.701 108.816 270.162 109.042 270.496C109.259 270.821 109.534 270.984 109.868 270.984H114.609V272.067ZM105.981 266.1C105.981 266.335 105.927 266.507 105.818 266.615C105.701 266.714 105.552 266.764 105.371 266.764H105.195C105.015 266.764 104.87 266.714 104.762 266.615C104.645 266.507 104.586 266.335 104.586 266.1C104.586 265.866 104.645 265.699 104.762 265.599C104.87 265.491 105.015 265.437 105.195 265.437H105.371C105.552 265.437 105.701 265.491 105.818 265.599C105.927 265.699 105.981 265.866 105.981 266.1ZM107.62 266.642V265.559H114.609V266.642H107.62ZM114.772 260.177C114.772 260.655 114.686 261.089 114.514 261.477C114.343 261.856 114.099 262.186 113.783 262.466C113.458 262.737 113.074 262.949 112.632 263.102C112.18 263.247 111.674 263.319 111.115 263.319C110.564 263.319 110.063 263.247 109.611 263.102C109.16 262.949 108.776 262.737 108.46 262.466C108.135 262.186 107.886 261.856 107.715 261.477C107.543 261.089 107.457 260.655 107.457 260.177C107.457 259.707 107.543 259.287 107.715 258.917C107.886 258.547 108.126 258.231 108.433 257.969C108.731 257.707 109.087 257.508 109.503 257.373C109.918 257.228 110.374 257.156 110.871 257.156H111.386V262.181H111.711C112.009 262.181 112.289 262.136 112.55 262.046C112.803 261.947 113.024 261.811 113.214 261.64C113.404 261.459 113.553 261.242 113.661 260.989C113.769 260.728 113.824 260.434 113.824 260.109C113.824 259.666 113.72 259.283 113.512 258.958C113.304 258.623 113.006 258.366 112.618 258.186L113.173 257.413C113.652 257.639 114.04 257.991 114.338 258.47C114.627 258.949 114.772 259.517 114.772 260.177ZM108.365 260.177C108.365 260.475 108.419 260.746 108.527 260.989C108.627 261.233 108.771 261.445 108.961 261.626C109.151 261.798 109.376 261.933 109.638 262.032C109.891 262.132 110.171 262.181 110.478 262.181H110.573V258.321H110.424C109.801 258.321 109.304 258.493 108.934 258.836C108.555 259.17 108.365 259.617 108.365 260.177ZM114.772 252.819C114.772 253.47 114.65 254.016 114.406 254.458C114.153 254.892 113.819 255.267 113.404 255.583L112.781 254.811C113.124 254.54 113.39 254.237 113.58 253.903C113.76 253.569 113.851 253.181 113.851 252.738C113.851 252.278 113.751 251.921 113.553 251.668C113.354 251.406 113.074 251.275 112.713 251.275C112.442 251.275 112.212 251.366 112.022 251.546C111.823 251.718 111.688 252.034 111.616 252.494L111.534 253.05C111.489 253.375 111.422 253.673 111.331 253.944C111.232 254.215 111.106 254.454 110.952 254.662C110.79 254.86 110.591 255.018 110.356 255.136C110.121 255.244 109.841 255.298 109.516 255.298C109.173 255.298 108.875 255.235 108.622 255.109C108.36 254.982 108.144 254.811 107.972 254.594C107.801 254.368 107.674 254.102 107.593 253.795C107.503 253.488 107.457 253.158 107.457 252.806C107.457 252.237 107.557 251.763 107.755 251.384C107.954 250.995 108.229 250.657 108.582 250.368L109.232 251.086C109.015 251.239 108.821 251.465 108.649 251.763C108.469 252.061 108.378 252.436 108.378 252.887C108.378 253.339 108.478 253.682 108.676 253.917C108.866 254.142 109.128 254.255 109.462 254.255C109.805 254.255 110.054 254.142 110.207 253.917C110.361 253.682 110.473 253.348 110.546 252.914L110.627 252.372C110.744 251.596 110.97 251.045 111.304 250.72C111.629 250.395 112.058 250.232 112.591 250.232C113.268 250.232 113.801 250.463 114.189 250.923C114.578 251.384 114.772 252.016 114.772 252.819Z" fill="#263238"/>
<rect x="67.3197" y="320.578" width="75.6273" height="24.8328" rx="12.4164" transform="rotate(-90 67.3197 320.578)" fill="#6ED47C"/>
<path d="M85.2896 309.151V310.289H75.835V306.523C75.835 305.692 76.0653 305.047 76.5258 304.586C76.9864 304.116 77.6501 303.882 78.517 303.882C79.2123 303.882 79.7857 304.044 80.2372 304.369C80.6797 304.685 80.9732 305.155 81.1176 305.778L85.2896 303.611V304.898L81.226 306.943V309.151H85.2896ZM80.2507 306.523C80.2507 306.071 80.1334 305.724 79.8986 305.48C79.6638 305.227 79.3297 305.101 78.8962 305.101H78.1919C77.7584 305.101 77.4243 305.227 77.1895 305.48C76.9548 305.724 76.8374 306.071 76.8374 306.523V309.151H80.2507V306.523ZM85.4521 298.852C85.4521 299.33 85.3663 299.764 85.1947 300.152C85.0232 300.531 84.7793 300.861 84.4633 301.141C84.1382 301.412 83.7544 301.624 83.312 301.778C82.8604 301.922 82.3548 301.994 81.7949 301.994C81.2441 301.994 80.7429 301.922 80.2914 301.778C79.8399 301.624 79.4561 301.412 79.14 301.141C78.815 300.861 78.5666 300.531 78.3951 300.152C78.2235 299.764 78.1377 299.33 78.1377 298.852C78.1377 298.382 78.2235 297.962 78.3951 297.592C78.5666 297.222 78.8059 296.906 79.1129 296.644C79.4109 296.382 79.7676 296.183 80.183 296.048C80.5984 295.904 81.0544 295.831 81.5511 295.831H82.0658V300.857H82.3909C82.6889 300.857 82.9688 300.811 83.2307 300.721C83.4835 300.622 83.7048 300.486 83.8944 300.315C84.084 300.134 84.233 299.917 84.3414 299.665C84.4497 299.403 84.5039 299.109 84.5039 298.784C84.5039 298.342 84.4001 297.958 84.1924 297.633C83.9847 297.299 83.6867 297.041 83.2984 296.861L83.8538 296.089C84.3324 296.314 84.7207 296.667 85.0186 297.145C85.3076 297.624 85.4521 298.193 85.4521 298.852ZM79.0452 298.852C79.0452 299.15 79.0994 299.421 79.2078 299.665C79.3071 299.908 79.4516 300.121 79.6412 300.301C79.8308 300.473 80.0566 300.608 80.3185 300.708C80.5713 300.807 80.8512 300.857 81.1583 300.857H81.2531V296.996H81.1041C80.481 296.996 79.9844 297.168 79.6141 297.511C79.2349 297.845 79.0452 298.292 79.0452 298.852ZM85.2896 293.594H78.3002V292.511H79.438V292.456C79.0407 292.285 78.7247 292.045 78.4899 291.738C78.2551 291.422 78.1377 291.003 78.1377 290.479C78.1377 289.756 78.3725 289.187 78.842 288.772C79.3026 288.348 79.9573 288.135 80.8061 288.135H85.2896V289.219H80.9957C79.7405 289.219 79.1129 289.747 79.1129 290.804C79.1129 291.021 79.14 291.233 79.1942 291.44C79.2484 291.639 79.3297 291.82 79.438 291.982C79.5464 292.145 79.6864 292.276 79.8579 292.375C80.0205 292.465 80.2146 292.511 80.4404 292.511H85.2896V293.594ZM85.2896 283.9C85.2896 284.279 85.1857 284.568 84.978 284.767C84.7613 284.956 84.4814 285.051 84.1382 285.051H79.2484V286.203H78.3002V285.552C78.3002 285.318 78.2551 285.16 78.1648 285.078C78.0655 284.988 77.8984 284.943 77.6636 284.943H76.3633V283.968H78.3002V282.437H79.2484V283.968H84.3414V282.545H85.2896V283.9Z" fill="white"/>
<g opacity="0.16">
<rect x="125.959" y="320.578" width="101.589" height="24.8328" rx="12.4164" transform="rotate(-90 125.959 320.578)" fill="#263238"/>
</g>
<path d="M144.091 307.634C144.091 308.401 143.947 309.056 143.658 309.598C143.36 310.14 142.954 310.6 142.439 310.979L141.735 310.14C142.177 309.805 142.516 309.435 142.751 309.029C142.976 308.622 143.089 308.144 143.089 307.593C143.089 306.916 142.927 306.401 142.602 306.049C142.276 305.688 141.843 305.507 141.301 305.507C140.85 305.507 140.502 305.643 140.258 305.913C140.014 306.184 139.82 306.631 139.676 307.254L139.5 308.026C139.301 308.893 139.003 309.557 138.606 310.018C138.199 310.469 137.63 310.695 136.899 310.695C136.484 310.695 136.113 310.618 135.788 310.465C135.463 310.311 135.192 310.099 134.976 309.828C134.759 309.548 134.596 309.218 134.488 308.839C134.371 308.451 134.312 308.026 134.312 307.566C134.312 306.853 134.443 306.243 134.705 305.737C134.967 305.223 135.35 304.789 135.856 304.437L136.479 305.29C136.118 305.552 135.833 305.868 135.626 306.239C135.418 306.609 135.314 307.069 135.314 307.62C135.314 308.225 135.445 308.704 135.707 309.056C135.96 309.399 136.344 309.571 136.858 309.571C137.31 309.571 137.653 309.426 137.888 309.137C138.114 308.839 138.294 308.392 138.43 307.796L138.606 307.024C138.813 306.094 139.129 305.421 139.554 305.006C139.978 304.591 140.543 304.383 141.247 304.383C141.68 304.383 142.073 304.46 142.425 304.613C142.778 304.758 143.076 304.97 143.319 305.25C143.563 305.53 143.753 305.873 143.888 306.279C144.024 306.676 144.091 307.128 144.091 307.634ZM143.929 296.995C143.929 297.402 143.821 297.695 143.604 297.876C143.387 298.047 143.116 298.156 142.791 298.201V298.269C143.225 298.422 143.55 298.675 143.766 299.027C143.983 299.379 144.091 299.799 144.091 300.287C144.091 301.027 143.902 301.605 143.523 302.021C143.143 302.427 142.629 302.63 141.978 302.63C141.319 302.63 140.814 302.391 140.461 301.912C140.109 301.425 139.933 300.671 139.933 299.65V298.269H139.242C138.746 298.269 138.366 298.404 138.105 298.675C137.843 298.946 137.712 299.361 137.712 299.921C137.712 300.346 137.807 300.702 137.996 300.991C138.186 301.271 138.439 301.506 138.755 301.696L138.145 302.346C137.766 302.156 137.445 301.854 137.183 301.438C136.913 301.023 136.777 300.499 136.777 299.867C136.777 299.018 136.985 298.359 137.4 297.889C137.816 297.42 138.393 297.185 139.134 297.185H142.981L142.981 296.386H143.929V296.995ZM143.17 300.111C143.17 299.84 143.139 299.592 143.076 299.366C143.012 299.14 142.922 298.946 142.805 298.783C142.687 298.621 142.552 298.494 142.398 298.404C142.245 298.314 142.078 298.269 141.897 298.269H140.746V299.704C140.746 300.328 140.836 300.784 141.017 301.073C141.197 301.352 141.459 301.492 141.802 301.492H142.087C142.43 301.492 142.696 301.371 142.886 301.127C143.076 300.874 143.17 300.535 143.17 300.111ZM143.929 292.949L136.94 295.401V294.318L140.407 293.098L142.791 292.34V292.272L140.407 291.514L136.94 290.268V289.225L143.929 291.69V292.949ZM135.301 286.834C135.301 287.068 135.246 287.24 135.138 287.348C135.021 287.448 134.872 287.497 134.691 287.497H134.515C134.334 287.497 134.19 287.448 134.082 287.348C133.964 287.24 133.906 287.068 133.906 286.834C133.906 286.599 133.964 286.432 134.082 286.332C134.19 286.224 134.334 286.17 134.515 286.17H134.691C134.872 286.17 135.021 286.224 135.138 286.332C135.246 286.432 135.301 286.599 135.301 286.834ZM136.94 287.375V286.292H143.929V287.375H136.94ZM143.929 283.538H136.94V282.454H138.077V282.4C137.68 282.228 137.364 281.989 137.129 281.682C136.894 281.366 136.777 280.946 136.777 280.422C136.777 279.7 137.012 279.131 137.481 278.715C137.942 278.291 138.597 278.079 139.446 278.079H143.929V279.162H139.635C138.38 279.162 137.752 279.691 137.752 280.747C137.752 280.964 137.779 281.176 137.834 281.384C137.888 281.583 137.969 281.763 138.077 281.926C138.186 282.088 138.326 282.219 138.497 282.318C138.66 282.409 138.854 282.454 139.08 282.454H143.929V283.538ZM144.701 269.495C145.423 269.495 145.952 269.78 146.286 270.349C146.629 270.909 146.801 271.753 146.801 272.882C146.801 273.974 146.652 274.76 146.354 275.239C146.056 275.717 145.631 275.956 145.08 275.956C144.701 275.956 144.403 275.857 144.186 275.658C143.979 275.46 143.825 275.189 143.726 274.846H143.577C143.378 275.261 143.053 275.469 142.602 275.469C142.249 275.469 141.983 275.356 141.802 275.13C141.613 274.904 141.473 274.615 141.382 274.263H141.328C141.13 274.679 140.845 275.004 140.475 275.239C140.105 275.464 139.676 275.577 139.188 275.577C138.836 275.577 138.511 275.514 138.213 275.388C137.915 275.261 137.662 275.085 137.454 274.859C137.238 274.624 137.071 274.349 136.953 274.033C136.836 273.708 136.777 273.347 136.777 272.949C136.777 272.453 136.867 272.01 137.048 271.622H136.926C136.655 271.622 136.434 271.559 136.262 271.432C136.082 271.306 135.991 271.098 135.991 270.809V269.766H136.94V271.094H137.387C137.603 270.841 137.865 270.647 138.172 270.511C138.47 270.367 138.809 270.295 139.188 270.295C139.54 270.295 139.865 270.358 140.163 270.484C140.461 270.611 140.719 270.791 140.935 271.026C141.143 271.252 141.306 271.527 141.423 271.852C141.54 272.177 141.599 272.539 141.599 272.936C141.599 273.162 141.577 273.387 141.531 273.613C141.595 273.848 141.689 274.06 141.816 274.25C141.933 274.439 142.1 274.534 142.317 274.534C142.525 274.534 142.665 274.435 142.737 274.236C142.809 274.038 142.845 273.78 142.845 273.464V271.974C142.845 271.107 143.012 270.48 143.347 270.091C143.672 269.694 144.123 269.495 144.701 269.495ZM144.782 270.511C144.502 270.511 144.277 270.62 144.105 270.836C143.943 271.044 143.861 271.419 143.861 271.961V274.29C144.06 274.724 144.376 274.941 144.809 274.941C145.116 274.941 145.378 274.828 145.595 274.602C145.812 274.367 145.92 273.974 145.92 273.423V272.421C145.92 271.816 145.825 271.347 145.636 271.012C145.446 270.678 145.162 270.511 144.782 270.511ZM140.732 272.936C140.732 272.475 140.624 272.11 140.407 271.839C140.181 271.568 139.838 271.432 139.378 271.432H138.999C138.538 271.432 138.199 271.568 137.983 271.839C137.757 272.11 137.644 272.475 137.644 272.936C137.644 273.396 137.757 273.762 137.983 274.033C138.199 274.304 138.538 274.439 138.999 274.439H139.378C139.838 274.439 140.181 274.304 140.407 274.033C140.624 273.762 140.732 273.396 140.732 272.936ZM144.091 265.68C144.091 266.33 143.97 266.877 143.726 267.319C143.473 267.753 143.139 268.127 142.723 268.444L142.1 267.671C142.444 267.401 142.71 267.098 142.9 266.764C143.08 266.43 143.17 266.042 143.17 265.599C143.17 265.139 143.071 264.782 142.872 264.529C142.674 264.267 142.394 264.136 142.033 264.136C141.762 264.136 141.531 264.226 141.342 264.407C141.143 264.579 141.008 264.895 140.935 265.355L140.854 265.911C140.809 266.236 140.741 266.534 140.651 266.805C140.552 267.075 140.425 267.315 140.272 267.522C140.109 267.721 139.911 267.879 139.676 267.997C139.441 268.105 139.161 268.159 138.836 268.159C138.493 268.159 138.195 268.096 137.942 267.969C137.68 267.843 137.463 267.671 137.292 267.455C137.12 267.229 136.994 266.963 136.913 266.656C136.822 266.349 136.777 266.019 136.777 265.667C136.777 265.098 136.876 264.624 137.075 264.245C137.274 263.856 137.549 263.518 137.901 263.229L138.552 263.947C138.335 264.1 138.141 264.326 137.969 264.624C137.788 264.922 137.698 265.297 137.698 265.748C137.698 266.2 137.798 266.543 137.996 266.777C138.186 267.003 138.448 267.116 138.782 267.116C139.125 267.116 139.373 267.003 139.527 266.777C139.68 266.543 139.793 266.209 139.865 265.775L139.947 265.233C140.064 264.457 140.29 263.906 140.624 263.581C140.949 263.256 141.378 263.093 141.911 263.093C142.588 263.093 143.121 263.323 143.509 263.784C143.897 264.245 144.091 264.877 144.091 265.68Z" fill="#263238"/>
<g opacity="0.16">
<rect x="155.279" y="320.578" width="124.164" height="24.8328" rx="12.4164" transform="rotate(-90 155.279 320.578)" fill="#263238"/>
</g>
<path d="M173.411 307.634C173.411 308.401 173.267 309.056 172.978 309.598C172.68 310.14 172.273 310.6 171.759 310.979L171.054 310.14C171.497 309.805 171.835 309.435 172.07 309.029C172.296 308.622 172.409 308.144 172.409 307.593C172.409 306.916 172.246 306.401 171.921 306.049C171.596 305.688 171.163 305.507 170.621 305.507C170.169 305.507 169.822 305.643 169.578 305.913C169.334 306.184 169.14 306.631 168.995 307.254L168.819 308.026C168.621 308.893 168.323 309.557 167.925 310.018C167.519 310.469 166.95 310.695 166.219 310.695C165.803 310.695 165.433 310.618 165.108 310.465C164.783 310.311 164.512 310.099 164.295 309.828C164.079 309.548 163.916 309.218 163.808 308.839C163.69 308.451 163.632 308.026 163.632 307.566C163.632 306.853 163.763 306.243 164.024 305.737C164.286 305.223 164.67 304.789 165.176 304.437L165.799 305.29C165.438 305.552 165.153 305.868 164.945 306.239C164.738 306.609 164.634 307.069 164.634 307.62C164.634 308.225 164.765 308.704 165.027 309.056C165.28 309.399 165.663 309.571 166.178 309.571C166.63 309.571 166.973 309.426 167.208 309.137C167.433 308.839 167.614 308.392 167.749 307.796L167.925 307.024C168.133 306.094 168.449 305.421 168.874 305.006C169.298 304.591 169.862 304.383 170.567 304.383C171 304.383 171.393 304.46 171.745 304.613C172.097 304.758 172.395 304.97 172.639 305.25C172.883 305.53 173.073 305.873 173.208 306.279C173.343 306.676 173.411 307.128 173.411 307.634ZM172.111 297.768V297.822C172.273 297.894 172.436 297.984 172.598 298.093C172.752 298.192 172.892 298.318 173.018 298.472C173.136 298.625 173.231 298.81 173.303 299.027C173.375 299.244 173.411 299.497 173.411 299.786C173.411 300.508 173.181 301.082 172.72 301.506C172.251 301.93 171.592 302.143 170.743 302.143H166.259V301.059H170.553C171.808 301.059 172.436 300.526 172.436 299.461C172.436 299.244 172.409 299.036 172.355 298.838C172.3 298.63 172.219 298.449 172.111 298.296C172.003 298.133 171.867 298.007 171.705 297.917C171.533 297.817 171.33 297.768 171.095 297.768H166.259V296.684H173.249V297.768H172.111ZM163.225 293.925V292.841H167.397V292.787C166.955 292.606 166.63 292.345 166.422 292.001C166.205 291.649 166.097 291.229 166.097 290.742C166.097 290.308 166.183 289.915 166.354 289.563C166.526 289.211 166.77 288.913 167.086 288.669C167.402 288.416 167.785 288.227 168.237 288.1C168.688 287.965 169.194 287.897 169.754 287.897C170.314 287.897 170.82 287.965 171.271 288.1C171.723 288.227 172.106 288.416 172.422 288.669C172.738 288.913 172.982 289.211 173.154 289.563C173.325 289.915 173.411 290.308 173.411 290.742C173.411 291.69 172.978 292.372 172.111 292.787V292.841H173.249V293.925H163.225ZM172.436 291.04C172.436 290.426 172.246 289.943 171.867 289.59C171.479 289.238 170.973 289.062 170.35 289.062H169.158C168.535 289.062 168.034 289.238 167.654 289.59C167.266 289.943 167.072 290.426 167.072 291.04C167.072 291.284 167.108 291.518 167.18 291.744C167.244 291.961 167.334 292.15 167.451 292.313C167.569 292.476 167.713 292.606 167.885 292.706C168.047 292.796 168.223 292.841 168.413 292.841H171.014C171.239 292.841 171.443 292.796 171.623 292.706C171.795 292.606 171.944 292.476 172.07 292.313C172.188 292.15 172.278 291.961 172.341 291.744C172.404 291.518 172.436 291.284 172.436 291.04ZM173.411 283.517C173.411 284.167 173.289 284.713 173.045 285.156C172.793 285.589 172.459 285.964 172.043 286.28L171.42 285.508C171.763 285.237 172.03 284.934 172.219 284.6C172.4 284.266 172.49 283.878 172.49 283.435C172.49 282.975 172.391 282.618 172.192 282.365C171.993 282.103 171.714 281.972 171.352 281.972C171.081 281.972 170.851 282.063 170.662 282.243C170.463 282.415 170.327 282.731 170.255 283.191L170.174 283.747C170.129 284.072 170.061 284.37 169.971 284.641C169.871 284.912 169.745 285.151 169.591 285.359C169.429 285.557 169.23 285.715 168.995 285.833C168.761 285.941 168.481 285.995 168.156 285.995C167.813 285.995 167.515 285.932 167.262 285.806C167 285.679 166.783 285.508 166.612 285.291C166.44 285.065 166.314 284.799 166.232 284.492C166.142 284.185 166.097 283.855 166.097 283.503C166.097 282.934 166.196 282.46 166.395 282.081C166.593 281.692 166.869 281.354 167.221 281.065L167.871 281.783C167.654 281.936 167.46 282.162 167.289 282.46C167.108 282.758 167.018 283.133 167.018 283.584C167.018 284.036 167.117 284.379 167.316 284.614C167.506 284.839 167.767 284.952 168.101 284.952C168.445 284.952 168.693 284.839 168.846 284.614C169 284.379 169.113 284.045 169.185 283.611L169.266 283.07C169.384 282.293 169.61 281.742 169.944 281.417C170.269 281.092 170.698 280.929 171.23 280.929C171.908 280.929 172.44 281.16 172.829 281.62C173.217 282.081 173.411 282.713 173.411 283.517ZM173.411 275.963C173.411 276.451 173.325 276.889 173.154 277.277C172.982 277.665 172.738 277.995 172.422 278.266C172.106 278.528 171.723 278.731 171.271 278.875C170.82 279.011 170.314 279.079 169.754 279.079C169.194 279.079 168.688 279.011 168.237 278.875C167.785 278.731 167.402 278.528 167.086 278.266C166.77 277.995 166.526 277.665 166.354 277.277C166.183 276.889 166.097 276.451 166.097 275.963C166.097 275.268 166.25 274.713 166.557 274.297C166.855 273.873 167.248 273.557 167.736 273.349L168.196 274.257C167.835 274.383 167.555 274.591 167.357 274.88C167.158 275.169 167.059 275.53 167.059 275.963C167.059 276.288 167.113 276.573 167.221 276.817C167.32 277.06 167.465 277.264 167.654 277.426C167.835 277.589 168.056 277.711 168.318 277.792C168.571 277.873 168.851 277.914 169.158 277.914H170.35C170.964 277.914 171.47 277.751 171.867 277.426C172.255 277.092 172.449 276.604 172.449 275.963C172.449 275.087 172.043 274.455 171.23 274.067L171.759 273.281C172.264 273.507 172.666 273.846 172.964 274.297C173.262 274.74 173.411 275.295 173.411 275.963ZM173.249 271.3H166.259V270.217H167.546V270.149C167.212 270.022 166.914 269.797 166.652 269.472C166.39 269.146 166.259 268.699 166.259 268.131V267.711H167.343V268.347C167.343 268.934 167.456 269.395 167.682 269.729C167.898 270.054 168.174 270.217 168.508 270.217H173.249V271.3ZM164.62 265.333C164.62 265.568 164.566 265.74 164.458 265.848C164.34 265.947 164.191 265.997 164.011 265.997H163.835C163.654 265.997 163.51 265.947 163.401 265.848C163.284 265.74 163.225 265.568 163.225 265.333C163.225 265.098 163.284 264.931 163.401 264.832C163.51 264.724 163.654 264.67 163.835 264.67H164.011C164.191 264.67 164.34 264.724 164.458 264.832C164.566 264.931 164.62 265.098 164.62 265.333ZM166.259 265.875V264.791H173.249V265.875H166.259ZM166.259 262.037V260.954H167.397V260.899C166.955 260.719 166.63 260.457 166.422 260.114C166.205 259.762 166.097 259.342 166.097 258.854C166.097 258.421 166.183 258.028 166.354 257.676C166.526 257.324 166.77 257.026 167.086 256.782C167.402 256.529 167.785 256.339 168.237 256.213C168.688 256.077 169.194 256.01 169.754 256.01C170.314 256.01 170.82 256.077 171.271 256.213C171.723 256.339 172.106 256.529 172.422 256.782C172.738 257.026 172.982 257.324 173.154 257.676C173.325 258.028 173.411 258.421 173.411 258.854C173.411 259.802 172.978 260.484 172.111 260.899V260.954H175.958V262.037H166.259ZM172.436 259.152C172.436 258.538 172.246 258.055 171.867 257.703C171.479 257.351 170.973 257.175 170.35 257.175H169.158C168.535 257.175 168.034 257.351 167.654 257.703C167.266 258.055 167.072 258.538 167.072 259.152C167.072 259.396 167.108 259.631 167.18 259.856C167.244 260.073 167.334 260.263 167.451 260.425C167.569 260.588 167.713 260.719 167.885 260.818C168.047 260.908 168.223 260.954 168.413 260.954H171.014C171.239 260.954 171.443 260.908 171.623 260.818C171.795 260.719 171.944 260.588 172.07 260.425C172.188 260.263 172.278 260.073 172.341 259.856C172.404 259.631 172.436 259.396 172.436 259.152ZM173.249 252.264C173.249 252.643 173.145 252.932 172.937 253.131C172.72 253.32 172.44 253.415 172.097 253.415H167.208V254.566H166.259V253.916C166.259 253.681 166.214 253.523 166.124 253.442C166.025 253.352 165.858 253.307 165.623 253.307H164.322V252.331H166.259V250.801H167.208V252.331H172.3V250.909H173.249V252.264ZM164.62 248.066C164.62 248.301 164.566 248.472 164.458 248.58C164.34 248.68 164.191 248.729 164.011 248.729H163.835C163.654 248.729 163.51 248.68 163.401 248.58C163.284 248.472 163.225 248.301 163.225 248.066C163.225 247.831 163.284 247.664 163.401 247.565C163.51 247.456 163.654 247.402 163.835 247.402H164.011C164.191 247.402 164.34 247.456 164.458 247.565C164.566 247.664 164.62 247.831 164.62 248.066ZM166.259 248.608V247.524H173.249V248.608H166.259ZM173.411 242.128C173.411 242.598 173.325 243.027 173.154 243.415C172.982 243.804 172.738 244.138 172.422 244.418C172.097 244.689 171.714 244.901 171.271 245.054C170.82 245.208 170.314 245.284 169.754 245.284C169.203 245.284 168.702 245.208 168.25 245.054C167.799 244.901 167.415 244.689 167.099 244.418C166.774 244.138 166.526 243.804 166.354 243.415C166.183 243.027 166.097 242.598 166.097 242.128C166.097 241.659 166.183 241.234 166.354 240.855C166.526 240.467 166.774 240.133 167.099 239.853C167.415 239.573 167.799 239.356 168.25 239.203C168.702 239.049 169.203 238.972 169.754 238.972C170.314 238.972 170.82 239.049 171.271 239.203C171.714 239.356 172.097 239.573 172.422 239.853C172.738 240.133 172.982 240.467 173.154 240.855C173.325 241.234 173.411 241.659 173.411 242.128ZM172.449 242.128C172.449 241.542 172.269 241.063 171.908 240.693C171.546 240.322 170.996 240.137 170.255 240.137H169.253C168.512 240.137 167.962 240.322 167.6 240.693C167.239 241.063 167.059 241.542 167.059 242.128C167.059 242.715 167.239 243.194 167.6 243.564C167.962 243.934 168.512 244.12 169.253 244.12H170.255C170.996 244.12 171.546 243.934 171.908 243.564C172.269 243.194 172.449 242.715 172.449 242.128ZM173.249 236.739H166.259V235.655H167.397V235.601C167 235.429 166.684 235.19 166.449 234.883C166.214 234.567 166.097 234.147 166.097 233.623C166.097 232.901 166.332 232.332 166.801 231.917C167.262 231.492 167.916 231.28 168.765 231.28H173.249V232.364H168.955C167.7 232.364 167.072 232.892 167.072 233.948C167.072 234.165 167.099 234.377 167.153 234.585C167.208 234.784 167.289 234.964 167.397 235.127C167.506 235.289 167.645 235.42 167.817 235.52C167.98 235.61 168.174 235.655 168.399 235.655H173.249V236.739ZM173.411 226.489C173.411 227.139 173.289 227.686 173.045 228.128C172.793 228.562 172.459 228.936 172.043 229.252L171.42 228.48C171.763 228.209 172.03 227.907 172.219 227.573C172.4 227.239 172.49 226.85 172.49 226.408C172.49 225.947 172.391 225.591 172.192 225.338C171.993 225.076 171.714 224.945 171.352 224.945C171.081 224.945 170.851 225.035 170.662 225.216C170.463 225.388 170.327 225.704 170.255 226.164L170.174 226.72C170.129 227.045 170.061 227.343 169.971 227.614C169.871 227.884 169.745 228.124 169.591 228.331C169.429 228.53 169.23 228.688 168.995 228.805C168.761 228.914 168.481 228.968 168.156 228.968C167.813 228.968 167.515 228.905 167.262 228.778C167 228.652 166.783 228.48 166.612 228.264C166.44 228.038 166.314 227.772 166.232 227.465C166.142 227.157 166.097 226.828 166.097 226.476C166.097 225.907 166.196 225.433 166.395 225.053C166.593 224.665 166.869 224.327 167.221 224.038L167.871 224.755C167.654 224.909 167.46 225.135 167.289 225.433C167.108 225.731 167.018 226.105 167.018 226.557C167.018 227.008 167.117 227.352 167.316 227.586C167.506 227.812 167.767 227.925 168.101 227.925C168.445 227.925 168.693 227.812 168.846 227.586C169 227.352 169.113 227.018 169.185 226.584L169.266 226.042C169.384 225.266 169.61 224.715 169.944 224.39C170.269 224.065 170.698 223.902 171.23 223.902C171.908 223.902 172.44 224.132 172.829 224.593C173.217 225.053 173.411 225.686 173.411 226.489Z" fill="#263238"/>
<g opacity="0.16">
<rect x="213.918" y="320.578" width="152.383" height="24.8328" rx="12.4164" transform="rotate(-90 213.918 320.578)" fill="#263238"/>
</g>
<path d="M223.923 302.92V302.988L225.508 303.787L229.626 306.049L225.508 308.311L223.923 309.11V309.178H231.888V310.289H222.434V308.771L227.527 306.062V305.995L222.434 303.272V301.809H231.888V302.92H223.923ZM224.899 294.646V293.576L233.513 296.705C233.721 296.786 233.893 296.867 234.028 296.948C234.173 297.03 234.286 297.129 234.367 297.246C234.448 297.364 234.507 297.513 234.543 297.693C234.579 297.865 234.597 298.077 234.597 298.33V298.885H233.649V297.788L232.159 297.26L224.899 299.874V298.791L229.653 297.111L230.791 296.786V296.718L229.653 296.339L224.899 294.646ZM231.888 287.981H222.434V286.844H230.886V282.821H231.888V287.981ZM232.051 278.357C232.051 278.835 231.965 279.269 231.793 279.657C231.622 280.036 231.378 280.366 231.062 280.646C230.737 280.917 230.353 281.129 229.91 281.283C229.459 281.427 228.953 281.499 228.393 281.499C227.843 281.499 227.341 281.427 226.89 281.283C226.438 281.129 226.055 280.917 225.739 280.646C225.413 280.366 225.165 280.036 224.994 279.657C224.822 279.269 224.736 278.835 224.736 278.357C224.736 277.887 224.822 277.467 224.994 277.097C225.165 276.727 225.404 276.411 225.711 276.149C226.009 275.887 226.366 275.688 226.782 275.553C227.197 275.409 227.653 275.336 228.15 275.336H228.664V280.362H228.989C229.287 280.362 229.567 280.316 229.829 280.226C230.082 280.127 230.303 279.991 230.493 279.82C230.683 279.639 230.832 279.422 230.94 279.17C231.048 278.908 231.102 278.614 231.102 278.289C231.102 277.847 230.999 277.463 230.791 277.138C230.583 276.804 230.285 276.546 229.897 276.366L230.452 275.594C230.931 275.819 231.319 276.172 231.617 276.65C231.906 277.129 232.051 277.698 232.051 278.357ZM225.644 278.357C225.644 278.655 225.698 278.926 225.806 279.17C225.906 279.413 226.05 279.626 226.24 279.806C226.429 279.978 226.655 280.113 226.917 280.213C227.17 280.312 227.45 280.362 227.757 280.362H227.852V276.501H227.703C227.08 276.501 226.583 276.673 226.213 277.016C225.833 277.35 225.644 277.797 225.644 278.357ZM225.847 272.72V273.858H224.899V272.72H223.49C223.002 272.72 222.61 272.593 222.312 272.341C222.014 272.088 221.865 271.704 221.865 271.189V270.133H222.813V271.636H224.899V270.133H225.847V271.636H231.888V272.72H225.847ZM231.888 266.712C231.888 267.091 231.784 267.38 231.577 267.579C231.36 267.768 231.08 267.863 230.737 267.863H225.847V269.015H224.899V268.364C224.899 268.13 224.854 267.972 224.763 267.89C224.664 267.8 224.497 267.755 224.262 267.755H222.962V266.78H224.899V265.249H225.847V266.78H230.94V265.357H231.888V266.712ZM232.051 260.467C232.051 260.937 231.965 261.366 231.793 261.754C231.622 262.142 231.378 262.477 231.062 262.757C230.737 263.027 230.353 263.24 229.91 263.393C229.459 263.547 228.953 263.623 228.393 263.623C227.843 263.623 227.341 263.547 226.89 263.393C226.438 263.24 226.055 263.027 225.739 262.757C225.413 262.477 225.165 262.142 224.994 261.754C224.822 261.366 224.736 260.937 224.736 260.467C224.736 259.998 224.822 259.573 224.994 259.194C225.165 258.806 225.413 258.472 225.739 258.192C226.055 257.912 226.438 257.695 226.89 257.542C227.341 257.388 227.843 257.311 228.393 257.311C228.953 257.311 229.459 257.388 229.91 257.542C230.353 257.695 230.737 257.912 231.062 258.192C231.378 258.472 231.622 258.806 231.793 259.194C231.965 259.573 232.051 259.998 232.051 260.467ZM231.089 260.467C231.089 259.88 230.908 259.402 230.547 259.032C230.186 258.661 229.635 258.476 228.895 258.476H227.892C227.152 258.476 226.601 258.661 226.24 259.032C225.879 259.402 225.698 259.88 225.698 260.467C225.698 261.054 225.879 261.533 226.24 261.903C226.601 262.273 227.152 262.459 227.892 262.459H228.895C229.635 262.459 230.186 262.273 230.547 261.903C230.908 261.533 231.089 261.054 231.089 260.467ZM231.888 253.639L224.899 256.091V255.007L228.366 253.788L230.75 253.03V252.962L228.366 252.204L224.899 250.957V249.914L231.888 252.38V253.639ZM232.051 245.543C232.051 246.022 231.965 246.455 231.793 246.844C231.622 247.223 231.378 247.553 231.062 247.832C230.737 248.103 230.353 248.316 229.91 248.469C229.459 248.614 228.953 248.686 228.393 248.686C227.843 248.686 227.341 248.614 226.89 248.469C226.438 248.316 226.055 248.103 225.739 247.832C225.413 247.553 225.165 247.223 224.994 246.844C224.822 246.455 224.736 246.022 224.736 245.543C224.736 245.074 224.822 244.654 224.994 244.284C225.165 243.913 225.404 243.597 225.711 243.335C226.009 243.074 226.366 242.875 226.782 242.739C227.197 242.595 227.653 242.523 228.15 242.523H228.664V247.548H228.989C229.287 247.548 229.567 247.503 229.829 247.413C230.082 247.313 230.303 247.178 230.493 247.006C230.683 246.826 230.832 246.609 230.94 246.356C231.048 246.094 231.102 245.801 231.102 245.476C231.102 245.033 230.999 244.649 230.791 244.324C230.583 243.99 230.285 243.733 229.897 243.552L230.452 242.78C230.931 243.006 231.319 243.358 231.617 243.837C231.906 244.315 232.051 244.884 232.051 245.543ZM225.644 245.543C225.644 245.841 225.698 246.112 225.806 246.356C225.906 246.6 226.05 246.812 226.24 246.993C226.429 247.164 226.655 247.3 226.917 247.399C227.17 247.498 227.45 247.548 227.757 247.548H227.852V243.688H227.703C227.08 243.688 226.583 243.859 226.213 244.202C225.833 244.536 225.644 244.983 225.644 245.543ZM231.888 240.286H224.899V239.202H226.186V239.134C225.851 239.008 225.553 238.782 225.292 238.457C225.03 238.132 224.899 237.685 224.899 237.116V236.696H225.982V237.333C225.982 237.92 226.095 238.38 226.321 238.714C226.538 239.039 226.813 239.202 227.147 239.202H231.888V240.286ZM232.051 232.761C232.051 233.411 231.929 233.957 231.685 234.4C231.432 234.833 231.098 235.208 230.683 235.524L230.059 234.752C230.403 234.481 230.669 234.179 230.859 233.845C231.039 233.51 231.13 233.122 231.13 232.68C231.13 232.219 231.03 231.862 230.832 231.61C230.633 231.348 230.353 231.217 229.992 231.217C229.721 231.217 229.491 231.307 229.301 231.488C229.102 231.659 228.967 231.975 228.895 232.436L228.813 232.991C228.768 233.316 228.7 233.614 228.61 233.885C228.511 234.156 228.384 234.395 228.231 234.603C228.068 234.802 227.87 234.96 227.635 235.077C227.4 235.186 227.12 235.24 226.795 235.24C226.452 235.24 226.154 235.177 225.901 235.05C225.639 234.924 225.422 234.752 225.251 234.535C225.079 234.31 224.953 234.043 224.872 233.736C224.781 233.429 224.736 233.1 224.736 232.747C224.736 232.179 224.836 231.704 225.034 231.325C225.233 230.937 225.508 230.598 225.86 230.309L226.511 231.027C226.294 231.181 226.1 231.406 225.928 231.704C225.748 232.002 225.657 232.377 225.657 232.829C225.657 233.28 225.757 233.623 225.955 233.858C226.145 234.084 226.407 234.197 226.741 234.197C227.084 234.197 227.332 234.084 227.486 233.858C227.639 233.623 227.752 233.289 227.825 232.856L227.906 232.314C228.023 231.537 228.249 230.987 228.583 230.661C228.908 230.336 229.337 230.174 229.87 230.174C230.547 230.174 231.08 230.404 231.468 230.865C231.856 231.325 232.051 231.957 232.051 232.761Z" fill="#263238"/>
<g opacity="0.16">
<rect x="243.238" y="320.578" width="86.9149" height="24.8328" rx="12.4164" transform="rotate(-90 243.238 320.578)" fill="#263238"/>
</g>
<path d="M259.826 304.166V304.207C260.269 304.324 260.639 304.613 260.937 305.074C261.226 305.525 261.37 306.112 261.37 306.834C261.37 307.412 261.266 307.945 261.059 308.433C260.842 308.911 260.531 309.322 260.124 309.665C259.709 310.009 259.199 310.279 258.594 310.478C257.979 310.668 257.275 310.763 256.48 310.763C255.695 310.763 255 310.668 254.395 310.478C253.78 310.289 253.27 310.018 252.864 309.665C252.449 309.313 252.132 308.889 251.916 308.392C251.699 307.896 251.591 307.345 251.591 306.74C251.591 305.891 251.78 305.182 252.16 304.613C252.539 304.044 253.04 303.606 253.663 303.299L254.232 304.234C253.726 304.451 253.329 304.776 253.04 305.209C252.751 305.633 252.607 306.144 252.607 306.74C252.607 307.155 252.683 307.534 252.837 307.877C252.981 308.221 253.189 308.519 253.46 308.771C253.731 309.015 254.056 309.205 254.435 309.34C254.814 309.476 255.239 309.544 255.708 309.544H257.239C257.709 309.544 258.138 309.476 258.526 309.34C258.905 309.205 259.23 309.015 259.501 308.771C259.772 308.519 259.984 308.212 260.138 307.85C260.282 307.489 260.354 307.083 260.354 306.631C260.354 306.306 260.314 305.999 260.233 305.71C260.142 305.412 260.011 305.155 259.84 304.938C259.668 304.712 259.456 304.536 259.203 304.41C258.941 304.283 258.634 304.22 258.282 304.22H257.347V306.306H256.345V303.11H261.208V304.166H259.826ZM252.579 299.985C252.579 300.22 252.525 300.392 252.417 300.5C252.3 300.599 252.151 300.649 251.97 300.649H251.794C251.613 300.649 251.469 300.599 251.36 300.5C251.243 300.392 251.184 300.22 251.184 299.985C251.184 299.751 251.243 299.584 251.36 299.484C251.469 299.376 251.613 299.322 251.794 299.322H251.97C252.151 299.322 252.3 299.376 252.417 299.484C252.525 299.584 252.579 299.751 252.579 299.985ZM254.218 300.527V299.444H261.208V300.527H254.218ZM255.167 296.31V297.448H254.218V296.31H252.81C252.322 296.31 251.929 296.184 251.631 295.931C251.333 295.678 251.184 295.294 251.184 294.78V293.723H252.132V295.227H254.218V293.723H255.167V295.227H261.208V296.31H255.167ZM261.208 290.302C261.208 290.681 261.104 290.97 260.896 291.169C260.68 291.359 260.4 291.454 260.056 291.454H255.167V292.605H254.218V291.955C254.218 291.72 254.173 291.562 254.083 291.481C253.984 291.39 253.817 291.345 253.582 291.345H252.281V290.37H254.218V288.839H255.167V290.37H260.26V288.948H261.208V290.302ZM261.37 284.547C261.37 285.197 261.248 285.743 261.005 286.186C260.752 286.619 260.418 286.994 260.002 287.31L259.379 286.538C259.722 286.267 259.989 285.964 260.178 285.63C260.359 285.296 260.449 284.908 260.449 284.465C260.449 284.005 260.35 283.648 260.151 283.395C259.953 283.133 259.673 283.002 259.311 283.002C259.041 283.002 258.81 283.093 258.621 283.273C258.422 283.445 258.287 283.761 258.214 284.221L258.133 284.777C258.088 285.102 258.02 285.4 257.93 285.671C257.83 285.942 257.704 286.181 257.551 286.389C257.388 286.587 257.189 286.745 256.955 286.863C256.72 286.971 256.44 287.025 256.115 287.025C255.772 287.025 255.474 286.962 255.221 286.836C254.959 286.709 254.742 286.538 254.571 286.321C254.399 286.095 254.273 285.829 254.191 285.522C254.101 285.215 254.056 284.885 254.056 284.533C254.056 283.964 254.155 283.49 254.354 283.111C254.553 282.722 254.828 282.384 255.18 282.095L255.83 282.813C255.614 282.966 255.419 283.192 255.248 283.49C255.067 283.788 254.977 284.163 254.977 284.614C254.977 285.066 255.076 285.409 255.275 285.644C255.465 285.869 255.726 285.982 256.061 285.982C256.404 285.982 256.652 285.869 256.806 285.644C256.959 285.409 257.072 285.075 257.144 284.641L257.225 284.1C257.343 283.323 257.569 282.772 257.903 282.447C258.228 282.122 258.657 281.959 259.19 281.959C259.867 281.959 260.4 282.19 260.788 282.65C261.176 283.111 261.37 283.743 261.37 284.547Z" fill="#263238"/>
<g opacity="0.16">
<rect x="184.599" y="320.578" width="177.216" height="24.8328" rx="12.4164" transform="rotate(-90 184.599 320.578)" fill="#263238"/>
</g>
<path d="M202.731 307.634C202.731 308.401 202.586 309.056 202.297 309.598C201.999 310.14 201.593 310.6 201.078 310.979L200.374 310.14C200.817 309.805 201.155 309.435 201.39 309.029C201.616 308.622 201.729 308.144 201.729 307.593C201.729 306.916 201.566 306.401 201.241 306.049C200.916 305.688 200.482 305.507 199.941 305.507C199.489 305.507 199.141 305.643 198.898 305.913C198.654 306.184 198.46 306.631 198.315 307.254L198.139 308.026C197.94 308.893 197.642 309.557 197.245 310.018C196.839 310.469 196.27 310.695 195.538 310.695C195.123 310.695 194.753 310.618 194.428 310.465C194.103 310.311 193.832 310.099 193.615 309.828C193.398 309.548 193.236 309.218 193.127 308.839C193.01 308.451 192.951 308.026 192.951 307.566C192.951 306.853 193.082 306.243 193.344 305.737C193.606 305.223 193.99 304.789 194.495 304.437L195.119 305.29C194.757 305.552 194.473 305.868 194.265 306.239C194.057 306.609 193.954 307.069 193.954 307.62C193.954 308.225 194.085 308.704 194.346 309.056C194.599 309.399 194.983 309.571 195.498 309.571C195.949 309.571 196.292 309.426 196.527 309.137C196.753 308.839 196.934 308.392 197.069 307.796L197.245 307.024C197.453 306.094 197.769 305.421 198.193 305.006C198.618 304.591 199.182 304.383 199.886 304.383C200.32 304.383 200.713 304.46 201.065 304.613C201.417 304.758 201.715 304.97 201.959 305.25C202.203 305.53 202.392 305.873 202.528 306.279C202.663 306.676 202.731 307.128 202.731 307.634ZM192.545 302.075V300.991H198.898V300.937L197.706 299.867L195.579 297.889V296.576L198.342 299.163L202.568 296.318V297.632L199.006 299.948L200.076 300.991H202.568V302.075H192.545ZM193.94 293.939C193.94 294.173 193.886 294.345 193.778 294.453C193.66 294.553 193.511 294.602 193.331 294.602H193.154C192.974 294.602 192.829 294.553 192.721 294.453C192.604 294.345 192.545 294.173 192.545 293.939C192.545 293.704 192.604 293.537 192.721 293.437C192.829 293.329 192.974 293.275 193.154 293.275H193.331C193.511 293.275 193.66 293.329 193.778 293.437C193.886 293.537 193.94 293.704 193.94 293.939ZM195.579 294.48V293.397H202.568V294.48H195.579ZM202.568 290.643H195.579V289.559H196.717V289.505C196.32 289.333 196.003 289.094 195.769 288.787C195.534 288.471 195.417 288.051 195.417 287.527C195.417 286.805 195.651 286.236 196.121 285.821C196.581 285.396 197.236 285.184 198.085 285.184H202.568V286.268H198.275C197.019 286.268 196.392 286.796 196.392 287.852C196.392 288.069 196.419 288.281 196.473 288.489C196.527 288.688 196.608 288.868 196.717 289.031C196.825 289.193 196.965 289.324 197.137 289.424C197.299 289.514 197.493 289.559 197.719 289.559H202.568V290.643ZM202.731 279.892C202.731 280.38 202.645 280.817 202.474 281.206C202.302 281.594 202.058 281.924 201.742 282.195C201.426 282.456 201.042 282.66 200.591 282.804C200.139 282.94 199.634 283.007 199.074 283.007C198.514 283.007 198.008 282.94 197.557 282.804C197.105 282.66 196.721 282.456 196.405 282.195C196.089 281.924 195.845 281.594 195.674 281.206C195.502 280.817 195.417 280.38 195.417 279.892C195.417 279.197 195.57 278.641 195.877 278.226C196.175 277.801 196.568 277.485 197.055 277.278L197.516 278.185C197.155 278.312 196.875 278.519 196.676 278.808C196.478 279.097 196.378 279.458 196.378 279.892C196.378 280.217 196.432 280.501 196.541 280.745C196.64 280.989 196.785 281.192 196.974 281.355C197.155 281.517 197.376 281.639 197.638 281.72C197.891 281.802 198.171 281.842 198.478 281.842H199.67C200.284 281.842 200.789 281.68 201.187 281.355C201.575 281.021 201.769 280.533 201.769 279.892C201.769 279.016 201.363 278.384 200.55 277.996L201.078 277.21C201.584 277.436 201.986 277.774 202.284 278.226C202.582 278.668 202.731 279.224 202.731 279.892ZM202.568 270.149C202.568 270.556 202.46 270.849 202.243 271.03C202.027 271.201 201.756 271.31 201.431 271.355V271.423C201.864 271.576 202.189 271.829 202.406 272.181C202.623 272.533 202.731 272.953 202.731 273.441C202.731 274.181 202.541 274.759 202.162 275.175C201.783 275.581 201.268 275.784 200.618 275.784C199.959 275.784 199.453 275.545 199.101 275.066C198.749 274.579 198.573 273.825 198.573 272.804V271.423H197.882C197.385 271.423 197.006 271.558 196.744 271.829C196.482 272.1 196.351 272.515 196.351 273.075C196.351 273.5 196.446 273.856 196.636 274.145C196.825 274.425 197.078 274.66 197.394 274.85L196.785 275.5C196.405 275.31 196.085 275.008 195.823 274.592C195.552 274.177 195.417 273.653 195.417 273.021C195.417 272.172 195.624 271.513 196.04 271.043C196.455 270.574 197.033 270.339 197.773 270.339H201.62V269.54H202.568V270.149ZM201.81 273.265C201.81 272.994 201.778 272.746 201.715 272.52C201.652 272.294 201.562 272.1 201.444 271.937C201.327 271.775 201.191 271.648 201.038 271.558C200.884 271.468 200.717 271.423 200.537 271.423H199.385V272.858C199.385 273.481 199.476 273.937 199.656 274.226C199.837 274.506 200.099 274.646 200.442 274.646H200.726C201.069 274.646 201.336 274.524 201.525 274.281C201.715 274.028 201.81 273.689 201.81 273.265ZM202.568 267.542H195.579V266.458H196.866V266.39C196.532 266.264 196.234 266.038 195.972 265.713C195.71 265.388 195.579 264.941 195.579 264.372V263.952H196.663V264.589C196.663 265.176 196.776 265.636 197.001 265.97C197.218 266.296 197.493 266.458 197.828 266.458H202.568V267.542ZM202.731 259.555C202.731 260.034 202.645 260.467 202.474 260.855C202.302 261.235 202.058 261.564 201.742 261.844C201.417 262.115 201.033 262.327 200.591 262.481C200.139 262.625 199.634 262.697 199.074 262.697C198.523 262.697 198.022 262.625 197.57 262.481C197.119 262.327 196.735 262.115 196.419 261.844C196.094 261.564 195.845 261.235 195.674 260.855C195.502 260.467 195.417 260.034 195.417 259.555C195.417 259.085 195.502 258.666 195.674 258.295C195.845 257.925 196.085 257.609 196.392 257.347C196.69 257.085 197.046 256.887 197.462 256.751C197.877 256.607 198.333 256.534 198.83 256.534H199.345V261.56H199.67C199.968 261.56 200.248 261.515 200.509 261.424C200.762 261.325 200.984 261.189 201.173 261.018C201.363 260.837 201.512 260.621 201.62 260.368C201.729 260.106 201.783 259.812 201.783 259.487C201.783 259.045 201.679 258.661 201.471 258.336C201.264 258.002 200.966 257.744 200.577 257.564L201.133 256.792C201.611 257.018 201.999 257.37 202.297 257.848C202.586 258.327 202.731 258.896 202.731 259.555ZM196.324 259.555C196.324 259.853 196.378 260.124 196.487 260.368C196.586 260.611 196.73 260.824 196.92 261.004C197.11 261.176 197.335 261.311 197.597 261.411C197.85 261.51 198.13 261.56 198.437 261.56H198.532V257.699H198.383C197.76 257.699 197.263 257.871 196.893 258.214C196.514 258.548 196.324 258.995 196.324 259.555Z" fill="#263238"/>
</svg>
