<svg width="507" height="533" viewBox="0 0 507 533" fill="none" xmlns="http://www.w3.org/2000/svg">
<rect width="507" height="533" rx="18" fill="#191D21"/>
<g clip-path="url(#clip0_506_15893)">
<g opacity="0.24">
<g opacity="0.8">
<rect x="74" y="379" width="179.474" height="27.0904" rx="2.25753" transform="rotate(-90 74 379)" fill="#BDD6F5"/>
</g>
</g>
<g opacity="0.24">
<g opacity="0.8">
<rect x="110.12" y="379" width="144.482" height="27.0904" rx="2.25753" transform="rotate(-90 110.12 379)" fill="#BDD6F5"/>
</g>
</g>
<g opacity="0.24">
<g opacity="0.8">
<rect x="146.241" y="379" width="118.52" height="27.0904" rx="2.25753" transform="rotate(-90 146.241 379)" fill="#BDD6F5"/>
</g>
</g>
<g opacity="0.24">
<g opacity="0.8">
<rect x="182.361" y="379" width="90.3012" height="27.0904" rx="2.25753" transform="rotate(-90 182.361 379)" fill="#BDD6F5"/>
</g>
</g>
<g opacity="0.24">
<g opacity="0.8">
<rect x="218.482" y="379" width="44.0218" height="27.0904" rx="2.25753" transform="rotate(-90 218.482 379)" fill="#BDD6F5"/>
</g>
</g>
<g opacity="0.24">
<g opacity="0.8">
<rect x="254.602" y="379" width="18.0602" height="27.0904" rx="2.25753" transform="rotate(-90 254.602 379)" fill="#BDD6F5"/>
</g>
</g>
<g opacity="0.24">
<g opacity="0.8">
<rect x="290.723" y="379" width="11.2877" height="27.0904" rx="2.25753" transform="rotate(-90 290.723 379)" fill="#BDD6F5"/>
</g>
</g>
<g opacity="0.4">
<g opacity="0.8">
<rect x="74" y="379" width="146.739" height="27.0904" rx="2.25753" transform="rotate(-90 74 379)" fill="#BDD6F5"/>
</g>
</g>
<g opacity="0.4">
<g opacity="0.8">
<rect x="110.12" y="379" width="108.361" height="27.0904" rx="2.25753" transform="rotate(-90 110.12 379)" fill="#BDD6F5"/>
</g>
</g>
<g opacity="0.4">
<g opacity="0.8">
<rect x="146.241" y="379" width="88.0437" height="27.0904" rx="2.25753" transform="rotate(-90 146.241 379)" fill="#BDD6F5"/>
</g>
</g>
<g opacity="0.4">
<g opacity="0.8">
<rect x="182.361" y="379" width="72.241" height="27.0904" rx="2.25753" transform="rotate(-90 182.361 379)" fill="#BDD6F5"/>
</g>
</g>
<g opacity="0.4">
<g opacity="0.8">
<rect x="218.482" y="379" width="66.5971" height="27.0904" rx="2.25753" transform="rotate(-90 218.482 379)" fill="#BDD6F5"/>
</g>
</g>
<g opacity="0.4">
<g opacity="0.8">
<rect x="254.602" y="379" width="58.6958" height="27.0904" rx="2.25753" transform="rotate(-90 254.602 379)" fill="#BDD6F5"/>
</g>
</g>
<g opacity="0.4">
<g opacity="0.8">
<rect x="290.723" y="379" width="54.1807" height="27.0904" rx="2.25753" transform="rotate(-90 290.723 379)" fill="#BDD6F5"/>
</g>
</g>
<g opacity="0.4">
<g opacity="0.8">
<rect x="326.843" y="379" width="49.6657" height="27.0904" rx="2.25753" transform="rotate(-90 326.843 379)" fill="#BDD6F5"/>
</g>
</g>
<g opacity="0.4">
<g opacity="0.8">
<rect x="362.964" y="379" width="29.3479" height="27.0904" rx="2.25753" transform="rotate(-90 362.964 379)" fill="#BDD6F5"/>
</g>
</g>
<g opacity="0.4">
<g opacity="0.8">
<rect x="399.084" y="379" width="20.3178" height="27.0904" rx="2.25753" transform="rotate(-90 399.084 379)" fill="#BDD6F5"/>
</g>
</g>
<path d="M84.1212 364.484H89.7199C90.0811 364.484 90.4122 364.544 90.7132 364.665C91.0067 364.778 91.2588 364.947 91.4695 365.173C91.6727 365.398 91.8344 365.673 91.9548 365.997C92.0677 366.313 92.1242 366.674 92.1242 367.08C92.1242 367.472 92.0715 367.818 91.9661 368.119C91.8608 368.412 91.7103 368.668 91.5146 368.886C91.319 369.097 91.0857 369.27 90.8148 369.405C90.5439 369.541 90.2429 369.635 89.9118 369.688L89.5957 368.085C90.2805 367.957 90.6229 367.63 90.6229 367.103C90.6229 366.854 90.5439 366.644 90.3859 366.471C90.2278 366.29 89.9795 366.2 89.6409 366.2H85.4983V368.593H84.1212V364.484ZM92 356.491L90.1262 357.056V359.686L92 360.25V361.988L84.1212 359.392V357.27L92 354.708V356.491ZM85.6789 358.354V358.41L88.6701 359.279V357.473L85.6789 358.354ZM88.2751 349.52L86.6948 350.277V350.31H92V351.925H84.1212V350.051L87.8461 347.895L89.4264 347.139V347.105H84.1212V345.491H92V347.364L88.2751 349.52ZM84.1212 340.438H88.9523C89.5092 340.438 89.9268 340.329 90.2053 340.111C90.4762 339.892 90.6116 339.527 90.6116 339.016C90.6116 338.504 90.4762 338.139 90.2053 337.921C89.9268 337.702 89.5092 337.593 88.9523 337.593H84.1212V335.923H88.7717C89.3512 335.923 89.8553 335.979 90.2843 336.092C90.7057 336.197 91.0556 336.374 91.334 336.623C91.6049 336.871 91.8081 337.191 91.9436 337.582C92.0715 337.973 92.1355 338.451 92.1355 339.016C92.1355 339.58 92.0715 340.058 91.9436 340.449C91.8081 340.84 91.6049 341.16 91.334 341.409C91.0556 341.657 90.7057 341.838 90.2843 341.95C89.8553 342.056 89.3512 342.108 88.7717 342.108H84.1212V340.438ZM92 327.966L90.1262 328.53V331.16L92 331.724V333.463L84.1212 330.867V328.744L92 326.182V327.966ZM85.6789 329.828V329.885L88.6701 330.754V328.948L85.6789 329.828ZM92 321.683V323.399H84.1212V319.663C84.1212 319.302 84.1814 318.974 84.3018 318.681C84.4222 318.387 84.5953 318.139 84.8211 317.936C85.0393 317.725 85.3027 317.563 85.6112 317.45C85.9197 317.338 86.2621 317.281 86.6384 317.281C87.1726 317.281 87.6392 317.401 88.038 317.642C88.4369 317.876 88.7266 318.233 88.9072 318.715L92 317.168V319.076L89.1104 320.453V321.683H92ZM87.6655 319.877C87.6655 319.621 87.6016 319.422 87.4737 319.279C87.3382 319.128 87.1425 319.053 86.8867 319.053H86.39C86.1342 319.053 85.9423 319.128 85.8144 319.279C85.6789 319.422 85.6112 319.621 85.6112 319.877V321.683H87.6655V319.877ZM92 312.622H88.9185L84.1212 315.319V313.401L87.2592 311.707V311.685L84.1212 310.059V308.197L88.9072 310.895H92V312.622Z" fill="white"/>
<path d="M128.12 369.101H120.242V363.875H121.766V367.385H123.38V364.394H124.892V367.385H128.12V369.101ZM128.12 360.805H120.242V355.443H121.766V359.089H123.38V355.962H124.892V359.089H126.597V355.443H128.12V360.805ZM120.242 352.255V348.429C120.242 347.774 120.426 347.266 120.795 346.905C121.164 346.536 121.653 346.352 122.262 346.352C122.563 346.352 122.819 346.393 123.03 346.476C123.24 346.551 123.414 346.657 123.549 346.792C123.684 346.92 123.786 347.074 123.854 347.255C123.914 347.428 123.948 347.616 123.955 347.819H124.023C124.023 347.631 124.057 347.435 124.125 347.232C124.192 347.022 124.301 346.83 124.452 346.657C124.595 346.483 124.783 346.341 125.016 346.228C125.25 346.107 125.536 346.047 125.874 346.047C126.183 346.047 126.476 346.1 126.755 346.205C127.026 346.303 127.263 346.442 127.466 346.623C127.669 346.803 127.831 347.018 127.951 347.266C128.064 347.514 128.12 347.785 128.12 348.079V352.255H120.242ZM126.676 350.54V348.564C126.676 348.338 126.615 348.162 126.495 348.034C126.367 347.898 126.19 347.83 125.965 347.83H125.581C125.355 347.83 125.182 347.898 125.062 348.034C124.934 348.162 124.87 348.338 124.87 348.564V350.54H126.676ZM123.47 350.54V348.835C123.47 348.609 123.406 348.432 123.278 348.305C123.15 348.177 122.973 348.113 122.748 348.113H122.409C122.183 348.113 122.006 348.177 121.878 348.305C121.75 348.432 121.687 348.609 121.687 348.835V350.54H123.47ZM128.12 341.318V343.033H120.242V339.297C120.242 338.936 120.302 338.609 120.422 338.315C120.543 338.022 120.716 337.773 120.942 337.57C121.16 337.359 121.423 337.198 121.732 337.085C122.04 336.972 122.383 336.915 122.759 336.915C123.293 336.915 123.76 337.036 124.159 337.277C124.557 337.51 124.847 337.867 125.028 338.349L128.12 336.803V338.71L125.231 340.087V341.318H128.12ZM123.786 339.512C123.786 339.256 123.722 339.056 123.594 338.913C123.459 338.763 123.263 338.688 123.007 338.688H122.511C122.255 338.688 122.063 338.763 121.935 338.913C121.799 339.056 121.732 339.256 121.732 339.512V341.318H123.786V339.512ZM120.242 332.263H125.073C125.63 332.263 126.047 332.154 126.326 331.936C126.597 331.718 126.732 331.353 126.732 330.841C126.732 330.329 126.597 329.964 126.326 329.746C126.047 329.528 125.63 329.419 125.073 329.419H120.242V327.748H124.892C125.472 327.748 125.976 327.805 126.405 327.917C126.826 328.023 127.176 328.2 127.455 328.448C127.725 328.696 127.929 329.016 128.064 329.407C128.192 329.799 128.256 330.277 128.256 330.841C128.256 331.405 128.192 331.883 128.064 332.274C127.929 332.666 127.725 332.986 127.455 333.234C127.176 333.482 126.826 333.663 126.405 333.776C125.976 333.881 125.472 333.934 124.892 333.934H120.242V332.263ZM128.12 319.791L126.247 320.355V322.985L128.12 323.55V325.288L120.242 322.692V320.57L128.12 318.007V319.791ZM121.799 321.653V321.71L124.791 322.579V320.773L121.799 321.653ZM128.12 313.509V315.224H120.242V311.488C120.242 311.127 120.302 310.799 120.422 310.506C120.543 310.213 120.716 309.964 120.942 309.761C121.16 309.55 121.423 309.389 121.732 309.276C122.04 309.163 122.383 309.106 122.759 309.106C123.293 309.106 123.76 309.227 124.159 309.468C124.557 309.701 124.847 310.058 125.028 310.54L128.12 308.993V310.901L125.231 312.278V313.509H128.12ZM123.786 311.702C123.786 311.447 123.722 311.247 123.594 311.104C123.459 310.954 123.263 310.879 123.007 310.879H122.511C122.255 310.879 122.063 310.954 121.935 311.104C121.799 311.247 121.732 311.447 121.732 311.702V313.509H123.786V311.702ZM128.12 304.447H125.039L120.242 307.145V305.226L123.38 303.533V303.51L120.242 301.885V300.022L125.028 302.72H128.12V304.447Z" fill="white"/>
<path d="M159.071 363.209V363.242L160.223 363.818L163.011 365.353L160.234 366.854L158.992 367.453V367.487H164.241V369.101H156.362V367.283L160.053 365.353V365.331L156.362 363.423V361.594H164.241V363.209H159.071ZM164.241 353.306L162.367 353.87V356.5L164.241 357.064V358.803L156.362 356.206V354.084L164.241 351.522V353.306ZM157.92 355.168V355.224L160.911 356.094V354.288L157.92 355.168ZM164.241 347.023V348.739H156.362V345.003C156.362 344.641 156.422 344.314 156.543 344.021C156.663 343.727 156.836 343.479 157.062 343.276C157.28 343.065 157.544 342.903 157.852 342.79C158.161 342.677 158.503 342.621 158.879 342.621C159.414 342.621 159.88 342.741 160.279 342.982C160.678 343.215 160.968 343.573 161.148 344.054L164.241 342.508V344.416L161.351 345.793V347.023H164.241ZM159.907 345.217C159.907 344.961 159.843 344.762 159.715 344.619C159.579 344.468 159.384 344.393 159.128 344.393H158.631C158.375 344.393 158.183 344.468 158.055 344.619C157.92 344.762 157.852 344.961 157.852 345.217V347.023H159.907V345.217ZM164.376 336.367C164.376 336.901 164.294 337.383 164.128 337.812C163.955 338.241 163.703 338.606 163.372 338.907C163.033 339.208 162.616 339.441 162.119 339.606C161.615 339.772 161.028 339.855 160.358 339.855C159.696 339.855 159.109 339.772 158.597 339.606C158.078 339.441 157.645 339.208 157.299 338.907C156.945 338.606 156.678 338.241 156.498 337.812C156.317 337.383 156.227 336.901 156.227 336.367C156.227 335.637 156.377 335.035 156.678 334.561C156.972 334.087 157.438 333.707 158.078 333.421L158.845 334.9C158.514 335.005 158.251 335.17 158.055 335.396C157.852 335.614 157.751 335.938 157.751 336.367C157.751 336.871 157.916 337.277 158.247 337.586C158.571 337.887 159.045 338.037 159.669 338.037H160.934C161.558 338.037 162.036 337.887 162.367 337.586C162.691 337.277 162.853 336.871 162.853 336.367C162.853 335.945 162.74 335.611 162.514 335.362C162.281 335.106 162.002 334.918 161.679 334.798L162.491 333.398C163.093 333.692 163.56 334.079 163.891 334.561C164.215 335.035 164.376 335.637 164.376 336.367ZM161.013 325.786V328.789H164.241V330.504H156.362V328.789H159.5V325.786H156.362V324.071H164.241V325.786H161.013Z" fill="white"/>
<path d="M200.361 364.247L198.488 364.811V367.441L200.361 368.006V369.744L192.483 367.148V365.026L200.361 362.464V364.247ZM194.04 366.11V366.166L197.032 367.035V365.229L194.04 366.11ZM200.361 359.68H192.483V355.955C192.483 355.587 192.547 355.256 192.675 354.962C192.795 354.669 192.964 354.42 193.183 354.217C193.401 354.006 193.668 353.845 193.984 353.732C194.292 353.619 194.631 353.562 195 353.562C195.376 353.562 195.718 353.619 196.027 353.732C196.336 353.845 196.599 354.006 196.817 354.217C197.035 354.42 197.208 354.669 197.336 354.962C197.457 355.256 197.517 355.587 197.517 355.955V357.965H200.361V359.68ZM196.027 357.965V356.159C196.027 355.903 195.963 355.703 195.835 355.56C195.7 355.41 195.504 355.335 195.248 355.335H194.751C194.496 355.335 194.304 355.41 194.176 355.56C194.04 355.703 193.973 355.903 193.973 356.159V357.965H196.027ZM200.361 348.864V350.58H192.483V346.844C192.483 346.482 192.543 346.155 192.663 345.861C192.784 345.568 192.957 345.32 193.183 345.117C193.401 344.906 193.664 344.744 193.973 344.631C194.281 344.518 194.624 344.462 195 344.462C195.534 344.462 196.001 344.582 196.399 344.823C196.798 345.056 197.088 345.414 197.269 345.895L200.361 344.349V346.257L197.472 347.634V348.864H200.361ZM196.027 347.058C196.027 346.802 195.963 346.603 195.835 346.46C195.7 346.309 195.504 346.234 195.248 346.234H194.751C194.496 346.234 194.304 346.309 194.176 346.46C194.04 346.603 193.973 346.802 193.973 347.058V348.864H196.027V347.058ZM200.361 341.585H198.996L198.996 340.57H193.848V341.585H192.483V337.838H193.848V338.854H198.996V337.838H200.361V341.585ZM200.361 334.715H192.483V333H198.838V329.997H200.361V334.715Z" fill="white"/>
</g>
<path d="M89.365 163.494C89.365 165.432 88.838 167.217 87.784 168.849C86.764 170.447 85.251 171.739 83.245 172.725C81.273 173.711 78.893 174.255 76.105 174.357V178.437H72.892V174.255C69.152 173.915 66.092 172.776 63.712 170.838C61.366 168.9 60.125 166.265 59.989 162.933H70.648C70.784 164.667 71.532 165.806 72.892 166.35V159.822C70.036 159.04 67.792 158.326 66.16 157.68C64.528 157 63.066 155.912 61.774 154.416C60.516 152.92 59.887 150.88 59.887 148.296C59.887 146.154 60.448 144.301 61.57 142.737C62.726 141.139 64.29 139.915 66.262 139.065C68.234 138.181 70.444 137.671 72.892 137.535V133.404H76.105V137.535C79.879 137.807 82.871 138.895 85.081 140.799C87.325 142.703 88.566 145.321 88.804 148.653H78.043C77.907 147.089 77.261 146.052 76.105 145.542V152.019L77.38 152.427C79.828 153.107 81.851 153.821 83.449 154.569C85.081 155.283 86.475 156.371 87.631 157.833C88.787 159.261 89.365 161.148 89.365 163.494ZM70.546 147.837C70.546 149.061 71.328 150.064 72.892 150.846V145.236C71.328 145.508 70.546 146.375 70.546 147.837ZM76.105 166.605C76.921 166.435 77.567 166.112 78.043 165.636C78.519 165.126 78.757 164.497 78.757 163.749C78.757 162.559 77.873 161.59 76.105 160.842V166.605ZM93.8974 165.993C97.1954 163.409 99.8984 161.182 102.006 159.312C104.114 157.442 105.882 155.521 107.31 153.549C108.738 151.543 109.452 149.639 109.452 147.837C109.452 146.749 109.197 145.899 108.687 145.287C108.211 144.675 107.497 144.369 106.545 144.369C105.559 144.369 104.794 144.794 104.25 145.644C103.706 146.46 103.451 147.667 103.485 149.265H93.7954C93.8974 146.239 94.5604 143.74 95.7844 141.768C97.0084 139.762 98.6064 138.3 100.578 137.382C102.55 136.43 104.743 135.954 107.157 135.954C111.339 135.954 114.45 136.991 116.49 139.065C118.53 141.139 119.55 143.825 119.55 147.123C119.55 150.659 118.36 153.974 115.98 157.068C113.634 160.162 110.693 162.933 107.157 165.381H119.907V173.49H93.8974V165.993ZM145.87 174L134.599 158.241V174H124.603V138.045H134.599V153.549L145.768 138.045H157.294L144.085 155.487L157.957 174H145.87ZM166.95 174.408C165.182 174.408 163.754 173.932 162.666 172.98C161.612 171.994 161.085 170.753 161.085 169.257C161.085 167.761 161.612 166.52 162.666 165.534C163.754 164.548 165.182 164.055 166.95 164.055C168.684 164.055 170.078 164.548 171.132 165.534C172.22 166.52 172.764 167.761 172.764 169.257C172.764 170.719 172.22 171.943 171.132 172.929C170.078 173.915 168.684 174.408 166.95 174.408ZM177.686 167.88V159.618L193.343 137.28H204.308V159.21H208.235V167.88H204.308V174H194.21V167.88H177.686ZM194.975 148.551L187.937 159.21H194.975V148.551ZM212.527 165.993C215.825 163.409 218.528 161.182 220.636 159.312C222.744 157.442 224.512 155.521 225.94 153.549C227.368 151.543 228.082 149.639 228.082 147.837C228.082 146.749 227.827 145.899 227.317 145.287C226.841 144.675 226.127 144.369 225.175 144.369C224.189 144.369 223.424 144.794 222.88 145.644C222.336 146.46 222.081 147.667 222.115 149.265H212.425C212.527 146.239 213.19 143.74 214.414 141.768C215.638 139.762 217.236 138.3 219.208 137.382C221.18 136.43 223.373 135.954 225.787 135.954C229.969 135.954 233.08 136.991 235.12 139.065C237.16 141.139 238.18 143.825 238.18 147.123C238.18 150.659 236.99 153.974 234.61 157.068C232.264 160.162 229.323 162.933 225.787 165.381H238.537V173.49H212.527V165.993Z" fill="#FBE6DA"/>
<path d="M79.78 88.796H71.608V110H66.676V88.796H58.504V84.44H79.78V88.796ZM88.1429 110.36C86.6069 110.36 85.2269 110.108 84.0029 109.604C82.7789 109.076 81.7349 108.356 80.8709 107.444C80.0309 106.532 79.3829 105.488 78.9269 104.312C78.4709 103.136 78.2429 101.9 78.2429 100.604C78.2429 99.284 78.4709 98.036 78.9269 96.86C79.3829 95.684 80.0309 94.64 80.8709 93.728C81.7349 92.816 82.7789 92.108 84.0029 91.604C85.2269 91.076 86.6069 90.812 88.1429 90.812C89.6789 90.812 91.0469 91.076 92.2469 91.604C93.4709 92.108 94.5149 92.816 95.3789 93.728C96.2429 94.64 96.8909 95.684 97.3229 96.86C97.7789 98.036 98.0069 99.284 98.0069 100.604C98.0069 101.9 97.7789 103.136 97.3229 104.312C96.8909 105.488 96.2429 106.532 95.3789 107.444C94.5389 108.356 93.5069 109.076 92.2829 109.604C91.0589 110.108 89.6789 110.36 88.1429 110.36ZM83.2109 100.604C83.2109 101.708 83.4269 102.692 83.8589 103.556C84.2909 104.396 84.8789 105.056 85.6229 105.536C86.3669 106.016 87.2069 106.256 88.1429 106.256C89.0549 106.256 89.8829 106.016 90.6269 105.536C91.3709 105.032 91.9589 104.36 92.3909 103.52C92.8469 102.656 93.0749 101.672 93.0749 100.568C93.0749 99.488 92.8469 98.516 92.3909 97.652C91.9589 96.788 91.3709 96.116 90.6269 95.636C89.8829 95.156 89.0549 94.916 88.1429 94.916C87.2069 94.916 86.3669 95.168 85.6229 95.672C84.8789 96.152 84.2909 96.824 83.8589 97.688C83.4269 98.528 83.2109 99.5 83.2109 100.604ZM112.782 109.028C112.374 109.196 111.882 109.388 111.306 109.604C110.73 109.82 110.106 109.988 109.434 110.108C108.786 110.252 108.126 110.324 107.454 110.324C106.566 110.324 105.75 110.168 105.006 109.856C104.262 109.544 103.662 109.052 103.206 108.38C102.774 107.684 102.558 106.784 102.558 105.68V94.844H100.074V91.136H102.558V85.016H107.382V91.136H111.342V94.844H107.382V104.06C107.406 104.708 107.586 105.176 107.922 105.464C108.258 105.752 108.678 105.896 109.182 105.896C109.686 105.896 110.178 105.812 110.658 105.644C111.138 105.476 111.522 105.332 111.81 105.212L112.782 109.028ZM114.495 104.42C114.495 103.196 114.831 102.128 115.503 101.216C116.199 100.28 117.159 99.56 118.383 99.056C119.607 98.552 121.011 98.3 122.595 98.3C123.387 98.3 124.191 98.36 125.007 98.48C125.823 98.6 126.531 98.792 127.131 99.056V98.048C127.131 96.848 126.771 95.924 126.051 95.276C125.355 94.628 124.311 94.304 122.919 94.304C121.887 94.304 120.903 94.484 119.967 94.844C119.031 95.204 118.047 95.732 117.015 96.428L115.467 93.26C116.715 92.444 117.987 91.832 119.283 91.424C120.603 91.016 121.983 90.812 123.423 90.812C126.111 90.812 128.199 91.484 129.687 92.828C131.199 94.172 131.955 96.092 131.955 98.588V104.6C131.955 105.104 132.039 105.464 132.207 105.68C132.399 105.896 132.699 106.028 133.107 106.076V110C132.675 110.072 132.279 110.132 131.919 110.18C131.583 110.228 131.295 110.252 131.055 110.252C130.095 110.252 129.363 110.036 128.859 109.604C128.379 109.172 128.079 108.644 127.959 108.02L127.851 107.048C127.035 108.104 126.015 108.92 124.791 109.496C123.567 110.072 122.319 110.36 121.047 110.36C119.799 110.36 118.671 110.108 117.663 109.604C116.679 109.076 115.899 108.368 115.323 107.48C114.771 106.568 114.495 105.548 114.495 104.42ZM126.231 105.392C126.495 105.104 126.711 104.816 126.879 104.528C127.047 104.24 127.131 103.976 127.131 103.736V101.828C126.555 101.588 125.931 101.408 125.259 101.288C124.587 101.144 123.951 101.072 123.351 101.072C122.103 101.072 121.071 101.348 120.255 101.9C119.463 102.428 119.067 103.136 119.067 104.024C119.067 104.504 119.199 104.96 119.463 105.392C119.727 105.824 120.111 106.172 120.615 106.436C121.119 106.7 121.719 106.832 122.415 106.832C123.135 106.832 123.843 106.7 124.539 106.436C125.235 106.148 125.799 105.8 126.231 105.392ZM136.924 83.72H141.748V103.952C141.748 104.816 141.892 105.404 142.18 105.716C142.468 106.004 142.864 106.148 143.368 106.148C143.752 106.148 144.148 106.1 144.556 106.004C144.964 105.908 145.324 105.788 145.636 105.644L146.284 109.316C145.636 109.628 144.88 109.868 144.016 110.036C143.152 110.204 142.372 110.288 141.676 110.288C140.164 110.288 138.988 109.892 138.148 109.1C137.332 108.284 136.924 107.132 136.924 105.644V83.72ZM155.963 97.04C155.963 95.48 156.239 93.956 156.791 92.468C157.367 90.956 158.195 89.588 159.275 88.364C160.355 87.116 161.675 86.132 163.235 85.412C164.795 84.668 166.571 84.296 168.563 84.296C170.915 84.296 172.943 84.812 174.647 85.844C176.375 86.876 177.659 88.22 178.499 89.876L174.683 92.504C174.251 91.544 173.687 90.788 172.991 90.236C172.295 89.66 171.551 89.264 170.759 89.048C169.967 88.808 169.187 88.688 168.419 88.688C167.171 88.688 166.079 88.94 165.143 89.444C164.231 89.948 163.463 90.608 162.839 91.424C162.215 92.24 161.747 93.152 161.435 94.16C161.147 95.168 161.003 96.176 161.003 97.184C161.003 98.312 161.183 99.404 161.543 100.46C161.903 101.492 162.407 102.416 163.055 103.232C163.727 104.024 164.519 104.66 165.431 105.14C166.367 105.596 167.387 105.824 168.491 105.824C169.283 105.824 170.087 105.692 170.903 105.428C171.719 105.164 172.475 104.744 173.171 104.168C173.867 103.592 174.407 102.848 174.791 101.936L178.859 104.276C178.355 105.548 177.527 106.628 176.375 107.516C175.247 108.404 173.975 109.076 172.559 109.532C171.143 109.988 169.739 110.216 168.347 110.216C166.523 110.216 164.855 109.844 163.343 109.1C161.831 108.332 160.523 107.324 159.419 106.076C158.339 104.804 157.487 103.388 156.863 101.828C156.263 100.244 155.963 98.648 155.963 97.04ZM199.751 110H194.927V99.416C194.927 97.952 194.639 96.86 194.063 96.14C193.511 95.42 192.743 95.06 191.759 95.06C191.183 95.06 190.571 95.228 189.923 95.564C189.275 95.9 188.687 96.368 188.159 96.968C187.655 97.544 187.283 98.216 187.043 98.984V110H182.219V83.72H187.043V94.628C187.739 93.428 188.687 92.492 189.887 91.82C191.087 91.148 192.395 90.812 193.811 90.812C195.035 90.812 196.031 91.028 196.799 91.46C197.567 91.868 198.167 92.432 198.599 93.152C199.031 93.848 199.331 94.64 199.499 95.528C199.667 96.392 199.751 97.292 199.751 98.228V110ZM213.191 110.36C211.679 110.36 210.311 110.108 209.087 109.604C207.863 109.076 206.819 108.368 205.955 107.48C205.091 106.568 204.419 105.536 203.939 104.384C203.483 103.208 203.255 101.972 203.255 100.676C203.255 98.876 203.651 97.232 204.443 95.744C205.259 94.256 206.411 93.068 207.899 92.18C209.411 91.268 211.187 90.812 213.227 90.812C215.291 90.812 217.055 91.268 218.519 92.18C219.983 93.068 221.099 94.256 221.867 95.744C222.659 97.208 223.055 98.792 223.055 100.496C223.055 100.784 223.043 101.084 223.019 101.396C222.995 101.684 222.971 101.924 222.947 102.116H208.367C208.463 103.076 208.739 103.916 209.195 104.636C209.675 105.356 210.275 105.908 210.995 106.292C211.739 106.652 212.531 106.832 213.371 106.832C214.331 106.832 215.231 106.604 216.071 106.148C216.935 105.668 217.523 105.044 217.835 104.276L221.975 105.428C221.519 106.388 220.859 107.24 219.995 107.984C219.155 108.728 218.159 109.316 217.007 109.748C215.855 110.156 214.583 110.36 213.191 110.36ZM208.259 99.056H218.123C218.027 98.096 217.751 97.268 217.295 96.572C216.863 95.852 216.287 95.3 215.567 94.916C214.847 94.508 214.043 94.304 213.155 94.304C212.291 94.304 211.499 94.508 210.779 94.916C210.083 95.3 209.507 95.852 209.051 96.572C208.619 97.268 208.355 98.096 208.259 99.056ZM235.274 110.36C233.738 110.36 232.358 110.108 231.134 109.604C229.91 109.076 228.866 108.356 228.002 107.444C227.138 106.508 226.466 105.452 225.986 104.276C225.53 103.1 225.302 101.864 225.302 100.568C225.302 98.792 225.698 97.172 226.49 95.708C227.306 94.22 228.458 93.032 229.946 92.144C231.434 91.256 233.198 90.812 235.238 90.812C237.278 90.812 239.03 91.256 240.494 92.144C241.958 93.032 243.05 94.196 243.77 95.636L239.054 97.076C238.646 96.38 238.106 95.852 237.434 95.492C236.762 95.108 236.018 94.916 235.202 94.916C234.29 94.916 233.45 95.156 232.682 95.636C231.938 96.092 231.35 96.752 230.918 97.616C230.486 98.456 230.27 99.44 230.27 100.568C230.27 101.672 230.486 102.656 230.918 103.52C231.374 104.36 231.974 105.032 232.718 105.536C233.462 106.016 234.29 106.256 235.202 106.256C235.778 106.256 236.318 106.16 236.822 105.968C237.35 105.776 237.818 105.512 238.226 105.176C238.634 104.84 238.934 104.456 239.126 104.024L243.842 105.464C243.41 106.4 242.774 107.24 241.934 107.984C241.118 108.728 240.146 109.316 239.018 109.748C237.914 110.156 236.666 110.36 235.274 110.36ZM260.195 110L254.687 101.864L252.131 104.384V110H247.307V83.72H252.131V99.632L259.727 91.172H264.839L257.819 99.164L265.343 110H260.195ZM267.878 110V91.136H272.702V110H267.878ZM267.878 88.508V83.72H272.702V88.508H267.878ZM295.082 110H290.258V99.416C290.258 97.904 289.994 96.8 289.466 96.104C288.938 95.408 288.206 95.06 287.27 95.06C286.622 95.06 285.962 95.228 285.29 95.564C284.642 95.9 284.054 96.368 283.526 96.968C282.998 97.544 282.614 98.216 282.374 98.984V110H277.55V91.136H281.906V94.628C282.386 93.812 282.998 93.128 283.742 92.576C284.486 92 285.338 91.568 286.298 91.28C287.282 90.968 288.314 90.812 289.394 90.812C290.57 90.812 291.53 91.028 292.274 91.46C293.042 91.868 293.618 92.432 294.002 93.152C294.41 93.848 294.686 94.64 294.83 95.528C294.998 96.416 295.082 97.316 295.082 98.228V110ZM307.154 110.108C305.906 110.108 304.754 109.868 303.698 109.388C302.666 108.884 301.766 108.188 300.998 107.3C300.254 106.412 299.678 105.392 299.27 104.24C298.862 103.088 298.658 101.864 298.658 100.568C298.658 99.2 298.874 97.928 299.306 96.752C299.738 95.576 300.338 94.544 301.106 93.656C301.898 92.744 302.822 92.048 303.878 91.568C304.958 91.064 306.146 90.812 307.442 90.812C308.906 90.812 310.19 91.148 311.294 91.82C312.398 92.468 313.31 93.344 314.03 94.448V91.136H318.242V109.1C318.242 110.972 317.786 112.568 316.874 113.888C315.986 115.232 314.75 116.252 313.166 116.948C311.582 117.668 309.782 118.028 307.766 118.028C305.726 118.028 303.998 117.68 302.582 116.984C301.166 116.312 299.954 115.352 298.946 114.104L301.574 111.548C302.294 112.436 303.194 113.132 304.274 113.636C305.378 114.14 306.542 114.392 307.766 114.392C308.798 114.392 309.734 114.2 310.574 113.816C311.438 113.456 312.122 112.88 312.626 112.088C313.154 111.32 313.418 110.324 313.418 109.1V106.724C312.794 107.804 311.906 108.644 310.754 109.244C309.626 109.82 308.426 110.108 307.154 110.108ZM308.774 106.256C309.302 106.256 309.806 106.172 310.286 106.004C310.766 105.836 311.21 105.608 311.618 105.32C312.026 105.032 312.386 104.696 312.698 104.312C313.01 103.904 313.25 103.496 313.418 103.088V98.588C313.13 97.844 312.722 97.196 312.194 96.644C311.69 96.092 311.114 95.672 310.466 95.384C309.842 95.072 309.182 94.916 308.486 94.916C307.742 94.916 307.07 95.072 306.47 95.384C305.87 95.696 305.354 96.14 304.922 96.716C304.49 97.268 304.154 97.892 303.914 98.588C303.698 99.26 303.59 99.968 303.59 100.712C303.59 101.48 303.722 102.2 303.986 102.872C304.25 103.544 304.61 104.132 305.066 104.636C305.546 105.14 306.098 105.536 306.722 105.824C307.37 106.112 308.054 106.256 308.774 106.256Z" fill="#FBE6DA"/>
<path d="M74.43 468.94C74.43 470.28 74.06 471.44 73.32 472.42C72.58 473.4 71.63 474.14 70.47 474.64C69.33 475.14 68.14 475.39 66.9 475.39V478.63H65.94V475.36C64.8 475.26 63.68 475.01 62.58 474.61C61.48 474.21 60.56 473.64 59.82 472.9C59.08 472.14 58.71 471.21 58.71 470.11C58.71 469.49 58.89 468.98 59.25 468.58C59.61 468.18 60.06 467.98 60.6 467.98C61.18 467.98 61.64 468.18 61.98 468.58C62.34 468.98 62.52 469.48 62.52 470.08C62.52 470.4 62.45 470.74 62.31 471.1C62.19 471.46 62.13 471.75 62.13 471.97C62.13 472.65 62.51 473.18 63.27 473.56C64.05 473.92 64.94 474.14 65.94 474.22V465.76C65.8 465.7 65.26 465.49 64.32 465.13C63.38 464.75 62.67 464.41 62.19 464.11C60.35 462.93 59.43 461.41 59.43 459.55C59.43 458.53 59.68 457.59 60.18 456.73C60.7 455.85 61.45 455.14 62.43 454.6C63.41 454.04 64.58 453.72 65.94 453.64V450.94H66.9V453.61C68.82 453.65 70.4 454.08 71.64 454.9C72.88 455.7 73.5 456.79 73.5 458.17C73.5 458.79 73.32 459.29 72.96 459.67C72.62 460.03 72.2 460.21 71.7 460.21C71.28 460.21 70.88 460.07 70.5 459.79C70.14 459.49 69.96 459.08 69.96 458.56C69.96 458.42 69.98 458.27 70.02 458.11C70.06 457.95 70.09 457.83 70.11 457.75C70.21 457.49 70.26 457.23 70.26 456.97C70.26 456.35 69.93 455.83 69.27 455.41C68.63 454.97 67.84 454.73 66.9 454.69V462.28C68.72 462.96 70.13 463.57 71.13 464.11C72.13 464.61 72.93 465.26 73.53 466.06C74.13 466.86 74.43 467.82 74.43 468.94ZM64.53 461.35C64.73 461.45 65.2 461.64 65.94 461.92V454.72C64.66 454.82 63.66 455.2 62.94 455.86C62.24 456.52 61.89 457.36 61.89 458.38C61.89 459.06 62.1 459.62 62.52 460.06C62.96 460.48 63.63 460.91 64.53 461.35ZM66.9 474.25C68.3 474.17 69.46 473.77 70.38 473.05C71.3 472.31 71.76 471.35 71.76 470.17C71.76 469.49 71.56 468.91 71.16 468.43C70.76 467.95 70.17 467.52 69.39 467.14C68.99 466.92 68.16 466.58 66.9 466.12V474.25ZM85.8386 463.24C87.7786 463.56 89.3386 464.23 90.5186 465.25C91.6986 466.25 92.2886 467.5 92.2886 469C92.2886 470.32 91.8786 471.47 91.0586 472.45C90.2386 473.41 89.1686 474.14 87.8486 474.64C86.5486 475.14 85.1786 475.39 83.7386 475.39C82.3586 475.39 81.1286 475.17 80.0486 474.73C78.9886 474.27 78.1586 473.66 77.5586 472.9C76.9786 472.14 76.6886 471.33 76.6886 470.47C76.6886 469.75 76.9086 469.2 77.3486 468.82C77.8086 468.42 78.3086 468.22 78.8486 468.22C79.4686 468.22 79.9886 468.38 80.4086 468.7C80.8486 469 81.0686 469.46 81.0686 470.08C81.0686 470.34 81.0186 470.56 80.9186 470.74C80.8386 470.92 80.6986 471.14 80.4986 471.4C80.1786 471.72 80.0186 472.03 80.0186 472.33C80.0186 472.97 80.3286 473.46 80.9486 473.8C81.5886 474.14 82.4386 474.31 83.4986 474.31C84.9586 474.31 86.0686 473.78 86.8286 472.72C87.6086 471.66 87.9986 470.35 87.9986 468.79C87.9986 467.29 87.6186 466.09 86.8586 465.19C86.0986 464.27 84.9286 463.81 83.3486 463.81C83.1686 463.81 82.9486 463.83 82.6886 463.87C82.4286 463.91 82.1986 463.93 81.9986 463.93C81.7786 463.93 81.5886 463.87 81.4286 463.75C81.2886 463.61 81.2186 463.43 81.2186 463.21C81.2186 463.03 81.2886 462.88 81.4286 462.76C81.5886 462.64 81.7786 462.58 81.9986 462.58C82.1986 462.58 82.4586 462.6 82.7786 462.64L83.5286 462.67C84.5286 462.67 85.3886 462.38 86.1086 461.8C86.8486 461.22 87.2186 460.02 87.2186 458.2C87.2186 456.56 86.8586 455.4 86.1386 454.72C85.4386 454.02 84.5586 453.67 83.4986 453.67C82.8386 453.67 82.2486 453.82 81.7286 454.12C81.2286 454.42 80.9786 454.85 80.9786 455.41C80.9786 455.73 81.0986 456.07 81.3386 456.43C81.5986 456.81 81.7286 457.18 81.7286 457.54C81.7286 458.06 81.5686 458.49 81.2486 458.83C80.9286 459.15 80.4886 459.31 79.9286 459.31C79.2686 459.31 78.7386 459.11 78.3386 458.71C77.9586 458.29 77.7686 457.7 77.7686 456.94C77.7686 456.26 78.0386 455.58 78.5786 454.9C79.1386 454.22 79.8886 453.67 80.8286 453.25C81.7886 452.81 82.8386 452.59 83.9786 452.59C85.2986 452.59 86.5186 452.8 87.6386 453.22C88.7586 453.64 89.6486 454.26 90.3086 455.08C90.9886 455.88 91.3286 456.84 91.3286 457.96C91.3286 459.26 90.8686 460.4 89.9486 461.38C89.0286 462.34 87.6586 462.96 85.8386 463.24ZM95.2756 478.75C95.2156 478.75 95.1556 478.72 95.0956 478.66C95.0556 478.6 95.0356 478.55 95.0356 478.51C95.0356 478.47 95.0656 478.42 95.1256 478.36C95.5856 477.96 95.9356 477.56 96.1756 477.16C96.4156 476.76 96.5356 476.41 96.5356 476.11C96.5356 475.69 96.3556 475.4 95.9956 475.24C95.5756 475.04 95.2456 474.8 95.0056 474.52C94.7656 474.22 94.6456 473.85 94.6456 473.41C94.6456 472.83 94.8456 472.34 95.2456 471.94C95.6456 471.52 96.1356 471.31 96.7156 471.31C97.2956 471.31 97.7856 471.52 98.1856 471.94C98.5856 472.34 98.7856 472.85 98.7856 473.47C98.7856 474.65 98.4356 475.7 97.7356 476.62C97.0556 477.56 96.2756 478.26 95.3956 478.72L95.2756 478.75ZM102.44 475C102.3 475 102.23 474.87 102.23 474.61C102.23 474.37 102.3 474.25 102.44 474.25H102.83C105.33 474.25 106.58 473.45 106.58 471.85V458.74C106.58 457.94 106.49 457.37 106.31 457.03C106.15 456.69 105.87 456.48 105.47 456.4C105.09 456.3 104.44 456.25 103.52 456.25H102.53C102.39 456.25 102.32 456.12 102.32 455.86C102.32 455.74 102.33 455.65 102.35 455.59C102.37 455.53 102.43 455.5 102.53 455.5C105.41 455.22 108.02 454.25 110.36 452.59V471.85C110.36 472.79 110.71 473.43 111.41 473.77C112.13 474.09 113.03 474.25 114.11 474.25H114.47C114.61 474.25 114.68 474.37 114.68 474.61C114.68 474.87 114.61 475 114.47 475H102.44ZM133.328 468.88C133.168 469.56 132.658 471.6 131.798 475H118.208L117.968 474.46C118.348 473.38 118.888 472.33 119.588 471.31C120.308 470.27 121.028 469.35 121.748 468.55C122.488 467.73 123.448 466.7 124.628 465.46C125.708 464.32 126.528 463.39 127.088 462.67C127.668 461.93 128.108 461.19 128.408 460.45C128.728 459.69 128.888 458.85 128.888 457.93C128.888 456.63 128.538 455.6 127.838 454.84C127.158 454.08 126.178 453.7 124.898 453.7C123.978 453.7 123.198 453.9 122.558 454.3C121.918 454.68 121.598 455.2 121.598 455.86C121.598 456.14 121.658 456.37 121.778 456.55C121.898 456.73 122.078 456.94 122.318 457.18C122.578 457.44 122.768 457.68 122.888 457.9C123.028 458.1 123.098 458.37 123.098 458.71C123.098 459.33 122.888 459.82 122.468 460.18C122.068 460.54 121.558 460.72 120.938 460.72C120.618 460.72 120.278 460.61 119.918 460.39C119.578 460.17 119.288 459.86 119.048 459.46C118.828 459.04 118.718 458.55 118.718 457.99C118.718 457.13 118.998 456.29 119.558 455.47C120.118 454.63 120.918 453.95 121.958 453.43C122.998 452.89 124.198 452.62 125.558 452.62C127.078 452.62 128.388 452.88 129.488 453.4C130.608 453.92 131.448 454.63 132.008 455.53C132.588 456.43 132.878 457.45 132.878 458.59C132.878 459.65 132.658 460.57 132.218 461.35C131.778 462.13 131.218 462.8 130.538 463.36C129.878 463.9 128.958 464.56 127.778 465.34C126.938 465.9 126.298 466.34 125.858 466.66C123.958 468 122.308 469.73 120.908 471.85H125.408C127.028 471.85 128.268 471.77 129.128 471.61C130.008 471.43 130.708 471.11 131.228 470.65C131.748 470.19 132.238 469.48 132.698 468.52C132.718 468.42 132.788 468.37 132.908 468.37C132.948 468.37 133.008 468.39 133.088 468.43C133.188 468.47 133.258 468.51 133.298 468.55C133.358 468.57 133.388 468.61 133.388 468.67C133.388 468.71 133.368 468.78 133.328 468.88ZM143.395 460.75C144.595 460.75 145.775 461.01 146.935 461.53C148.095 462.05 149.045 462.85 149.785 463.93C150.545 464.99 150.925 466.29 150.925 467.83C150.925 469.37 150.535 470.71 149.755 471.85C148.975 472.99 147.945 473.87 146.665 474.49C145.405 475.09 144.055 475.39 142.615 475.39C141.395 475.39 140.245 475.2 139.165 474.82C138.085 474.42 137.215 473.86 136.555 473.14C135.915 472.42 135.595 471.58 135.595 470.62C135.595 469.9 135.805 469.36 136.225 469C136.665 468.62 137.135 468.43 137.635 468.43C138.255 468.43 138.765 468.58 139.165 468.88C139.565 469.16 139.765 469.62 139.765 470.26C139.765 470.5 139.725 470.7 139.645 470.86C139.585 471.02 139.475 471.22 139.315 471.46C139.055 471.8 138.925 472.1 138.925 472.36C138.925 472.94 139.195 473.42 139.735 473.8C140.275 474.16 141.025 474.34 141.985 474.34C142.685 474.34 143.395 474.14 144.115 473.74C144.855 473.34 145.475 472.66 145.975 471.7C146.495 470.72 146.755 469.45 146.755 467.89C146.755 466.01 146.335 464.57 145.495 463.57C144.655 462.57 143.565 462.07 142.225 462.07C141.265 462.07 140.405 462.34 139.645 462.88C138.885 463.4 138.175 464.12 137.515 465.04L136.645 464.47L137.455 452.89H149.755L148.975 456.22H138.295L137.785 463.18C138.665 462.3 139.555 461.68 140.455 461.32C141.375 460.94 142.355 460.75 143.395 460.75ZM155.816 475.45C155.256 475.45 154.776 475.25 154.376 474.85C153.976 474.43 153.776 473.93 153.776 473.35C153.776 472.79 153.976 472.31 154.376 471.91C154.776 471.51 155.256 471.31 155.816 471.31C156.396 471.31 156.886 471.51 157.286 471.91C157.706 472.31 157.916 472.79 157.916 473.35C157.916 473.93 157.706 474.43 157.286 474.85C156.886 475.25 156.396 475.45 155.816 475.45ZM168.855 475.39C167.515 475.39 166.235 474.96 165.015 474.1C163.795 473.24 162.805 471.95 162.045 470.23C161.285 468.51 160.905 466.43 160.905 463.99C160.905 461.55 161.285 459.47 162.045 457.75C162.825 456.03 163.825 454.74 165.045 453.88C166.265 453.02 167.535 452.59 168.855 452.59C170.195 452.59 171.475 453.02 172.695 453.88C173.915 454.74 174.905 456.03 175.665 457.75C176.445 459.47 176.835 461.55 176.835 463.99C176.835 466.43 176.445 468.51 175.665 470.23C174.905 471.95 173.915 473.24 172.695 474.1C171.475 474.96 170.195 475.39 168.855 475.39ZM168.855 474.34C170.155 474.34 171.145 473.49 171.825 471.79C172.525 470.07 172.875 467.47 172.875 463.99C172.875 460.51 172.525 457.92 171.825 456.22C171.145 454.52 170.155 453.67 168.855 453.67C167.555 453.67 166.555 454.52 165.855 456.22C165.175 457.92 164.835 460.51 164.835 463.99C164.835 467.47 165.175 470.07 165.855 471.79C166.555 473.49 167.555 474.34 168.855 474.34ZM189.838 462.64C191.138 463.3 192.188 463.91 192.988 464.47C193.808 465.03 194.468 465.69 194.968 466.45C195.468 467.19 195.718 468.06 195.718 469.06C195.718 470.38 195.328 471.52 194.548 472.48C193.768 473.44 192.758 474.17 191.518 474.67C190.298 475.15 189.008 475.39 187.648 475.39C186.208 475.39 184.838 475.16 183.538 474.7C182.238 474.22 181.188 473.55 180.388 472.69C179.588 471.83 179.188 470.85 179.188 469.75C179.188 468.55 179.628 467.53 180.508 466.69C181.388 465.85 182.648 465.04 184.288 464.26C182.908 463.56 181.878 462.76 181.198 461.86C180.538 460.94 180.208 459.8 180.208 458.44C180.208 457.54 180.468 456.64 180.988 455.74C181.528 454.82 182.328 454.07 183.388 453.49C184.448 452.89 185.738 452.59 187.258 452.59C188.438 452.59 189.568 452.8 190.648 453.22C191.728 453.62 192.598 454.19 193.258 454.93C193.918 455.67 194.248 456.53 194.248 457.51C194.248 458.65 193.858 459.63 193.078 460.45C192.298 461.25 191.218 461.98 189.838 462.64ZM183.148 457.21C183.148 457.87 183.298 458.43 183.598 458.89C183.898 459.33 184.298 459.71 184.798 460.03C185.318 460.35 186.078 460.75 187.078 461.23L188.758 462.07C189.678 461.43 190.298 460.76 190.618 460.06C190.938 459.34 191.098 458.55 191.098 457.69C191.098 457.07 190.938 456.45 190.618 455.83C190.298 455.19 189.818 454.66 189.178 454.24C188.558 453.82 187.808 453.61 186.928 453.61C186.048 453.61 185.328 453.8 184.768 454.18C184.208 454.56 183.798 455.03 183.538 455.59C183.278 456.15 183.148 456.69 183.148 457.21ZM187.288 474.34C188.908 474.34 190.148 473.95 191.008 473.17C191.868 472.39 192.298 471.41 192.298 470.23C192.298 469.49 191.958 468.8 191.278 468.16C190.598 467.52 189.788 466.95 188.848 466.45C187.928 465.95 186.768 465.39 185.368 464.77C183.628 466.03 182.758 467.68 182.758 469.72C182.758 471.02 183.128 472.12 183.868 473.02C184.628 473.9 185.768 474.34 187.288 474.34Z" fill="#FBE6DA"/>
<path d="M59.25 423.37V427.285H63.225V428.155H59.25V432.13H63.675V433H58.2V422.5H63.675V423.37H59.25ZM69.5339 433L67.4189 429.7L65.3789 433H64.2689L66.9089 428.905L64.2989 424.81H65.4839L67.5689 428.065L69.5939 424.81H70.6889L68.0789 428.86L70.7189 433H69.5339ZM72.6784 426.61C72.9384 426.06 73.3484 425.605 73.9084 425.245C74.4784 424.875 75.1534 424.69 75.9334 424.69C76.6734 424.69 77.3384 424.865 77.9284 425.215C78.5284 425.555 78.9934 426.045 79.3234 426.685C79.6634 427.315 79.8334 428.05 79.8334 428.89C79.8334 429.73 79.6634 430.47 79.3234 431.11C78.9934 431.75 78.5284 432.245 77.9284 432.595C77.3384 432.945 76.6734 433.12 75.9334 433.12C75.1634 433.12 74.4934 432.94 73.9234 432.58C73.3534 432.21 72.9384 431.75 72.6784 431.2V436.87H71.6434V424.81H72.6784V426.61ZM78.7684 428.89C78.7684 428.21 78.6334 427.625 78.3634 427.135C78.1034 426.635 77.7434 426.255 77.2834 425.995C76.8234 425.735 76.3034 425.605 75.7234 425.605C75.1634 425.605 74.6484 425.74 74.1784 426.01C73.7184 426.28 73.3534 426.665 73.0834 427.165C72.8134 427.665 72.6784 428.245 72.6784 428.905C72.6784 429.565 72.8134 430.145 73.0834 430.645C73.3534 431.145 73.7184 431.53 74.1784 431.8C74.6484 432.07 75.1634 432.205 75.7234 432.205C76.3034 432.205 76.8234 432.075 77.2834 431.815C77.7434 431.545 78.1034 431.16 78.3634 430.66C78.6334 430.15 78.7684 429.56 78.7684 428.89ZM88.6754 428.485C88.6754 428.845 88.6654 429.12 88.6454 429.31H81.8504C81.8804 429.93 82.0304 430.46 82.3004 430.9C82.5704 431.34 82.9254 431.675 83.3654 431.905C83.8054 432.125 84.2854 432.235 84.8054 432.235C85.4854 432.235 86.0554 432.07 86.5154 431.74C86.9854 431.41 87.2954 430.965 87.4454 430.405H88.5554C88.3554 431.205 87.9254 431.86 87.2654 432.37C86.6154 432.87 85.7954 433.12 84.8054 433.12C84.0354 433.12 83.3454 432.95 82.7354 432.61C82.1254 432.26 81.6454 431.77 81.2954 431.14C80.9554 430.5 80.7854 429.755 80.7854 428.905C80.7854 428.055 80.9554 427.31 81.2954 426.67C81.6354 426.03 82.1104 425.54 82.7204 425.2C83.3304 424.86 84.0254 424.69 84.8054 424.69C85.5854 424.69 86.2654 424.86 86.8454 425.2C87.4354 425.54 87.8854 426 88.1954 426.58C88.5154 427.15 88.6754 427.785 88.6754 428.485ZM87.6104 428.455C87.6204 427.845 87.4954 427.325 87.2354 426.895C86.9854 426.465 86.6404 426.14 86.2004 425.92C85.7604 425.7 85.2804 425.59 84.7604 425.59C83.9804 425.59 83.3154 425.84 82.7654 426.34C82.2154 426.84 81.9104 427.545 81.8504 428.455H87.6104ZM89.6165 428.905C89.6165 428.055 89.7865 427.315 90.1265 426.685C90.4665 426.045 90.9365 425.555 91.5365 425.215C92.1365 424.865 92.8215 424.69 93.5915 424.69C94.6015 424.69 95.4315 424.94 96.0815 425.44C96.7415 425.94 97.1665 426.62 97.3565 427.48H96.2315C96.0915 426.89 95.7865 426.43 95.3165 426.1C94.8565 425.76 94.2815 425.59 93.5915 425.59C93.0415 425.59 92.5465 425.715 92.1065 425.965C91.6665 426.215 91.3165 426.59 91.0565 427.09C90.8065 427.58 90.6815 428.185 90.6815 428.905C90.6815 429.625 90.8065 430.235 91.0565 430.735C91.3165 431.235 91.6665 431.61 92.1065 431.86C92.5465 432.11 93.0415 432.235 93.5915 432.235C94.2815 432.235 94.8565 432.07 95.3165 431.74C95.7865 431.4 96.0915 430.93 96.2315 430.33H97.3565C97.1665 431.17 96.7415 431.845 96.0815 432.355C95.4215 432.865 94.5915 433.12 93.5915 433.12C92.8215 433.12 92.1365 432.95 91.5365 432.61C90.9365 432.26 90.4665 431.77 90.1265 431.14C89.7865 430.5 89.6165 429.755 89.6165 428.905ZM100.161 425.695V430.78C100.161 431.28 100.256 431.625 100.446 431.815C100.636 432.005 100.971 432.1 101.451 432.1H102.411V433H101.286C100.546 433 99.9957 432.83 99.6357 432.49C99.2757 432.14 99.0957 431.57 99.0957 430.78V425.695H97.9557V424.81H99.0957V422.755H100.161V424.81H102.411V425.695H100.161ZM111.052 428.485C111.052 428.845 111.042 429.12 111.022 429.31H104.227C104.257 429.93 104.407 430.46 104.677 430.9C104.947 431.34 105.302 431.675 105.742 431.905C106.182 432.125 106.662 432.235 107.182 432.235C107.862 432.235 108.432 432.07 108.892 431.74C109.362 431.41 109.672 430.965 109.822 430.405H110.932C110.732 431.205 110.302 431.86 109.642 432.37C108.992 432.87 108.172 433.12 107.182 433.12C106.412 433.12 105.722 432.95 105.112 432.61C104.502 432.26 104.022 431.77 103.672 431.14C103.332 430.5 103.162 429.755 103.162 428.905C103.162 428.055 103.332 427.31 103.672 426.67C104.012 426.03 104.487 425.54 105.097 425.2C105.707 424.86 106.402 424.69 107.182 424.69C107.962 424.69 108.642 424.86 109.222 425.2C109.812 425.54 110.262 426 110.572 426.58C110.892 427.15 111.052 427.785 111.052 428.485ZM109.987 428.455C109.997 427.845 109.872 427.325 109.612 426.895C109.362 426.465 109.017 426.14 108.577 425.92C108.137 425.7 107.657 425.59 107.137 425.59C106.357 425.59 105.692 425.84 105.142 426.34C104.592 426.84 104.287 427.545 104.227 428.455H109.987ZM111.993 428.89C111.993 428.05 112.163 427.315 112.503 426.685C112.843 426.045 113.308 425.555 113.898 425.215C114.498 424.865 115.173 424.69 115.923 424.69C116.643 424.69 117.293 424.865 117.873 425.215C118.453 425.565 118.878 426.02 119.148 426.58V421.9H120.198V433H119.148V431.17C118.898 431.74 118.488 432.21 117.918 432.58C117.348 432.94 116.678 433.12 115.908 433.12C115.158 433.12 114.483 432.945 113.883 432.595C113.293 432.245 112.828 431.75 112.488 431.11C112.158 430.47 111.993 429.73 111.993 428.89ZM119.148 428.905C119.148 428.245 119.013 427.665 118.743 427.165C118.473 426.665 118.103 426.28 117.633 426.01C117.173 425.74 116.663 425.605 116.103 425.605C115.523 425.605 115.003 425.735 114.543 425.995C114.083 426.255 113.718 426.635 113.448 427.135C113.188 427.625 113.058 428.21 113.058 428.89C113.058 429.56 113.188 430.15 113.448 430.66C113.718 431.16 114.083 431.545 114.543 431.815C115.003 432.075 115.523 432.205 116.103 432.205C116.663 432.205 117.173 432.07 117.633 431.8C118.103 431.53 118.473 431.145 118.743 430.645C119.013 430.145 119.148 429.565 119.148 428.905ZM126.237 423.265C126.027 423.265 125.847 423.19 125.697 423.04C125.547 422.89 125.472 422.705 125.472 422.485C125.472 422.265 125.547 422.085 125.697 421.945C125.847 421.795 126.027 421.72 126.237 421.72C126.447 421.72 126.627 421.795 126.777 421.945C126.927 422.085 127.002 422.265 127.002 422.485C127.002 422.705 126.927 422.89 126.777 423.04C126.627 423.19 126.447 423.265 126.237 423.265ZM126.762 424.81V433H125.712V424.81H126.762ZM132.479 424.66C133.459 424.66 134.259 424.965 134.879 425.575C135.499 426.175 135.809 427.05 135.809 428.2V433H134.774V428.32C134.774 427.43 134.549 426.75 134.099 426.28C133.659 425.81 133.054 425.575 132.284 425.575C131.494 425.575 130.864 425.825 130.394 426.325C129.924 426.825 129.689 427.56 129.689 428.53V433H128.639V424.81H129.689V426.205C129.949 425.705 130.324 425.325 130.814 425.065C131.304 424.795 131.859 424.66 132.479 424.66ZM137.152 428.905C137.152 428.055 137.322 427.315 137.662 426.685C138.002 426.045 138.472 425.555 139.072 425.215C139.672 424.865 140.357 424.69 141.127 424.69C142.137 424.69 142.967 424.94 143.617 425.44C144.277 425.94 144.702 426.62 144.892 427.48H143.767C143.627 426.89 143.322 426.43 142.852 426.1C142.392 425.76 141.817 425.59 141.127 425.59C140.577 425.59 140.082 425.715 139.642 425.965C139.202 426.215 138.852 426.59 138.592 427.09C138.342 427.58 138.217 428.185 138.217 428.905C138.217 429.625 138.342 430.235 138.592 430.735C138.852 431.235 139.202 431.61 139.642 431.86C140.082 432.11 140.577 432.235 141.127 432.235C141.817 432.235 142.392 432.07 142.852 431.74C143.322 431.4 143.627 430.93 143.767 430.33H144.892C144.702 431.17 144.277 431.845 143.617 432.355C142.957 432.865 142.127 433.12 141.127 433.12C140.357 433.12 139.672 432.95 139.072 432.61C138.472 432.26 138.002 431.77 137.662 431.14C137.322 430.5 137.152 429.755 137.152 428.905ZM149.916 433.12C149.146 433.12 148.451 432.95 147.831 432.61C147.221 432.26 146.736 431.77 146.376 431.14C146.026 430.5 145.851 429.755 145.851 428.905C145.851 428.055 146.031 427.315 146.391 426.685C146.751 426.045 147.241 425.555 147.861 425.215C148.481 424.865 149.176 424.69 149.946 424.69C150.716 424.69 151.411 424.865 152.031 425.215C152.661 425.555 153.151 426.045 153.501 426.685C153.861 427.315 154.041 428.055 154.041 428.905C154.041 429.745 153.861 430.485 153.501 431.125C153.141 431.765 152.646 432.26 152.016 432.61C151.386 432.95 150.686 433.12 149.916 433.12ZM149.916 432.205C150.456 432.205 150.956 432.085 151.416 431.845C151.876 431.595 152.246 431.225 152.526 430.735C152.816 430.235 152.961 429.625 152.961 428.905C152.961 428.185 152.821 427.58 152.541 427.09C152.261 426.59 151.891 426.22 151.431 425.98C150.971 425.73 150.471 425.605 149.931 425.605C149.391 425.605 148.891 425.73 148.431 425.98C147.971 426.22 147.601 426.59 147.321 427.09C147.051 427.58 146.916 428.185 146.916 428.905C146.916 429.625 147.051 430.235 147.321 430.735C147.601 431.225 147.966 431.595 148.416 431.845C148.876 432.085 149.376 432.205 149.916 432.205ZM165.205 424.66C166.165 424.66 166.945 424.965 167.545 425.575C168.155 426.175 168.46 427.05 168.46 428.2V433H167.425V428.32C167.425 427.43 167.21 426.75 166.78 426.28C166.35 425.81 165.765 425.575 165.025 425.575C164.255 425.575 163.64 425.83 163.18 426.34C162.72 426.85 162.49 427.59 162.49 428.56V433H161.455V428.32C161.455 427.43 161.24 426.75 160.81 426.28C160.38 425.81 159.79 425.575 159.04 425.575C158.27 425.575 157.655 425.83 157.195 426.34C156.735 426.85 156.505 427.59 156.505 428.56V433H155.455V424.81H156.505V426.22C156.765 425.71 157.135 425.325 157.615 425.065C158.095 424.795 158.63 424.66 159.22 424.66C159.93 424.66 160.55 424.83 161.08 425.17C161.62 425.51 162.01 426.01 162.25 426.67C162.47 426.02 162.845 425.525 163.375 425.185C163.915 424.835 164.525 424.66 165.205 424.66ZM177.702 428.485C177.702 428.845 177.692 429.12 177.672 429.31H170.877C170.907 429.93 171.057 430.46 171.327 430.9C171.597 431.34 171.952 431.675 172.392 431.905C172.832 432.125 173.312 432.235 173.832 432.235C174.512 432.235 175.082 432.07 175.542 431.74C176.012 431.41 176.322 430.965 176.472 430.405H177.582C177.382 431.205 176.952 431.86 176.292 432.37C175.642 432.87 174.822 433.12 173.832 433.12C173.062 433.12 172.372 432.95 171.762 432.61C171.152 432.26 170.672 431.77 170.322 431.14C169.982 430.5 169.812 429.755 169.812 428.905C169.812 428.055 169.982 427.31 170.322 426.67C170.662 426.03 171.137 425.54 171.747 425.2C172.357 424.86 173.052 424.69 173.832 424.69C174.612 424.69 175.292 424.86 175.872 425.2C176.462 425.54 176.912 426 177.222 426.58C177.542 427.15 177.702 427.785 177.702 428.485ZM176.637 428.455C176.647 427.845 176.522 427.325 176.262 426.895C176.012 426.465 175.667 426.14 175.227 425.92C174.787 425.7 174.307 425.59 173.787 425.59C173.007 425.59 172.342 425.84 171.792 426.34C171.242 426.84 170.937 427.545 170.877 428.455H176.637Z" fill="#FBE6DA"/>
<path d="M266.205 422.515V429.115C266.205 430.155 266.45 430.925 266.94 431.425C267.44 431.925 268.12 432.175 268.98 432.175C269.84 432.175 270.51 431.93 270.99 431.44C271.48 430.94 271.725 430.165 271.725 429.115V422.515H272.775V429.1C272.775 430.43 272.42 431.43 271.71 432.1C271.01 432.77 270.095 433.105 268.965 433.105C267.835 433.105 266.915 432.77 266.205 432.1C265.505 431.43 265.155 430.43 265.155 429.1V422.515H266.205ZM275.652 426.61C275.912 426.06 276.322 425.605 276.882 425.245C277.452 424.875 278.127 424.69 278.907 424.69C279.647 424.69 280.312 424.865 280.902 425.215C281.502 425.555 281.967 426.045 282.297 426.685C282.637 427.315 282.807 428.05 282.807 428.89C282.807 429.73 282.637 430.47 282.297 431.11C281.967 431.75 281.502 432.245 280.902 432.595C280.312 432.945 279.647 433.12 278.907 433.12C278.137 433.12 277.467 432.94 276.897 432.58C276.327 432.21 275.912 431.75 275.652 431.2V436.87H274.617V424.81H275.652V426.61ZM281.742 428.89C281.742 428.21 281.607 427.625 281.337 427.135C281.077 426.635 280.717 426.255 280.257 425.995C279.797 425.735 279.277 425.605 278.697 425.605C278.137 425.605 277.622 425.74 277.152 426.01C276.692 426.28 276.327 426.665 276.057 427.165C275.787 427.665 275.652 428.245 275.652 428.905C275.652 429.565 275.787 430.145 276.057 430.645C276.327 431.145 276.692 431.53 277.152 431.8C277.622 432.07 278.137 432.205 278.697 432.205C279.277 432.205 279.797 432.075 280.257 431.815C280.717 431.545 281.077 431.16 281.337 430.66C281.607 430.15 281.742 429.56 281.742 428.89ZM283.759 428.905C283.759 428.055 283.929 427.315 284.269 426.685C284.609 426.045 285.079 425.555 285.679 425.215C286.279 424.865 286.964 424.69 287.734 424.69C288.744 424.69 289.574 424.94 290.224 425.44C290.884 425.94 291.309 426.62 291.499 427.48H290.374C290.234 426.89 289.929 426.43 289.459 426.1C288.999 425.76 288.424 425.59 287.734 425.59C287.184 425.59 286.689 425.715 286.249 425.965C285.809 426.215 285.459 426.59 285.199 427.09C284.949 427.58 284.824 428.185 284.824 428.905C284.824 429.625 284.949 430.235 285.199 430.735C285.459 431.235 285.809 431.61 286.249 431.86C286.689 432.11 287.184 432.235 287.734 432.235C288.424 432.235 288.999 432.07 289.459 431.74C289.929 431.4 290.234 430.93 290.374 430.33H291.499C291.309 431.17 290.884 431.845 290.224 432.355C289.564 432.865 288.734 433.12 287.734 433.12C286.964 433.12 286.279 432.95 285.679 432.61C285.079 432.26 284.609 431.77 284.269 431.14C283.929 430.5 283.759 429.755 283.759 428.905ZM296.523 433.12C295.753 433.12 295.058 432.95 294.438 432.61C293.828 432.26 293.343 431.77 292.983 431.14C292.633 430.5 292.458 429.755 292.458 428.905C292.458 428.055 292.638 427.315 292.998 426.685C293.358 426.045 293.848 425.555 294.468 425.215C295.088 424.865 295.783 424.69 296.553 424.69C297.323 424.69 298.018 424.865 298.638 425.215C299.268 425.555 299.758 426.045 300.108 426.685C300.468 427.315 300.648 428.055 300.648 428.905C300.648 429.745 300.468 430.485 300.108 431.125C299.748 431.765 299.253 432.26 298.623 432.61C297.993 432.95 297.293 433.12 296.523 433.12ZM296.523 432.205C297.063 432.205 297.563 432.085 298.023 431.845C298.483 431.595 298.853 431.225 299.133 430.735C299.423 430.235 299.568 429.625 299.568 428.905C299.568 428.185 299.428 427.58 299.148 427.09C298.868 426.59 298.498 426.22 298.038 425.98C297.578 425.73 297.078 425.605 296.538 425.605C295.998 425.605 295.498 425.73 295.038 425.98C294.578 426.22 294.208 426.59 293.928 427.09C293.658 427.58 293.523 428.185 293.523 428.905C293.523 429.625 293.658 430.235 293.928 430.735C294.208 431.225 294.573 431.595 295.023 431.845C295.483 432.085 295.983 432.205 296.523 432.205ZM311.812 424.66C312.772 424.66 313.552 424.965 314.152 425.575C314.762 426.175 315.067 427.05 315.067 428.2V433H314.032V428.32C314.032 427.43 313.817 426.75 313.387 426.28C312.957 425.81 312.372 425.575 311.632 425.575C310.862 425.575 310.247 425.83 309.787 426.34C309.327 426.85 309.097 427.59 309.097 428.56V433H308.062V428.32C308.062 427.43 307.847 426.75 307.417 426.28C306.987 425.81 306.397 425.575 305.647 425.575C304.877 425.575 304.262 425.83 303.802 426.34C303.342 426.85 303.112 427.59 303.112 428.56V433H302.062V424.81H303.112V426.22C303.372 425.71 303.742 425.325 304.222 425.065C304.702 424.795 305.237 424.66 305.827 424.66C306.537 424.66 307.157 424.83 307.687 425.17C308.227 425.51 308.617 426.01 308.857 426.67C309.077 426.02 309.452 425.525 309.982 425.185C310.522 424.835 311.132 424.66 311.812 424.66ZM317.424 423.265C317.214 423.265 317.034 423.19 316.884 423.04C316.734 422.89 316.659 422.705 316.659 422.485C316.659 422.265 316.734 422.085 316.884 421.945C317.034 421.795 317.214 421.72 317.424 421.72C317.634 421.72 317.814 421.795 317.964 421.945C318.114 422.085 318.189 422.265 318.189 422.485C318.189 422.705 318.114 422.89 317.964 423.04C317.814 423.19 317.634 423.265 317.424 423.265ZM317.949 424.81V433H316.899V424.81H317.949ZM323.667 424.66C324.647 424.66 325.447 424.965 326.067 425.575C326.687 426.175 326.997 427.05 326.997 428.2V433H325.962V428.32C325.962 427.43 325.737 426.75 325.287 426.28C324.847 425.81 324.242 425.575 323.472 425.575C322.682 425.575 322.052 425.825 321.582 426.325C321.112 426.825 320.877 427.56 320.877 428.53V433H319.827V424.81H320.877V426.205C321.137 425.705 321.512 425.325 322.002 425.065C322.492 424.795 323.047 424.66 323.667 424.66ZM332.254 424.69C333.024 424.69 333.694 424.87 334.264 425.23C334.834 425.59 335.244 426.045 335.494 426.595V424.81H336.544V433.21C336.544 433.96 336.379 434.625 336.049 435.205C335.729 435.785 335.279 436.23 334.699 436.54C334.119 436.86 333.459 437.02 332.719 437.02C331.669 437.02 330.794 436.77 330.094 436.27C329.404 435.77 328.974 435.09 328.804 434.23H329.839C330.019 434.8 330.359 435.255 330.859 435.595C331.369 435.935 331.989 436.105 332.719 436.105C333.249 436.105 333.724 435.99 334.144 435.76C334.564 435.54 334.894 435.21 335.134 434.77C335.374 434.33 335.494 433.81 335.494 433.21V431.185C335.234 431.745 334.819 432.21 334.249 432.58C333.689 432.94 333.024 433.12 332.254 433.12C331.504 433.12 330.829 432.945 330.229 432.595C329.639 432.245 329.174 431.75 328.834 431.11C328.504 430.47 328.339 429.73 328.339 428.89C328.339 428.05 328.504 427.315 328.834 426.685C329.174 426.045 329.639 425.555 330.229 425.215C330.829 424.865 331.504 424.69 332.254 424.69ZM335.494 428.905C335.494 428.245 335.359 427.665 335.089 427.165C334.819 426.665 334.449 426.28 333.979 426.01C333.519 425.74 333.009 425.605 332.449 425.605C331.869 425.605 331.349 425.735 330.889 425.995C330.429 426.255 330.064 426.635 329.794 427.135C329.534 427.625 329.404 428.21 329.404 428.89C329.404 429.56 329.534 430.15 329.794 430.66C330.064 431.16 330.429 431.545 330.889 431.815C331.349 432.075 331.869 432.205 332.449 432.205C333.009 432.205 333.519 432.07 333.979 431.8C334.449 431.53 334.819 431.145 335.089 430.645C335.359 430.145 335.494 429.565 335.494 428.905ZM343.107 423.37V427.285H347.082V428.155H343.107V432.13H347.532V433H342.057V422.5H347.532V423.37H343.107ZM353.391 433L351.276 429.7L349.236 433H348.126L350.766 428.905L348.156 424.81H349.341L351.426 428.065L353.451 424.81H354.546L351.936 428.86L354.576 433H353.391ZM356.536 426.61C356.796 426.06 357.206 425.605 357.766 425.245C358.336 424.875 359.011 424.69 359.791 424.69C360.531 424.69 361.196 424.865 361.786 425.215C362.386 425.555 362.851 426.045 363.181 426.685C363.521 427.315 363.691 428.05 363.691 428.89C363.691 429.73 363.521 430.47 363.181 431.11C362.851 431.75 362.386 432.245 361.786 432.595C361.196 432.945 360.531 433.12 359.791 433.12C359.021 433.12 358.351 432.94 357.781 432.58C357.211 432.21 356.796 431.75 356.536 431.2V436.87H355.501V424.81H356.536V426.61ZM362.626 428.89C362.626 428.21 362.491 427.625 362.221 427.135C361.961 426.635 361.601 426.255 361.141 425.995C360.681 425.735 360.161 425.605 359.581 425.605C359.021 425.605 358.506 425.74 358.036 426.01C357.576 426.28 357.211 426.665 356.941 427.165C356.671 427.665 356.536 428.245 356.536 428.905C356.536 429.565 356.671 430.145 356.941 430.645C357.211 431.145 357.576 431.53 358.036 431.8C358.506 432.07 359.021 432.205 359.581 432.205C360.161 432.205 360.681 432.075 361.141 431.815C361.601 431.545 361.961 431.16 362.221 430.66C362.491 430.15 362.626 429.56 362.626 428.89ZM372.533 428.485C372.533 428.845 372.523 429.12 372.503 429.31H365.708C365.738 429.93 365.888 430.46 366.158 430.9C366.428 431.34 366.783 431.675 367.223 431.905C367.663 432.125 368.143 432.235 368.663 432.235C369.343 432.235 369.913 432.07 370.373 431.74C370.843 431.41 371.153 430.965 371.303 430.405H372.413C372.213 431.205 371.783 431.86 371.123 432.37C370.473 432.87 369.653 433.12 368.663 433.12C367.893 433.12 367.203 432.95 366.593 432.61C365.983 432.26 365.503 431.77 365.153 431.14C364.813 430.5 364.643 429.755 364.643 428.905C364.643 428.055 364.813 427.31 365.153 426.67C365.493 426.03 365.968 425.54 366.578 425.2C367.188 424.86 367.883 424.69 368.663 424.69C369.443 424.69 370.123 424.86 370.703 425.2C371.293 425.54 371.743 426 372.053 426.58C372.373 427.15 372.533 427.785 372.533 428.485ZM371.468 428.455C371.478 427.845 371.353 427.325 371.093 426.895C370.843 426.465 370.498 426.14 370.058 425.92C369.618 425.7 369.138 425.59 368.618 425.59C367.838 425.59 367.173 425.84 366.623 426.34C366.073 426.84 365.768 427.545 365.708 428.455H371.468ZM377.794 424.66C378.774 424.66 379.574 424.965 380.194 425.575C380.814 426.175 381.124 427.05 381.124 428.2V433H380.089V428.32C380.089 427.43 379.864 426.75 379.414 426.28C378.974 425.81 378.369 425.575 377.599 425.575C376.809 425.575 376.179 425.825 375.709 426.325C375.239 426.825 375.004 427.56 375.004 428.53V433H373.954V424.81H375.004V426.205C375.264 425.705 375.639 425.325 376.129 425.065C376.619 424.795 377.174 424.66 377.794 424.66ZM385.766 433.12C384.826 433.12 384.056 432.905 383.456 432.475C382.866 432.035 382.536 431.44 382.466 430.69H383.546C383.596 431.15 383.811 431.525 384.191 431.815C384.581 432.095 385.101 432.235 385.751 432.235C386.321 432.235 386.766 432.1 387.086 431.83C387.416 431.56 387.581 431.225 387.581 430.825C387.581 430.545 387.491 430.315 387.311 430.135C387.131 429.955 386.901 429.815 386.621 429.715C386.351 429.605 385.981 429.49 385.511 429.37C384.901 429.21 384.406 429.05 384.026 428.89C383.646 428.73 383.321 428.495 383.051 428.185C382.791 427.865 382.661 427.44 382.661 426.91C382.661 426.51 382.781 426.14 383.021 425.8C383.261 425.46 383.601 425.19 384.041 424.99C384.481 424.79 384.981 424.69 385.541 424.69C386.421 424.69 387.131 424.915 387.671 425.365C388.211 425.805 388.501 426.415 388.541 427.195H387.491C387.461 426.715 387.271 426.33 386.921 426.04C386.581 425.74 386.111 425.59 385.511 425.59C384.981 425.59 384.551 425.715 384.221 425.965C383.891 426.215 383.726 426.525 383.726 426.895C383.726 427.215 383.821 427.48 384.011 427.69C384.211 427.89 384.456 428.05 384.746 428.17C385.036 428.28 385.426 428.405 385.916 428.545C386.506 428.705 386.976 428.86 387.326 429.01C387.676 429.16 387.976 429.38 388.226 429.67C388.476 429.96 388.606 430.345 388.616 430.825C388.616 431.265 388.496 431.66 388.256 432.01C388.016 432.35 387.681 432.62 387.251 432.82C386.821 433.02 386.326 433.12 385.766 433.12ZM397.503 428.485C397.503 428.845 397.493 429.12 397.473 429.31H390.678C390.708 429.93 390.858 430.46 391.128 430.9C391.398 431.34 391.753 431.675 392.193 431.905C392.633 432.125 393.113 432.235 393.633 432.235C394.313 432.235 394.883 432.07 395.343 431.74C395.813 431.41 396.123 430.965 396.273 430.405H397.383C397.183 431.205 396.753 431.86 396.093 432.37C395.443 432.87 394.623 433.12 393.633 433.12C392.863 433.12 392.173 432.95 391.563 432.61C390.953 432.26 390.473 431.77 390.123 431.14C389.783 430.5 389.613 429.755 389.613 428.905C389.613 428.055 389.783 427.31 390.123 426.67C390.463 426.03 390.938 425.54 391.548 425.2C392.158 424.86 392.853 424.69 393.633 424.69C394.413 424.69 395.093 424.86 395.673 425.2C396.263 425.54 396.713 426 397.023 426.58C397.343 427.15 397.503 427.785 397.503 428.485ZM396.438 428.455C396.448 427.845 396.323 427.325 396.063 426.895C395.813 426.465 395.468 426.14 395.028 425.92C394.588 425.7 394.108 425.59 393.588 425.59C392.808 425.59 392.143 425.84 391.593 426.34C391.043 426.84 390.738 427.545 390.678 428.455H396.438ZM401.744 433.12C400.804 433.12 400.034 432.905 399.434 432.475C398.844 432.035 398.514 431.44 398.444 430.69H399.524C399.574 431.15 399.789 431.525 400.169 431.815C400.559 432.095 401.079 432.235 401.729 432.235C402.299 432.235 402.744 432.1 403.064 431.83C403.394 431.56 403.559 431.225 403.559 430.825C403.559 430.545 403.469 430.315 403.289 430.135C403.109 429.955 402.879 429.815 402.599 429.715C402.329 429.605 401.959 429.49 401.489 429.37C400.879 429.21 400.384 429.05 400.004 428.89C399.624 428.73 399.299 428.495 399.029 428.185C398.769 427.865 398.639 427.44 398.639 426.91C398.639 426.51 398.759 426.14 398.999 425.8C399.239 425.46 399.579 425.19 400.019 424.99C400.459 424.79 400.959 424.69 401.519 424.69C402.399 424.69 403.109 424.915 403.649 425.365C404.189 425.805 404.479 426.415 404.519 427.195H403.469C403.439 426.715 403.249 426.33 402.899 426.04C402.559 425.74 402.089 425.59 401.489 425.59C400.959 425.59 400.529 425.715 400.199 425.965C399.869 426.215 399.704 426.525 399.704 426.895C399.704 427.215 399.799 427.48 399.989 427.69C400.189 427.89 400.434 428.05 400.724 428.17C401.014 428.28 401.404 428.405 401.894 428.545C402.484 428.705 402.954 428.86 403.304 429.01C403.654 429.16 403.954 429.38 404.204 429.67C404.454 429.96 404.584 430.345 404.594 430.825C404.594 431.265 404.474 431.66 404.234 432.01C403.994 432.35 403.659 432.62 403.229 432.82C402.799 433.02 402.304 433.12 401.744 433.12Z" fill="#FBE6DA"/>
<path d="M281.43 468.94C281.43 470.28 281.06 471.44 280.32 472.42C279.58 473.4 278.63 474.14 277.47 474.64C276.33 475.14 275.14 475.39 273.9 475.39V478.63H272.94V475.36C271.8 475.26 270.68 475.01 269.58 474.61C268.48 474.21 267.56 473.64 266.82 472.9C266.08 472.14 265.71 471.21 265.71 470.11C265.71 469.49 265.89 468.98 266.25 468.58C266.61 468.18 267.06 467.98 267.6 467.98C268.18 467.98 268.64 468.18 268.98 468.58C269.34 468.98 269.52 469.48 269.52 470.08C269.52 470.4 269.45 470.74 269.31 471.1C269.19 471.46 269.13 471.75 269.13 471.97C269.13 472.65 269.51 473.18 270.27 473.56C271.05 473.92 271.94 474.14 272.94 474.22V465.76C272.8 465.7 272.26 465.49 271.32 465.13C270.38 464.75 269.67 464.41 269.19 464.11C267.35 462.93 266.43 461.41 266.43 459.55C266.43 458.53 266.68 457.59 267.18 456.73C267.7 455.85 268.45 455.14 269.43 454.6C270.41 454.04 271.58 453.72 272.94 453.64V450.94H273.9V453.61C275.82 453.65 277.4 454.08 278.64 454.9C279.88 455.7 280.5 456.79 280.5 458.17C280.5 458.79 280.32 459.29 279.96 459.67C279.62 460.03 279.2 460.21 278.7 460.21C278.28 460.21 277.88 460.07 277.5 459.79C277.14 459.49 276.96 459.08 276.96 458.56C276.96 458.42 276.98 458.27 277.02 458.11C277.06 457.95 277.09 457.83 277.11 457.75C277.21 457.49 277.26 457.23 277.26 456.97C277.26 456.35 276.93 455.83 276.27 455.41C275.63 454.97 274.84 454.73 273.9 454.69V462.28C275.72 462.96 277.13 463.57 278.13 464.11C279.13 464.61 279.93 465.26 280.53 466.06C281.13 466.86 281.43 467.82 281.43 468.94ZM271.53 461.35C271.73 461.45 272.2 461.64 272.94 461.92V454.72C271.66 454.82 270.66 455.2 269.94 455.86C269.24 456.52 268.89 457.36 268.89 458.38C268.89 459.06 269.1 459.62 269.52 460.06C269.96 460.48 270.63 460.91 271.53 461.35ZM273.9 474.25C275.3 474.17 276.46 473.77 277.38 473.05C278.3 472.31 278.76 471.35 278.76 470.17C278.76 469.49 278.56 468.91 278.16 468.43C277.76 467.95 277.17 467.52 276.39 467.14C275.99 466.92 275.16 466.58 273.9 466.12V474.25ZM285.069 475C284.929 475 284.859 474.87 284.859 474.61C284.859 474.37 284.929 474.25 285.069 474.25H285.459C287.959 474.25 289.209 473.45 289.209 471.85V458.74C289.209 457.94 289.119 457.37 288.939 457.03C288.779 456.69 288.499 456.48 288.099 456.4C287.719 456.3 287.069 456.25 286.149 456.25H285.159C285.019 456.25 284.949 456.12 284.949 455.86C284.949 455.74 284.959 455.65 284.979 455.59C284.999 455.53 285.059 455.5 285.159 455.5C288.039 455.22 290.649 454.25 292.989 452.59V471.85C292.989 472.79 293.339 473.43 294.039 473.77C294.759 474.09 295.659 474.25 296.739 474.25H297.099C297.239 474.25 297.309 474.37 297.309 474.61C297.309 474.87 297.239 475 297.099 475H285.069ZM300.987 478.75C300.927 478.75 300.867 478.72 300.807 478.66C300.767 478.6 300.747 478.55 300.747 478.51C300.747 478.47 300.777 478.42 300.837 478.36C301.297 477.96 301.647 477.56 301.887 477.16C302.127 476.76 302.247 476.41 302.247 476.11C302.247 475.69 302.067 475.4 301.707 475.24C301.287 475.04 300.957 474.8 300.717 474.52C300.477 474.22 300.357 473.85 300.357 473.41C300.357 472.83 300.557 472.34 300.957 471.94C301.357 471.52 301.847 471.31 302.427 471.31C303.007 471.31 303.497 471.52 303.897 471.94C304.297 472.34 304.497 472.85 304.497 473.47C304.497 474.65 304.147 475.7 303.447 476.62C302.767 477.56 301.987 478.26 301.107 478.72L300.987 478.75ZM314.721 475.39C313.381 475.39 312.101 474.96 310.881 474.1C309.661 473.24 308.671 471.95 307.911 470.23C307.151 468.51 306.771 466.43 306.771 463.99C306.771 461.55 307.151 459.47 307.911 457.75C308.691 456.03 309.691 454.74 310.911 453.88C312.131 453.02 313.401 452.59 314.721 452.59C316.061 452.59 317.341 453.02 318.561 453.88C319.781 454.74 320.771 456.03 321.531 457.75C322.311 459.47 322.701 461.55 322.701 463.99C322.701 466.43 322.311 468.51 321.531 470.23C320.771 471.95 319.781 473.24 318.561 474.1C317.341 474.96 316.061 475.39 314.721 475.39ZM314.721 474.34C316.021 474.34 317.011 473.49 317.691 471.79C318.391 470.07 318.741 467.47 318.741 463.99C318.741 460.51 318.391 457.92 317.691 456.22C317.011 454.52 316.021 453.67 314.721 453.67C313.421 453.67 312.421 454.52 311.721 456.22C311.041 457.92 310.701 460.51 310.701 463.99C310.701 467.47 311.041 470.07 311.721 471.79C312.421 473.49 313.421 474.34 314.721 474.34ZM332.853 475.39C331.513 475.39 330.233 474.96 329.013 474.1C327.793 473.24 326.803 471.95 326.043 470.23C325.283 468.51 324.903 466.43 324.903 463.99C324.903 461.55 325.283 459.47 326.043 457.75C326.823 456.03 327.823 454.74 329.043 453.88C330.263 453.02 331.533 452.59 332.853 452.59C334.193 452.59 335.473 453.02 336.693 453.88C337.913 454.74 338.903 456.03 339.663 457.75C340.443 459.47 340.833 461.55 340.833 463.99C340.833 466.43 340.443 468.51 339.663 470.23C338.903 471.95 337.913 473.24 336.693 474.1C335.473 474.96 334.193 475.39 332.853 475.39ZM332.853 474.34C334.153 474.34 335.143 473.49 335.823 471.79C336.523 470.07 336.873 467.47 336.873 463.99C336.873 460.51 336.523 457.92 335.823 456.22C335.143 454.52 334.153 453.67 332.853 453.67C331.553 453.67 330.553 454.52 329.853 456.22C329.173 457.92 328.833 460.51 328.833 463.99C328.833 467.47 329.173 470.07 329.853 471.79C330.553 473.49 331.553 474.34 332.853 474.34ZM359.296 470.11H355.486V472.18C355.486 473.56 356.256 474.25 357.796 474.25H358.156C358.296 474.25 358.366 474.37 358.366 474.61C358.366 474.87 358.296 475 358.156 475H349.036C348.896 475 348.826 474.87 348.826 474.61C348.826 474.37 348.896 474.25 349.036 474.25H349.396C350.916 474.25 351.686 473.56 351.706 472.18V470.11H342.646V469L354.286 452.62L355.516 452.89L355.486 469H359.296V470.11ZM351.796 458.11L344.086 469H351.736L351.796 458.11ZM363.665 475.45C363.105 475.45 362.625 475.25 362.225 474.85C361.825 474.43 361.625 473.93 361.625 473.35C361.625 472.79 361.825 472.31 362.225 471.91C362.625 471.51 363.105 471.31 363.665 471.31C364.245 471.31 364.735 471.51 365.135 471.91C365.555 472.31 365.765 472.79 365.765 473.35C365.765 473.93 365.555 474.43 365.135 474.85C364.735 475.25 364.245 475.45 363.665 475.45ZM376.705 475.39C375.365 475.39 374.085 474.96 372.865 474.1C371.645 473.24 370.655 471.95 369.895 470.23C369.135 468.51 368.755 466.43 368.755 463.99C368.755 461.55 369.135 459.47 369.895 457.75C370.675 456.03 371.675 454.74 372.895 453.88C374.115 453.02 375.385 452.59 376.705 452.59C378.045 452.59 379.325 453.02 380.545 453.88C381.765 454.74 382.755 456.03 383.515 457.75C384.295 459.47 384.685 461.55 384.685 463.99C384.685 466.43 384.295 468.51 383.515 470.23C382.755 471.95 381.765 473.24 380.545 474.1C379.325 474.96 378.045 475.39 376.705 475.39ZM376.705 474.34C378.005 474.34 378.995 473.49 379.675 471.79C380.375 470.07 380.725 467.47 380.725 463.99C380.725 460.51 380.375 457.92 379.675 456.22C378.995 454.52 378.005 453.67 376.705 453.67C375.405 453.67 374.405 454.52 373.705 456.22C373.025 457.92 372.685 460.51 372.685 463.99C372.685 467.47 373.025 470.07 373.705 471.79C374.405 473.49 375.405 474.34 376.705 474.34ZM397.688 462.64C398.988 463.3 400.038 463.91 400.838 464.47C401.658 465.03 402.318 465.69 402.818 466.45C403.318 467.19 403.568 468.06 403.568 469.06C403.568 470.38 403.178 471.52 402.398 472.48C401.618 473.44 400.608 474.17 399.368 474.67C398.148 475.15 396.858 475.39 395.498 475.39C394.058 475.39 392.688 475.16 391.388 474.7C390.088 474.22 389.038 473.55 388.238 472.69C387.438 471.83 387.038 470.85 387.038 469.75C387.038 468.55 387.478 467.53 388.358 466.69C389.238 465.85 390.498 465.04 392.138 464.26C390.758 463.56 389.728 462.76 389.048 461.86C388.388 460.94 388.058 459.8 388.058 458.44C388.058 457.54 388.318 456.64 388.838 455.74C389.378 454.82 390.178 454.07 391.238 453.49C392.298 452.89 393.588 452.59 395.108 452.59C396.288 452.59 397.418 452.8 398.498 453.22C399.578 453.62 400.448 454.19 401.108 454.93C401.768 455.67 402.098 456.53 402.098 457.51C402.098 458.65 401.708 459.63 400.928 460.45C400.148 461.25 399.068 461.98 397.688 462.64ZM390.998 457.21C390.998 457.87 391.148 458.43 391.448 458.89C391.748 459.33 392.148 459.71 392.648 460.03C393.168 460.35 393.928 460.75 394.928 461.23L396.608 462.07C397.528 461.43 398.148 460.76 398.468 460.06C398.788 459.34 398.948 458.55 398.948 457.69C398.948 457.07 398.788 456.45 398.468 455.83C398.148 455.19 397.668 454.66 397.028 454.24C396.408 453.82 395.658 453.61 394.778 453.61C393.898 453.61 393.178 453.8 392.618 454.18C392.058 454.56 391.648 455.03 391.388 455.59C391.128 456.15 390.998 456.69 390.998 457.21ZM395.138 474.34C396.758 474.34 397.998 473.95 398.858 473.17C399.718 472.39 400.148 471.41 400.148 470.23C400.148 469.49 399.808 468.8 399.128 468.16C398.448 467.52 397.638 466.95 396.698 466.45C395.778 465.95 394.618 465.39 393.218 464.77C391.478 466.03 390.608 467.68 390.608 469.72C390.608 471.02 390.978 472.12 391.718 473.02C392.478 473.9 393.618 474.34 395.138 474.34Z" fill="#FBE6DA"/>
<rect x="56" y="38" width="104" height="32" rx="15" fill="#BDD6F5"/>
<path d="M91.828 53.724H89.74V55.86H87.796V53.724H85.708V51.888H87.796V49.74H89.74V51.888H91.828V53.724ZM93.6438 50.712C93.6758 49.856 93.9558 49.196 94.4838 48.732C95.0118 48.268 95.7278 48.036 96.6318 48.036C97.2318 48.036 97.7438 48.14 98.1678 48.348C98.5998 48.556 98.9238 48.84 99.1398 49.2C99.3638 49.56 99.4758 49.964 99.4758 50.412C99.4758 50.94 99.3438 51.372 99.0798 51.708C98.8158 52.036 98.5078 52.26 98.1558 52.38V52.428C98.6118 52.58 98.9718 52.832 99.2358 53.184C99.4998 53.536 99.6318 53.988 99.6318 54.54C99.6318 55.036 99.5158 55.476 99.2838 55.86C99.0598 56.236 98.7278 56.532 98.2878 56.748C97.8558 56.964 97.3398 57.072 96.7398 57.072C95.7798 57.072 95.0118 56.836 94.4358 56.364C93.8678 55.892 93.5678 55.18 93.5358 54.228H95.5278C95.5358 54.58 95.6358 54.86 95.8278 55.068C96.0198 55.268 96.2998 55.368 96.6678 55.368C96.9798 55.368 97.2198 55.28 97.3878 55.104C97.5638 54.92 97.6518 54.68 97.6518 54.384C97.6518 54 97.5278 53.724 97.2798 53.556C97.0398 53.38 96.6518 53.292 96.1158 53.292H95.7318V51.624H96.1158C96.5238 51.624 96.8518 51.556 97.0998 51.42C97.3558 51.276 97.4838 51.024 97.4838 50.664C97.4838 50.376 97.4038 50.152 97.2438 49.992C97.0838 49.832 96.8638 49.752 96.5838 49.752C96.2798 49.752 96.0518 49.844 95.8998 50.028C95.7558 50.212 95.6718 50.44 95.6478 50.712H93.6438ZM102.498 57.096C102.138 57.096 101.842 56.992 101.61 56.784C101.386 56.568 101.274 56.304 101.274 55.992C101.274 55.672 101.386 55.404 101.61 55.188C101.842 54.972 102.138 54.864 102.498 54.864C102.85 54.864 103.138 54.972 103.362 55.188C103.594 55.404 103.71 55.672 103.71 55.992C103.71 56.304 103.594 56.568 103.362 56.784C103.138 56.992 102.85 57.096 102.498 57.096ZM105.145 55.356C105.417 55.14 105.541 55.04 105.517 55.056C106.301 54.408 106.917 53.876 107.365 53.46C107.821 53.044 108.205 52.608 108.517 52.152C108.829 51.696 108.985 51.252 108.985 50.82C108.985 50.492 108.909 50.236 108.757 50.052C108.605 49.868 108.377 49.776 108.073 49.776C107.769 49.776 107.529 49.892 107.353 50.124C107.185 50.348 107.101 50.668 107.101 51.084H105.121C105.137 50.404 105.281 49.836 105.553 49.38C105.833 48.924 106.197 48.588 106.645 48.372C107.101 48.156 107.605 48.048 108.157 48.048C109.109 48.048 109.825 48.292 110.305 48.78C110.793 49.268 111.037 49.904 111.037 50.688C111.037 51.544 110.745 52.34 110.161 53.076C109.577 53.804 108.833 54.516 107.929 55.212H111.169V56.88H105.145V55.356ZM114.01 52.296C113.258 51.896 112.882 51.268 112.882 50.412C112.882 49.98 112.994 49.588 113.218 49.236C113.442 48.876 113.782 48.592 114.238 48.384C114.694 48.168 115.254 48.06 115.918 48.06C116.582 48.06 117.138 48.168 117.586 48.384C118.042 48.592 118.382 48.876 118.606 49.236C118.83 49.588 118.942 49.98 118.942 50.412C118.942 50.844 118.838 51.22 118.63 51.54C118.43 51.86 118.158 52.112 117.814 52.296C118.246 52.504 118.578 52.792 118.81 53.16C119.042 53.52 119.158 53.944 119.158 54.432C119.158 55 119.014 55.492 118.726 55.908C118.438 56.316 118.046 56.628 117.55 56.844C117.062 57.06 116.518 57.168 115.918 57.168C115.318 57.168 114.77 57.06 114.274 56.844C113.786 56.628 113.398 56.316 113.11 55.908C112.822 55.492 112.678 55 112.678 54.432C112.678 53.936 112.794 53.508 113.026 53.148C113.258 52.78 113.586 52.496 114.01 52.296ZM116.95 50.724C116.95 50.396 116.854 50.144 116.662 49.968C116.478 49.784 116.23 49.692 115.918 49.692C115.606 49.692 115.354 49.784 115.162 49.968C114.978 50.152 114.886 50.408 114.886 50.736C114.886 51.048 114.982 51.296 115.174 51.48C115.366 51.656 115.614 51.744 115.918 51.744C116.222 51.744 116.47 51.652 116.662 51.468C116.854 51.284 116.95 51.036 116.95 50.724ZM115.918 53.184C115.542 53.184 115.238 53.288 115.006 53.496C114.774 53.696 114.658 53.976 114.658 54.336C114.658 54.672 114.77 54.948 114.994 55.164C115.226 55.38 115.534 55.488 115.918 55.488C116.302 55.488 116.602 55.38 116.818 55.164C117.042 54.948 117.154 54.672 117.154 54.336C117.154 53.984 117.038 53.704 116.806 53.496C116.582 53.288 116.286 53.184 115.918 53.184ZM120.68 50.448C120.68 49.8 120.864 49.3 121.232 48.948C121.608 48.596 122.092 48.42 122.684 48.42C123.276 48.42 123.756 48.596 124.124 48.948C124.492 49.3 124.676 49.8 124.676 50.448C124.676 51.096 124.492 51.596 124.124 51.948C123.756 52.3 123.276 52.476 122.684 52.476C122.092 52.476 121.608 52.3 121.232 51.948C120.864 51.596 120.68 51.096 120.68 50.448ZM128.828 48.552L124.208 57H122.228L126.848 48.552H128.828ZM122.672 49.62C122.288 49.62 122.096 49.896 122.096 50.448C122.096 50.992 122.288 51.264 122.672 51.264C122.856 51.264 123 51.196 123.104 51.06C123.208 50.924 123.26 50.72 123.26 50.448C123.26 49.896 123.064 49.62 122.672 49.62ZM126.392 55.104C126.392 54.456 126.576 53.956 126.944 53.604C127.312 53.252 127.792 53.076 128.384 53.076C128.976 53.076 129.456 53.252 129.824 53.604C130.192 53.956 130.376 54.456 130.376 55.104C130.376 55.752 130.192 56.252 129.824 56.604C129.456 56.956 128.976 57.132 128.384 57.132C127.792 57.132 127.312 56.956 126.944 56.604C126.576 56.252 126.392 55.752 126.392 55.104ZM128.372 54.276C128.188 54.276 128.044 54.344 127.94 54.48C127.844 54.616 127.796 54.824 127.796 55.104C127.796 55.648 127.988 55.92 128.372 55.92C128.556 55.92 128.7 55.852 128.804 55.716C128.908 55.58 128.96 55.376 128.96 55.104C128.96 54.832 128.908 54.628 128.804 54.492C128.7 54.348 128.556 54.276 128.372 54.276Z" fill="#263238"/>
<defs>
<clipPath id="clip0_506_15893">
<rect width="180" height="360" fill="white" transform="translate(74 379) rotate(-90)"/>
</clipPath>
</defs>
</svg>
