<svg width="600" height="400" viewBox="0 0 600 400" fill="none" xmlns="http://www.w3.org/2000/svg">
<rect width="600" height="400" rx="21" fill="#FFC700" fill-opacity="0.8"/>
<rect x="138" y="243" width="91" height="32" rx="15" fill="#6ED47C" fill-opacity="0.4"/>
<path d="M155.828 259.724H153.74V261.86H151.796V259.724H149.708V257.888H151.796V255.74H153.74V257.888H155.828V259.724ZM157.356 256.148V254.24H160.68V263H158.544V256.148H157.356ZM162.628 261.44V259.784L166.42 254.36H168.712V259.664H169.696V261.44H168.712V263H166.66V261.44H162.628ZM166.804 256.616L164.788 259.664H166.804V256.616ZM176.494 257.252C176.694 256.94 176.97 256.688 177.322 256.496C177.674 256.304 178.086 256.208 178.558 256.208C179.11 256.208 179.61 256.348 180.058 256.628C180.506 256.908 180.858 257.308 181.114 257.828C181.378 258.348 181.51 258.952 181.51 259.64C181.51 260.328 181.378 260.936 181.114 261.464C180.858 261.984 180.506 262.388 180.058 262.676C179.61 262.956 179.11 263.096 178.558 263.096C178.094 263.096 177.682 263 177.322 262.808C176.97 262.616 176.694 262.368 176.494 262.064V266.192H174.442V256.304H176.494V257.252ZM179.422 259.64C179.422 259.128 179.278 258.728 178.99 258.44C178.71 258.144 178.362 257.996 177.946 257.996C177.538 257.996 177.19 258.144 176.902 258.44C176.622 258.736 176.482 259.14 176.482 259.652C176.482 260.164 176.622 260.568 176.902 260.864C177.19 261.16 177.538 261.308 177.946 261.308C178.354 261.308 178.702 261.16 178.99 260.864C179.278 260.56 179.422 260.152 179.422 259.64ZM186.131 263.096C185.475 263.096 184.883 262.956 184.355 262.676C183.835 262.396 183.423 261.996 183.119 261.476C182.823 260.956 182.675 260.348 182.675 259.652C182.675 258.964 182.827 258.36 183.131 257.84C183.435 257.312 183.851 256.908 184.379 256.628C184.907 256.348 185.499 256.208 186.155 256.208C186.811 256.208 187.403 256.348 187.931 256.628C188.459 256.908 188.875 257.312 189.179 257.84C189.483 258.36 189.635 258.964 189.635 259.652C189.635 260.34 189.479 260.948 189.167 261.476C188.863 261.996 188.443 262.396 187.907 262.676C187.379 262.956 186.787 263.096 186.131 263.096ZM186.131 261.32C186.523 261.32 186.855 261.176 187.127 260.888C187.407 260.6 187.547 260.188 187.547 259.652C187.547 259.116 187.411 258.704 187.139 258.416C186.875 258.128 186.547 257.984 186.155 257.984C185.755 257.984 185.423 258.128 185.159 258.416C184.895 258.696 184.763 259.108 184.763 259.652C184.763 260.188 184.891 260.6 185.147 260.888C185.411 261.176 185.739 261.32 186.131 261.32ZM192.252 255.608C191.892 255.608 191.596 255.504 191.364 255.296C191.14 255.08 191.028 254.816 191.028 254.504C191.028 254.184 191.14 253.92 191.364 253.712C191.596 253.496 191.892 253.388 192.252 253.388C192.604 253.388 192.892 253.496 193.116 253.712C193.348 253.92 193.464 254.184 193.464 254.504C193.464 254.816 193.348 255.08 193.116 255.296C192.892 255.504 192.604 255.608 192.252 255.608ZM193.272 256.304V263H191.22V256.304H193.272ZM199.336 256.232C200.12 256.232 200.744 256.488 201.208 257C201.68 257.504 201.916 258.2 201.916 259.088V263H199.876V259.364C199.876 258.916 199.76 258.568 199.528 258.32C199.296 258.072 198.984 257.948 198.592 257.948C198.2 257.948 197.888 258.072 197.656 258.32C197.424 258.568 197.308 258.916 197.308 259.364V263H195.256V256.304H197.308V257.192C197.516 256.896 197.796 256.664 198.148 256.496C198.5 256.32 198.896 256.232 199.336 256.232ZM207.57 261.26V263H206.526C205.782 263 205.202 262.82 204.786 262.46C204.37 262.092 204.162 261.496 204.162 260.672V258.008H203.346V256.304H204.162V254.672H206.214V256.304H207.558V258.008H206.214V260.696C206.214 260.896 206.262 261.04 206.358 261.128C206.454 261.216 206.614 261.26 206.838 261.26H207.57ZM211.934 263.096C211.35 263.096 210.83 262.996 210.374 262.796C209.918 262.596 209.558 262.324 209.294 261.98C209.03 261.628 208.882 261.236 208.85 260.804H210.878C210.902 261.036 211.01 261.224 211.202 261.368C211.394 261.512 211.63 261.584 211.91 261.584C212.166 261.584 212.362 261.536 212.498 261.44C212.642 261.336 212.714 261.204 212.714 261.044C212.714 260.852 212.614 260.712 212.414 260.624C212.214 260.528 211.89 260.424 211.442 260.312C210.962 260.2 210.562 260.084 210.242 259.964C209.922 259.836 209.646 259.64 209.414 259.376C209.182 259.104 209.066 258.74 209.066 258.284C209.066 257.9 209.17 257.552 209.378 257.24C209.594 256.92 209.906 256.668 210.314 256.484C210.73 256.3 211.222 256.208 211.79 256.208C212.63 256.208 213.29 256.416 213.77 256.832C214.258 257.248 214.538 257.8 214.61 258.488H212.714C212.682 258.256 212.578 258.072 212.402 257.936C212.234 257.8 212.01 257.732 211.73 257.732C211.49 257.732 211.306 257.78 211.178 257.876C211.05 257.964 210.986 258.088 210.986 258.248C210.986 258.44 211.086 258.584 211.286 258.68C211.494 258.776 211.814 258.872 212.246 258.968C212.742 259.096 213.146 259.224 213.458 259.352C213.77 259.472 214.042 259.672 214.274 259.952C214.514 260.224 214.638 260.592 214.646 261.056C214.646 261.448 214.534 261.8 214.31 262.112C214.094 262.416 213.778 262.656 213.362 262.832C212.954 263.008 212.478 263.096 211.934 263.096Z" fill="#263238"/>
<path d="M82.8005 56.1384C82.8005 55.3125 82.9403 54.5056 83.2198 53.7178C83.5121 52.9173 83.9314 52.193 84.4778 51.5449C85.0242 50.8842 85.6976 50.3632 86.4982 49.982C87.2987 49.5881 88.2072 49.3912 89.2237 49.3912C90.4309 49.3912 91.4601 49.6707 92.3115 50.2298C93.1755 50.7762 93.8108 51.4814 94.2175 52.3455L93.1692 52.9935C92.8769 52.3963 92.5084 51.9261 92.0637 51.5831C91.6189 51.2273 91.1424 50.9731 90.6342 50.8207C90.1386 50.6682 89.6431 50.5919 89.1475 50.5919C88.3343 50.5919 87.6163 50.7571 86.9937 51.0875C86.3711 51.4052 85.8438 51.8372 85.4117 52.3836C84.9924 52.9173 84.6748 53.5208 84.4587 54.1943C84.2427 54.855 84.1347 55.5285 84.1347 56.2146C84.1347 56.9643 84.2618 57.6823 84.5159 58.3684C84.7701 59.0546 85.1258 59.6645 85.5833 60.1982C86.0407 60.7192 86.5744 61.1385 87.1843 61.4561C87.8069 61.7611 88.4804 61.9136 89.2047 61.9136C89.7129 61.9136 90.2339 61.8246 90.7676 61.6467C91.3013 61.4688 91.7968 61.1957 92.2543 60.8272C92.7244 60.4587 93.0993 59.9822 93.3788 59.3977L94.4843 59.9695C94.2048 60.6429 93.7727 61.2147 93.1882 61.6849C92.6037 62.155 91.9493 62.5108 91.225 62.7522C90.5135 62.9936 89.8146 63.1144 89.1284 63.1144C88.2009 63.1144 87.3495 62.9174 86.5744 62.5235C85.7993 62.1169 85.1258 61.5832 84.554 60.9225C83.9949 60.249 83.5629 59.4993 83.258 58.6734C82.953 57.8347 82.8005 56.9897 82.8005 56.1384ZM101.948 54.2133C101.084 54.2388 100.322 54.4802 99.6611 54.9376C99.013 55.3951 98.5556 56.024 98.2888 56.8246V63H96.9927V53.0697H98.2125V55.4522C98.5556 54.7534 99.0067 54.1879 99.5658 53.7559C100.138 53.3239 100.741 53.0824 101.376 53.0316C101.504 53.0189 101.612 53.0126 101.7 53.0126C101.802 53.0126 101.885 53.0189 101.948 53.0316V54.2133ZM108.144 63.1906C107.432 63.1906 106.771 63.0572 106.161 62.7903C105.551 62.5108 105.024 62.1359 104.579 61.6658C104.135 61.1829 103.785 60.6302 103.531 60.0076C103.29 59.385 103.169 58.7179 103.169 58.0063C103.169 57.0787 103.379 56.2273 103.798 55.4522C104.23 54.6771 104.821 54.0609 105.57 53.6034C106.32 53.1333 107.172 52.8982 108.125 52.8982C109.103 52.8982 109.954 53.1333 110.679 53.6034C111.416 54.0736 111.994 54.6962 112.413 55.4713C112.832 56.2337 113.042 57.0723 113.042 57.9872C113.042 58.0889 113.042 58.1905 113.042 58.2922C113.042 58.3811 113.036 58.451 113.023 58.5018H104.522C104.586 59.2134 104.783 59.8487 105.113 60.4078C105.456 60.9542 105.894 61.3926 106.428 61.723C106.975 62.0406 107.565 62.1995 108.201 62.1995C108.849 62.1995 109.459 62.0343 110.031 61.7039C110.615 61.3735 111.022 60.9415 111.25 60.4078L112.375 60.7128C112.172 61.1829 111.86 61.6086 111.441 61.9898C111.022 62.371 110.526 62.6696 109.954 62.8856C109.395 63.0889 108.792 63.1906 108.144 63.1906ZM104.484 57.5679H111.822C111.771 56.8436 111.574 56.2083 111.231 55.6619C110.901 55.1155 110.463 54.6898 109.916 54.3849C109.382 54.0672 108.792 53.9084 108.144 53.9084C107.496 53.9084 106.905 54.0672 106.371 54.3849C105.837 54.6898 105.399 55.1219 105.056 55.681C104.725 56.2273 104.535 56.8563 104.484 57.5679ZM114.871 58.0635C114.871 57.1232 115.062 56.2655 115.443 55.4904C115.837 54.7025 116.377 54.0736 117.063 53.6034C117.749 53.1333 118.531 52.8982 119.407 52.8982C120.233 52.8982 120.97 53.1206 121.618 53.5653C122.279 53.9973 122.794 54.5247 123.162 55.1473V49.0862H124.458V61.4371C124.458 61.615 124.497 61.7484 124.573 61.8373C124.649 61.9136 124.763 61.9581 124.916 61.9708V63C124.662 63.0381 124.465 63.0508 124.325 63.0381C124.058 63.0254 123.823 62.9174 123.62 62.7141C123.416 62.5108 123.315 62.2884 123.315 62.047V61.0749C122.921 61.723 122.387 62.2376 121.714 62.6188C121.04 63 120.341 63.1906 119.617 63.1906C118.931 63.1906 118.296 63.0508 117.711 62.7713C117.139 62.4917 116.637 62.1105 116.205 61.6277C115.786 61.1448 115.456 60.5984 115.214 59.9885C114.986 59.3659 114.871 58.7242 114.871 58.0635ZM123.162 59.5883V56.5196C122.997 56.0622 122.73 55.6492 122.362 55.2807C121.993 54.8995 121.574 54.6009 121.104 54.3849C120.646 54.1562 120.189 54.0418 119.732 54.0418C119.198 54.0418 118.715 54.1562 118.283 54.3849C117.851 54.6009 117.476 54.8995 117.158 55.2807C116.853 55.6619 116.618 56.0939 116.453 56.5768C116.288 57.0596 116.205 57.5552 116.205 58.0635C116.205 58.5971 116.294 59.1054 116.472 59.5883C116.663 60.0711 116.93 60.5031 117.273 60.8843C117.616 61.2528 118.01 61.5387 118.454 61.742C118.899 61.9453 119.382 62.047 119.903 62.047C120.233 62.047 120.577 61.9835 120.932 61.8564C121.288 61.7293 121.625 61.5578 121.942 61.3418C122.273 61.1131 122.546 60.8462 122.762 60.5413C122.978 60.2363 123.111 59.9186 123.162 59.5883ZM127.892 63V53.0697H129.188V63H127.892ZM127.892 50.9922V49.0862H129.188V50.9922H127.892ZM137.304 62.5235C137.202 62.5616 137.044 62.6315 136.828 62.7332C136.612 62.8348 136.351 62.9238 136.046 63C135.741 63.0762 135.411 63.1144 135.055 63.1144C134.686 63.1144 134.337 63.0445 134.007 62.9047C133.689 62.7649 133.435 62.5553 133.244 62.2757C133.054 61.9835 132.958 61.6277 132.958 61.2084V54.099H131.586V53.0697H132.958V49.7152H134.254V53.0697H136.542V54.099H134.254V60.8462C134.28 61.202 134.407 61.4688 134.636 61.6467C134.877 61.8246 135.15 61.9136 135.455 61.9136C135.811 61.9136 136.135 61.8564 136.427 61.742C136.72 61.615 136.897 61.526 136.961 61.4752L137.304 62.5235Z" fill="#263238"/>
<rect x="42" y="38" width="23" height="36" rx="9" fill="#FF743C"/>
<path d="M442.34 262.098C441.659 262.098 441.043 261.981 440.492 261.748C439.951 261.515 439.521 261.179 439.204 260.74C438.887 260.301 438.723 259.783 438.714 259.186H440.814C440.842 259.587 440.982 259.905 441.234 260.138C441.495 260.371 441.85 260.488 442.298 260.488C442.755 260.488 443.115 260.381 443.376 260.166C443.637 259.942 443.768 259.653 443.768 259.298C443.768 259.009 443.679 258.771 443.502 258.584C443.325 258.397 443.101 258.253 442.83 258.15C442.569 258.038 442.205 257.917 441.738 257.786C441.103 257.599 440.585 257.417 440.184 257.24C439.792 257.053 439.451 256.778 439.162 256.414C438.882 256.041 438.742 255.546 438.742 254.93C438.742 254.351 438.887 253.847 439.176 253.418C439.465 252.989 439.871 252.662 440.394 252.438C440.917 252.205 441.514 252.088 442.186 252.088C443.194 252.088 444.011 252.335 444.636 252.83C445.271 253.315 445.621 253.997 445.686 254.874H443.53C443.511 254.538 443.367 254.263 443.096 254.048C442.835 253.824 442.485 253.712 442.046 253.712C441.663 253.712 441.355 253.81 441.122 254.006C440.898 254.202 440.786 254.487 440.786 254.86C440.786 255.121 440.87 255.341 441.038 255.518C441.215 255.686 441.43 255.826 441.682 255.938C441.943 256.041 442.307 256.162 442.774 256.302C443.409 256.489 443.927 256.675 444.328 256.862C444.729 257.049 445.075 257.329 445.364 257.702C445.653 258.075 445.798 258.565 445.798 259.172C445.798 259.695 445.663 260.18 445.392 260.628C445.121 261.076 444.725 261.435 444.202 261.706C443.679 261.967 443.059 262.098 442.34 262.098ZM447.991 253.32C447.646 253.32 447.357 253.213 447.123 252.998C446.899 252.774 446.787 252.499 446.787 252.172C446.787 251.845 446.899 251.575 447.123 251.36C447.357 251.136 447.646 251.024 447.991 251.024C448.337 251.024 448.621 251.136 448.845 251.36C449.079 251.575 449.195 251.845 449.195 252.172C449.195 252.499 449.079 252.774 448.845 252.998C448.621 253.213 448.337 253.32 447.991 253.32ZM448.957 254.244V262H446.997V254.244H448.957ZM454.692 254.132C455.616 254.132 456.362 254.426 456.932 255.014C457.501 255.593 457.786 256.405 457.786 257.45V262H455.826V257.716C455.826 257.1 455.672 256.629 455.364 256.302C455.056 255.966 454.636 255.798 454.104 255.798C453.562 255.798 453.133 255.966 452.816 256.302C452.508 256.629 452.354 257.1 452.354 257.716V262H450.394V254.244H452.354V255.21C452.615 254.874 452.946 254.613 453.348 254.426C453.758 254.23 454.206 254.132 454.692 254.132ZM458.646 258.122C458.646 257.319 458.809 256.619 459.136 256.022C459.462 255.415 459.915 254.949 460.494 254.622C461.072 254.286 461.735 254.118 462.482 254.118C463.443 254.118 464.236 254.361 464.862 254.846C465.496 255.322 465.921 255.994 466.136 256.862H464.022C463.91 256.526 463.718 256.265 463.448 256.078C463.186 255.882 462.86 255.784 462.468 255.784C461.908 255.784 461.464 255.989 461.138 256.4C460.811 256.801 460.648 257.375 460.648 258.122C460.648 258.859 460.811 259.433 461.138 259.844C461.464 260.245 461.908 260.446 462.468 260.446C463.261 260.446 463.779 260.091 464.022 259.382H466.136C465.921 260.222 465.496 260.889 464.862 261.384C464.227 261.879 463.434 262.126 462.482 262.126C461.735 262.126 461.072 261.963 460.494 261.636C459.915 261.3 459.462 260.833 459.136 260.236C458.809 259.629 458.646 258.925 458.646 258.122ZM474.281 257.954C474.281 258.234 474.263 258.486 474.225 258.71H468.555C468.602 259.27 468.798 259.709 469.143 260.026C469.489 260.343 469.913 260.502 470.417 260.502C471.145 260.502 471.663 260.189 471.971 259.564H474.085C473.861 260.311 473.432 260.927 472.797 261.412C472.163 261.888 471.383 262.126 470.459 262.126C469.713 262.126 469.041 261.963 468.443 261.636C467.855 261.3 467.393 260.829 467.057 260.222C466.731 259.615 466.567 258.915 466.567 258.122C466.567 257.319 466.731 256.615 467.057 256.008C467.384 255.401 467.841 254.935 468.429 254.608C469.017 254.281 469.694 254.118 470.459 254.118C471.197 254.118 471.855 254.277 472.433 254.594C473.021 254.911 473.474 255.364 473.791 255.952C474.118 256.531 474.281 257.198 474.281 257.954ZM472.251 257.394C472.242 256.89 472.06 256.489 471.705 256.19C471.351 255.882 470.917 255.728 470.403 255.728C469.918 255.728 469.507 255.877 469.171 256.176C468.845 256.465 468.644 256.871 468.569 257.394H472.251ZM482.584 262.098C481.669 262.098 480.829 261.883 480.064 261.454C479.299 261.025 478.692 260.432 478.244 259.676C477.796 258.911 477.572 258.047 477.572 257.086C477.572 256.134 477.796 255.28 478.244 254.524C478.692 253.759 479.299 253.161 480.064 252.732C480.829 252.303 481.669 252.088 482.584 252.088C483.508 252.088 484.348 252.303 485.104 252.732C485.869 253.161 486.471 253.759 486.91 254.524C487.358 255.28 487.582 256.134 487.582 257.086C487.582 258.047 487.358 258.911 486.91 259.676C486.471 260.432 485.869 261.025 485.104 261.454C484.339 261.883 483.499 262.098 482.584 262.098ZM482.584 260.348C483.172 260.348 483.69 260.217 484.138 259.956C484.586 259.685 484.936 259.303 485.188 258.808C485.44 258.313 485.566 257.739 485.566 257.086C485.566 256.433 485.44 255.863 485.188 255.378C484.936 254.883 484.586 254.505 484.138 254.244C483.69 253.983 483.172 253.852 482.584 253.852C481.996 253.852 481.473 253.983 481.016 254.244C480.568 254.505 480.218 254.883 479.966 255.378C479.714 255.863 479.588 256.433 479.588 257.086C479.588 257.739 479.714 258.313 479.966 258.808C480.218 259.303 480.568 259.685 481.016 259.956C481.473 260.217 481.996 260.348 482.584 260.348ZM488.036 258.122C488.036 257.319 488.2 256.619 488.526 256.022C488.853 255.415 489.306 254.949 489.884 254.622C490.463 254.286 491.126 254.118 491.872 254.118C492.834 254.118 493.627 254.361 494.252 254.846C494.887 255.322 495.312 255.994 495.526 256.862H493.412C493.3 256.526 493.109 256.265 492.838 256.078C492.577 255.882 492.25 255.784 491.858 255.784C491.298 255.784 490.855 255.989 490.528 256.4C490.202 256.801 490.038 257.375 490.038 258.122C490.038 258.859 490.202 259.433 490.528 259.844C490.855 260.245 491.298 260.446 491.858 260.446C492.652 260.446 493.17 260.091 493.412 259.382H495.526C495.312 260.222 494.887 260.889 494.252 261.384C493.618 261.879 492.824 262.126 491.872 262.126C491.126 262.126 490.463 261.963 489.884 261.636C489.306 261.3 488.853 260.833 488.526 260.236C488.2 259.629 488.036 258.925 488.036 258.122ZM498.744 255.854V259.606C498.744 259.867 498.805 260.059 498.926 260.18C499.057 260.292 499.271 260.348 499.57 260.348H500.48V262H499.248C497.596 262 496.77 261.197 496.77 259.592V255.854H495.846V254.244H496.77V252.326H498.744V254.244H500.48V255.854H498.744ZM502.258 262.098C501.903 262.098 501.609 261.991 501.376 261.776C501.152 261.552 501.04 261.277 501.04 260.95C501.04 260.623 501.152 260.353 501.376 260.138C501.609 259.914 501.903 259.802 502.258 259.802C502.603 259.802 502.888 259.914 503.112 260.138C503.336 260.353 503.448 260.623 503.448 260.95C503.448 261.277 503.336 261.552 503.112 261.776C502.888 261.991 502.603 262.098 502.258 262.098ZM507.754 259.788C508.65 259.041 509.364 258.421 509.896 257.926C510.428 257.422 510.872 256.899 511.226 256.358C511.581 255.817 511.758 255.285 511.758 254.762C511.758 254.286 511.646 253.913 511.422 253.642C511.198 253.371 510.853 253.236 510.386 253.236C509.92 253.236 509.56 253.395 509.308 253.712C509.056 254.02 508.926 254.445 508.916 254.986H507.012C507.05 253.866 507.381 253.017 508.006 252.438C508.641 251.859 509.444 251.57 510.414 251.57C511.478 251.57 512.295 251.855 512.864 252.424C513.434 252.984 513.718 253.726 513.718 254.65C513.718 255.378 513.522 256.073 513.13 256.736C512.738 257.399 512.29 257.977 511.786 258.472C511.282 258.957 510.624 259.545 509.812 260.236H513.942V261.86H507.026V260.404L507.754 259.788ZM521.174 253.278L517.45 262H515.462L519.214 253.502H514.426V251.822H521.174V253.278ZM524.213 259.942L522.575 263.876H521.315L522.225 259.942H524.213ZM528.354 259.788C529.25 259.041 529.964 258.421 530.496 257.926C531.028 257.422 531.471 256.899 531.826 256.358C532.181 255.817 532.358 255.285 532.358 254.762C532.358 254.286 532.246 253.913 532.022 253.642C531.798 253.371 531.453 253.236 530.986 253.236C530.519 253.236 530.16 253.395 529.908 253.712C529.656 254.02 529.525 254.445 529.516 254.986H527.612C527.649 253.866 527.981 253.017 528.606 252.438C529.241 251.859 530.043 251.57 531.014 251.57C532.078 251.57 532.895 251.855 533.464 252.424C534.033 252.984 534.318 253.726 534.318 254.65C534.318 255.378 534.122 256.073 533.73 256.736C533.338 257.399 532.89 257.977 532.386 258.472C531.882 258.957 531.224 259.545 530.412 260.236H534.542V261.86H527.626V260.404L528.354 259.788ZM535.277 256.764C535.277 255.149 535.566 253.885 536.145 252.97C536.733 252.055 537.704 251.598 539.057 251.598C540.41 251.598 541.376 252.055 541.955 252.97C542.543 253.885 542.837 255.149 542.837 256.764C542.837 258.388 542.543 259.662 541.955 260.586C541.376 261.51 540.41 261.972 539.057 261.972C537.704 261.972 536.733 261.51 536.145 260.586C535.566 259.662 535.277 258.388 535.277 256.764ZM540.905 256.764C540.905 256.073 540.858 255.495 540.765 255.028C540.681 254.552 540.504 254.165 540.233 253.866C539.972 253.567 539.58 253.418 539.057 253.418C538.534 253.418 538.138 253.567 537.867 253.866C537.606 254.165 537.428 254.552 537.335 255.028C537.251 255.495 537.209 256.073 537.209 256.764C537.209 257.473 537.251 258.071 537.335 258.556C537.419 259.032 537.596 259.419 537.867 259.718C538.138 260.007 538.534 260.152 539.057 260.152C539.58 260.152 539.976 260.007 540.247 259.718C540.518 259.419 540.695 259.032 540.779 258.556C540.863 258.071 540.905 257.473 540.905 256.764ZM544.444 259.788C545.34 259.041 546.054 258.421 546.586 257.926C547.118 257.422 547.561 256.899 547.916 256.358C548.271 255.817 548.448 255.285 548.448 254.762C548.448 254.286 548.336 253.913 548.112 253.642C547.888 253.371 547.543 253.236 547.076 253.236C546.609 253.236 546.25 253.395 545.998 253.712C545.746 254.02 545.615 254.445 545.606 254.986H543.702C543.739 253.866 544.071 253.017 544.696 252.438C545.331 251.859 546.133 251.57 547.104 251.57C548.168 251.57 548.985 251.855 549.554 252.424C550.123 252.984 550.408 253.726 550.408 254.65C550.408 255.378 550.212 256.073 549.82 256.736C549.428 257.399 548.98 257.977 548.476 258.472C547.972 258.957 547.314 259.545 546.502 260.236H550.632V261.86H543.716V260.404L544.444 259.788ZM551.367 256.764C551.367 255.149 551.656 253.885 552.235 252.97C552.823 252.055 553.794 251.598 555.147 251.598C556.5 251.598 557.466 252.055 558.045 252.97C558.633 253.885 558.927 255.149 558.927 256.764C558.927 258.388 558.633 259.662 558.045 260.586C557.466 261.51 556.5 261.972 555.147 261.972C553.794 261.972 552.823 261.51 552.235 260.586C551.656 259.662 551.367 258.388 551.367 256.764ZM556.995 256.764C556.995 256.073 556.948 255.495 556.855 255.028C556.771 254.552 556.594 254.165 556.323 253.866C556.062 253.567 555.67 253.418 555.147 253.418C554.624 253.418 554.228 253.567 553.957 253.866C553.696 254.165 553.518 254.552 553.425 255.028C553.341 255.495 553.299 256.073 553.299 256.764C553.299 257.473 553.341 258.071 553.425 258.556C553.509 259.032 553.686 259.419 553.957 259.718C554.228 260.007 554.624 260.152 555.147 260.152C555.67 260.152 556.066 260.007 556.337 259.718C556.608 259.419 556.785 259.032 556.869 258.556C556.953 258.071 556.995 257.473 556.995 256.764Z" fill="#191D21" fill-opacity="0.5"/>
<path d="M123.835 361.94C123.835 363.28 123.465 364.44 122.725 365.42C121.985 366.4 121.035 367.14 119.875 367.64C118.735 368.14 117.545 368.39 116.305 368.39V371.63H115.345V368.36C114.205 368.26 113.085 368.01 111.985 367.61C110.885 367.21 109.965 366.64 109.225 365.9C108.485 365.14 108.115 364.21 108.115 363.11C108.115 362.49 108.295 361.98 108.655 361.58C109.015 361.18 109.465 360.98 110.005 360.98C110.585 360.98 111.045 361.18 111.385 361.58C111.745 361.98 111.925 362.48 111.925 363.08C111.925 363.4 111.855 363.74 111.715 364.1C111.595 364.46 111.535 364.75 111.535 364.97C111.535 365.65 111.915 366.18 112.675 366.56C113.455 366.92 114.345 367.14 115.345 367.22V358.76C115.205 358.7 114.665 358.49 113.725 358.13C112.785 357.75 112.075 357.41 111.595 357.11C109.755 355.93 108.835 354.41 108.835 352.55C108.835 351.53 109.085 350.59 109.585 349.73C110.105 348.85 110.855 348.14 111.835 347.6C112.815 347.04 113.985 346.72 115.345 346.64V343.94H116.305V346.61C118.225 346.65 119.805 347.08 121.045 347.9C122.285 348.7 122.905 349.79 122.905 351.17C122.905 351.79 122.725 352.29 122.365 352.67C122.025 353.03 121.605 353.21 121.105 353.21C120.685 353.21 120.285 353.07 119.905 352.79C119.545 352.49 119.365 352.08 119.365 351.56C119.365 351.42 119.385 351.27 119.425 351.11C119.465 350.95 119.495 350.83 119.515 350.75C119.615 350.49 119.665 350.23 119.665 349.97C119.665 349.35 119.335 348.83 118.675 348.41C118.035 347.97 117.245 347.73 116.305 347.69V355.28C118.125 355.96 119.535 356.57 120.535 357.11C121.535 357.61 122.335 358.26 122.935 359.06C123.535 359.86 123.835 360.82 123.835 361.94ZM113.935 354.35C114.135 354.45 114.605 354.64 115.345 354.92V347.72C114.065 347.82 113.065 348.2 112.345 348.86C111.645 349.52 111.295 350.36 111.295 351.38C111.295 352.06 111.505 352.62 111.925 353.06C112.365 353.48 113.035 353.91 113.935 354.35ZM116.305 367.25C117.705 367.17 118.865 366.77 119.785 366.05C120.705 365.31 121.165 364.35 121.165 363.17C121.165 362.49 120.965 361.91 120.565 361.43C120.165 360.95 119.575 360.52 118.795 360.14C118.395 359.92 117.565 359.58 116.305 359.12V367.25ZM141.694 361.88C141.534 362.56 141.024 364.6 140.164 368H126.574L126.334 367.46C126.714 366.38 127.254 365.33 127.954 364.31C128.674 363.27 129.394 362.35 130.114 361.55C130.854 360.73 131.814 359.7 132.994 358.46C134.074 357.32 134.894 356.39 135.454 355.67C136.034 354.93 136.474 354.19 136.774 353.45C137.094 352.69 137.254 351.85 137.254 350.93C137.254 349.63 136.904 348.6 136.204 347.84C135.524 347.08 134.544 346.7 133.264 346.7C132.344 346.7 131.564 346.9 130.924 347.3C130.284 347.68 129.964 348.2 129.964 348.86C129.964 349.14 130.024 349.37 130.144 349.55C130.264 349.73 130.444 349.94 130.684 350.18C130.944 350.44 131.134 350.68 131.254 350.9C131.394 351.1 131.464 351.37 131.464 351.71C131.464 352.33 131.254 352.82 130.834 353.18C130.434 353.54 129.924 353.72 129.304 353.72C128.984 353.72 128.644 353.61 128.284 353.39C127.944 353.17 127.654 352.86 127.414 352.46C127.194 352.04 127.084 351.55 127.084 350.99C127.084 350.13 127.364 349.29 127.924 348.47C128.484 347.63 129.284 346.95 130.324 346.43C131.364 345.89 132.564 345.62 133.924 345.62C135.444 345.62 136.754 345.88 137.854 346.4C138.974 346.92 139.814 347.63 140.374 348.53C140.954 349.43 141.244 350.45 141.244 351.59C141.244 352.65 141.024 353.57 140.584 354.35C140.144 355.13 139.584 355.8 138.904 356.36C138.244 356.9 137.324 357.56 136.144 358.34C135.304 358.9 134.664 359.34 134.224 359.66C132.324 361 130.674 362.73 129.274 364.85H133.774C135.394 364.85 136.634 364.77 137.494 364.61C138.374 364.43 139.074 364.11 139.594 363.65C140.114 363.19 140.604 362.48 141.064 361.52C141.084 361.42 141.154 361.37 141.274 361.37C141.314 361.37 141.374 361.39 141.454 361.43C141.554 361.47 141.624 361.51 141.664 361.55C141.724 361.57 141.754 361.61 141.754 361.67C141.754 361.71 141.734 361.78 141.694 361.88ZM150.561 368.39C149.841 368.39 149.311 368.1 148.971 367.52C148.651 366.92 148.491 366.25 148.491 365.51C148.491 364.03 148.851 362.47 149.571 360.83C150.311 359.17 151.171 357.62 152.151 356.18C153.151 354.72 154.361 353.07 155.781 351.23L157.341 349.13H150.501C149.361 349.13 148.461 349.27 147.801 349.55C147.141 349.81 146.611 350.21 146.211 350.75C145.831 351.29 145.451 352.07 145.071 353.09C145.051 353.17 145.021 353.22 144.981 353.24C144.941 353.26 144.891 353.27 144.831 353.27L144.651 353.24C144.531 353.22 144.451 353.19 144.411 353.15C144.391 353.11 144.381 353.06 144.381 353L144.441 352.7L144.951 350.39L145.971 345.86H159.861L160.161 346.52C158.281 349.38 156.841 351.8 155.841 353.78C154.861 355.76 154.151 357.63 153.711 359.39C153.291 361.13 153.011 363.15 152.871 365.45C152.831 366.41 152.601 367.14 152.181 367.64C151.761 368.14 151.221 368.39 150.561 368.39ZM165.647 368.45C165.087 368.45 164.607 368.25 164.207 367.85C163.807 367.43 163.607 366.93 163.607 366.35C163.607 365.79 163.807 365.31 164.207 364.91C164.607 364.51 165.087 364.31 165.647 364.31C166.227 364.31 166.717 364.51 167.117 364.91C167.537 365.31 167.747 365.79 167.747 366.35C167.747 366.93 167.537 367.43 167.117 367.85C166.717 368.25 166.227 368.45 165.647 368.45ZM172.116 368C171.976 368 171.906 367.87 171.906 367.61C171.906 367.37 171.976 367.25 172.116 367.25H172.506C175.006 367.25 176.256 366.45 176.256 364.85V351.74C176.256 350.94 176.166 350.37 175.986 350.03C175.826 349.69 175.546 349.48 175.146 349.4C174.766 349.3 174.116 349.25 173.196 349.25H172.206C172.066 349.25 171.996 349.12 171.996 348.86C171.996 348.74 172.006 348.65 172.026 348.59C172.046 348.53 172.106 348.5 172.206 348.5C175.086 348.22 177.696 347.25 180.036 345.59V364.85C180.036 365.79 180.386 366.43 181.086 366.77C181.806 367.09 182.706 367.25 183.786 367.25H184.146C184.286 367.25 184.356 367.37 184.356 367.61C184.356 367.87 184.286 368 184.146 368H172.116ZM198.204 355.64C199.504 356.3 200.554 356.91 201.354 357.47C202.174 358.03 202.834 358.69 203.334 359.45C203.834 360.19 204.084 361.06 204.084 362.06C204.084 363.38 203.694 364.52 202.914 365.48C202.134 366.44 201.124 367.17 199.884 367.67C198.664 368.15 197.374 368.39 196.014 368.39C194.574 368.39 193.204 368.16 191.904 367.7C190.604 367.22 189.554 366.55 188.754 365.69C187.954 364.83 187.554 363.85 187.554 362.75C187.554 361.55 187.994 360.53 188.874 359.69C189.754 358.85 191.014 358.04 192.654 357.26C191.274 356.56 190.244 355.76 189.564 354.86C188.904 353.94 188.574 352.8 188.574 351.44C188.574 350.54 188.834 349.64 189.354 348.74C189.894 347.82 190.694 347.07 191.754 346.49C192.814 345.89 194.104 345.59 195.624 345.59C196.804 345.59 197.934 345.8 199.014 346.22C200.094 346.62 200.964 347.19 201.624 347.93C202.284 348.67 202.614 349.53 202.614 350.51C202.614 351.65 202.224 352.63 201.444 353.45C200.664 354.25 199.584 354.98 198.204 355.64ZM191.514 350.21C191.514 350.87 191.664 351.43 191.964 351.89C192.264 352.33 192.664 352.71 193.164 353.03C193.684 353.35 194.444 353.75 195.444 354.23L197.124 355.07C198.044 354.43 198.664 353.76 198.984 353.06C199.304 352.34 199.464 351.55 199.464 350.69C199.464 350.07 199.304 349.45 198.984 348.83C198.664 348.19 198.184 347.66 197.544 347.24C196.924 346.82 196.174 346.61 195.294 346.61C194.414 346.61 193.694 346.8 193.134 347.18C192.574 347.56 192.164 348.03 191.904 348.59C191.644 349.15 191.514 349.69 191.514 350.21ZM195.654 367.34C197.274 367.34 198.514 366.95 199.374 366.17C200.234 365.39 200.664 364.41 200.664 363.23C200.664 362.49 200.324 361.8 199.644 361.16C198.964 360.52 198.154 359.95 197.214 359.45C196.294 358.95 195.134 358.39 193.734 357.77C191.994 359.03 191.124 360.68 191.124 362.72C191.124 364.02 191.494 365.12 192.234 366.02C192.994 366.9 194.134 367.34 195.654 367.34Z" fill="#6ED47C"/>
<path d="M114.192 326.4C114.192 325.301 114.432 324.32 114.912 323.456C115.392 322.581 116.048 321.904 116.88 321.424C117.712 320.933 118.64 320.688 119.664 320.688C120.912 320.688 121.978 320.987 122.864 321.584C123.76 322.171 124.41 323.003 124.816 324.08H123.504C123.184 323.323 122.693 322.731 122.032 322.304C121.381 321.877 120.592 321.664 119.664 321.664C118.842 321.664 118.101 321.856 117.44 322.24C116.789 322.624 116.277 323.179 115.904 323.904C115.53 324.619 115.344 325.451 115.344 326.4C115.344 327.349 115.53 328.181 115.904 328.896C116.277 329.611 116.789 330.16 117.44 330.544C118.101 330.928 118.842 331.12 119.664 331.12C120.592 331.12 121.381 330.912 122.032 330.496C122.693 330.069 123.184 329.483 123.504 328.736H124.816C124.41 329.803 123.76 330.629 122.864 331.216C121.968 331.803 120.901 332.096 119.664 332.096C118.64 332.096 117.712 331.856 116.88 331.376C116.048 330.885 115.392 330.208 114.912 329.344C114.432 328.48 114.192 327.499 114.192 326.4ZM126.035 327.616C126.035 326.72 126.211 325.936 126.563 325.264C126.926 324.581 127.422 324.059 128.051 323.696C128.691 323.323 129.411 323.136 130.211 323.136C131.043 323.136 131.758 323.328 132.355 323.712C132.963 324.096 133.401 324.587 133.667 325.184V323.264H134.787V332H133.667V330.064C133.39 330.661 132.947 331.157 132.339 331.552C131.742 331.936 131.027 332.128 130.195 332.128C129.406 332.128 128.691 331.941 128.051 331.568C127.422 331.195 126.926 330.667 126.563 329.984C126.211 329.301 126.035 328.512 126.035 327.616ZM133.667 327.632C133.667 326.928 133.523 326.309 133.235 325.776C132.947 325.243 132.553 324.832 132.051 324.544C131.561 324.256 131.017 324.112 130.419 324.112C129.801 324.112 129.246 324.251 128.755 324.528C128.265 324.805 127.875 325.211 127.587 325.744C127.31 326.267 127.171 326.891 127.171 327.616C127.171 328.331 127.31 328.96 127.587 329.504C127.875 330.037 128.265 330.448 128.755 330.736C129.246 331.013 129.801 331.152 130.419 331.152C131.017 331.152 131.561 331.008 132.051 330.72C132.553 330.432 132.947 330.021 133.235 329.488C133.523 328.955 133.667 328.336 133.667 327.632ZM139.852 332.128C138.85 332.128 138.028 331.899 137.388 331.44C136.759 330.971 136.407 330.336 136.332 329.536H137.484C137.538 330.027 137.767 330.427 138.172 330.736C138.588 331.035 139.143 331.184 139.836 331.184C140.444 331.184 140.919 331.04 141.26 330.752C141.612 330.464 141.788 330.107 141.788 329.68C141.788 329.381 141.692 329.136 141.5 328.944C141.308 328.752 141.063 328.603 140.764 328.496C140.476 328.379 140.082 328.256 139.58 328.128C138.93 327.957 138.402 327.787 137.996 327.616C137.591 327.445 137.244 327.195 136.956 326.864C136.679 326.523 136.54 326.069 136.54 325.504C136.54 325.077 136.668 324.683 136.924 324.32C137.18 323.957 137.543 323.669 138.012 323.456C138.482 323.243 139.015 323.136 139.612 323.136C140.551 323.136 141.308 323.376 141.884 323.856C142.46 324.325 142.77 324.976 142.812 325.808H141.692C141.66 325.296 141.458 324.885 141.084 324.576C140.722 324.256 140.22 324.096 139.58 324.096C139.015 324.096 138.556 324.229 138.204 324.496C137.852 324.763 137.676 325.093 137.676 325.488C137.676 325.829 137.778 326.112 137.98 326.336C138.194 326.549 138.455 326.72 138.764 326.848C139.074 326.965 139.49 327.099 140.012 327.248C140.642 327.419 141.143 327.584 141.516 327.744C141.89 327.904 142.21 328.139 142.476 328.448C142.743 328.757 142.882 329.168 142.892 329.68C142.892 330.149 142.764 330.571 142.508 330.944C142.252 331.307 141.895 331.595 141.436 331.808C140.978 332.021 140.45 332.128 139.852 332.128ZM148.661 323.104C149.322 323.104 149.914 323.243 150.437 323.52C150.97 323.797 151.386 324.224 151.685 324.8C151.994 325.365 152.149 326.059 152.149 326.88V332H151.045V327.008C151.045 326.059 150.805 325.333 150.325 324.832C149.855 324.331 149.21 324.08 148.389 324.08C147.546 324.08 146.874 324.347 146.373 324.88C145.871 325.413 145.621 326.197 145.621 327.232V332H144.501V320.16H145.621V324.752C145.898 324.229 146.303 323.824 146.837 323.536C147.381 323.248 147.989 323.104 148.661 323.104ZM155.23 325.2C155.518 324.592 155.96 324.096 156.558 323.712C157.166 323.328 157.88 323.136 158.702 323.136C159.502 323.136 160.216 323.323 160.846 323.696C161.475 324.059 161.966 324.581 162.318 325.264C162.68 325.936 162.862 326.72 162.862 327.616C162.862 328.512 162.68 329.301 162.318 329.984C161.966 330.667 161.47 331.195 160.83 331.568C160.2 331.941 159.491 332.128 158.702 332.128C157.87 332.128 157.15 331.941 156.542 331.568C155.944 331.184 155.507 330.688 155.23 330.08V332H154.126V320.16H155.23V325.2ZM161.726 327.616C161.726 326.891 161.582 326.267 161.294 325.744C161.016 325.211 160.632 324.805 160.142 324.528C159.651 324.251 159.096 324.112 158.478 324.112C157.88 324.112 157.331 324.256 156.83 324.544C156.339 324.832 155.95 325.243 155.662 325.776C155.374 326.309 155.23 326.928 155.23 327.632C155.23 328.336 155.374 328.955 155.662 329.488C155.95 330.021 156.339 330.432 156.83 330.72C157.331 331.008 157.88 331.152 158.478 331.152C159.096 331.152 159.651 331.013 160.142 330.736C160.632 330.448 161.016 330.037 161.294 329.504C161.582 328.96 161.726 328.331 161.726 327.616ZM163.91 327.616C163.91 326.72 164.086 325.936 164.438 325.264C164.801 324.581 165.297 324.059 165.926 323.696C166.566 323.323 167.286 323.136 168.086 323.136C168.918 323.136 169.633 323.328 170.23 323.712C170.838 324.096 171.276 324.587 171.542 325.184V323.264H172.662V332H171.542V330.064C171.265 330.661 170.822 331.157 170.214 331.552C169.617 331.936 168.902 332.128 168.07 332.128C167.281 332.128 166.566 331.941 165.926 331.568C165.297 331.195 164.801 330.667 164.438 329.984C164.086 329.301 163.91 328.512 163.91 327.616ZM171.542 327.632C171.542 326.928 171.398 326.309 171.11 325.776C170.822 325.243 170.428 324.832 169.926 324.544C169.436 324.256 168.892 324.112 168.294 324.112C167.676 324.112 167.121 324.251 166.63 324.528C166.14 324.805 165.75 325.211 165.462 325.744C165.185 326.267 165.046 326.891 165.046 327.616C165.046 328.331 165.185 328.96 165.462 329.504C165.75 330.037 166.14 330.448 166.63 330.736C167.121 331.013 167.676 331.152 168.294 331.152C168.892 331.152 169.436 331.008 169.926 330.72C170.428 330.432 170.822 330.021 171.11 329.488C171.398 328.955 171.542 328.336 171.542 327.632ZM174.207 327.632C174.207 326.725 174.389 325.936 174.751 325.264C175.114 324.581 175.615 324.059 176.255 323.696C176.895 323.323 177.626 323.136 178.447 323.136C179.525 323.136 180.41 323.403 181.103 323.936C181.807 324.469 182.261 325.195 182.463 326.112H181.263C181.114 325.483 180.789 324.992 180.287 324.64C179.797 324.277 179.183 324.096 178.447 324.096C177.861 324.096 177.333 324.229 176.863 324.496C176.394 324.763 176.021 325.163 175.743 325.696C175.477 326.219 175.343 326.864 175.343 327.632C175.343 328.4 175.477 329.051 175.743 329.584C176.021 330.117 176.394 330.517 176.863 330.784C177.333 331.051 177.861 331.184 178.447 331.184C179.183 331.184 179.797 331.008 180.287 330.656C180.789 330.293 181.114 329.792 181.263 329.152H182.463C182.261 330.048 181.807 330.768 181.103 331.312C180.399 331.856 179.514 332.128 178.447 332.128C177.626 332.128 176.895 331.947 176.255 331.584C175.615 331.211 175.114 330.688 174.751 330.016C174.389 329.333 174.207 328.539 174.207 327.632ZM188.752 332L185.152 328.08V332H184.032V320.16H185.152V327.168L188.672 323.264H190.24L186.096 327.616L190.272 332H188.752Z" fill="#191D21"/>
<path d="M269.527 368.39C268.807 368.39 268.277 368.1 267.937 367.52C267.617 366.92 267.457 366.25 267.457 365.51C267.457 364.03 267.817 362.47 268.537 360.83C269.277 359.17 270.137 357.62 271.117 356.18C272.117 354.72 273.327 353.07 274.747 351.23L276.307 349.13H269.467C268.327 349.13 267.427 349.27 266.767 349.55C266.107 349.81 265.577 350.21 265.177 350.75C264.797 351.29 264.417 352.07 264.037 353.09C264.017 353.17 263.987 353.22 263.947 353.24C263.907 353.26 263.857 353.27 263.797 353.27L263.617 353.24C263.497 353.22 263.417 353.19 263.377 353.15C263.357 353.11 263.347 353.06 263.347 353L263.407 352.7L263.917 350.39L264.937 345.86H278.827L279.127 346.52C277.247 349.38 275.807 351.8 274.807 353.78C273.827 355.76 273.117 357.63 272.677 359.39C272.257 361.13 271.977 363.15 271.837 365.45C271.797 366.41 271.567 367.14 271.147 367.64C270.727 368.14 270.187 368.39 269.527 368.39ZM284.613 368.45C284.053 368.45 283.573 368.25 283.173 367.85C282.773 367.43 282.573 366.93 282.573 366.35C282.573 365.79 282.773 365.31 283.173 364.91C283.573 364.51 284.053 364.31 284.613 364.31C285.193 364.31 285.683 364.51 286.083 364.91C286.503 365.31 286.713 365.79 286.713 366.35C286.713 366.93 286.503 367.43 286.083 367.85C285.683 368.25 285.193 368.45 284.613 368.45ZM300.502 355.64C301.802 356.3 302.852 356.91 303.652 357.47C304.472 358.03 305.132 358.69 305.632 359.45C306.132 360.19 306.382 361.06 306.382 362.06C306.382 363.38 305.992 364.52 305.212 365.48C304.432 366.44 303.422 367.17 302.182 367.67C300.962 368.15 299.672 368.39 298.312 368.39C296.872 368.39 295.502 368.16 294.202 367.7C292.902 367.22 291.852 366.55 291.052 365.69C290.252 364.83 289.852 363.85 289.852 362.75C289.852 361.55 290.292 360.53 291.172 359.69C292.052 358.85 293.312 358.04 294.952 357.26C293.572 356.56 292.542 355.76 291.862 354.86C291.202 353.94 290.872 352.8 290.872 351.44C290.872 350.54 291.132 349.64 291.652 348.74C292.192 347.82 292.992 347.07 294.052 346.49C295.112 345.89 296.402 345.59 297.922 345.59C299.102 345.59 300.232 345.8 301.312 346.22C302.392 346.62 303.262 347.19 303.922 347.93C304.582 348.67 304.912 349.53 304.912 350.51C304.912 351.65 304.522 352.63 303.742 353.45C302.962 354.25 301.882 354.98 300.502 355.64ZM293.812 350.21C293.812 350.87 293.962 351.43 294.262 351.89C294.562 352.33 294.962 352.71 295.462 353.03C295.982 353.35 296.742 353.75 297.742 354.23L299.422 355.07C300.342 354.43 300.962 353.76 301.282 353.06C301.602 352.34 301.762 351.55 301.762 350.69C301.762 350.07 301.602 349.45 301.282 348.83C300.962 348.19 300.482 347.66 299.842 347.24C299.222 346.82 298.472 346.61 297.592 346.61C296.712 346.61 295.992 346.8 295.432 347.18C294.872 347.56 294.462 348.03 294.202 348.59C293.942 349.15 293.812 349.69 293.812 350.21ZM297.952 367.34C299.572 367.34 300.812 366.95 301.672 366.17C302.532 365.39 302.962 364.41 302.962 363.23C302.962 362.49 302.622 361.8 301.942 361.16C301.262 360.52 300.452 359.95 299.512 359.45C298.592 358.95 297.432 358.39 296.032 357.77C294.292 359.03 293.422 360.68 293.422 362.72C293.422 364.02 293.792 365.12 294.532 366.02C295.292 366.9 296.432 367.34 297.952 367.34ZM330.913 345.5L314.893 369.08L313.903 368.42L329.953 344.84L330.913 345.5ZM314.653 359.63C313.813 359.63 312.993 359.37 312.193 358.85C311.413 358.31 310.773 357.51 310.273 356.45C309.793 355.39 309.553 354.11 309.553 352.61C309.553 351.11 309.793 349.84 310.273 348.8C310.773 347.74 311.413 346.95 312.193 346.43C312.973 345.89 313.793 345.62 314.653 345.62C315.513 345.62 316.333 345.89 317.113 346.43C317.893 346.95 318.523 347.74 319.003 348.8C319.503 349.84 319.753 351.11 319.753 352.61C319.753 354.11 319.503 355.39 319.003 356.45C318.523 357.51 317.883 358.31 317.083 358.85C316.303 359.37 315.493 359.63 314.653 359.63ZM314.653 358.55C315.393 358.55 315.993 358.06 316.453 357.08C316.933 356.08 317.173 354.59 317.173 352.61C317.173 350.63 316.933 349.15 316.453 348.17C315.993 347.17 315.393 346.67 314.653 346.67C313.913 346.67 313.313 347.17 312.853 348.17C312.393 349.15 312.163 350.63 312.163 352.61C312.163 354.59 312.393 356.08 312.853 357.08C313.313 358.06 313.913 358.55 314.653 358.55ZM330.163 368.39C329.303 368.39 328.483 368.13 327.703 367.61C326.923 367.07 326.283 366.27 325.783 365.21C325.283 364.15 325.033 362.87 325.033 361.37C325.033 359.87 325.283 358.6 325.783 357.56C326.283 356.5 326.923 355.71 327.703 355.19C328.503 354.65 329.333 354.38 330.193 354.38C331.033 354.38 331.843 354.65 332.623 355.19C333.403 355.71 334.033 356.5 334.513 357.56C335.013 358.6 335.263 359.87 335.263 361.37C335.263 362.87 335.013 364.15 334.513 365.21C334.033 366.27 333.403 367.07 332.623 367.61C331.843 368.13 331.023 368.39 330.163 368.39ZM330.193 367.34C330.913 367.34 331.503 366.84 331.963 365.84C332.443 364.84 332.683 363.35 332.683 361.37C332.683 359.41 332.443 357.93 331.963 356.93C331.503 355.93 330.913 355.43 330.193 355.43C329.453 355.43 328.843 355.93 328.363 356.93C327.883 357.93 327.643 359.41 327.643 361.37C327.643 363.35 327.883 364.84 328.363 365.84C328.843 366.84 329.453 367.34 330.193 367.34Z" fill="#6ED47C"/>
<path d="M239.666 326.4C239.666 325.301 239.906 324.32 240.386 323.456C240.866 322.581 241.522 321.904 242.354 321.424C243.186 320.933 244.114 320.688 245.138 320.688C246.386 320.688 247.453 320.987 248.338 321.584C249.234 322.171 249.885 323.003 250.29 324.08H248.978C248.658 323.323 248.168 322.731 247.506 322.304C246.856 321.877 246.066 321.664 245.138 321.664C244.317 321.664 243.576 321.856 242.914 322.24C242.264 322.624 241.752 323.179 241.378 323.904C241.005 324.619 240.818 325.451 240.818 326.4C240.818 327.349 241.005 328.181 241.378 328.896C241.752 329.611 242.264 330.16 242.914 330.544C243.576 330.928 244.317 331.12 245.138 331.12C246.066 331.12 246.856 330.912 247.506 330.496C248.168 330.069 248.658 329.483 248.978 328.736H250.29C249.885 329.803 249.234 330.629 248.338 331.216C247.442 331.803 246.376 332.096 245.138 332.096C244.114 332.096 243.186 331.856 242.354 331.376C241.522 330.885 240.866 330.208 240.386 329.344C239.906 328.48 239.666 327.499 239.666 326.4ZM251.51 327.616C251.51 326.72 251.686 325.936 252.038 325.264C252.401 324.581 252.897 324.059 253.526 323.696C254.166 323.323 254.886 323.136 255.686 323.136C256.518 323.136 257.233 323.328 257.83 323.712C258.438 324.096 258.875 324.587 259.142 325.184V323.264H260.262V332H259.142V330.064C258.865 330.661 258.422 331.157 257.814 331.552C257.217 331.936 256.502 332.128 255.67 332.128C254.881 332.128 254.166 331.941 253.526 331.568C252.897 331.195 252.401 330.667 252.038 329.984C251.686 329.301 251.51 328.512 251.51 327.616ZM259.142 327.632C259.142 326.928 258.998 326.309 258.71 325.776C258.422 325.243 258.027 324.832 257.526 324.544C257.035 324.256 256.491 324.112 255.894 324.112C255.275 324.112 254.721 324.251 254.23 324.528C253.739 324.805 253.35 325.211 253.062 325.744C252.785 326.267 252.646 326.891 252.646 327.616C252.646 328.331 252.785 328.96 253.062 329.504C253.35 330.037 253.739 330.448 254.23 330.736C254.721 331.013 255.275 331.152 255.894 331.152C256.491 331.152 257.035 331.008 257.526 330.72C258.027 330.432 258.422 330.021 258.71 329.488C258.998 328.955 259.142 328.336 259.142 327.632ZM263.439 324.816C263.684 324.272 264.057 323.851 264.559 323.552C265.071 323.253 265.695 323.104 266.431 323.104V324.272H266.127C265.316 324.272 264.665 324.491 264.175 324.928C263.684 325.365 263.439 326.096 263.439 327.12V332H262.319V323.264H263.439V324.816ZM267.104 327.616C267.104 326.72 267.285 325.936 267.648 325.264C268.01 324.581 268.506 324.059 269.136 323.696C269.776 323.323 270.496 323.136 271.296 323.136C272.064 323.136 272.757 323.323 273.376 323.696C273.994 324.069 274.448 324.555 274.736 325.152V320.16H275.856V332H274.736V330.048C274.469 330.656 274.032 331.157 273.424 331.552C272.816 331.936 272.101 332.128 271.28 332.128C270.48 332.128 269.76 331.941 269.12 331.568C268.49 331.195 267.994 330.667 267.632 329.984C267.28 329.301 267.104 328.512 267.104 327.616ZM274.736 327.632C274.736 326.928 274.592 326.309 274.304 325.776C274.016 325.243 273.621 324.832 273.12 324.544C272.629 324.256 272.085 324.112 271.488 324.112C270.869 324.112 270.314 324.251 269.824 324.528C269.333 324.805 268.944 325.211 268.656 325.744C268.378 326.267 268.24 326.891 268.24 327.616C268.24 328.331 268.378 328.96 268.656 329.504C268.944 330.037 269.333 330.448 269.824 330.736C270.314 331.013 270.869 331.152 271.488 331.152C272.085 331.152 272.629 331.008 273.12 330.72C273.621 330.432 274.016 330.021 274.304 329.488C274.592 328.955 274.736 328.336 274.736 327.632ZM282.875 320.816V327.856C282.875 328.965 283.137 329.787 283.659 330.32C284.193 330.853 284.918 331.12 285.835 331.12C286.753 331.12 287.467 330.859 287.979 330.336C288.502 329.803 288.763 328.976 288.763 327.856V320.816H289.883V327.84C289.883 329.259 289.505 330.325 288.747 331.04C288.001 331.755 287.025 332.112 285.819 332.112C284.614 332.112 283.633 331.755 282.875 331.04C282.129 330.325 281.755 329.259 281.755 327.84V320.816H282.875ZM293.337 324.208V329.632C293.337 330.165 293.439 330.533 293.641 330.736C293.844 330.939 294.201 331.04 294.713 331.04H295.737V332H294.537C293.748 332 293.161 331.819 292.777 331.456C292.393 331.083 292.201 330.475 292.201 329.632V324.208H290.985V323.264H292.201V321.072H293.337V323.264H295.737V324.208H293.337ZM297.644 321.616C297.42 321.616 297.228 321.536 297.068 321.376C296.908 321.216 296.828 321.019 296.828 320.784C296.828 320.549 296.908 320.357 297.068 320.208C297.228 320.048 297.42 319.968 297.644 319.968C297.868 319.968 298.06 320.048 298.22 320.208C298.38 320.357 298.46 320.549 298.46 320.784C298.46 321.019 298.38 321.216 298.22 321.376C298.06 321.536 297.868 321.616 297.644 321.616ZM298.204 323.264V332H297.084V323.264H298.204ZM301.361 320.16V332H300.241V320.16H301.361ZM303.957 321.616C303.733 321.616 303.541 321.536 303.381 321.376C303.221 321.216 303.141 321.019 303.141 320.784C303.141 320.549 303.221 320.357 303.381 320.208C303.541 320.048 303.733 319.968 303.957 319.968C304.181 319.968 304.373 320.048 304.533 320.208C304.693 320.357 304.773 320.549 304.773 320.784C304.773 321.019 304.693 321.216 304.533 321.376C304.373 321.536 304.181 321.616 303.957 321.616ZM304.517 323.264V332H303.397V323.264H304.517ZM307.145 331.072H311.721V332H305.865V331.072L310.361 324.192H305.945V323.264H311.641V324.192L307.145 331.072ZM312.604 327.616C312.604 326.72 312.78 325.936 313.132 325.264C313.494 324.581 313.99 324.059 314.62 323.696C315.26 323.323 315.98 323.136 316.78 323.136C317.612 323.136 318.326 323.328 318.924 323.712C319.532 324.096 319.969 324.587 320.236 325.184V323.264H321.356V332H320.236V330.064C319.958 330.661 319.516 331.157 318.908 331.552C318.31 331.936 317.596 332.128 316.764 332.128C315.974 332.128 315.26 331.941 314.62 331.568C313.99 331.195 313.494 330.667 313.132 329.984C312.78 329.301 312.604 328.512 312.604 327.616ZM320.236 327.632C320.236 326.928 320.092 326.309 319.804 325.776C319.516 325.243 319.121 324.832 318.62 324.544C318.129 324.256 317.585 324.112 316.988 324.112C316.369 324.112 315.814 324.251 315.324 324.528C314.833 324.805 314.444 325.211 314.156 325.744C313.878 326.267 313.74 326.891 313.74 327.616C313.74 328.331 313.878 328.96 314.156 329.504C314.444 330.037 314.833 330.448 315.324 330.736C315.814 331.013 316.369 331.152 316.988 331.152C317.585 331.152 318.129 331.008 318.62 330.72C319.121 330.432 319.516 330.021 319.804 329.488C320.092 328.955 320.236 328.336 320.236 327.632ZM324.869 324.208V329.632C324.869 330.165 324.97 330.533 325.173 330.736C325.375 330.939 325.733 331.04 326.245 331.04H327.269V332H326.069C325.279 332 324.693 331.819 324.309 331.456C323.925 331.083 323.733 330.475 323.733 329.632V324.208H322.517V323.264H323.733V321.072H324.869V323.264H327.269V324.208H324.869ZM329.176 321.616C328.952 321.616 328.76 321.536 328.6 321.376C328.44 321.216 328.36 321.019 328.36 320.784C328.36 320.549 328.44 320.357 328.6 320.208C328.76 320.048 328.952 319.968 329.176 319.968C329.4 319.968 329.592 320.048 329.752 320.208C329.912 320.357 329.992 320.549 329.992 320.784C329.992 321.019 329.912 321.216 329.752 321.376C329.592 321.536 329.4 321.616 329.176 321.616ZM329.736 323.264V332H328.616V323.264H329.736ZM335.596 332.128C334.775 332.128 334.033 331.947 333.372 331.584C332.721 331.211 332.204 330.688 331.82 330.016C331.447 329.333 331.26 328.539 331.26 327.632C331.26 326.725 331.452 325.936 331.836 325.264C332.22 324.581 332.743 324.059 333.404 323.696C334.065 323.323 334.807 323.136 335.628 323.136C336.449 323.136 337.191 323.323 337.852 323.696C338.524 324.059 339.047 324.581 339.42 325.264C339.804 325.936 339.996 326.725 339.996 327.632C339.996 328.528 339.804 329.317 339.42 330C339.036 330.683 338.508 331.211 337.836 331.584C337.164 331.947 336.417 332.128 335.596 332.128ZM335.596 331.152C336.172 331.152 336.705 331.024 337.196 330.768C337.687 330.501 338.081 330.107 338.38 329.584C338.689 329.051 338.844 328.4 338.844 327.632C338.844 326.864 338.695 326.219 338.396 325.696C338.097 325.163 337.703 324.768 337.212 324.512C336.721 324.245 336.188 324.112 335.612 324.112C335.036 324.112 334.503 324.245 334.012 324.512C333.521 324.768 333.127 325.163 332.828 325.696C332.54 326.219 332.396 326.864 332.396 327.632C332.396 328.4 332.54 329.051 332.828 329.584C333.127 330.107 333.516 330.501 333.996 330.768C334.487 331.024 335.02 331.152 335.596 331.152ZM345.634 323.104C346.679 323.104 347.532 323.429 348.194 324.08C348.855 324.72 349.186 325.653 349.186 326.88V332H348.082V327.008C348.082 326.059 347.842 325.333 347.362 324.832C346.892 324.331 346.247 324.08 345.426 324.08C344.583 324.08 343.911 324.347 343.41 324.88C342.908 325.413 342.658 326.197 342.658 327.232V332H341.538V323.264H342.658V324.752C342.935 324.219 343.335 323.813 343.858 323.536C344.38 323.248 344.972 323.104 345.634 323.104Z" fill="#191D21"/>
<path d="M421.568 361.94C421.568 363.28 421.198 364.44 420.458 365.42C419.718 366.4 418.768 367.14 417.608 367.64C416.468 368.14 415.278 368.39 414.038 368.39V371.63H413.078V368.36C411.938 368.26 410.818 368.01 409.718 367.61C408.618 367.21 407.698 366.64 406.958 365.9C406.218 365.14 405.848 364.21 405.848 363.11C405.848 362.49 406.028 361.98 406.388 361.58C406.748 361.18 407.198 360.98 407.738 360.98C408.318 360.98 408.778 361.18 409.118 361.58C409.478 361.98 409.658 362.48 409.658 363.08C409.658 363.4 409.588 363.74 409.448 364.1C409.328 364.46 409.268 364.75 409.268 364.97C409.268 365.65 409.648 366.18 410.408 366.56C411.188 366.92 412.078 367.14 413.078 367.22V358.76C412.938 358.7 412.398 358.49 411.458 358.13C410.518 357.75 409.808 357.41 409.328 357.11C407.488 355.93 406.568 354.41 406.568 352.55C406.568 351.53 406.818 350.59 407.318 349.73C407.838 348.85 408.588 348.14 409.568 347.6C410.548 347.04 411.718 346.72 413.078 346.64V343.94H414.038V346.61C415.958 346.65 417.538 347.08 418.778 347.9C420.018 348.7 420.638 349.79 420.638 351.17C420.638 351.79 420.458 352.29 420.098 352.67C419.758 353.03 419.338 353.21 418.838 353.21C418.418 353.21 418.018 353.07 417.638 352.79C417.278 352.49 417.098 352.08 417.098 351.56C417.098 351.42 417.118 351.27 417.158 351.11C417.198 350.95 417.228 350.83 417.248 350.75C417.348 350.49 417.398 350.23 417.398 349.97C417.398 349.35 417.068 348.83 416.408 348.41C415.768 347.97 414.978 347.73 414.038 347.69V355.28C415.858 355.96 417.268 356.57 418.268 357.11C419.268 357.61 420.068 358.26 420.668 359.06C421.268 359.86 421.568 360.82 421.568 361.94ZM411.668 354.35C411.868 354.45 412.338 354.64 413.078 354.92V347.72C411.798 347.82 410.798 348.2 410.078 348.86C409.378 349.52 409.028 350.36 409.028 351.38C409.028 352.06 409.238 352.62 409.658 353.06C410.098 353.48 410.768 353.91 411.668 354.35ZM414.038 367.25C415.438 367.17 416.598 366.77 417.518 366.05C418.438 365.31 418.898 364.35 418.898 363.17C418.898 362.49 418.698 361.91 418.298 361.43C417.898 360.95 417.308 360.52 416.528 360.14C416.128 359.92 415.298 359.58 414.038 359.12V367.25ZM425.206 368C425.066 368 424.996 367.87 424.996 367.61C424.996 367.37 425.066 367.25 425.206 367.25H425.596C428.096 367.25 429.346 366.45 429.346 364.85V351.74C429.346 350.94 429.256 350.37 429.076 350.03C428.916 349.69 428.636 349.48 428.236 349.4C427.856 349.3 427.206 349.25 426.286 349.25H425.296C425.156 349.25 425.086 349.12 425.086 348.86C425.086 348.74 425.096 348.65 425.116 348.59C425.136 348.53 425.196 348.5 425.296 348.5C428.176 348.22 430.786 347.25 433.126 345.59V364.85C433.126 365.79 433.476 366.43 434.176 366.77C434.896 367.09 435.796 367.25 436.876 367.25H437.236C437.376 367.25 437.446 367.37 437.446 367.61C437.446 367.87 437.376 368 437.236 368H425.206ZM448.444 368.39C447.104 368.39 445.824 367.96 444.604 367.1C443.384 366.24 442.394 364.95 441.634 363.23C440.874 361.51 440.494 359.43 440.494 356.99C440.494 354.55 440.874 352.47 441.634 350.75C442.414 349.03 443.414 347.74 444.634 346.88C445.854 346.02 447.124 345.59 448.444 345.59C449.784 345.59 451.064 346.02 452.284 346.88C453.504 347.74 454.494 349.03 455.254 350.75C456.034 352.47 456.424 354.55 456.424 356.99C456.424 359.43 456.034 361.51 455.254 363.23C454.494 364.95 453.504 366.24 452.284 367.1C451.064 367.96 449.784 368.39 448.444 368.39ZM448.444 367.34C449.744 367.34 450.734 366.49 451.414 364.79C452.114 363.07 452.464 360.47 452.464 356.99C452.464 353.51 452.114 350.92 451.414 349.22C450.734 347.52 449.744 346.67 448.444 346.67C447.144 346.67 446.144 347.52 445.444 349.22C444.764 350.92 444.424 353.51 444.424 356.99C444.424 360.47 444.764 363.07 445.444 364.79C446.144 366.49 447.144 367.34 448.444 367.34ZM461.387 368.45C460.827 368.45 460.347 368.25 459.947 367.85C459.547 367.43 459.347 366.93 459.347 366.35C459.347 365.79 459.547 365.31 459.947 364.91C460.347 364.51 460.827 364.31 461.387 364.31C461.967 364.31 462.457 364.51 462.857 364.91C463.277 365.31 463.487 365.79 463.487 366.35C463.487 366.93 463.277 367.43 462.857 367.85C462.457 368.25 461.967 368.45 461.387 368.45ZM474.427 368.39C473.087 368.39 471.807 367.96 470.587 367.1C469.367 366.24 468.377 364.95 467.617 363.23C466.857 361.51 466.477 359.43 466.477 356.99C466.477 354.55 466.857 352.47 467.617 350.75C468.397 349.03 469.397 347.74 470.617 346.88C471.837 346.02 473.107 345.59 474.427 345.59C475.767 345.59 477.047 346.02 478.267 346.88C479.487 347.74 480.477 349.03 481.237 350.75C482.017 352.47 482.407 354.55 482.407 356.99C482.407 359.43 482.017 361.51 481.237 363.23C480.477 364.95 479.487 366.24 478.267 367.1C477.047 367.96 475.767 368.39 474.427 368.39ZM474.427 367.34C475.727 367.34 476.717 366.49 477.397 364.79C478.097 363.07 478.447 360.47 478.447 356.99C478.447 353.51 478.097 350.92 477.397 349.22C476.717 347.52 475.727 346.67 474.427 346.67C473.127 346.67 472.127 347.52 471.427 349.22C470.747 350.92 470.407 353.51 470.407 356.99C470.407 360.47 470.747 363.07 471.427 364.79C472.127 366.49 473.127 367.34 474.427 367.34ZM492.559 368.39C491.219 368.39 489.939 367.96 488.719 367.1C487.499 366.24 486.509 364.95 485.749 363.23C484.989 361.51 484.609 359.43 484.609 356.99C484.609 354.55 484.989 352.47 485.749 350.75C486.529 349.03 487.529 347.74 488.749 346.88C489.969 346.02 491.239 345.59 492.559 345.59C493.899 345.59 495.179 346.02 496.399 346.88C497.619 347.74 498.609 349.03 499.369 350.75C500.149 352.47 500.539 354.55 500.539 356.99C500.539 359.43 500.149 361.51 499.369 363.23C498.609 364.95 497.619 366.24 496.399 367.1C495.179 367.96 493.899 368.39 492.559 368.39ZM492.559 367.34C493.859 367.34 494.849 366.49 495.529 364.79C496.229 363.07 496.579 360.47 496.579 356.99C496.579 353.51 496.229 350.92 495.529 349.22C494.849 347.52 493.859 346.67 492.559 346.67C491.259 346.67 490.259 347.52 489.559 349.22C488.879 350.92 488.539 353.51 488.539 356.99C488.539 360.47 488.879 363.07 489.559 364.79C490.259 366.49 491.259 367.34 492.559 367.34Z" fill="black"/>
<path d="M408.128 320.96V332H407.008V323.184L403.072 332H402.256L398.32 323.216V332H397.2V320.96H398.384L402.656 330.528L406.928 320.96H408.128ZM410.729 321.616C410.505 321.616 410.313 321.536 410.153 321.376C409.993 321.216 409.913 321.019 409.913 320.784C409.913 320.549 409.993 320.357 410.153 320.208C410.313 320.048 410.505 319.968 410.729 319.968C410.953 319.968 411.145 320.048 411.305 320.208C411.465 320.357 411.545 320.549 411.545 320.784C411.545 321.019 411.465 321.216 411.305 321.376C411.145 321.536 410.953 321.616 410.729 321.616ZM411.289 323.264V332H410.169V323.264H411.289ZM417.421 323.104C418.467 323.104 419.32 323.429 419.981 324.08C420.643 324.72 420.973 325.653 420.973 326.88V332H419.869V327.008C419.869 326.059 419.629 325.333 419.149 324.832C418.68 324.331 418.035 324.08 417.213 324.08C416.371 324.08 415.699 324.347 415.197 324.88C414.696 325.413 414.445 326.197 414.445 327.232V332H413.325V323.264H414.445V324.752C414.723 324.219 415.123 323.813 415.645 323.536C416.168 323.248 416.76 323.104 417.421 323.104ZM423.51 321.616C423.286 321.616 423.094 321.536 422.934 321.376C422.774 321.216 422.694 321.019 422.694 320.784C422.694 320.549 422.774 320.357 422.934 320.208C423.094 320.048 423.286 319.968 423.51 319.968C423.734 319.968 423.926 320.048 424.086 320.208C424.246 320.357 424.326 320.549 424.326 320.784C424.326 321.019 424.246 321.216 424.086 321.376C423.926 321.536 423.734 321.616 423.51 321.616ZM424.07 323.264V332H422.95V323.264H424.07ZM436.507 323.104C437.531 323.104 438.363 323.429 439.003 324.08C439.653 324.72 439.979 325.653 439.979 326.88V332H438.875V327.008C438.875 326.059 438.645 325.333 438.187 324.832C437.728 324.331 437.104 324.08 436.315 324.08C435.493 324.08 434.837 324.352 434.347 324.896C433.856 325.44 433.611 326.229 433.611 327.264V332H432.507V327.008C432.507 326.059 432.277 325.333 431.819 324.832C431.36 324.331 430.731 324.08 429.931 324.08C429.109 324.08 428.453 324.352 427.963 324.896C427.472 325.44 427.227 326.229 427.227 327.264V332H426.107V323.264H427.227V324.768C427.504 324.224 427.899 323.813 428.411 323.536C428.923 323.248 429.493 323.104 430.123 323.104C430.88 323.104 431.541 323.285 432.107 323.648C432.683 324.011 433.099 324.544 433.355 325.248C433.589 324.555 433.989 324.027 434.555 323.664C435.131 323.291 435.781 323.104 436.507 323.104ZM449.534 323.264V332H448.414V330.464C448.158 331.008 447.763 331.424 447.23 331.712C446.697 332 446.099 332.144 445.438 332.144C444.393 332.144 443.539 331.824 442.878 331.184C442.217 330.533 441.886 329.595 441.886 328.368V323.264H442.99V328.24C442.99 329.189 443.225 329.915 443.694 330.416C444.174 330.917 444.825 331.168 445.646 331.168C446.489 331.168 447.161 330.901 447.662 330.368C448.163 329.835 448.414 329.051 448.414 328.016V323.264H449.534ZM461.991 323.104C463.015 323.104 463.847 323.429 464.487 324.08C465.138 324.72 465.463 325.653 465.463 326.88V332H464.359V327.008C464.359 326.059 464.13 325.333 463.671 324.832C463.212 324.331 462.588 324.08 461.799 324.08C460.978 324.08 460.322 324.352 459.831 324.896C459.34 325.44 459.095 326.229 459.095 327.264V332H457.991V327.008C457.991 326.059 457.762 325.333 457.303 324.832C456.844 324.331 456.215 324.08 455.415 324.08C454.594 324.08 453.938 324.352 453.447 324.896C452.956 325.44 452.711 326.229 452.711 327.264V332H451.591V323.264H452.711V324.768C452.988 324.224 453.383 323.813 453.895 323.536C454.407 323.248 454.978 323.104 455.607 323.104C456.364 323.104 457.026 323.285 457.591 323.648C458.167 324.011 458.583 324.544 458.839 325.248C459.074 324.555 459.474 324.027 460.039 323.664C460.615 323.291 461.266 323.104 461.991 323.104ZM474.653 320.816C475.89 320.816 476.952 321.04 477.837 321.488C478.722 321.936 479.4 322.581 479.869 323.424C480.338 324.267 480.573 325.269 480.573 326.432C480.573 327.584 480.338 328.581 479.869 329.424C479.4 330.256 478.722 330.896 477.837 331.344C476.952 331.781 475.89 332 474.653 332H471.341V320.816H474.653ZM474.653 331.072C476.21 331.072 477.394 330.667 478.205 329.856C479.026 329.035 479.437 327.893 479.437 326.432C479.437 324.96 479.026 323.813 478.205 322.992C477.394 322.16 476.21 321.744 474.653 321.744H472.461V331.072H474.653ZM489.706 323.264V332H488.586V330.464C488.33 331.008 487.935 331.424 487.402 331.712C486.868 332 486.271 332.144 485.61 332.144C484.564 332.144 483.711 331.824 483.05 331.184C482.388 330.533 482.058 329.595 482.058 328.368V323.264H483.162V328.24C483.162 329.189 483.396 329.915 483.866 330.416C484.346 330.917 484.996 331.168 485.818 331.168C486.66 331.168 487.332 330.901 487.834 330.368C488.335 329.835 488.586 329.051 488.586 328.016V323.264H489.706ZM499.667 327.184C499.667 327.568 499.656 327.861 499.635 328.064H492.387C492.419 328.725 492.579 329.291 492.867 329.76C493.155 330.229 493.533 330.587 494.003 330.832C494.472 331.067 494.984 331.184 495.539 331.184C496.264 331.184 496.872 331.008 497.363 330.656C497.864 330.304 498.195 329.829 498.355 329.232H499.539C499.325 330.085 498.867 330.784 498.163 331.328C497.469 331.861 496.595 332.128 495.539 332.128C494.717 332.128 493.981 331.947 493.331 331.584C492.68 331.211 492.168 330.688 491.795 330.016C491.432 329.333 491.251 328.539 491.251 327.632C491.251 326.725 491.432 325.931 491.795 325.248C492.157 324.565 492.664 324.043 493.315 323.68C493.965 323.317 494.707 323.136 495.539 323.136C496.371 323.136 497.096 323.317 497.715 323.68C498.344 324.043 498.824 324.533 499.155 325.152C499.496 325.76 499.667 326.437 499.667 327.184ZM498.531 327.152C498.541 326.501 498.408 325.947 498.131 325.488C497.864 325.029 497.496 324.683 497.027 324.448C496.557 324.213 496.045 324.096 495.491 324.096C494.659 324.096 493.949 324.363 493.363 324.896C492.776 325.429 492.451 326.181 492.387 327.152H498.531Z" fill="#191D21"/>
<rect x="188" y="13" width="309" height="101" rx="14" fill="white"/>
<path d="M227.79 78.88C227.79 79.98 227.5 81 226.92 81.94C226.36 82.86 225.52 83.62 224.4 84.22C223.3 84.8 221.99 85.12 220.47 85.18V87.61H218.55V85.15C216.43 84.97 214.72 84.34 213.42 83.26C212.12 82.16 211.43 80.67 211.35 78.79H216.81C216.93 79.99 217.51 80.76 218.55 81.1V76.36C216.99 75.96 215.74 75.57 214.8 75.19C213.88 74.81 213.07 74.2 212.37 73.36C211.67 72.52 211.32 71.37 211.32 69.91C211.32 68.09 211.99 66.63 213.33 65.53C214.69 64.43 216.43 63.81 218.55 63.67V61.24H220.47V63.67C222.57 63.83 224.23 64.44 225.45 65.5C226.67 66.56 227.35 68.03 227.49 69.91H222C221.88 68.83 221.37 68.13 220.47 67.81V72.46C222.13 72.92 223.41 73.33 224.31 73.69C225.21 74.05 226.01 74.65 226.71 75.49C227.43 76.31 227.79 77.44 227.79 78.88ZM216.75 69.67C216.75 70.17 216.9 70.59 217.2 70.93C217.52 71.27 217.97 71.57 218.55 71.83V67.66C217.99 67.76 217.55 67.98 217.23 68.32C216.91 68.64 216.75 69.09 216.75 69.67ZM220.47 81.19C221.07 81.09 221.54 80.85 221.88 80.47C222.24 80.09 222.42 79.62 222.42 79.06C222.42 78.54 222.25 78.12 221.91 77.8C221.59 77.46 221.11 77.17 220.47 76.93V81.19ZM230.416 80.89C231.096 80.35 231.406 80.1 231.346 80.14C233.306 78.52 234.846 77.19 235.966 76.15C237.106 75.11 238.066 74.02 238.846 72.88C239.626 71.74 240.016 70.63 240.016 69.55C240.016 68.73 239.826 68.09 239.446 67.63C239.066 67.17 238.496 66.94 237.736 66.94C236.976 66.94 236.376 67.23 235.936 67.81C235.516 68.37 235.306 69.17 235.306 70.21H230.356C230.396 68.51 230.756 67.09 231.436 65.95C232.136 64.81 233.046 63.97 234.166 63.43C235.306 62.89 236.566 62.62 237.946 62.62C240.326 62.62 242.116 63.23 243.316 64.45C244.536 65.67 245.146 67.26 245.146 69.22C245.146 71.36 244.416 73.35 242.956 75.19C241.496 77.01 239.636 78.79 237.376 80.53H245.476V84.7H230.416V80.89ZM262.655 67.57H253.295V71.71C253.695 71.27 254.255 70.91 254.975 70.63C255.695 70.35 256.475 70.21 257.315 70.21C258.815 70.21 260.055 70.55 261.035 71.23C262.035 71.91 262.765 72.79 263.225 73.87C263.685 74.95 263.915 76.12 263.915 77.38C263.915 79.72 263.255 81.58 261.935 82.96C260.615 84.32 258.755 85 256.355 85C254.755 85 253.365 84.73 252.185 84.19C251.005 83.63 250.095 82.86 249.455 81.88C248.815 80.9 248.465 79.77 248.405 78.49H253.415C253.535 79.11 253.825 79.63 254.285 80.05C254.745 80.45 255.375 80.65 256.175 80.65C257.115 80.65 257.815 80.35 258.275 79.75C258.735 79.15 258.965 78.35 258.965 77.35C258.965 76.37 258.725 75.62 258.245 75.1C257.765 74.58 257.065 74.32 256.145 74.32C255.465 74.32 254.905 74.49 254.465 74.83C254.025 75.15 253.735 75.58 253.595 76.12H248.645V63.07H262.655V67.57ZM269.156 85.24C268.256 85.24 267.516 84.98 266.936 84.46C266.376 83.92 266.096 83.26 266.096 82.48C266.096 81.68 266.376 81.01 266.936 80.47C267.516 79.93 268.256 79.66 269.156 79.66C270.036 79.66 270.756 79.93 271.316 80.47C271.896 81.01 272.186 81.68 272.186 82.48C272.186 83.26 271.896 83.92 271.316 84.46C270.756 84.98 270.036 85.24 269.156 85.24ZM273.673 67.87V63.1H281.983V85H276.643V67.87H273.673ZM295.823 69.01C295.663 68.27 295.383 67.72 294.983 67.36C294.583 66.98 294.013 66.79 293.273 66.79C292.133 66.79 291.313 67.29 290.813 68.29C290.313 69.27 290.053 70.83 290.033 72.97C290.473 72.27 291.103 71.72 291.923 71.32C292.763 70.92 293.683 70.72 294.683 70.72C296.643 70.72 298.213 71.34 299.393 72.58C300.593 73.82 301.193 75.55 301.193 77.77C301.193 79.23 300.893 80.51 300.293 81.61C299.713 82.71 298.853 83.57 297.713 84.19C296.593 84.81 295.263 85.12 293.723 85.12C290.643 85.12 288.503 84.16 287.303 82.24C286.103 80.3 285.503 77.52 285.503 73.9C285.503 70.1 286.133 67.28 287.393 65.44C288.673 63.58 290.713 62.65 293.513 62.65C295.013 62.65 296.273 62.95 297.293 63.55C298.333 64.13 299.113 64.9 299.633 65.86C300.173 66.82 300.493 67.87 300.593 69.01H295.823ZM293.453 74.77C292.593 74.77 291.873 75.03 291.293 75.55C290.733 76.05 290.453 76.77 290.453 77.71C290.453 78.67 290.713 79.42 291.233 79.96C291.773 80.5 292.533 80.77 293.513 80.77C294.393 80.77 295.083 80.51 295.583 79.99C296.103 79.45 296.363 78.72 296.363 77.8C296.363 76.86 296.113 76.12 295.613 75.58C295.113 75.04 294.393 74.77 293.453 74.77Z" fill="black"/>
<path d="M212.768 40.4C212.768 39.3013 213.008 38.32 213.488 37.456C213.968 36.5813 214.624 35.904 215.456 35.424C216.288 34.9333 217.216 34.688 218.24 34.688C219.488 34.688 220.555 34.9867 221.44 35.584C222.336 36.1707 222.987 37.0027 223.392 38.08H222.08C221.76 37.3227 221.269 36.7307 220.608 36.304C219.957 35.8773 219.168 35.664 218.24 35.664C217.419 35.664 216.677 35.856 216.016 36.24C215.365 36.624 214.853 37.1787 214.48 37.904C214.107 38.6187 213.92 39.4507 213.92 40.4C213.92 41.3493 214.107 42.1813 214.48 42.896C214.853 43.6107 215.365 44.16 216.016 44.544C216.677 44.928 217.419 45.12 218.24 45.12C219.168 45.12 219.957 44.912 220.608 44.496C221.269 44.0693 221.76 43.4827 222.08 42.736H223.392C222.987 43.8027 222.336 44.6293 221.44 45.216C220.544 45.8027 219.477 46.096 218.24 46.096C217.216 46.096 216.288 45.856 215.456 45.376C214.624 44.8853 213.968 44.208 213.488 43.344C213.008 42.48 212.768 41.4987 212.768 40.4ZM232.692 37.264V46H231.572V44.464C231.316 45.008 230.921 45.424 230.388 45.712C229.854 46 229.257 46.144 228.596 46.144C227.55 46.144 226.697 45.824 226.036 45.184C225.374 44.5333 225.044 43.5947 225.044 42.368V37.264H226.148V42.24C226.148 43.1893 226.382 43.9147 226.852 44.416C227.332 44.9173 227.982 45.168 228.804 45.168C229.646 45.168 230.318 44.9013 230.82 44.368C231.321 43.8347 231.572 43.0507 231.572 42.016V37.264H232.692ZM235.869 38.816C236.114 38.272 236.487 37.8507 236.989 37.552C237.501 37.2533 238.125 37.104 238.861 37.104V38.272H238.557C237.746 38.272 237.095 38.4907 236.605 38.928C236.114 39.3653 235.869 40.096 235.869 41.12V46H234.749V37.264H235.869V38.816ZM241.166 38.816C241.411 38.272 241.784 37.8507 242.286 37.552C242.798 37.2533 243.422 37.104 244.158 37.104V38.272H243.854C243.043 38.272 242.392 38.4907 241.902 38.928C241.411 39.3653 241.166 40.096 241.166 41.12V46H240.046V37.264H241.166V38.816ZM253.247 41.184C253.247 41.568 253.236 41.8613 253.215 42.064H245.967C245.999 42.7253 246.159 43.2907 246.447 43.76C246.735 44.2293 247.113 44.5867 247.583 44.832C248.052 45.0667 248.564 45.184 249.119 45.184C249.844 45.184 250.452 45.008 250.943 44.656C251.444 44.304 251.775 43.8293 251.935 43.232H253.119C252.905 44.0853 252.447 44.784 251.743 45.328C251.049 45.8613 250.175 46.128 249.119 46.128C248.297 46.128 247.561 45.9467 246.911 45.584C246.26 45.2107 245.748 44.688 245.375 44.016C245.012 43.3333 244.831 42.5387 244.831 41.632C244.831 40.7253 245.012 39.9307 245.375 39.248C245.737 38.5653 246.244 38.0427 246.895 37.68C247.545 37.3173 248.287 37.136 249.119 37.136C249.951 37.136 250.676 37.3173 251.295 37.68C251.924 38.0427 252.404 38.5333 252.735 39.152C253.076 39.76 253.247 40.4373 253.247 41.184ZM252.111 41.152C252.121 40.5013 251.988 39.9467 251.711 39.488C251.444 39.0293 251.076 38.6827 250.607 38.448C250.137 38.2133 249.625 38.096 249.071 38.096C248.239 38.096 247.529 38.3627 246.943 38.896C246.356 39.4293 246.031 40.1813 245.967 41.152H252.111ZM258.892 37.104C259.937 37.104 260.79 37.4293 261.452 38.08C262.113 38.72 262.444 39.6533 262.444 40.88V46H261.34V41.008C261.34 40.0587 261.1 39.3333 260.62 38.832C260.15 38.3307 259.505 38.08 258.684 38.08C257.841 38.08 257.169 38.3467 256.668 38.88C256.166 39.4133 255.916 40.1973 255.916 41.232V46H254.796V37.264H255.916V38.752C256.193 38.2187 256.593 37.8133 257.116 37.536C257.638 37.248 258.23 37.104 258.892 37.104ZM265.877 38.208V43.632C265.877 44.1653 265.978 44.5333 266.181 44.736C266.383 44.9387 266.741 45.04 267.253 45.04H268.277V46H267.077C266.287 46 265.701 45.8187 265.317 45.456C264.933 45.0827 264.741 44.4747 264.741 43.632V38.208H263.525V37.264H264.741V35.072H265.877V37.264H268.277V38.208H265.877ZM278.746 40.224C279.376 40.3413 279.909 40.6613 280.346 41.184C280.784 41.7067 281.002 42.3147 281.002 43.008C281.002 43.5733 280.858 44.0853 280.57 44.544C280.293 44.992 279.882 45.3493 279.338 45.616C278.794 45.872 278.144 46 277.386 46H273.514V34.816H277.274C278.405 34.816 279.264 35.0773 279.85 35.6C280.448 36.1227 280.746 36.8 280.746 37.632C280.746 38.3253 280.56 38.8907 280.186 39.328C279.813 39.7547 279.333 40.0533 278.746 40.224ZM274.634 39.76H277.242C278 39.76 278.581 39.584 278.986 39.232C279.402 38.8693 279.61 38.3733 279.61 37.744C279.61 37.1253 279.402 36.64 278.986 36.288C278.581 35.936 277.984 35.76 277.194 35.76H274.634V39.76ZM277.306 45.056C278.117 45.056 278.746 44.864 279.194 44.48C279.653 44.096 279.882 43.568 279.882 42.896C279.882 42.224 279.642 41.6907 279.162 41.296C278.693 40.8907 278.058 40.688 277.258 40.688H274.634V45.056H277.306ZM282.049 41.616C282.049 40.72 282.225 39.936 282.577 39.264C282.94 38.5813 283.436 38.0587 284.065 37.696C284.705 37.3227 285.425 37.136 286.225 37.136C287.057 37.136 287.772 37.328 288.369 37.712C288.977 38.096 289.415 38.5867 289.681 39.184V37.264H290.801V46H289.681V44.064C289.404 44.6613 288.961 45.1573 288.353 45.552C287.756 45.936 287.041 46.128 286.209 46.128C285.42 46.128 284.705 45.9413 284.065 45.568C283.436 45.1947 282.94 44.6667 282.577 43.984C282.225 43.3013 282.049 42.512 282.049 41.616ZM289.681 41.632C289.681 40.928 289.537 40.3093 289.249 39.776C288.961 39.2427 288.567 38.832 288.065 38.544C287.575 38.256 287.031 38.112 286.433 38.112C285.815 38.112 285.26 38.2507 284.769 38.528C284.279 38.8053 283.889 39.2107 283.601 39.744C283.324 40.2667 283.185 40.8907 283.185 41.616C283.185 42.3307 283.324 42.96 283.601 43.504C283.889 44.0373 284.279 44.448 284.769 44.736C285.26 45.0133 285.815 45.152 286.433 45.152C287.031 45.152 287.575 45.008 288.065 44.72C288.567 44.432 288.961 44.0213 289.249 43.488C289.537 42.9547 289.681 42.336 289.681 41.632ZM293.978 34.16V46H292.858V34.16H293.978ZM295.502 41.616C295.502 40.72 295.678 39.936 296.03 39.264C296.393 38.5813 296.889 38.0587 297.518 37.696C298.158 37.3227 298.878 37.136 299.678 37.136C300.51 37.136 301.225 37.328 301.822 37.712C302.43 38.096 302.868 38.5867 303.134 39.184V37.264H304.254V46H303.134V44.064C302.857 44.6613 302.414 45.1573 301.806 45.552C301.209 45.936 300.494 46.128 299.662 46.128C298.873 46.128 298.158 45.9413 297.518 45.568C296.889 45.1947 296.393 44.6667 296.03 43.984C295.678 43.3013 295.502 42.512 295.502 41.616ZM303.134 41.632C303.134 40.928 302.99 40.3093 302.702 39.776C302.414 39.2427 302.02 38.832 301.518 38.544C301.028 38.256 300.484 38.112 299.886 38.112C299.268 38.112 298.713 38.2507 298.222 38.528C297.732 38.8053 297.342 39.2107 297.054 39.744C296.777 40.2667 296.638 40.8907 296.638 41.616C296.638 42.3307 296.777 42.96 297.054 43.504C297.342 44.0373 297.732 44.448 298.222 44.736C298.713 45.0133 299.268 45.152 299.886 45.152C300.484 45.152 301.028 45.008 301.518 44.72C302.02 44.432 302.414 44.0213 302.702 43.488C302.99 42.9547 303.134 42.336 303.134 41.632ZM310.407 37.104C311.453 37.104 312.306 37.4293 312.967 38.08C313.629 38.72 313.959 39.6533 313.959 40.88V46H312.855V41.008C312.855 40.0587 312.615 39.3333 312.135 38.832C311.666 38.3307 311.021 38.08 310.199 38.08C309.357 38.08 308.685 38.3467 308.183 38.88C307.682 39.4133 307.431 40.1973 307.431 41.232V46H306.311V37.264H307.431V38.752C307.709 38.2187 308.109 37.8133 308.631 37.536C309.154 37.248 309.746 37.104 310.407 37.104ZM315.424 41.632C315.424 40.7253 315.606 39.936 315.968 39.264C316.331 38.5813 316.832 38.0587 317.472 37.696C318.112 37.3227 318.843 37.136 319.664 37.136C320.742 37.136 321.627 37.4027 322.32 37.936C323.024 38.4693 323.478 39.1947 323.68 40.112H322.48C322.331 39.4827 322.006 38.992 321.504 38.64C321.014 38.2773 320.4 38.096 319.664 38.096C319.078 38.096 318.55 38.2293 318.08 38.496C317.611 38.7627 317.238 39.1627 316.96 39.696C316.694 40.2187 316.56 40.864 316.56 41.632C316.56 42.4 316.694 43.0507 316.96 43.584C317.238 44.1173 317.611 44.5173 318.08 44.784C318.55 45.0507 319.078 45.184 319.664 45.184C320.4 45.184 321.014 45.008 321.504 44.656C322.006 44.2933 322.331 43.792 322.48 43.152H323.68C323.478 44.048 323.024 44.768 322.32 45.312C321.616 45.856 320.731 46.128 319.664 46.128C318.843 46.128 318.112 45.9467 317.472 45.584C316.832 45.2107 316.331 44.688 315.968 44.016C315.606 43.3333 315.424 42.5387 315.424 41.632ZM333.153 41.184C333.153 41.568 333.142 41.8613 333.121 42.064H325.873C325.905 42.7253 326.065 43.2907 326.353 43.76C326.641 44.2293 327.019 44.5867 327.489 44.832C327.958 45.0667 328.47 45.184 329.025 45.184C329.75 45.184 330.358 45.008 330.849 44.656C331.35 44.304 331.681 43.8293 331.841 43.232H333.025C332.811 44.0853 332.353 44.784 331.649 45.328C330.955 45.8613 330.081 46.128 329.025 46.128C328.203 46.128 327.467 45.9467 326.817 45.584C326.166 45.2107 325.654 44.688 325.281 44.016C324.918 43.3333 324.737 42.5387 324.737 41.632C324.737 40.7253 324.918 39.9307 325.281 39.248C325.643 38.5653 326.15 38.0427 326.801 37.68C327.451 37.3173 328.193 37.136 329.025 37.136C329.857 37.136 330.582 37.3173 331.201 37.68C331.83 38.0427 332.31 38.5333 332.641 39.152C332.982 39.76 333.153 40.4373 333.153 41.184ZM332.017 41.152C332.027 40.5013 331.894 39.9467 331.617 39.488C331.35 39.0293 330.982 38.6827 330.513 38.448C330.043 38.2133 329.531 38.096 328.977 38.096C328.145 38.096 327.435 38.3627 326.849 38.896C326.262 39.4293 325.937 40.1813 325.873 41.152H332.017Z" fill="#191D21"/>
<path d="M362.592 34.816C363.829 34.816 364.891 35.04 365.776 35.488C366.661 35.936 367.339 36.5813 367.808 37.424C368.277 38.2667 368.512 39.2693 368.512 40.432C368.512 41.584 368.277 42.5813 367.808 43.424C367.339 44.256 366.661 44.896 365.776 45.344C364.891 45.7813 363.829 46 362.592 46H359.28V34.816H362.592ZM362.592 45.072C364.149 45.072 365.333 44.6667 366.144 43.856C366.965 43.0347 367.376 41.8933 367.376 40.432C367.376 38.96 366.965 37.8133 366.144 36.992C365.333 36.16 364.149 35.744 362.592 35.744H360.4V45.072H362.592ZM377.645 37.264V46H376.525V44.464C376.269 45.008 375.874 45.424 375.341 45.712C374.808 46 374.21 46.144 373.549 46.144C372.504 46.144 371.65 45.824 370.989 45.184C370.328 44.5333 369.997 43.5947 369.997 42.368V37.264H371.101V42.24C371.101 43.1893 371.336 43.9147 371.805 44.416C372.285 44.9173 372.936 45.168 373.757 45.168C374.6 45.168 375.272 44.9013 375.773 44.368C376.274 43.8347 376.525 43.0507 376.525 42.016V37.264H377.645ZM387.606 41.184C387.606 41.568 387.595 41.8613 387.574 42.064H380.326C380.358 42.7253 380.518 43.2907 380.806 43.76C381.094 44.2293 381.473 44.5867 381.942 44.832C382.411 45.0667 382.923 45.184 383.478 45.184C384.203 45.184 384.811 45.008 385.302 44.656C385.803 44.304 386.134 43.8293 386.294 43.232H387.478C387.265 44.0853 386.806 44.784 386.102 45.328C385.409 45.8613 384.534 46.128 383.478 46.128C382.657 46.128 381.921 45.9467 381.27 45.584C380.619 45.2107 380.107 44.688 379.734 44.016C379.371 43.3333 379.19 42.5387 379.19 41.632C379.19 40.7253 379.371 39.9307 379.734 39.248C380.097 38.5653 380.603 38.0427 381.254 37.68C381.905 37.3173 382.646 37.136 383.478 37.136C384.31 37.136 385.035 37.3173 385.654 37.68C386.283 38.0427 386.763 38.5333 387.094 39.152C387.435 39.76 387.606 40.4373 387.606 41.184ZM386.47 41.152C386.481 40.5013 386.347 39.9467 386.07 39.488C385.803 39.0293 385.435 38.6827 384.966 38.448C384.497 38.2133 383.985 38.096 383.43 38.096C382.598 38.096 381.889 38.3627 381.302 38.896C380.715 39.4293 380.39 40.1813 380.326 41.152H386.47ZM398.07 46.112C397.035 46.112 396.096 45.872 395.254 45.392C394.411 44.9013 393.744 44.224 393.254 43.36C392.774 42.4853 392.534 41.4987 392.534 40.4C392.534 39.3013 392.774 38.32 393.254 37.456C393.744 36.5813 394.411 35.904 395.254 35.424C396.096 34.9333 397.035 34.688 398.07 34.688C399.115 34.688 400.059 34.9333 400.902 35.424C401.744 35.904 402.406 36.5813 402.886 37.456C403.366 38.32 403.606 39.3013 403.606 40.4C403.606 41.4987 403.366 42.4853 402.886 43.36C402.406 44.224 401.744 44.9013 400.902 45.392C400.059 45.872 399.115 46.112 398.07 46.112ZM398.07 45.136C398.902 45.136 399.648 44.944 400.31 44.56C400.971 44.176 401.494 43.6267 401.878 42.912C402.262 42.1867 402.454 41.3493 402.454 40.4C402.454 39.4507 402.262 38.6187 401.878 37.904C401.494 37.1893 400.971 36.64 400.31 36.256C399.648 35.872 398.902 35.68 398.07 35.68C397.238 35.68 396.491 35.872 395.83 36.256C395.168 36.64 394.646 37.1893 394.262 37.904C393.878 38.6187 393.686 39.4507 393.686 40.4C393.686 41.3493 393.878 42.1867 394.262 42.912C394.646 43.6267 395.168 44.176 395.83 44.56C396.491 44.944 397.238 45.136 398.07 45.136ZM409.251 37.104C410.296 37.104 411.15 37.4293 411.811 38.08C412.472 38.72 412.803 39.6533 412.803 40.88V46H411.699V41.008C411.699 40.0587 411.459 39.3333 410.979 38.832C410.51 38.3307 409.864 38.08 409.043 38.08C408.2 38.08 407.528 38.3467 407.027 38.88C406.526 39.4133 406.275 40.1973 406.275 41.232V46H405.155V37.264H406.275V38.752C406.552 38.2187 406.952 37.8133 407.475 37.536C407.998 37.248 408.59 37.104 409.251 37.104Z" fill="#191D21"/>
<path d="M366.216 84.182C364.881 84.182 363.685 83.9653 362.628 83.532C361.571 83.0987 360.721 82.4573 360.08 81.608C359.456 80.7587 359.127 79.736 359.092 78.54H363.824C363.893 79.216 364.127 79.736 364.526 80.1C364.925 80.4467 365.445 80.62 366.086 80.62C366.745 80.62 367.265 80.4727 367.646 80.178C368.027 79.866 368.218 79.4413 368.218 78.904C368.218 78.4533 368.062 78.0807 367.75 77.786C367.455 77.4913 367.083 77.2487 366.632 77.058C366.199 76.8673 365.575 76.6507 364.76 76.408C363.581 76.044 362.619 75.68 361.874 75.316C361.129 74.952 360.487 74.4147 359.95 73.704C359.413 72.9933 359.144 72.066 359.144 70.922C359.144 69.2233 359.759 67.8973 360.99 66.944C362.221 65.9733 363.824 65.488 365.8 65.488C367.811 65.488 369.431 65.9733 370.662 66.944C371.893 67.8973 372.551 69.232 372.638 70.948H367.828C367.793 70.3587 367.577 69.8993 367.178 69.57C366.779 69.2233 366.268 69.05 365.644 69.05C365.107 69.05 364.673 69.1973 364.344 69.492C364.015 69.7693 363.85 70.1767 363.85 70.714C363.85 71.3033 364.127 71.7627 364.682 72.092C365.237 72.4213 366.103 72.7767 367.282 73.158C368.461 73.5567 369.414 73.938 370.142 74.302C370.887 74.666 371.529 75.1947 372.066 75.888C372.603 76.5813 372.872 77.474 372.872 78.566C372.872 79.606 372.603 80.5507 372.066 81.4C371.546 82.2493 370.783 82.9253 369.778 83.428C368.773 83.9307 367.585 84.182 366.216 84.182ZM388.784 76.512C388.784 76.928 388.758 77.3613 388.706 77.812H378.644C378.713 78.7133 378.999 79.4067 379.502 79.892C380.022 80.36 380.655 80.594 381.4 80.594C382.509 80.594 383.281 80.126 383.714 79.19H388.446C388.203 80.1433 387.761 81.0013 387.12 81.764C386.496 82.5267 385.707 83.1247 384.754 83.558C383.801 83.9913 382.735 84.208 381.556 84.208C380.135 84.208 378.869 83.9047 377.76 83.298C376.651 82.6913 375.784 81.8247 375.16 80.698C374.536 79.5713 374.224 78.254 374.224 76.746C374.224 75.238 374.527 73.9207 375.134 72.794C375.758 71.6673 376.625 70.8007 377.734 70.194C378.843 69.5873 380.117 69.284 381.556 69.284C382.96 69.284 384.208 69.5787 385.3 70.168C386.392 70.7573 387.241 71.598 387.848 72.69C388.472 73.782 388.784 75.056 388.784 76.512ZM384.234 75.342C384.234 74.5793 383.974 73.9727 383.454 73.522C382.934 73.0713 382.284 72.846 381.504 72.846C380.759 72.846 380.126 73.0627 379.606 73.496C379.103 73.9293 378.791 74.5447 378.67 75.342H384.234ZM395.076 71.546C395.509 70.87 396.107 70.324 396.87 69.908C397.632 69.492 398.525 69.284 399.548 69.284C400.744 69.284 401.827 69.5873 402.798 70.194C403.768 70.8007 404.531 71.6673 405.086 72.794C405.658 73.9207 405.944 75.2293 405.944 76.72C405.944 78.2107 405.658 79.528 405.086 80.672C404.531 81.7987 403.768 82.674 402.798 83.298C401.827 83.9047 400.744 84.208 399.548 84.208C398.542 84.208 397.65 84 396.87 83.584C396.107 83.168 395.509 82.6307 395.076 81.972V90.916H390.63V69.492H395.076V71.546ZM401.42 76.72C401.42 75.6107 401.108 74.744 400.484 74.12C399.877 73.4787 399.123 73.158 398.222 73.158C397.338 73.158 396.584 73.4787 395.96 74.12C395.353 74.7613 395.05 75.6367 395.05 76.746C395.05 77.8553 395.353 78.7307 395.96 79.372C396.584 80.0133 397.338 80.334 398.222 80.334C399.106 80.334 399.86 80.0133 400.484 79.372C401.108 78.7133 401.42 77.8293 401.42 76.72ZM409.856 84.208C409.076 84.208 408.435 83.9827 407.932 83.532C407.447 83.064 407.204 82.492 407.204 81.816C407.204 81.1227 407.447 80.542 407.932 80.074C408.435 79.606 409.076 79.372 409.856 79.372C410.619 79.372 411.243 79.606 411.728 80.074C412.231 80.542 412.482 81.1227 412.482 81.816C412.482 82.492 412.231 83.064 411.728 83.532C411.243 83.9827 410.619 84.208 409.856 84.208ZM418.714 69.154V65.02H425.916V84H421.288V69.154H418.714ZM428.457 74.25C428.457 71.2687 429.029 68.92 430.173 67.204C431.334 65.488 433.198 64.63 435.763 64.63C438.328 64.63 440.183 65.488 441.327 67.204C442.488 68.92 443.069 71.2687 443.069 74.25C443.069 77.266 442.488 79.632 441.327 81.348C440.183 83.064 438.328 83.922 435.763 83.922C433.198 83.922 431.334 83.064 430.173 81.348C429.029 79.632 428.457 77.266 428.457 74.25ZM438.701 74.25C438.701 72.4993 438.51 71.156 438.129 70.22C437.748 69.2667 436.959 68.79 435.763 68.79C434.567 68.79 433.778 69.2667 433.397 70.22C433.016 71.156 432.825 72.4993 432.825 74.25C432.825 75.4287 432.894 76.408 433.033 77.188C433.172 77.9507 433.449 78.5747 433.865 79.06C434.298 79.528 434.931 79.762 435.763 79.762C436.595 79.762 437.219 79.528 437.635 79.06C438.068 78.5747 438.354 77.9507 438.493 77.188C438.632 76.408 438.701 75.4287 438.701 74.25ZM453.446 80.23V84H451.184C449.572 84 448.315 83.61 447.414 82.83C446.513 82.0327 446.062 80.7413 446.062 78.956V73.184H444.294V69.492H446.062V65.956H450.508V69.492H453.42V73.184H450.508V79.008C450.508 79.4413 450.612 79.7533 450.82 79.944C451.028 80.1347 451.375 80.23 451.86 80.23H453.446ZM464.341 69.336C466.005 69.336 467.339 69.8907 468.345 71C469.35 72.092 469.853 73.6 469.853 75.524V84H465.433V76.122C465.433 75.1513 465.181 74.3973 464.679 73.86C464.176 73.3227 463.5 73.054 462.651 73.054C461.801 73.054 461.125 73.3227 460.623 73.86C460.12 74.3973 459.869 75.1513 459.869 76.122V84H455.423V64.76H459.869V71.442C460.319 70.8007 460.935 70.2893 461.715 69.908C462.495 69.5267 463.37 69.336 464.341 69.336Z" fill="#191D21"/>
<ellipse cx="102" cy="191.467" rx="70" ry="70.4667" fill="#D0F1EB" fill-opacity="0.5"/>
<ellipse cx="545" cy="140.233" rx="35" ry="35.2333" fill="#D0F1EB" fill-opacity="0.5"/>
<path d="M137.49 190.05L120.69 231H106.62L123.56 191.66H103.61V179.9H137.49V190.05ZM141.867 204.68C141.867 196.653 143.501 190.33 146.767 185.71C150.034 181.09 155.167 178.78 162.167 178.78C169.167 178.78 174.301 181.09 177.567 185.71C180.881 190.33 182.537 196.653 182.537 204.68C182.537 212.8 180.904 219.17 177.637 223.79C174.371 228.41 169.214 230.72 162.167 230.72C155.121 230.72 149.964 228.41 146.697 223.79C143.477 219.17 141.867 212.8 141.867 204.68ZM168.957 204.68C168.957 200.48 168.514 197.283 167.627 195.09C166.741 192.85 164.921 191.73 162.167 191.73C159.414 191.73 157.594 192.85 156.707 195.09C155.821 197.283 155.377 200.48 155.377 204.68C155.377 208.973 155.797 212.24 156.637 214.48C157.524 216.673 159.367 217.77 162.167 217.77C164.967 217.77 166.787 216.673 167.627 214.48C168.514 212.24 168.957 208.973 168.957 204.68ZM187.95 220.01C192.476 216.463 196.186 213.407 199.08 210.84C201.973 208.273 204.4 205.637 206.36 202.93C208.32 200.177 209.3 197.563 209.3 195.09C209.3 193.597 208.95 192.43 208.25 191.59C207.596 190.75 206.616 190.33 205.31 190.33C203.956 190.33 202.906 190.913 202.16 192.08C201.413 193.2 201.063 194.857 201.11 197.05H187.81C187.95 192.897 188.86 189.467 190.54 186.76C192.22 184.007 194.413 182 197.12 180.74C199.826 179.433 202.836 178.78 206.15 178.78C211.89 178.78 216.16 180.203 218.96 183.05C221.76 185.897 223.16 189.583 223.16 194.11C223.16 198.963 221.526 203.513 218.26 207.76C215.04 212.007 211.003 215.81 206.15 219.17H223.65V230.3H187.95V220.01Z" fill="#11101D"/>
<path d="M375.05 219.58C375.05 222.24 374.327 224.69 372.88 226.93C371.48 229.123 369.403 230.897 366.65 232.25C363.943 233.603 360.677 234.35 356.85 234.49V240.09H352.44V234.35C347.307 233.883 343.107 232.32 339.84 229.66C336.62 227 334.917 223.383 334.73 218.81H349.36C349.547 221.19 350.573 222.753 352.44 223.5V214.54C348.52 213.467 345.44 212.487 343.2 211.6C340.96 210.667 338.953 209.173 337.18 207.12C335.453 205.067 334.59 202.267 334.59 198.72C334.59 195.78 335.36 193.237 336.9 191.09C338.487 188.897 340.633 187.217 343.34 186.05C346.047 184.837 349.08 184.137 352.44 183.95V178.28H356.85V183.95C362.03 184.323 366.137 185.817 369.17 188.43C372.25 191.043 373.953 194.637 374.28 199.21H359.51C359.323 197.063 358.437 195.64 356.85 194.94V203.83L358.6 204.39C361.96 205.323 364.737 206.303 366.93 207.33C369.17 208.31 371.083 209.803 372.67 211.81C374.257 213.77 375.05 216.36 375.05 219.58ZM349.22 198.09C349.22 199.77 350.293 201.147 352.44 202.22V194.52C350.293 194.893 349.22 196.083 349.22 198.09ZM356.85 223.85C357.97 223.617 358.857 223.173 359.51 222.52C360.163 221.82 360.49 220.957 360.49 219.93C360.49 218.297 359.277 216.967 356.85 215.94V223.85ZM380.036 195.71V182.83H401.596V234H387.246V195.71H380.036ZM425.033 222.24L417.543 242.68H408.863L412.503 222.24H425.033ZM464.341 193.05L447.541 234H433.471L450.411 194.66H430.461V182.9H464.341V193.05ZM468.719 207.68C468.719 199.653 470.352 193.33 473.619 188.71C476.885 184.09 482.019 181.78 489.019 181.78C496.019 181.78 501.152 184.09 504.419 188.71C507.732 193.33 509.389 199.653 509.389 207.68C509.389 215.8 507.755 222.17 504.489 226.79C501.222 231.41 496.065 233.72 489.019 233.72C481.972 233.72 476.815 231.41 473.549 226.79C470.329 222.17 468.719 215.8 468.719 207.68ZM495.809 207.68C495.809 203.48 495.365 200.283 494.479 198.09C493.592 195.85 491.772 194.73 489.019 194.73C486.265 194.73 484.445 195.85 483.559 198.09C482.672 200.283 482.229 203.48 482.229 207.68C482.229 211.973 482.649 215.24 483.489 217.48C484.375 219.673 486.219 220.77 489.019 220.77C491.819 220.77 493.639 219.673 494.479 217.48C495.365 215.24 495.809 211.973 495.809 207.68ZM515.221 207.68C515.221 199.653 516.854 193.33 520.121 188.71C523.388 184.09 528.521 181.78 535.521 181.78C542.521 181.78 547.654 184.09 550.921 188.71C554.234 193.33 555.891 199.653 555.891 207.68C555.891 215.8 554.258 222.17 550.991 226.79C547.724 231.41 542.568 233.72 535.521 233.72C528.474 233.72 523.318 231.41 520.051 226.79C516.831 222.17 515.221 215.8 515.221 207.68ZM542.311 207.68C542.311 203.48 541.868 200.283 540.981 198.09C540.094 195.85 538.274 194.73 535.521 194.73C532.768 194.73 530.948 195.85 530.061 198.09C529.174 200.283 528.731 203.48 528.731 207.68C528.731 211.973 529.151 215.24 529.991 217.48C530.878 219.673 532.721 220.77 535.521 220.77C538.321 220.77 540.141 219.673 540.981 217.48C541.868 215.24 542.311 211.973 542.311 207.68Z" fill="#11101D"/>
<rect x="438" y="140" width="113" height="32" rx="15" fill="#FF743C" fill-opacity="0.4"/>
<path d="M462.297 154.288C462.297 154.776 462.185 155.224 461.961 155.632C461.737 156.032 461.393 156.356 460.929 156.604C460.465 156.852 459.889 156.976 459.201 156.976H457.929V160H455.877V151.576H459.201C459.873 151.576 460.441 151.692 460.905 151.924C461.369 152.156 461.717 152.476 461.949 152.884C462.181 153.292 462.297 153.76 462.297 154.288ZM459.045 155.344C459.437 155.344 459.729 155.252 459.921 155.068C460.113 154.884 460.209 154.624 460.209 154.288C460.209 153.952 460.113 153.692 459.921 153.508C459.729 153.324 459.437 153.232 459.045 153.232H457.929V155.344H459.045ZM465.914 154.42C466.154 154.052 466.454 153.764 466.814 153.556C467.174 153.34 467.574 153.232 468.014 153.232V155.404H467.45C466.938 155.404 466.554 155.516 466.298 155.74C466.042 155.956 465.914 156.34 465.914 156.892V160H463.862V153.304H465.914V154.42ZM475.804 156.544C475.804 156.736 475.792 156.936 475.768 157.144H471.124C471.156 157.56 471.288 157.88 471.52 158.104C471.76 158.32 472.052 158.428 472.396 158.428C472.908 158.428 473.264 158.212 473.464 157.78H475.648C475.536 158.22 475.332 158.616 475.036 158.968C474.748 159.32 474.384 159.596 473.944 159.796C473.504 159.996 473.012 160.096 472.468 160.096C471.812 160.096 471.228 159.956 470.716 159.676C470.204 159.396 469.804 158.996 469.516 158.476C469.228 157.956 469.084 157.348 469.084 156.652C469.084 155.956 469.224 155.348 469.504 154.828C469.792 154.308 470.192 153.908 470.704 153.628C471.216 153.348 471.804 153.208 472.468 153.208C473.116 153.208 473.692 153.344 474.196 153.616C474.7 153.888 475.092 154.276 475.372 154.78C475.66 155.284 475.804 155.872 475.804 156.544ZM473.704 156.004C473.704 155.652 473.584 155.372 473.344 155.164C473.104 154.956 472.804 154.852 472.444 154.852C472.1 154.852 471.808 154.952 471.568 155.152C471.336 155.352 471.192 155.636 471.136 156.004H473.704ZM480.395 158.08L481.847 153.304H484.031L481.655 160H479.123L476.747 153.304H478.943L480.395 158.08ZM486.351 160.096C485.991 160.096 485.695 159.992 485.463 159.784C485.239 159.568 485.127 159.304 485.127 158.992C485.127 158.672 485.239 158.404 485.463 158.188C485.695 157.972 485.991 157.864 486.351 157.864C486.703 157.864 486.991 157.972 487.215 158.188C487.447 158.404 487.563 158.672 487.563 158.992C487.563 159.304 487.447 159.568 487.215 159.784C486.991 159.992 486.703 160.096 486.351 160.096ZM486.351 155.212C485.991 155.212 485.695 155.108 485.463 154.9C485.239 154.684 485.127 154.42 485.127 154.108C485.127 153.788 485.239 153.52 485.463 153.304C485.695 153.088 485.991 152.98 486.351 152.98C486.703 152.98 486.991 153.088 487.215 153.304C487.447 153.52 487.563 153.788 487.563 154.108C487.563 154.42 487.447 154.684 487.215 154.9C486.991 155.108 486.703 155.212 486.351 155.212ZM498.71 157.552C498.71 157.992 498.594 158.4 498.362 158.776C498.138 159.144 497.802 159.448 497.354 159.688C496.914 159.92 496.39 160.048 495.782 160.072V161.044H495.014V160.06C494.166 159.988 493.482 159.736 492.962 159.304C492.442 158.864 492.166 158.268 492.134 157.516H494.318C494.366 157.996 494.598 158.304 495.014 158.44V156.544C494.39 156.384 493.89 156.228 493.514 156.076C493.146 155.924 492.822 155.68 492.542 155.344C492.262 155.008 492.122 154.548 492.122 153.964C492.122 153.236 492.39 152.652 492.926 152.212C493.47 151.772 494.166 151.524 495.014 151.468V150.496H495.782V151.468C496.622 151.532 497.286 151.776 497.774 152.2C498.262 152.624 498.534 153.212 498.59 153.964H496.394C496.346 153.532 496.142 153.252 495.782 153.124V154.984C496.446 155.168 496.958 155.332 497.318 155.476C497.678 155.62 497.998 155.86 498.278 156.196C498.566 156.524 498.71 156.976 498.71 157.552ZM494.294 153.868C494.294 154.068 494.354 154.236 494.474 154.372C494.602 154.508 494.782 154.628 495.014 154.732V153.064C494.79 153.104 494.614 153.192 494.486 153.328C494.358 153.456 494.294 153.636 494.294 153.868ZM495.782 158.476C496.022 158.436 496.21 158.34 496.346 158.188C496.49 158.036 496.562 157.848 496.562 157.624C496.562 157.416 496.494 157.248 496.358 157.12C496.23 156.984 496.038 156.868 495.782 156.772V158.476ZM500.313 153.148V151.24H503.637V160H501.501V153.148H500.313ZM507.949 158.104L506.617 161.548H505.309L506.005 158.104H507.949ZM509.407 158.356C509.679 158.14 509.803 158.04 509.779 158.056C510.563 157.408 511.179 156.876 511.627 156.46C512.083 156.044 512.467 155.608 512.779 155.152C513.091 154.696 513.247 154.252 513.247 153.82C513.247 153.492 513.171 153.236 513.019 153.052C512.867 152.868 512.639 152.776 512.335 152.776C512.031 152.776 511.791 152.892 511.615 153.124C511.447 153.348 511.363 153.668 511.363 154.084H509.383C509.399 153.404 509.543 152.836 509.815 152.38C510.095 151.924 510.459 151.588 510.907 151.372C511.363 151.156 511.867 151.048 512.419 151.048C513.371 151.048 514.087 151.292 514.567 151.78C515.055 152.268 515.299 152.904 515.299 153.688C515.299 154.544 515.007 155.34 514.423 156.076C513.839 156.804 513.095 157.516 512.191 158.212H515.431V159.88H509.407V158.356ZM516.831 155.5C516.831 154.124 517.095 153.04 517.623 152.248C518.159 151.456 519.019 151.06 520.203 151.06C521.387 151.06 522.243 151.456 522.771 152.248C523.307 153.04 523.575 154.124 523.575 155.5C523.575 156.892 523.307 157.984 522.771 158.776C522.243 159.568 521.387 159.964 520.203 159.964C519.019 159.964 518.159 159.568 517.623 158.776C517.095 157.984 516.831 156.892 516.831 155.5ZM521.559 155.5C521.559 154.692 521.471 154.072 521.295 153.64C521.119 153.2 520.755 152.98 520.203 152.98C519.651 152.98 519.287 153.2 519.111 153.64C518.935 154.072 518.847 154.692 518.847 155.5C518.847 156.044 518.879 156.496 518.943 156.856C519.007 157.208 519.135 157.496 519.327 157.72C519.527 157.936 519.819 158.044 520.203 158.044C520.587 158.044 520.875 157.936 521.067 157.72C521.267 157.496 521.399 157.208 521.463 156.856C521.527 156.496 521.559 156.044 521.559 155.5ZM525.156 155.5C525.156 154.124 525.42 153.04 525.948 152.248C526.484 151.456 527.344 151.06 528.528 151.06C529.712 151.06 530.568 151.456 531.096 152.248C531.632 153.04 531.9 154.124 531.9 155.5C531.9 156.892 531.632 157.984 531.096 158.776C530.568 159.568 529.712 159.964 528.528 159.964C527.344 159.964 526.484 159.568 525.948 158.776C525.42 157.984 525.156 156.892 525.156 155.5ZM529.884 155.5C529.884 154.692 529.796 154.072 529.62 153.64C529.444 153.2 529.08 152.98 528.528 152.98C527.976 152.98 527.612 153.2 527.436 153.64C527.26 154.072 527.172 154.692 527.172 155.5C527.172 156.044 527.204 156.496 527.268 156.856C527.332 157.208 527.46 157.496 527.652 157.72C527.852 157.936 528.144 158.044 528.528 158.044C528.912 158.044 529.2 157.936 529.392 157.72C529.592 157.496 529.724 157.208 529.788 156.856C529.852 156.496 529.884 156.044 529.884 155.5Z" fill="#263238"/>
</svg>
