<svg width="600" height="311" viewBox="0 0 600 311" fill="none" xmlns="http://www.w3.org/2000/svg">
<rect width="600" height="311" rx="21" fill="#FF743C" fill-opacity="0.2"/>
<path d="M77.744 52.0626C77.744 51.0226 77.928 50.0066 78.296 49.0146C78.68 48.0066 79.232 47.0946 79.952 46.2786C80.672 45.4466 81.552 44.7906 82.592 44.3106C83.632 43.8146 84.816 43.5666 86.144 43.5666C87.712 43.5666 89.064 43.9106 90.2 44.5986C91.352 45.2866 92.208 46.1826 92.768 47.2866L90.224 49.0386C89.936 48.3986 89.56 47.8946 89.096 47.5266C88.632 47.1426 88.136 46.8786 87.608 46.7346C87.08 46.5746 86.56 46.4946 86.048 46.4946C85.216 46.4946 84.488 46.6626 83.864 46.9986C83.256 47.3346 82.744 47.7746 82.328 48.3186C81.912 48.8626 81.6 49.4706 81.392 50.1426C81.2 50.8146 81.104 51.4866 81.104 52.1586C81.104 52.9106 81.224 53.6386 81.464 54.3426C81.704 55.0306 82.04 55.6466 82.472 56.1906C82.92 56.7186 83.448 57.1426 84.056 57.4626C84.68 57.7666 85.36 57.9186 86.096 57.9186C86.624 57.9186 87.16 57.8306 87.704 57.6546C88.248 57.4786 88.752 57.1986 89.216 56.8146C89.68 56.4306 90.04 55.9346 90.296 55.3266L93.008 56.8866C92.672 57.7346 92.12 58.4546 91.352 59.0466C90.6 59.6386 89.752 60.0866 88.808 60.3906C87.864 60.6946 86.928 60.8466 86 60.8466C84.784 60.8466 83.672 60.5986 82.664 60.1026C81.656 59.5906 80.784 58.9186 80.048 58.0866C79.328 57.2386 78.76 56.2946 78.344 55.2546C77.944 54.1986 77.744 53.1346 77.744 52.0626ZM102.902 50.9106C101.926 50.9106 101.054 51.1026 100.286 51.4866C99.5178 51.8546 98.9658 52.3906 98.6298 53.0946V60.7026H95.4138V48.1266H98.3658V50.8146C98.8138 49.9506 99.3818 49.2706 100.07 48.7746C100.758 48.2786 101.486 48.0066 102.254 47.9586C102.43 47.9586 102.566 47.9586 102.662 47.9586C102.758 47.9586 102.838 47.9666 102.902 47.9826V50.9106ZM110.86 60.9426C109.852 60.9426 108.94 60.7746 108.124 60.4386C107.308 60.0866 106.612 59.6146 106.036 59.0226C105.46 58.4146 105.012 57.7266 104.692 56.9586C104.388 56.1746 104.236 55.3506 104.236 54.4866C104.236 53.2866 104.5 52.1906 105.028 51.1986C105.572 50.2066 106.34 49.4146 107.332 48.8226C108.34 48.2146 109.524 47.9106 110.884 47.9106C112.26 47.9106 113.436 48.2146 114.412 48.8226C115.388 49.4146 116.132 50.2066 116.644 51.1986C117.172 52.1746 117.436 53.2306 117.436 54.3666C117.436 54.5586 117.428 54.7586 117.412 54.9666C117.396 55.1586 117.38 55.3186 117.364 55.4466H107.644C107.708 56.0866 107.892 56.6466 108.196 57.1266C108.516 57.6066 108.916 57.9746 109.396 58.2306C109.892 58.4706 110.42 58.5906 110.98 58.5906C111.62 58.5906 112.22 58.4386 112.78 58.1346C113.356 57.8146 113.748 57.3986 113.956 56.8866L116.716 57.6546C116.412 58.2946 115.972 58.8626 115.396 59.3586C114.836 59.8546 114.172 60.2466 113.404 60.5346C112.636 60.8066 111.788 60.9426 110.86 60.9426ZM107.572 53.4066H114.148C114.084 52.7666 113.9 52.2146 113.596 51.7506C113.308 51.2706 112.924 50.9026 112.444 50.6466C111.964 50.3746 111.428 50.2386 110.836 50.2386C110.26 50.2386 109.732 50.3746 109.252 50.6466C108.788 50.9026 108.404 51.2706 108.1 51.7506C107.812 52.2146 107.636 52.7666 107.572 53.4066ZM119.123 54.4146C119.123 53.1986 119.363 52.1026 119.843 51.1266C120.323 50.1346 120.987 49.3506 121.835 48.7746C122.683 48.1986 123.651 47.9106 124.739 47.9106C125.667 47.9106 126.499 48.1426 127.235 48.6066C127.987 49.0546 128.571 49.6306 128.987 50.3346V43.1826H132.203V57.1026C132.203 57.4386 132.259 57.6786 132.371 57.8226C132.483 57.9666 132.675 58.0546 132.947 58.0866V60.7026C132.387 60.8146 131.931 60.8706 131.579 60.8706C131.003 60.8706 130.523 60.7266 130.139 60.4386C129.771 60.1506 129.563 59.7746 129.515 59.3106L129.467 58.5186C129.003 59.3026 128.371 59.9026 127.571 60.3186C126.787 60.7346 125.963 60.9426 125.099 60.9426C124.235 60.9426 123.435 60.7746 122.699 60.4386C121.979 60.1026 121.347 59.6386 120.803 59.0466C120.275 58.4546 119.859 57.7666 119.555 56.9826C119.267 56.1826 119.123 55.3266 119.123 54.4146ZM128.987 56.0946V53.0946C128.827 52.6306 128.571 52.2146 128.219 51.8466C127.867 51.4786 127.475 51.1906 127.043 50.9826C126.611 50.7586 126.179 50.6466 125.747 50.6466C125.251 50.6466 124.803 50.7506 124.403 50.9586C124.003 51.1666 123.651 51.4466 123.347 51.7986C123.059 52.1506 122.835 52.5586 122.675 53.0226C122.531 53.4866 122.459 53.9746 122.459 54.4866C122.459 54.9986 122.539 55.4866 122.699 55.9506C122.875 56.3986 123.123 56.7906 123.443 57.1266C123.763 57.4626 124.131 57.7266 124.547 57.9186C124.979 58.1106 125.443 58.2066 125.939 58.2066C126.243 58.2066 126.547 58.1586 126.851 58.0626C127.171 57.9506 127.467 57.8066 127.739 57.6306C128.027 57.4386 128.275 57.2146 128.483 56.9586C128.707 56.6866 128.875 56.3986 128.987 56.0946ZM135.857 60.7026V48.1266H139.073V60.7026H135.857ZM135.857 46.3746V43.1826H139.073V46.3746H135.857ZM150.007 60.0546C149.735 60.1666 149.407 60.2946 149.023 60.4386C148.639 60.5826 148.223 60.6946 147.775 60.7746C147.343 60.8706 146.903 60.9186 146.455 60.9186C145.863 60.9186 145.319 60.8146 144.823 60.6066C144.327 60.3986 143.927 60.0706 143.623 59.6226C143.335 59.1586 143.191 58.5586 143.191 57.8226V50.5986H141.535V48.1266H143.191V44.0466H146.407V48.1266H149.047V50.5986H146.407V56.7426C146.423 57.1746 146.543 57.4866 146.767 57.6786C146.991 57.8706 147.271 57.9666 147.607 57.9666C147.943 57.9666 148.271 57.9106 148.591 57.7986C148.911 57.6866 149.167 57.5906 149.359 57.5106L150.007 60.0546Z" fill="#263238"/>
<rect x="37" y="34.6209" width="23" height="36.5882" rx="9" fill="#FF743C"/>
<path d="M79.76 230.08H72.8V237.2H66.32V230.08H59.36V223.96H66.32V216.8H72.8V223.96H79.76V230.08ZM83.6938 218.16V211.8H94.7738V241H87.6538V218.16H83.6938ZM100.11 235.8V230.28L112.75 212.2H120.39V229.88H123.67V235.8H120.39V241H113.55V235.8H100.11ZM114.03 219.72L107.31 229.88H114.03V219.72ZM144.01 221.84C144.676 220.8 145.596 219.96 146.77 219.32C147.943 218.68 149.316 218.36 150.89 218.36C152.73 218.36 154.396 218.827 155.89 219.76C157.383 220.693 158.556 222.027 159.41 223.76C160.29 225.493 160.73 227.507 160.73 229.8C160.73 232.093 160.29 234.12 159.41 235.88C158.556 237.613 157.383 238.96 155.89 239.92C154.396 240.853 152.73 241.32 150.89 241.32C149.343 241.32 147.97 241 146.77 240.36C145.596 239.72 144.676 238.893 144.01 237.88V251.64H137.17V218.68H144.01V221.84ZM153.77 229.8C153.77 228.093 153.29 226.76 152.33 225.8C151.396 224.813 150.236 224.32 148.85 224.32C147.49 224.32 146.33 224.813 145.37 225.8C144.436 226.787 143.97 228.133 143.97 229.84C143.97 231.547 144.436 232.893 145.37 233.88C146.33 234.867 147.49 235.36 148.85 235.36C150.21 235.36 151.37 234.867 152.33 233.88C153.29 232.867 153.77 231.507 153.77 229.8ZM174.975 241.32C172.788 241.32 170.815 240.853 169.055 239.92C167.322 238.987 165.948 237.653 164.935 235.92C163.948 234.187 163.455 232.16 163.455 229.84C163.455 227.547 163.962 225.533 164.975 223.8C165.988 222.04 167.375 220.693 169.135 219.76C170.895 218.827 172.868 218.36 175.055 218.36C177.242 218.36 179.215 218.827 180.975 219.76C182.735 220.693 184.122 222.04 185.135 223.8C186.148 225.533 186.655 227.547 186.655 229.84C186.655 232.133 186.135 234.16 185.095 235.92C184.082 237.653 182.682 238.987 180.895 239.92C179.135 240.853 177.162 241.32 174.975 241.32ZM174.975 235.4C176.282 235.4 177.388 234.92 178.295 233.96C179.228 233 179.695 231.627 179.695 229.84C179.695 228.053 179.242 226.68 178.335 225.72C177.455 224.76 176.362 224.28 175.055 224.28C173.722 224.28 172.615 224.76 171.735 225.72C170.855 226.653 170.415 228.027 170.415 229.84C170.415 231.627 170.842 233 171.695 233.96C172.575 234.92 173.668 235.4 174.975 235.4ZM194.22 216.36C193.02 216.36 192.034 216.013 191.26 215.32C190.514 214.6 190.14 213.72 190.14 212.68C190.14 211.613 190.514 210.733 191.26 210.04C192.034 209.32 193.02 208.96 194.22 208.96C195.394 208.96 196.354 209.32 197.1 210.04C197.874 210.733 198.26 211.613 198.26 212.68C198.26 213.72 197.874 214.6 197.1 215.32C196.354 216.013 195.394 216.36 194.22 216.36ZM197.62 218.68V241H190.78V218.68H197.62ZM216.674 218.44C219.287 218.44 221.367 219.293 222.914 221C224.487 222.68 225.274 225 225.274 227.96V241H218.474V228.88C218.474 227.387 218.087 226.227 217.314 225.4C216.54 224.573 215.5 224.16 214.194 224.16C212.887 224.16 211.847 224.573 211.074 225.4C210.3 226.227 209.914 227.387 209.914 228.88V241H203.074V218.68H209.914V221.64C210.607 220.653 211.54 219.88 212.714 219.32C213.887 218.733 215.207 218.44 216.674 218.44ZM242.964 235.2V241H239.484C237.004 241 235.07 240.4 233.684 239.2C232.297 237.973 231.604 235.987 231.604 233.24V224.36H228.884V218.68H231.604V213.24H238.444V218.68H242.924V224.36H238.444V233.32C238.444 233.987 238.604 234.467 238.924 234.76C239.244 235.053 239.777 235.2 240.524 235.2H242.964ZM256.35 241.32C254.404 241.32 252.67 240.987 251.15 240.32C249.63 239.653 248.43 238.747 247.55 237.6C246.67 236.427 246.177 235.12 246.07 233.68H252.83C252.91 234.453 253.27 235.08 253.91 235.56C254.55 236.04 255.337 236.28 256.27 236.28C257.124 236.28 257.777 236.12 258.23 235.8C258.71 235.453 258.95 235.013 258.95 234.48C258.95 233.84 258.617 233.373 257.95 233.08C257.284 232.76 256.204 232.413 254.71 232.04C253.11 231.667 251.777 231.28 250.71 230.88C249.644 230.453 248.724 229.8 247.95 228.92C247.177 228.013 246.79 226.8 246.79 225.28C246.79 224 247.137 222.84 247.83 221.8C248.55 220.733 249.59 219.893 250.95 219.28C252.337 218.667 253.977 218.36 255.87 218.36C258.67 218.36 260.87 219.053 262.47 220.44C264.097 221.827 265.03 223.667 265.27 225.96H258.95C258.844 225.187 258.497 224.573 257.91 224.12C257.35 223.667 256.604 223.44 255.67 223.44C254.87 223.44 254.257 223.6 253.83 223.92C253.404 224.213 253.19 224.627 253.19 225.16C253.19 225.8 253.524 226.28 254.19 226.6C254.884 226.92 255.95 227.24 257.39 227.56C259.044 227.987 260.39 228.413 261.43 228.84C262.47 229.24 263.377 229.907 264.15 230.84C264.95 231.747 265.364 232.973 265.39 234.52C265.39 235.827 265.017 237 264.27 238.04C263.55 239.053 262.497 239.853 261.11 240.44C259.75 241.027 258.164 241.32 256.35 241.32Z" fill="#6ED47C"/>
<path d="M118.56 145.2L99.36 192H83.28L102.64 147.04H79.84V133.6H118.56V145.2ZM123.492 161.92C123.492 152.747 125.358 145.52 129.092 140.24C132.825 134.96 138.692 132.32 146.692 132.32C154.692 132.32 160.558 134.96 164.292 140.24C168.078 145.52 169.972 152.747 169.972 161.92C169.972 171.2 168.105 178.48 164.372 183.76C160.638 189.04 154.745 191.68 146.692 191.68C138.638 191.68 132.745 189.04 129.012 183.76C125.332 178.48 123.492 171.2 123.492 161.92ZM154.452 161.92C154.452 157.12 153.945 153.467 152.932 150.96C151.918 148.4 149.838 147.12 146.692 147.12C143.545 147.12 141.465 148.4 140.452 150.96C139.438 153.467 138.932 157.12 138.932 161.92C138.932 166.827 139.412 170.56 140.372 173.12C141.385 175.627 143.492 176.88 146.692 176.88C149.892 176.88 151.972 175.627 152.932 173.12C153.945 170.56 154.452 166.827 154.452 161.92ZM176.086 179.44C181.26 175.387 185.5 171.893 188.806 168.96C192.113 166.027 194.886 163.013 197.126 159.92C199.366 156.773 200.486 153.787 200.486 150.96C200.486 149.253 200.086 147.92 199.286 146.96C198.54 146 197.42 145.52 195.926 145.52C194.38 145.52 193.18 146.187 192.326 147.52C191.473 148.8 191.073 150.693 191.126 153.2H175.926C176.086 148.453 177.126 144.533 179.046 141.44C180.966 138.293 183.473 136 186.566 134.56C189.66 133.067 193.1 132.32 196.886 132.32C203.446 132.32 208.326 133.947 211.526 137.2C214.726 140.453 216.326 144.667 216.326 149.84C216.326 155.387 214.46 160.587 210.726 165.44C207.046 170.293 202.433 174.64 196.886 178.48H216.886V191.2H176.086V179.44Z" fill="#11101D"/>
<path d="M326.485 245.595V236.85H341.72V277H331.93V245.595H326.485ZM373.284 243.89L359.479 277H349.854L363.824 244.935H346.719V236.905H373.284V243.89ZM381.922 277.44C380.272 277.44 378.916 276.963 377.852 276.01C376.826 275.02 376.312 273.81 376.312 272.38C376.312 270.913 376.826 269.685 377.852 268.695C378.916 267.705 380.272 267.21 381.922 267.21C383.536 267.21 384.856 267.705 385.882 268.695C386.946 269.685 387.477 270.913 387.477 272.38C387.477 273.81 386.946 275.02 385.882 276.01C384.856 276.963 383.536 277.44 381.922 277.44ZM401.73 265.23C402.28 268.127 403.966 269.575 406.79 269.575C408.733 269.575 410.108 268.713 410.915 266.99C411.721 265.267 412.125 262.462 412.125 258.575C411.318 259.712 410.218 260.592 408.825 261.215C407.431 261.838 405.873 262.15 404.15 262.15C401.803 262.15 399.713 261.673 397.88 260.72C396.046 259.73 394.598 258.282 393.535 256.375C392.508 254.432 391.995 252.085 391.995 249.335C391.995 246.622 392.545 244.257 393.645 242.24C394.781 240.223 396.376 238.665 398.43 237.565C400.52 236.465 402.976 235.915 405.8 235.915C411.226 235.915 415.021 237.602 417.185 240.975C419.348 244.348 420.43 249.317 420.43 255.88C420.43 260.647 419.99 264.588 419.11 267.705C418.266 270.785 416.818 273.132 414.765 274.745C412.748 276.358 409.98 277.165 406.46 277.165C403.673 277.165 401.29 276.615 399.31 275.515C397.366 274.415 395.863 272.967 394.8 271.17C393.773 269.373 393.186 267.393 393.04 265.23H401.73ZM406.295 254.725C407.835 254.725 409.063 254.267 409.98 253.35C410.896 252.397 411.355 251.113 411.355 249.5C411.355 247.74 410.878 246.383 409.925 245.43C408.971 244.477 407.688 244 406.075 244C404.461 244 403.178 244.495 402.225 245.485C401.308 246.438 400.85 247.758 400.85 249.445C400.85 251.022 401.308 252.305 402.225 253.295C403.178 254.248 404.535 254.725 406.295 254.725ZM424.178 246.97C424.178 244 425.021 241.708 426.708 240.095C428.431 238.482 430.649 237.675 433.363 237.675C436.076 237.675 438.276 238.482 439.963 240.095C441.649 241.708 442.493 244 442.493 246.97C442.493 249.94 441.649 252.232 439.963 253.845C438.276 255.458 436.076 256.265 433.363 256.265C430.649 256.265 428.431 255.458 426.708 253.845C425.021 252.232 424.178 249.94 424.178 246.97ZM461.523 238.28L440.348 277H431.273L452.448 238.28H461.523ZM433.308 243.175C431.548 243.175 430.668 244.44 430.668 246.97C430.668 249.463 431.548 250.71 433.308 250.71C434.151 250.71 434.811 250.398 435.288 249.775C435.764 249.152 436.003 248.217 436.003 246.97C436.003 244.44 435.104 243.175 433.308 243.175ZM450.358 268.31C450.358 265.34 451.201 263.048 452.888 261.435C454.574 259.822 456.774 259.015 459.488 259.015C462.201 259.015 464.401 259.822 466.088 261.435C467.774 263.048 468.618 265.34 468.618 268.31C468.618 271.28 467.774 273.572 466.088 275.185C464.401 276.798 462.201 277.605 459.488 277.605C456.774 277.605 454.574 276.798 452.888 275.185C451.201 273.572 450.358 271.28 450.358 268.31ZM459.433 264.515C458.589 264.515 457.929 264.827 457.453 265.45C457.013 266.073 456.793 267.027 456.793 268.31C456.793 270.803 457.673 272.05 459.433 272.05C460.276 272.05 460.936 271.738 461.413 271.115C461.889 270.492 462.128 269.557 462.128 268.31C462.128 267.063 461.889 266.128 461.413 265.505C460.936 264.845 460.276 264.515 459.433 264.515Z" fill="#FF743C"/>
<path d="M324.66 206.96C324.66 205.573 324.96 204.34 325.56 203.26C326.16 202.167 326.993 201.32 328.06 200.72C329.14 200.107 330.36 199.8 331.72 199.8C333.387 199.8 334.813 200.24 336 201.12C337.187 202 337.98 203.2 338.38 204.72H334.62C334.34 204.133 333.94 203.687 333.42 203.38C332.913 203.073 332.333 202.92 331.68 202.92C330.627 202.92 329.773 203.287 329.12 204.02C328.467 204.753 328.14 205.733 328.14 206.96C328.14 208.187 328.467 209.167 329.12 209.9C329.773 210.633 330.627 211 331.68 211C332.333 211 332.913 210.847 333.42 210.54C333.94 210.233 334.34 209.787 334.62 209.2H338.38C337.98 210.72 337.187 211.92 336 212.8C334.813 213.667 333.387 214.1 331.72 214.1C330.36 214.1 329.14 213.8 328.06 213.2C326.993 212.587 326.16 211.74 325.56 210.66C324.96 209.58 324.66 208.347 324.66 206.96ZM339.294 208.4C339.294 207.253 339.508 206.247 339.934 205.38C340.374 204.513 340.968 203.847 341.714 203.38C342.461 202.913 343.294 202.68 344.214 202.68C345.001 202.68 345.688 202.84 346.274 203.16C346.874 203.48 347.334 203.9 347.654 204.42V202.84H351.074V214H347.654V212.42C347.321 212.94 346.854 213.36 346.254 213.68C345.668 214 344.981 214.16 344.194 214.16C343.288 214.16 342.461 213.927 341.714 213.46C340.968 212.98 340.374 212.307 339.934 211.44C339.508 210.56 339.294 209.547 339.294 208.4ZM347.654 208.42C347.654 207.567 347.414 206.893 346.934 206.4C346.468 205.907 345.894 205.66 345.214 205.66C344.534 205.66 343.954 205.907 343.474 206.4C343.008 206.88 342.774 207.547 342.774 208.4C342.774 209.253 343.008 209.933 343.474 210.44C343.954 210.933 344.534 211.18 345.214 211.18C345.894 211.18 346.468 210.933 346.934 210.44C347.414 209.947 347.654 209.273 347.654 208.42ZM356.469 204.7C356.869 204.087 357.369 203.607 357.969 203.26C358.569 202.9 359.235 202.72 359.969 202.72V206.34H359.029C358.175 206.34 357.535 206.527 357.109 206.9C356.682 207.26 356.469 207.9 356.469 208.82V214H353.049V202.84H356.469V204.7ZM360.423 208.4C360.423 207.253 360.637 206.247 361.063 205.38C361.503 204.513 362.097 203.847 362.843 203.38C363.59 202.913 364.423 202.68 365.343 202.68C366.077 202.68 366.743 202.833 367.343 203.14C367.957 203.447 368.437 203.86 368.783 204.38V199.2H372.203V214H368.783V212.4C368.463 212.933 368.003 213.36 367.403 213.68C366.817 214 366.13 214.16 365.343 214.16C364.423 214.16 363.59 213.927 362.843 213.46C362.097 212.98 361.503 212.307 361.063 211.44C360.637 210.56 360.423 209.547 360.423 208.4ZM368.783 208.42C368.783 207.567 368.543 206.893 368.063 206.4C367.597 205.907 367.023 205.66 366.343 205.66C365.663 205.66 365.083 205.907 364.603 206.4C364.137 206.88 363.903 207.547 363.903 208.4C363.903 209.253 364.137 209.933 364.603 210.44C365.083 210.933 365.663 211.18 366.343 211.18C367.023 211.18 367.597 210.933 368.063 210.44C368.543 209.947 368.783 209.273 368.783 208.42ZM381.276 199.96V208.36C381.276 209.2 381.482 209.847 381.896 210.3C382.309 210.753 382.916 210.98 383.716 210.98C384.516 210.98 385.129 210.753 385.556 210.3C385.982 209.847 386.196 209.2 386.196 208.36V199.96H389.616V208.34C389.616 209.593 389.349 210.653 388.816 211.52C388.282 212.387 387.562 213.04 386.656 213.48C385.762 213.92 384.762 214.14 383.656 214.14C382.549 214.14 381.556 213.927 380.676 213.5C379.809 213.06 379.122 212.407 378.616 211.54C378.109 210.66 377.856 209.593 377.856 208.34V199.96H381.276ZM397.737 211.1V214H395.997C394.757 214 393.791 213.7 393.097 213.1C392.404 212.487 392.057 211.493 392.057 210.12V205.68H390.697V202.84H392.057V200.12H395.477V202.84H397.717V205.68H395.477V210.16C395.477 210.493 395.557 210.733 395.717 210.88C395.877 211.027 396.144 211.1 396.517 211.1H397.737ZM400.862 201.68C400.262 201.68 399.769 201.507 399.382 201.16C399.009 200.8 398.822 200.36 398.822 199.84C398.822 199.307 399.009 198.867 399.382 198.52C399.769 198.16 400.262 197.98 400.862 197.98C401.449 197.98 401.929 198.16 402.302 198.52C402.689 198.867 402.882 199.307 402.882 199.84C402.882 200.36 402.689 200.8 402.302 201.16C401.929 201.507 401.449 201.68 400.862 201.68ZM402.562 202.84V214H399.142V202.84H402.562ZM407.961 199.2V214H404.541V199.2H407.961ZM411.659 201.68C411.059 201.68 410.566 201.507 410.179 201.16C409.806 200.8 409.619 200.36 409.619 199.84C409.619 199.307 409.806 198.867 410.179 198.52C410.566 198.16 411.059 197.98 411.659 197.98C412.246 197.98 412.726 198.16 413.099 198.52C413.486 198.867 413.679 199.307 413.679 199.84C413.679 200.36 413.486 200.8 413.099 201.16C412.726 201.507 412.246 201.68 411.659 201.68ZM413.359 202.84V214H409.939V202.84H413.359ZM418.538 211.18H423.378V214H414.718V211.28L419.358 205.66H414.758V202.84H423.278V205.56L418.538 211.18ZM424.08 208.4C424.08 207.253 424.293 206.247 424.72 205.38C425.16 204.513 425.753 203.847 426.5 203.38C427.246 202.913 428.08 202.68 429 202.68C429.786 202.68 430.473 202.84 431.06 203.16C431.66 203.48 432.12 203.9 432.44 204.42V202.84H435.86V214H432.44V212.42C432.106 212.94 431.64 213.36 431.04 213.68C430.453 214 429.766 214.16 428.98 214.16C428.073 214.16 427.246 213.927 426.5 213.46C425.753 212.98 425.16 212.307 424.72 211.44C424.293 210.56 424.08 209.547 424.08 208.4ZM432.44 208.42C432.44 207.567 432.2 206.893 431.72 206.4C431.253 205.907 430.68 205.66 430 205.66C429.32 205.66 428.74 205.907 428.26 206.4C427.793 206.88 427.56 207.547 427.56 208.4C427.56 209.253 427.793 209.933 428.26 210.44C428.74 210.933 429.32 211.18 430 211.18C430.68 211.18 431.253 210.933 431.72 210.44C432.2 209.947 432.44 209.273 432.44 208.42ZM444.054 211.1V214H442.314C441.074 214 440.107 213.7 439.414 213.1C438.72 212.487 438.374 211.493 438.374 210.12V205.68H437.014V202.84H438.374V200.12H441.794V202.84H444.034V205.68H441.794V210.16C441.794 210.493 441.874 210.733 442.034 210.88C442.194 211.027 442.46 211.1 442.834 211.1H444.054ZM447.179 201.68C446.579 201.68 446.085 201.507 445.699 201.16C445.325 200.8 445.139 200.36 445.139 199.84C445.139 199.307 445.325 198.867 445.699 198.52C446.085 198.16 446.579 197.98 447.179 197.98C447.765 197.98 448.245 198.16 448.619 198.52C449.005 198.867 449.199 199.307 449.199 199.84C449.199 200.36 449.005 200.8 448.619 201.16C448.245 201.507 447.765 201.68 447.179 201.68ZM448.879 202.84V214H445.459V202.84H448.879ZM455.937 214.16C454.844 214.16 453.857 213.927 452.977 213.46C452.111 212.993 451.424 212.327 450.917 211.46C450.424 210.593 450.177 209.58 450.177 208.42C450.177 207.273 450.431 206.267 450.937 205.4C451.444 204.52 452.137 203.847 453.017 203.38C453.897 202.913 454.884 202.68 455.977 202.68C457.071 202.68 458.057 202.913 458.937 203.38C459.817 203.847 460.511 204.52 461.017 205.4C461.524 206.267 461.777 207.273 461.777 208.42C461.777 209.567 461.517 210.58 460.997 211.46C460.491 212.327 459.791 212.993 458.897 213.46C458.017 213.927 457.031 214.16 455.937 214.16ZM455.937 211.2C456.591 211.2 457.144 210.96 457.597 210.48C458.064 210 458.297 209.313 458.297 208.42C458.297 207.527 458.071 206.84 457.617 206.36C457.177 205.88 456.631 205.64 455.977 205.64C455.311 205.64 454.757 205.88 454.317 206.36C453.877 206.827 453.657 207.513 453.657 208.42C453.657 209.313 453.871 210 454.297 210.48C454.737 210.96 455.284 211.2 455.937 211.2ZM469.892 202.72C471.198 202.72 472.238 203.147 473.012 204C473.798 204.84 474.192 206 474.192 207.48V214H470.792V207.94C470.792 207.193 470.598 206.613 470.212 206.2C469.825 205.787 469.305 205.58 468.652 205.58C467.998 205.58 467.478 205.787 467.092 206.2C466.705 206.613 466.512 207.193 466.512 207.94V214H463.092V202.84H466.512V204.32C466.858 203.827 467.325 203.44 467.912 203.16C468.498 202.867 469.158 202.72 469.892 202.72Z" fill="#191D21"/>
<path d="M343.05 117.58C343.05 120.24 342.327 122.69 340.88 124.93C339.48 127.123 337.403 128.897 334.65 130.25C331.943 131.603 328.677 132.35 324.85 132.49V138.09H320.44V132.35C315.307 131.883 311.107 130.32 307.84 127.66C304.62 125 302.917 121.383 302.73 116.81H317.36C317.547 119.19 318.573 120.753 320.44 121.5V112.54C316.52 111.467 313.44 110.487 311.2 109.6C308.96 108.667 306.953 107.173 305.18 105.12C303.453 103.067 302.59 100.267 302.59 96.72C302.59 93.78 303.36 91.2367 304.9 89.09C306.487 86.8967 308.633 85.2167 311.34 84.05C314.047 82.8367 317.08 82.1367 320.44 81.95V76.28H324.85V81.95C330.03 82.3233 334.137 83.8167 337.17 86.43C340.25 89.0433 341.953 92.6367 342.28 97.21H327.51C327.323 95.0633 326.437 93.64 324.85 92.94V101.83L326.6 102.39C329.96 103.323 332.737 104.303 334.93 105.33C337.17 106.31 339.083 107.803 340.67 109.81C342.257 111.77 343.05 114.36 343.05 117.58ZM317.22 96.09C317.22 97.77 318.293 99.1467 320.44 100.22V92.52C318.293 92.8933 317.22 94.0833 317.22 96.09ZM324.85 121.85C325.97 121.617 326.857 121.173 327.51 120.52C328.163 119.82 328.49 118.957 328.49 117.93C328.49 116.297 327.277 114.967 324.85 113.94V121.85ZM348.036 93.71V80.83H369.596V132H355.246V93.71H348.036ZM393.033 120.24L385.543 140.68H376.863L380.503 120.24H393.033ZM432.341 91.05L415.541 132H401.471L418.411 92.66H398.461V80.9H432.341V91.05ZM436.719 105.68C436.719 97.6533 438.352 91.33 441.619 86.71C444.885 82.09 450.019 79.78 457.019 79.78C464.019 79.78 469.152 82.09 472.419 86.71C475.732 91.33 477.389 97.6533 477.389 105.68C477.389 113.8 475.755 120.17 472.489 124.79C469.222 129.41 464.065 131.72 457.019 131.72C449.972 131.72 444.815 129.41 441.549 124.79C438.329 120.17 436.719 113.8 436.719 105.68ZM463.809 105.68C463.809 101.48 463.365 98.2833 462.479 96.09C461.592 93.85 459.772 92.73 457.019 92.73C454.265 92.73 452.445 93.85 451.559 96.09C450.672 98.2833 450.229 101.48 450.229 105.68C450.229 109.973 450.649 113.24 451.489 115.48C452.375 117.673 454.219 118.77 457.019 118.77C459.819 118.77 461.639 117.673 462.479 115.48C463.365 113.24 463.809 109.973 463.809 105.68ZM483.221 105.68C483.221 97.6533 484.854 91.33 488.121 86.71C491.388 82.09 496.521 79.78 503.521 79.78C510.521 79.78 515.654 82.09 518.921 86.71C522.234 91.33 523.891 97.6533 523.891 105.68C523.891 113.8 522.258 120.17 518.991 124.79C515.724 129.41 510.568 131.72 503.521 131.72C496.474 131.72 491.318 129.41 488.051 124.79C484.831 120.17 483.221 113.8 483.221 105.68ZM510.311 105.68C510.311 101.48 509.868 98.2833 508.981 96.09C508.094 93.85 506.274 92.73 503.521 92.73C500.768 92.73 498.948 93.85 498.061 96.09C497.174 98.2833 496.731 101.48 496.731 105.68C496.731 109.973 497.151 113.24 497.991 115.48C498.878 117.673 500.721 118.77 503.521 118.77C506.321 118.77 508.141 117.673 508.981 115.48C509.868 113.24 510.311 109.973 510.311 105.68Z" fill="#11101D"/>
<rect x="414" y="142" width="113" height="32.5229" rx="15" fill="#FF743C" fill-opacity="0.4"/>
<path d="M438.297 156.337C438.297 156.825 438.185 157.273 437.961 157.681C437.737 158.081 437.393 158.405 436.929 158.653C436.465 158.901 435.889 159.025 435.201 159.025H433.929V162.049H431.877V153.625H435.201C435.873 153.625 436.441 153.741 436.905 153.973C437.369 154.205 437.717 154.525 437.949 154.933C438.181 155.341 438.297 155.809 438.297 156.337ZM435.045 157.393C435.437 157.393 435.729 157.301 435.921 157.117C436.113 156.933 436.209 156.673 436.209 156.337C436.209 156.001 436.113 155.741 435.921 155.557C435.729 155.373 435.437 155.281 435.045 155.281H433.929V157.393H435.045ZM441.914 156.469C442.154 156.101 442.454 155.813 442.814 155.605C443.174 155.389 443.574 155.281 444.014 155.281V157.453H443.45C442.938 157.453 442.554 157.565 442.298 157.789C442.042 158.005 441.914 158.389 441.914 158.941V162.049H439.862V155.353H441.914V156.469ZM451.804 158.593C451.804 158.785 451.792 158.985 451.768 159.193H447.124C447.156 159.609 447.288 159.929 447.52 160.153C447.76 160.369 448.052 160.477 448.396 160.477C448.908 160.477 449.264 160.261 449.464 159.829H451.648C451.536 160.269 451.332 160.665 451.036 161.017C450.748 161.369 450.384 161.645 449.944 161.845C449.504 162.045 449.012 162.145 448.468 162.145C447.812 162.145 447.228 162.005 446.716 161.725C446.204 161.445 445.804 161.045 445.516 160.525C445.228 160.005 445.084 159.397 445.084 158.701C445.084 158.005 445.224 157.397 445.504 156.877C445.792 156.357 446.192 155.957 446.704 155.677C447.216 155.397 447.804 155.257 448.468 155.257C449.116 155.257 449.692 155.393 450.196 155.665C450.7 155.937 451.092 156.325 451.372 156.829C451.66 157.333 451.804 157.921 451.804 158.593ZM449.704 158.053C449.704 157.701 449.584 157.421 449.344 157.213C449.104 157.005 448.804 156.901 448.444 156.901C448.1 156.901 447.808 157.001 447.568 157.201C447.336 157.401 447.192 157.685 447.136 158.053H449.704ZM456.395 160.129L457.847 155.353H460.031L457.655 162.049H455.123L452.747 155.353H454.943L456.395 160.129ZM462.351 162.145C461.991 162.145 461.695 162.041 461.463 161.833C461.239 161.617 461.127 161.353 461.127 161.041C461.127 160.721 461.239 160.453 461.463 160.237C461.695 160.021 461.991 159.913 462.351 159.913C462.703 159.913 462.991 160.021 463.215 160.237C463.447 160.453 463.563 160.721 463.563 161.041C463.563 161.353 463.447 161.617 463.215 161.833C462.991 162.041 462.703 162.145 462.351 162.145ZM462.351 157.261C461.991 157.261 461.695 157.157 461.463 156.949C461.239 156.733 461.127 156.469 461.127 156.157C461.127 155.837 461.239 155.569 461.463 155.353C461.695 155.137 461.991 155.029 462.351 155.029C462.703 155.029 462.991 155.137 463.215 155.353C463.447 155.569 463.563 155.837 463.563 156.157C463.563 156.469 463.447 156.733 463.215 156.949C462.991 157.157 462.703 157.261 462.351 157.261ZM474.71 159.601C474.71 160.041 474.594 160.449 474.362 160.825C474.138 161.193 473.802 161.497 473.354 161.737C472.914 161.969 472.39 162.097 471.782 162.121V163.093H471.014V162.109C470.166 162.037 469.482 161.785 468.962 161.353C468.442 160.913 468.166 160.317 468.134 159.565H470.318C470.366 160.045 470.598 160.353 471.014 160.489V158.593C470.39 158.433 469.89 158.277 469.514 158.125C469.146 157.973 468.822 157.729 468.542 157.393C468.262 157.057 468.122 156.597 468.122 156.013C468.122 155.285 468.39 154.701 468.926 154.261C469.47 153.821 470.166 153.573 471.014 153.517V152.545H471.782V153.517C472.622 153.581 473.286 153.825 473.774 154.249C474.262 154.673 474.534 155.261 474.59 156.013H472.394C472.346 155.581 472.142 155.301 471.782 155.173V157.033C472.446 157.217 472.958 157.381 473.318 157.525C473.678 157.669 473.998 157.909 474.278 158.245C474.566 158.573 474.71 159.025 474.71 159.601ZM470.294 155.917C470.294 156.117 470.354 156.285 470.474 156.421C470.602 156.557 470.782 156.677 471.014 156.781V155.113C470.79 155.153 470.614 155.241 470.486 155.377C470.358 155.505 470.294 155.685 470.294 155.917ZM471.782 160.525C472.022 160.485 472.21 160.389 472.346 160.237C472.49 160.085 472.562 159.897 472.562 159.673C472.562 159.465 472.494 159.297 472.358 159.169C472.23 159.033 472.038 158.917 471.782 158.821V160.525ZM476.313 155.197V153.289H479.637V162.049H477.501V155.197H476.313ZM483.949 160.153L482.617 163.597H481.309L482.005 160.153H483.949ZM485.407 160.405C485.679 160.189 485.803 160.089 485.779 160.105C486.563 159.457 487.179 158.925 487.627 158.509C488.083 158.093 488.467 157.657 488.779 157.201C489.091 156.745 489.247 156.301 489.247 155.869C489.247 155.541 489.171 155.285 489.019 155.101C488.867 154.917 488.639 154.825 488.335 154.825C488.031 154.825 487.791 154.941 487.615 155.173C487.447 155.397 487.363 155.717 487.363 156.133H485.383C485.399 155.453 485.543 154.885 485.815 154.429C486.095 153.973 486.459 153.637 486.907 153.421C487.363 153.205 487.867 153.097 488.419 153.097C489.371 153.097 490.087 153.341 490.567 153.829C491.055 154.317 491.299 154.953 491.299 155.737C491.299 156.593 491.007 157.389 490.423 158.125C489.839 158.853 489.095 159.565 488.191 160.261H491.431V161.929H485.407V160.405ZM492.831 157.549C492.831 156.173 493.095 155.089 493.623 154.297C494.159 153.505 495.019 153.109 496.203 153.109C497.387 153.109 498.243 153.505 498.771 154.297C499.307 155.089 499.575 156.173 499.575 157.549C499.575 158.941 499.307 160.033 498.771 160.825C498.243 161.617 497.387 162.013 496.203 162.013C495.019 162.013 494.159 161.617 493.623 160.825C493.095 160.033 492.831 158.941 492.831 157.549ZM497.559 157.549C497.559 156.741 497.471 156.121 497.295 155.689C497.119 155.249 496.755 155.029 496.203 155.029C495.651 155.029 495.287 155.249 495.111 155.689C494.935 156.121 494.847 156.741 494.847 157.549C494.847 158.093 494.879 158.545 494.943 158.905C495.007 159.257 495.135 159.545 495.327 159.769C495.527 159.985 495.819 160.093 496.203 160.093C496.587 160.093 496.875 159.985 497.067 159.769C497.267 159.545 497.399 159.257 497.463 158.905C497.527 158.545 497.559 158.093 497.559 157.549ZM501.156 157.549C501.156 156.173 501.42 155.089 501.948 154.297C502.484 153.505 503.344 153.109 504.528 153.109C505.712 153.109 506.568 153.505 507.096 154.297C507.632 155.089 507.9 156.173 507.9 157.549C507.9 158.941 507.632 160.033 507.096 160.825C506.568 161.617 505.712 162.013 504.528 162.013C503.344 162.013 502.484 161.617 501.948 160.825C501.42 160.033 501.156 158.941 501.156 157.549ZM505.884 157.549C505.884 156.741 505.796 156.121 505.62 155.689C505.444 155.249 505.08 155.029 504.528 155.029C503.976 155.029 503.612 155.249 503.436 155.689C503.26 156.121 503.172 156.741 503.172 157.549C503.172 158.093 503.204 158.545 503.268 158.905C503.332 159.257 503.46 159.545 503.652 159.769C503.852 159.985 504.144 160.093 504.528 160.093C504.912 160.093 505.2 159.985 505.392 159.769C505.592 159.545 505.724 159.257 505.788 158.905C505.852 158.545 505.884 158.093 505.884 157.549Z" fill="#263238"/>
<path d="M371.34 52.96V55.7H367.62V67H364.2V55.7H360.48V52.96H371.34ZM377.636 67.16C376.543 67.16 375.556 66.9267 374.676 66.46C373.81 65.9933 373.123 65.3267 372.616 64.46C372.123 63.5933 371.876 62.58 371.876 61.42C371.876 60.2733 372.13 59.2667 372.636 58.4C373.143 57.52 373.836 56.8467 374.716 56.38C375.596 55.9133 376.583 55.68 377.676 55.68C378.77 55.68 379.756 55.9133 380.636 56.38C381.516 56.8467 382.21 57.52 382.716 58.4C383.223 59.2667 383.476 60.2733 383.476 61.42C383.476 62.5667 383.216 63.58 382.696 64.46C382.19 65.3267 381.49 65.9933 380.596 66.46C379.716 66.9267 378.73 67.16 377.636 67.16ZM377.636 64.2C378.29 64.2 378.843 63.96 379.296 63.48C379.763 63 379.996 62.3133 379.996 61.42C379.996 60.5267 379.77 59.84 379.316 59.36C378.876 58.88 378.33 58.64 377.676 58.64C377.01 58.64 376.456 58.88 376.016 59.36C375.576 59.8267 375.356 60.5133 375.356 61.42C375.356 62.3133 375.57 63 375.996 63.48C376.436 63.96 376.983 64.2 377.636 64.2ZM391.011 64.1V67H389.271C388.031 67 387.064 66.7 386.371 66.1C385.677 65.4867 385.331 64.4933 385.331 63.12V58.68H383.971V55.84H385.331V53.12H388.751V55.84H390.991V58.68H388.751V63.16C388.751 63.4933 388.831 63.7333 388.991 63.88C389.151 64.0267 389.417 64.1 389.791 64.1H391.011ZM391.736 61.4C391.736 60.2533 391.949 59.2467 392.376 58.38C392.816 57.5133 393.409 56.8467 394.156 56.38C394.902 55.9133 395.736 55.68 396.656 55.68C397.442 55.68 398.129 55.84 398.716 56.16C399.316 56.48 399.776 56.9 400.096 57.42V55.84H403.516V67H400.096V65.42C399.762 65.94 399.296 66.36 398.696 66.68C398.109 67 397.422 67.16 396.636 67.16C395.729 67.16 394.902 66.9267 394.156 66.46C393.409 65.98 392.816 65.3067 392.376 64.44C391.949 63.56 391.736 62.5467 391.736 61.4ZM400.096 61.42C400.096 60.5667 399.856 59.8933 399.376 59.4C398.909 58.9067 398.336 58.66 397.656 58.66C396.976 58.66 396.396 58.9067 395.916 59.4C395.449 59.88 395.216 60.5467 395.216 61.4C395.216 62.2533 395.449 62.9333 395.916 63.44C396.396 63.9333 396.976 64.18 397.656 64.18C398.336 64.18 398.909 63.9333 399.376 63.44C399.856 62.9467 400.096 62.2733 400.096 61.42ZM408.91 52.2V67H405.49V52.2H408.91ZM414.047 59.96C414.047 58.5733 414.347 57.34 414.947 56.26C415.547 55.1667 416.38 54.32 417.447 53.72C418.527 53.1067 419.747 52.8 421.107 52.8C422.773 52.8 424.2 53.24 425.387 54.12C426.573 55 427.367 56.2 427.767 57.72H424.007C423.727 57.1333 423.327 56.6867 422.807 56.38C422.3 56.0733 421.72 55.92 421.067 55.92C420.013 55.92 419.16 56.2867 418.507 57.02C417.853 57.7533 417.527 58.7333 417.527 59.96C417.527 61.1867 417.853 62.1667 418.507 62.9C419.16 63.6333 420.013 64 421.067 64C421.72 64 422.3 63.8467 422.807 63.54C423.327 63.2333 423.727 62.7867 424.007 62.2H427.767C427.367 63.72 426.573 64.92 425.387 65.8C424.2 66.6667 422.773 67.1 421.107 67.1C419.747 67.1 418.527 66.8 417.447 66.2C416.38 65.5867 415.547 64.74 414.947 63.66C414.347 62.58 414.047 61.3467 414.047 59.96ZM432.781 57.7C433.181 57.0867 433.681 56.6067 434.281 56.26C434.881 55.9 435.548 55.72 436.281 55.72V59.34H435.341C434.488 59.34 433.848 59.5267 433.421 59.9C432.994 60.26 432.781 60.9 432.781 61.82V67H429.361V55.84H432.781V57.7ZM447.936 61.24C447.936 61.56 447.916 61.8933 447.876 62.24H440.136C440.189 62.9333 440.409 63.4667 440.796 63.84C441.196 64.2 441.682 64.38 442.256 64.38C443.109 64.38 443.702 64.02 444.036 63.3H447.676C447.489 64.0333 447.149 64.6933 446.656 65.28C446.176 65.8667 445.569 66.3267 444.836 66.66C444.102 66.9933 443.282 67.16 442.376 67.16C441.282 67.16 440.309 66.9267 439.456 66.46C438.602 65.9933 437.936 65.3267 437.456 64.46C436.976 63.5933 436.736 62.58 436.736 61.42C436.736 60.26 436.969 59.2467 437.436 58.38C437.916 57.5133 438.582 56.8467 439.436 56.38C440.289 55.9133 441.269 55.68 442.376 55.68C443.456 55.68 444.416 55.9067 445.256 56.36C446.096 56.8133 446.749 57.46 447.216 58.3C447.696 59.14 447.936 60.12 447.936 61.24ZM444.436 60.34C444.436 59.7533 444.236 59.2867 443.836 58.94C443.436 58.5933 442.936 58.42 442.336 58.42C441.762 58.42 441.276 58.5867 440.876 58.92C440.489 59.2533 440.249 59.7267 440.156 60.34H444.436ZM448.56 61.4C448.56 60.2533 448.773 59.2467 449.2 58.38C449.64 57.5133 450.233 56.8467 450.98 56.38C451.727 55.9133 452.56 55.68 453.48 55.68C454.213 55.68 454.88 55.8333 455.48 56.14C456.093 56.4467 456.573 56.86 456.92 57.38V52.2H460.34V67H456.92V65.4C456.6 65.9333 456.14 66.36 455.54 66.68C454.953 67 454.267 67.16 453.48 67.16C452.56 67.16 451.727 66.9267 450.98 66.46C450.233 65.98 449.64 65.3067 449.2 64.44C448.773 63.56 448.56 62.5467 448.56 61.4ZM456.92 61.42C456.92 60.5667 456.68 59.8933 456.2 59.4C455.733 58.9067 455.16 58.66 454.48 58.66C453.8 58.66 453.22 58.9067 452.74 59.4C452.273 59.88 452.04 60.5467 452.04 61.4C452.04 62.2533 452.273 62.9333 452.74 63.44C453.22 63.9333 453.8 64.18 454.48 64.18C455.16 64.18 455.733 63.9333 456.2 63.44C456.68 62.9467 456.92 62.2733 456.92 61.42ZM464.034 54.68C463.434 54.68 462.941 54.5067 462.554 54.16C462.181 53.8 461.994 53.36 461.994 52.84C461.994 52.3067 462.181 51.8667 462.554 51.52C462.941 51.16 463.434 50.98 464.034 50.98C464.621 50.98 465.101 51.16 465.474 51.52C465.861 51.8667 466.054 52.3067 466.054 52.84C466.054 53.36 465.861 53.8 465.474 54.16C465.101 54.5067 464.621 54.68 464.034 54.68ZM465.734 55.84V67H462.314V55.84H465.734ZM473.933 64.1V67H472.193C470.953 67 469.986 66.7 469.293 66.1C468.599 65.4867 468.253 64.4933 468.253 63.12V58.68H466.893V55.84H468.253V53.12H471.673V55.84H473.913V58.68H471.673V63.16C471.673 63.4933 471.753 63.7333 471.913 63.88C472.073 64.0267 472.339 64.1 472.713 64.1H473.933ZM482.496 64.36H486.976V67H479.076V52.96H482.496V64.36ZM489.827 54.68C489.227 54.68 488.734 54.5067 488.347 54.16C487.974 53.8 487.787 53.36 487.787 52.84C487.787 52.3067 487.974 51.8667 488.347 51.52C488.734 51.16 489.227 50.98 489.827 50.98C490.414 50.98 490.894 51.16 491.267 51.52C491.654 51.8667 491.847 52.3067 491.847 52.84C491.847 53.36 491.654 53.8 491.267 54.16C490.894 54.5067 490.414 54.68 489.827 54.68ZM491.527 55.84V67H488.107V55.84H491.527ZM507.746 55.72C509.132 55.72 510.232 56.14 511.046 56.98C511.872 57.82 512.286 58.9867 512.286 60.48V67H508.886V60.94C508.886 60.22 508.692 59.6667 508.306 59.28C507.932 58.88 507.412 58.68 506.746 58.68C506.079 58.68 505.552 58.88 505.166 59.28C504.792 59.6667 504.606 60.22 504.606 60.94V67H501.206V60.94C501.206 60.22 501.012 59.6667 500.626 59.28C500.252 58.88 499.732 58.68 499.066 58.68C498.399 58.68 497.872 58.88 497.486 59.28C497.112 59.6667 496.926 60.22 496.926 60.94V67H493.506V55.84H496.926V57.24C497.272 56.7733 497.726 56.4067 498.286 56.14C498.846 55.86 499.479 55.72 500.186 55.72C501.026 55.72 501.772 55.9 502.426 56.26C503.092 56.62 503.612 57.1333 503.986 57.8C504.372 57.1867 504.899 56.6867 505.566 56.3C506.232 55.9133 506.959 55.72 507.746 55.72ZM515.898 54.68C515.298 54.68 514.804 54.5067 514.418 54.16C514.044 53.8 513.858 53.36 513.858 52.84C513.858 52.3067 514.044 51.8667 514.418 51.52C514.804 51.16 515.298 50.98 515.898 50.98C516.484 50.98 516.964 51.16 517.338 51.52C517.724 51.8667 517.918 52.3067 517.918 52.84C517.918 53.36 517.724 53.8 517.338 54.16C516.964 54.5067 516.484 54.68 515.898 54.68ZM517.598 55.84V67H514.178V55.84H517.598ZM525.796 64.1V67H524.056C522.816 67 521.849 66.7 521.156 66.1C520.463 65.4867 520.116 64.4933 520.116 63.12V58.68H518.756V55.84H520.116V53.12H523.536V55.84H525.776V58.68H523.536V63.16C523.536 63.4933 523.616 63.7333 523.776 63.88C523.936 64.0267 524.203 64.1 524.576 64.1H525.796Z" fill="#191D21"/>
<path d="M164.35 263.105C163.21 263.105 162.28 262.86 161.56 262.37C160.85 261.87 160.495 261.165 160.495 260.255C160.495 260.165 160.505 260.03 160.525 259.85H163.195C163.165 260.23 163.255 260.53 163.465 260.75C163.675 260.97 163.995 261.08 164.425 261.08C164.815 261.08 165.12 260.995 165.34 260.825C165.57 260.655 165.685 260.415 165.685 260.105C165.685 259.785 165.54 259.525 165.25 259.325C164.97 259.125 164.53 258.9 163.93 258.65C163.35 258.41 162.875 258.185 162.505 257.975C162.145 257.755 161.83 257.46 161.56 257.09C161.29 256.72 161.155 256.255 161.155 255.695C161.145 255.005 161.315 254.405 161.665 253.895C162.015 253.385 162.5 252.995 163.12 252.725C163.74 252.455 164.45 252.32 165.25 252.32C165.97 252.32 166.61 252.435 167.17 252.665C167.73 252.885 168.165 253.21 168.475 253.64C168.785 254.06 168.94 254.56 168.94 255.14C168.94 255.29 168.935 255.4 168.925 255.47H166.195C166.205 255.43 166.21 255.37 166.21 255.29C166.21 255.01 166.11 254.785 165.91 254.615C165.72 254.435 165.455 254.345 165.115 254.345C164.755 254.345 164.46 254.435 164.23 254.615C164.01 254.785 163.9 255.02 163.9 255.32C163.9 255.62 164.04 255.875 164.32 256.085C164.6 256.285 165.035 256.52 165.625 256.79C166.215 257.06 166.695 257.31 167.065 257.54C167.445 257.77 167.77 258.08 168.04 258.47C168.31 258.85 168.445 259.32 168.445 259.88C168.445 260.5 168.28 261.055 167.95 261.545C167.62 262.035 167.145 262.42 166.525 262.7C165.905 262.97 165.18 263.105 164.35 263.105ZM171.921 253.76C171.521 253.76 171.201 253.655 170.961 253.445C170.731 253.225 170.616 252.95 170.616 252.62C170.616 252.17 170.791 251.785 171.141 251.465C171.491 251.145 171.916 250.985 172.416 250.985C172.816 250.985 173.131 251.095 173.361 251.315C173.591 251.525 173.706 251.8 173.706 252.14C173.706 252.58 173.531 252.96 173.181 253.28C172.831 253.6 172.411 253.76 171.921 253.76ZM173.031 254.63L171.561 263H168.996L170.466 254.63H173.031ZM179.505 254.54C180.345 254.54 181.005 254.775 181.485 255.245C181.965 255.715 182.205 256.37 182.205 257.21C182.205 257.49 182.175 257.79 182.115 258.11L181.245 263H178.695L179.505 258.455C179.535 258.285 179.55 258.135 179.55 258.005C179.55 257.585 179.43 257.26 179.19 257.03C178.96 256.8 178.635 256.685 178.215 256.685C177.715 256.685 177.295 256.84 176.955 257.15C176.615 257.46 176.395 257.895 176.295 258.455V258.38L175.485 263H172.92L174.39 254.63H176.955L176.76 255.755C177.09 255.385 177.49 255.09 177.96 254.87C178.44 254.65 178.955 254.54 179.505 254.54ZM182.767 258.815C182.917 257.945 183.227 257.185 183.697 256.535C184.167 255.885 184.747 255.385 185.437 255.035C186.137 254.685 186.897 254.51 187.717 254.51C188.767 254.51 189.597 254.785 190.207 255.335C190.817 255.885 191.142 256.66 191.182 257.66H188.452C188.342 257.02 187.952 256.7 187.282 256.7C186.812 256.7 186.407 256.885 186.067 257.255C185.727 257.615 185.497 258.135 185.377 258.815C185.337 259.025 185.317 259.245 185.317 259.475C185.317 259.945 185.427 260.305 185.647 260.555C185.867 260.805 186.167 260.93 186.547 260.93C187.207 260.93 187.702 260.61 188.032 259.97H190.777C190.387 260.95 189.787 261.72 188.977 262.28C188.167 262.84 187.242 263.12 186.202 263.12C185.122 263.12 184.262 262.825 183.622 262.235C182.992 261.635 182.677 260.82 182.677 259.79C182.677 259.48 182.707 259.155 182.767 258.815ZM196.329 254.51C197.409 254.51 198.264 254.805 198.894 255.395C199.534 255.975 199.854 256.77 199.854 257.78C199.854 258.11 199.829 258.405 199.779 258.665C199.739 258.895 199.679 259.14 199.599 259.4H193.794C193.784 259.46 193.779 259.555 193.779 259.685C193.779 260.125 193.899 260.46 194.139 260.69C194.379 260.92 194.699 261.035 195.099 261.035C195.739 261.035 196.229 260.765 196.569 260.225H199.299C198.939 261.075 198.354 261.77 197.544 262.31C196.734 262.85 195.824 263.12 194.814 263.12C193.734 263.12 192.869 262.82 192.219 262.22C191.579 261.62 191.259 260.805 191.259 259.775C191.259 259.465 191.289 259.145 191.349 258.815C191.499 257.945 191.809 257.185 192.279 256.535C192.749 255.885 193.334 255.385 194.034 255.035C194.734 254.685 195.499 254.51 196.329 254.51ZM197.259 258.095C197.279 257.955 197.289 257.86 197.289 257.81C197.289 257.41 197.164 257.105 196.914 256.895C196.664 256.675 196.334 256.565 195.924 256.565C195.484 256.565 195.094 256.7 194.754 256.97C194.424 257.23 194.184 257.605 194.034 258.095H197.259ZM211.284 252.47L210.024 259.64C209.824 260.75 209.359 261.605 208.629 262.205C207.899 262.805 207.004 263.105 205.944 263.105C204.984 263.105 204.224 262.865 203.664 262.385C203.114 261.905 202.839 261.215 202.839 260.315C202.839 260.005 202.864 259.725 202.914 259.475H205.464C205.434 259.635 205.419 259.78 205.419 259.91C205.419 260.21 205.494 260.435 205.644 260.585C205.794 260.735 206.004 260.81 206.274 260.81C206.584 260.81 206.839 260.715 207.039 260.525C207.249 260.325 207.389 260.03 207.459 259.64L208.719 252.47H211.284ZM220.731 254.63L219.261 263H216.696L216.891 261.86C216.561 262.23 216.156 262.53 215.676 262.76C215.206 262.98 214.701 263.09 214.161 263.09C213.321 263.09 212.661 262.855 212.181 262.385C211.701 261.905 211.461 261.24 211.461 260.39C211.461 260.07 211.486 259.78 211.536 259.52L212.406 254.63H214.956L214.161 259.175C214.131 259.335 214.116 259.49 214.116 259.64C214.116 260.06 214.231 260.385 214.461 260.615C214.701 260.835 215.031 260.945 215.451 260.945C215.931 260.945 216.336 260.805 216.666 260.525C217.006 260.235 217.231 259.825 217.341 259.295L218.166 254.63H220.731ZM227.188 254.54C228.028 254.54 228.688 254.775 229.168 255.245C229.648 255.715 229.888 256.37 229.888 257.21C229.888 257.49 229.858 257.79 229.798 258.11L228.928 263H226.378L227.188 258.455C227.218 258.285 227.233 258.135 227.233 258.005C227.233 257.585 227.113 257.26 226.873 257.03C226.643 256.8 226.318 256.685 225.898 256.685C225.398 256.685 224.978 256.84 224.638 257.15C224.298 257.46 224.078 257.895 223.978 258.455V258.38L223.168 263H220.603L222.073 254.63H224.638L224.443 255.755C224.773 255.385 225.173 255.09 225.643 254.87C226.123 254.65 226.638 254.54 227.188 254.54ZM235.431 254.51C236.511 254.51 237.366 254.805 237.996 255.395C238.636 255.975 238.956 256.77 238.956 257.78C238.956 258.11 238.931 258.405 238.881 258.665C238.841 258.895 238.781 259.14 238.701 259.4H232.896C232.886 259.46 232.881 259.555 232.881 259.685C232.881 260.125 233.001 260.46 233.241 260.69C233.481 260.92 233.801 261.035 234.201 261.035C234.841 261.035 235.331 260.765 235.671 260.225H238.401C238.041 261.075 237.456 261.77 236.646 262.31C235.836 262.85 234.926 263.12 233.916 263.12C232.836 263.12 231.971 262.82 231.321 262.22C230.681 261.62 230.361 260.805 230.361 259.775C230.361 259.465 230.391 259.145 230.451 258.815C230.601 257.945 230.911 257.185 231.381 256.535C231.851 255.885 232.436 255.385 233.136 255.035C233.836 254.685 234.601 254.51 235.431 254.51ZM236.361 258.095C236.381 257.955 236.391 257.86 236.391 257.81C236.391 257.41 236.266 257.105 236.016 256.895C235.766 256.675 235.436 256.565 235.026 256.565C234.586 256.565 234.196 256.7 233.856 256.97C233.526 257.23 233.286 257.605 233.136 258.095H236.361ZM242.091 261.05L242.451 258.98L248.376 252.2H251.256L250.086 258.83H251.316L250.926 261.05H249.696L249.351 263H246.771L247.131 261.05H242.091ZM248.376 255.02L245.181 258.83H247.701L248.376 255.02ZM255.057 260.12C255.047 260.17 255.042 260.235 255.042 260.315C255.042 260.495 255.092 260.625 255.192 260.705C255.302 260.785 255.477 260.825 255.717 260.825H256.632L256.242 263H254.937C253.257 263 252.417 262.295 252.417 260.885C252.417 260.675 252.442 260.41 252.492 260.09L253.092 256.76H252.072L252.447 254.63H253.467L253.827 252.59H256.392L256.032 254.63H257.712L257.337 256.76H255.657L255.057 260.12ZM263.801 254.54C264.621 254.54 265.266 254.775 265.736 255.245C266.216 255.715 266.456 256.37 266.456 257.21C266.456 257.49 266.426 257.79 266.366 258.11L265.496 263H262.946L263.756 258.455C263.786 258.285 263.801 258.135 263.801 258.005C263.801 257.585 263.681 257.26 263.441 257.03C263.211 256.8 262.886 256.685 262.466 256.685C261.966 256.685 261.546 256.84 261.206 257.15C260.866 257.46 260.646 257.895 260.546 258.455V258.425L259.736 263H257.171L259.136 251.9H261.701L261.026 255.74C261.356 255.37 261.761 255.08 262.241 254.87C262.721 254.65 263.241 254.54 263.801 254.54Z" fill="#191D21"/>
</svg>
